<?xml version="1.0" encoding="UTF-8"?>
<svg width="20px" height="14px" viewBox="0 0 20 14" version="1.1" xmlns="http://www.w3.org/2000/svg" xmlns:xlink="http://www.w3.org/1999/xlink">
    <title>BZ</title>
    <defs>
        <style>
        .cls-1,
        .cls-12,
        .cls-18,
        .cls-21,
        .cls-24,
        .cls-27,
        .cls-28,
        .cls-30,
        .cls-35,
        .cls-50,
        .cls-51,
        .cls-53,
        .cls-56,
        .cls-8 {
            fill: none;
        }

        .cls-2 {
            clip-path: url(#clip-path);
        }

        .cls-13,
        .cls-3 {
            fill: #d90f19;
        }

        .cls-3,
        .cls-4 {
            fill-rule: evenodd;
        }

        .cls-4,
        .cls-49 {
            fill: #171696;
        }

        .cls-10,
        .cls-14,
        .cls-15,
        .cls-16,
        .cls-34,
        .cls-36,
        .cls-40,
        .cls-44,
        .cls-5 {
            fill: #fff;
        }

        .cls-20,
        .cls-39,
        .cls-6 {
            fill: #d67c59;
        }

        .cls-10,
        .cls-11,
        .cls-12,
        .cls-13,
        .cls-14,
        .cls-15,
        .cls-16,
        .cls-18,
        .cls-19,
        .cls-20,
        .cls-21,
        .cls-22,
        .cls-24,
        .cls-25,
        .cls-31,
        .cls-32,
        .cls-33,
        .cls-35,
        .cls-36,
        .cls-37,
        .cls-38,
        .cls-39,
        .cls-40,
        .cls-41,
        .cls-42,
        .cls-43,
        .cls-44,
        .cls-45,
        .cls-46,
        .cls-50,
        .cls-52,
        .cls-53,
        .cls-55,
        .cls-6 {
            stroke: #000;
        }

        .cls-10,
        .cls-11,
        .cls-12,
        .cls-16,
        .cls-18,
        .cls-19,
        .cls-21,
        .cls-22,
        .cls-24,
        .cls-25,
        .cls-27,
        .cls-28,
        .cls-29,
        .cls-30,
        .cls-50,
        .cls-51,
        .cls-52,
        .cls-53,
        .cls-6,
        .cls-7,
        .cls-8 {
            stroke-miterlimit: 2.42;
        }

        .cls-12,
        .cls-13,
        .cls-14,
        .cls-15,
        .cls-16,
        .cls-18,
        .cls-25,
        .cls-29,
        .cls-6,
        .cls-7,
        .cls-8 {
            stroke-width: 0.01px;
        }

        .cls-54,
        .cls-7 {
            fill: #338a00;
        }

        .cls-7 {
            stroke: #030;
        }

        .cls-8 {
            stroke: #004b00;
        }

        .cls-9 {
            fill: #9dc9e2;
        }

        .cls-10,
        .cls-11,
        .cls-50 {
            stroke-width: 0.01px;
        }

        .cls-11,
        .cls-48 {
            fill: #ffe682;
        }

        .cls-12,
        .cls-15,
        .cls-36,
        .cls-42,
        .cls-43,
        .cls-44,
        .cls-45,
        .cls-46 {
            stroke-linecap: round;
        }

        .cls-13,
        .cls-14,
        .cls-15,
        .cls-36,
        .cls-42,
        .cls-44,
        .cls-46 {
            stroke-linejoin: round;
        }

        .cls-17,
        .cls-19 {
            fill: #006ac8;
        }

        .cls-19 {
            stroke-width: 0.01px;
        }

        .cls-20 {
            stroke-miterlimit: 5.19;
            stroke-width: 0.01px;
        }

        .cls-21 {
            stroke-width: 0.01px;
        }

        .cls-22,
        .cls-25,
        .cls-38 {
            fill: #e8e8e6;
        }

        .cls-22 {
            stroke-width: 0.01px;
        }

        .cls-23 {
            fill: #ccb8c8;
        }

        .cls-24 {
            stroke-width: 0.01px;
        }

        .cls-26 {
            fill: #4d4d4d;
        }

        .cls-27,
        .cls-28 {
            stroke: #4d4d4d;
            stroke-width: 0.02px;
        }

        .cls-28 {
            stroke-linecap: square;
        }

        .cls-29 {
            fill: #358b03;
        }

        .cls-29,
        .cls-56 {
            stroke: #060;
        }

        .cls-30 {
            stroke: #4d4b4d;
            stroke-width: 0.01px;
        }

        .cls-31,
        .cls-42,
        .cls-43 {
            fill: #ad7c59;
        }

        .cls-31 {
            fill-opacity: 0.99;
        }

        .cls-31,
        .cls-32,
        .cls-33,
        .cls-34,
        .cls-35,
        .cls-37,
        .cls-38,
        .cls-39,
        .cls-40,
        .cls-41,
        .cls-43,
        .cls-45 {
            stroke-miterlimit: 3.48;
        }

        .cls-31,
        .cls-32,
        .cls-33,
        .cls-34,
        .cls-35,
        .cls-38,
        .cls-39,
        .cls-40,
        .cls-41,
        .cls-42,
        .cls-43,
        .cls-45,
        .cls-46 {
            stroke-width: 0.01px;
        }

        .cls-32 {
            fill: #b68a6a;
        }

        .cls-34,
        .cls-51 {
            stroke: #fff;
        }

        .cls-36 {
            stroke-width: 0.01px;
        }

        .cls-37,
        .cls-44 {
            stroke-width: 0.01px;
        }

        .cls-41,
        .cls-45,
        .cls-46,
        .cls-47 {
            fill: #653024;
        }

        .cls-51 {
            stroke-width: 0.01px;
        }

        .cls-52 {
            stroke-width: 0.01px;
        }

        .cls-53 {
            stroke-width: 0.02px;
        }

        .cls-54 {
            stroke: #075400;
            stroke-miterlimit: 5.56;
            stroke-width: 0.01px;
        }

        .cls-55 {
            fill: #ad7d5a;
            stroke-width: 0.01px;
        }

        .cls-55,
        .cls-56 {
            stroke-miterlimit: 2.59;
        }

        .cls-56 {
            stroke-width: 0.01px;
        }

        .cls-57 {
            fill: #5ac800;
        }
        </style>
        <clipPath id="clip-path">
            <rect class="cls-1" width="20" height="14" rx="2" />
        </clipPath>
    </defs>
    <g class="cls-2">
        <g id="Flag">
            <path class="cls-3" d="M0,0H20V14H0Z" />
            <path class="cls-4" d="M0,1.33H20V12.5H0Z" />
            <circle class="cls-5" cx="9.98" cy="6.98" r="4.08" />
            <path class="cls-1" d="M10.2,4.75h0c.08,0,.08.08.15.08h0V4.9h0V5h.08l.08.08h.08c-.16-.08-.16-.08-.16-.16a.12.12,0,0,1,.16,0l.46.24h0V5.06l.08.08h.08l.08.07s.07,0,0-.07a.07.07,0,0,1,.07.07h0V5.14l.08-.08h.16L11.52,5a.08.08,0,0,0-.08-.08h0a.07.07,0,0,0-.08-.07h0s0-.08-.07,0h-.08V4.75h-.16V4.67L11,4.75h0s-.08.08-.08,0V4.67l-.08.08v.08h-.16a.07.07,0,0,1-.07-.08h-.08V4.67h0v0h0V4.59a.08.08,0,0,0-.08.08H10v.08a.08.08,0,0,0-.08.08H10s-.08,0-.08.07H10c0-.15.08-.15.16-.15h0" />
            <path class="cls-1" d="M10.12,4.05h0c0-.08.08-.08.08,0V4a.08.08,0,0,1,.08.08h.15v.08h.16a.25.25,0,0,1,.15.07c.08,0,.08.08,0,.08l.08.08h-.08v.08a.08.08,0,0,1-.08-.08v.08a.07.07,0,0,1-.07-.08h-.08l-.08-.08h-.15V4.13a.07.07,0,0,1-.08.07V4.13h-.08a.08.08,0,0,1,.08-.08h-.08" />
            <path class="cls-6" d="M10.66,4.28h0a.08.08,0,0,1,.08.08h0c0,.08,0,0-.08-.08Zm-.15.7h0V5h0m.54-.08L11,5l.07-.08h0M10,5.21h0c-.07.08-.07.08-.07.16v.08a.83.83,0,0,1,.07.31v.15A.08.08,0,0,0,10,6h0V5.37C10,5.21,10,5.14,10,5.21s-.07-.07-.07-.15-.08-.16-.08-.31c0,0-.08,0-.23-.16s-.16-.08-.24-.15h.08V4.36h0v.15c0,.08.08.16.16.24a.29.29,0,0,0,.07-.16V4.44h.08v.07h.08a.08.08,0,0,1-.08.08V4.9a.28.28,0,0,1,.08.16c.15,0,.23.08.15.15.08,0,.08,0,.08.08V5.6c0,.08.08,0,.08,0a.22.22,0,0,0,.08-.15h0V5.6l.15-.07h.08V5.6h.08l-.16.08a.72.72,0,0,1-.23.08.17.17,0,0,0-.16.15v.47H9.73s.08-.15,0-.23L9.5,5.91c-.08-.07.08,0,.08,0V5.84L9.65,6a.29.29,0,0,0,0-.39L9.5,5.45H9.34c-.08,0-.31,0-.39-.08h.16s0,.08.15.08.16,0,.16-.16H9.5v.16a.28.28,0,0,0,.15.08h.16c.08-.32.08-.32.15-.32s0-.07,0,0Z" />
            <path class="cls-6" d="M10,5.06h0c.08-.08.08-.16.16-.23s.08-.16,0-.16h0v.08a.08.08,0,0,0,.08-.08h0c.08.08-.08.23-.24.39ZM8.8,4.67a.25.25,0,0,0,.08.16h0c.07-.08,0-.16-.08-.16h0M9,4.59v.16H9a.11.11,0,0,0,0-.16ZM10.2,4.2v.24h.08V4.36l.15-.08h0l-.08.08h-.07s-.08,0-.08-.16Zm.46.78v.16h0c.08,0,0-.16,0-.16h0m.16.08-.08.08.08-.08h0" />
            <path class="cls-7" d="M10.2,4.75h0c.08,0,.08.08.15.08h0V4.9h0V5h.08l.08.08h.08c-.16-.08-.16-.08-.16-.16a.12.12,0,0,1,.16,0l.46.24h0V5.06l.08.08h.08l.08.07s.07,0,0-.07a.07.07,0,0,1,.07.07h0V5.14l.08-.08h.16L11.52,5a.08.08,0,0,0-.08-.08h0a.07.07,0,0,0-.08-.07h0s0-.08-.07,0h-.08V4.75h-.16V4.67L11,4.75h0s-.08.08-.08,0V4.67l-.08.08v.08h-.16a.07.07,0,0,1-.07-.08h-.08V4.67h0v0h0V4.59a.08.08,0,0,0-.08.08H10v.08a.08.08,0,0,0-.08.08H10s-.08,0-.08.07H10c0-.15.08-.15.16-.15h0Z" />
            <path class="cls-7" d="M10.12,4.05h.08V4a.08.08,0,0,1,.08.08h.15v.08h.16a.25.25,0,0,1,.15.07c.08,0,.08.08,0,.08l.08.08h-.08v.08a.08.08,0,0,1-.08-.08v.08l-.07-.08h-.08l-.08-.08h-.15V4.13a.07.07,0,0,1-.08.07V4.13h-.08a.08.08,0,0,1,.08-.08Zm-.47.31h0l-.07.08h0v.07H9.5V4.44a.07.07,0,0,1-.08.07h0V4.44H9.34a.08.08,0,0,1,.08-.08V4.28H9.5V4.2l.08-.07V4.05h.07V4h.16l.08.08H10v.08H10V4.2h.08v.08a.25.25,0,0,1,.16.08h0v.08H10.2v.07h-.08s-.08,0-.08-.07H10a1.66,1.66,0,0,0-.31-.08Z" />
            <path class="cls-7" d="M9,4.51,9,4.59V4.51H9V4.44s.08-.08.08,0,.08-.08-.08-.08h.16l-.08-.08h0V4.2H9V4.13H8.72V4.2H8.56v.08H8.41v.16l.08-.08-.08.08h.08V4.36h.15c.24.31.24.31.31.15-.07.08,0,.08,0,0Zm-.31.32h0v.23L8.8,5h0L9,4.9h.08L9.19,5H9.11l.08.08h.23L9.5,5h.08V4.9h.15l.08-.07h0s.08.07.08,0V4.75H10a.07.07,0,0,0-.07-.08s.07,0,0-.08h0V4.51H9.81V4.44l-.16-.08H9.58L9.5,4.28l-.08.08H9.34l-.08-.08-.07.08h0s-.08-.08-.08,0L9,4.44H9l-.07.07H8.8v.08l-.16.24Zm1,.93h0l.08-.08.08.08v0l.08-.08h0V5.6s.07-.07,0-.07h0l-.08-.08H9.73l-.08-.08H9.58L9.5,5.29H9v.08H9l-.07.08H8.8l-.08.08.08.07v.08h.08v.08H9v.08L9,5.76l.08.08V5.76h0V5.68h0l.08-.08.07.08.39.08Zm.47-.23V5.37H10V5.29h0V5.21h0l.08-.07h.16V5.06h.07L10.43,5h0v.08h.08l-.08.08h.39l.08.07H11v.08s0,.08.07.08h.08a.08.08,0,0,1-.08.08v.08L11,5.6h0v.08L10.9,5.6v.08l-.08-.08v.08l-.08-.08h-.08l-.07-.07h-.16v0h-.08l-.07.07V5.53l-.08.07v0a.07.07,0,0,0-.08-.07Zm0,.23h0l.16-.08.07-.08h.08v0l.08.08h.08v.08h.07v.08h.08v.07a.11.11,0,0,1,0,.16L10.66,6v.08h-.07l-.08.08-.08-.08v.08A.28.28,0,0,1,10.35,6h0l-.07-.08-.08-.07a.29.29,0,0,1-.16.07V5.84H10s.16,0,.16-.08Z" />
            <path class="cls-8" d="M10.74,4.44h0a.07.07,0,0,1,.08.07H11l-.08.08a.08.08,0,0,1,.08.08l-.08.08h-.08v.08h-.08m.39-.16V4.59l.08.08c.08,0,0-.08,0-.08h.08V4.51h.07M10.28,4.2h0c-.08-.15.07,0,0,0m.15,0h0c0-.07.08,0,.16,0V4.13h.07m-.54,0h0m-.54.23h0l.07-.08h0s.08,0,0-.08h.08V4.13m-.31.31h0m-.54.15v0m.23-.08L9,4.44m-.31.15h0m.54,1.17h.08l.08-.08.08.08m.93-.39h0l.08-.08V5.21h.08V5.14h.07V5.06a.08.08,0,0,1,.08.08V5.06h.08V5" />
            <path class="cls-8" d="M10.59,5.29h.07l.08.08h.08l.08.08h0l.08.08V5.45h.07l.08-.08M9.19,5.06h0c0-.08.07,0,.07,0V5l.08.08V5H9.5V4.9h.08V4.83h.07V4.75m.7,1.09h.08l.08-.08.08.08V5.76h.15V5.68h0" />
            <path class="cls-9" d="M9.19,8.33C9.11,8.25,9.11,8.17,9,8L10,7.16,10.9,8a.61.61,0,0,1-.16.32H9.19" />
            <path class="cls-10" d="M10,6.23v.93L9,8A2.1,2.1,0,0,1,9,7.39V6.23h1" />
            <path class="cls-11" d="M10,6.23v.93L10.9,8A2.1,2.1,0,0,0,11,7.39V6.23H10" />
            <path class="cls-6" d="M9.42,8.17c.08.08.08,0,.23.08a.85.85,0,0,0,.47.08h.31a.08.08,0,0,0,.08-.08l-.16.15h-.7l-.23-.23Z" />
            <path class="cls-12" d="M10.28,7.86s.15.08,0,.31m-.86,0,.31-.23v.39m.08-.08V7.63m.47.62V7.63M10,8.25V7.63" />
            <path class="cls-13" d="M9.81,7.7l-.16.08.16-.08h0M10,7.63l-.15.07L10,7.63Zm.24,0-.16.07.16-.07Zm.07.31h0c.08,0,.08.07.08.15h-.08V7.94Z" />
            <path class="cls-14" d="M9.42,8.09l.23-.23V8s-.15.08-.15.16l-.08-.08m.16.08s0-.08.07-.08v.16l-.07-.08Zm.31-.39H10v.08H9.89V7.78Zm-.16,0h.16v.16a.11.11,0,0,0-.16,0,.11.11,0,0,1,0-.16Z" />
            <path class="cls-15" d="M9.73,7.94h.16V8H9.73C9.65,8,9.65,7.94,9.73,7.94Zm.16-.08h.23V8S10,7.94,9.89,8V7.86ZM9.65,8h.16v.16H9.65V8Zm.24,0h.23a.11.11,0,0,0,0,.16s-.23-.08-.23,0-.08-.08,0-.16Zm.23-.23h.16v.08h-.16Zm0,.08h.16v.08h-.16V7.86Zm0,.15h.16v.16a.11.11,0,0,0-.16,0V8Z" />
            <path class="cls-16" d="M10.35,8a.25.25,0,0,0,.08.16l-.08.08-.07-.08A.29.29,0,0,0,10.35,8Z" />
            <path class="cls-17" d="M10.82,8.33A1.69,1.69,0,0,1,10,9a1.88,1.88,0,0,1-.85-.62h1.63" />
            <path class="cls-18" d="M10.74,8.4H9.19" />
            <path class="cls-19" d="M9.42,8.48H9.34c0,.08,0,.08.08,0H9.34l.24.23A1.56,1.56,0,0,0,10,9a.63.63,0,0,0,.39-.24.8.8,0,0,0,.31-.23H9.5c-.08.08-.08,0-.08,0Z" />
            <path class="cls-19" d="M10,9a.63.63,0,0,0,.39-.24H9.65A.87.87,0,0,0,10,9Z" />
            <path class="cls-20" d="M9.11,6.3h0C9,6.38,9,6.38,9,6.46l.31.23c.08.08.08.08.16.08l.31.31s.08.08,0,.08v.08h0a.08.08,0,0,1,.08-.08H9.81a.08.08,0,0,1-.08-.08L9.65,7a.54.54,0,0,0-.23-.23.25.25,0,0,0-.08-.16c.08,0-.08-.23-.23-.31Z" />
            <path class="cls-21" d="M9.11,6.46l.31.31" />
            <path class="cls-22" d="M9.5,6.54h0c0-.08.08-.24.15-.24l.24.16s-.08.15-.16.15c.08.08-.23,0-.23-.07Z" />
            <path class="cls-23" d="M9.73,6.61a.29.29,0,0,0-.15-.07v.07l.23.16c0-.08-.08-.08-.08-.16Z" />
            <path class="cls-24" d="M9.58,6.54l.07.07.16.16" />
            <path class="cls-6" d="M9,7.31l.55-.7a.07.07,0,0,1,.07.08l-.54.78c0-.08,0-.08-.08-.16Z" />
            <path class="cls-6" d="M11,7.31h0a.16.16,0,0,1-.16-.15l-.54-.7.07-.08L10.9,7c-.08.08,0,.16.08.31Z" />
            <path class="cls-25" d="M10.43,6.54l-.08-.08a.07.07,0,0,0-.07.08.29.29,0,0,1-.16.07s0,.16.23.24l.08-.16c-.08-.08,0-.08,0-.15Z" />
            <path class="cls-6" d="M10.2,7.08h-.08c0-.08,0-.08.08,0h0m.62-.62h0V6.38c-.08,0-.08,0,0,.08Z" />
            <path class="cls-25" d="M10.2,7.08l.62-.62.16.15H10.9v.08h-.08v.08h-.08v.08h-.08v.08h-.07V7h-.08v.08h-.08v.08h-.08v.08h-.07v.07H10.2v.08h-.08v.08H10v.08H10v.08h0V7.7h0v.08h0Z" />
            <path class="cls-26" d="M10.82,6.46h0l-.08.23h0a.37.37,0,0,0,.08-.23m-.16.08h0v.23h0V6.54M10.28,7h0v.16h0V7h0" />
            <path class="cls-27" d="M10.28,6.54l.07.07m-.07,0h0m0,0h0m0,0h0m.07,0h0m-.07-.07-.08.07m0,0h0m0,0h0m0,0h0" />
            <path class="cls-28" d="M9.81,6.69h0l.08-.08" />
            <path class="cls-29" d="M7.71,8.48V8.33c0-.08.08.15.15.15a1.2,1.2,0,0,0,.32-.15l.07-.16v.08a.28.28,0,0,0,.08-.16v.08a.28.28,0,0,1,.08.16c0,.07.08-.08.08-.08H8.8A1.46,1.46,0,0,1,9,8v.08L9,8a1.48,1.48,0,0,0,.93.86A1.48,1.48,0,0,0,10.9,8l.15.16s.16,0,.16-.08l.31.08h.08V8.09s.15,0,.15.08a.08.08,0,0,1,.08-.08l.08.08.31.08v.08h.08V8.4a.08.08,0,0,1-.08.08h.08c.08,0,0,.08-.08.08v.08h-.08v.07s-.08,0-.08-.07v.07s-.15,0-.15-.07h-.08a.28.28,0,0,0-.15-.08v.08l-.08-.08h0l-.08-.08-.08.08-.08-.08-.07.08a.08.08,0,0,0-.08-.08v.08h-.16v.08a.24.24,0,0,1-.15-.08v.08h-.08l-.08.07h-.08v.08s-.15-.08-.15,0v.08h-.16V9s-.15-.08-.15,0L10.12,9h0L10,9H10S9.81,9,9.81,9V8.87H9.73l-.08-.08c0-.08-.07,0-.07,0V8.71H9.5a.07.07,0,0,1-.08-.07H9l.08-.08L9,8.48H8.72V8.4a.08.08,0,0,0-.08.08V8.4a.22.22,0,0,0-.15.08V8.4l-.08.08V8.4l-.08.08V8.4a.72.72,0,0,1-.23.08V8.4H7.94s-.15-.07-.15,0a.07.07,0,0,1,.07-.07.24.24,0,0,0-.15-.08h.08l-.08-.16c-.16.39-.08.31,0,.39Z" />
            <path class="cls-6" d="M7.48,5.84,9.11,5c0-.08,0-.08-.08-.08-.47.24-.85.47-1.4.7a1.17,1.17,0,0,0-.39.31L7.16,6v.08h0L7.24,6c.16,0,.24-.08.24-.15Z" />
            <path class="cls-25" d="M8.8,5.06,9,5l.08.08a.28.28,0,0,0,.15.23,1,1,0,0,1-.38.24V5.21h0a.22.22,0,0,1-.08-.15Z" />
            <path class="cls-30" d="M9,5.06a.24.24,0,0,0-.15.08m.07,0v.07m0-.07v.07m0-.07H9m-.07,0h0m.15,0a.24.24,0,0,1,.08.15M9,5.14l.08.07M9,5.21a.08.08,0,0,0,.08.08M9,5.29H9" />
            <path class="cls-20" d="M10.51,4.67a.08.08,0,0,0-.08.08c-.08.08-.08.15.16.23h0l.62.31c.15.08.15,0,.23,0l1.17.62a.24.24,0,0,0,.15.08v.08h.08V6h0V5.91h0c.08,0,0-.07,0-.07h-.15a.28.28,0,0,0-.16-.08.27.27,0,0,0-.23-.08,9.87,9.87,0,0,1-.94-.47s-.07-.15-.15-.15-.47-.23-.7-.31c.08-.08,0-.08,0-.08Z" />
            <path class="cls-31" d="M8.63,5.17h0v.09l-.1.09a.12.12,0,0,1-.18,0h0a.1.1,0,0,1-.1.1l-.37.18v.19h0l-.09.09s-.1,0-.1-.09V5.63H7.6v.1l-.19.09v.09a.43.43,0,0,0,.1.28l.09.1h.09a.1.1,0,0,1,.1-.1A.31.31,0,0,0,7.88,6s.09.18,0,.28h.65v-.1a.1.1,0,0,0,.1.1.09.09,0,0,0,.09-.1V6h.47l-.1-.1H8.81V5.45a.31.31,0,0,0-.18-.1.32.32,0,0,1-.19-.09c.09.09.19,0,.19-.09" />
            <path class="cls-32" d="M8.25,4.89v.37a.09.09,0,0,0,.1.09.12.12,0,0,0,.18,0s.1,0,.1-.09V5.17h0v-.1h0V5h0c-.19,0-.28-.09-.38-.09h0" />
            <path class="cls-33" d="M8.25,5c-.09,0-.09-.09,0,0V4.89h.28l.1.09v.28h-.1V5.07H8.35c0-.09-.1-.18-.1-.09h0" />
            <path class="cls-34" d="M8.25,4.89Z" />
            <path class="cls-35" d="M8.35,5.07h0m.18.1h0m.1-.1h0" />
            <path class="cls-35" d="M8.25,5h0a.09.09,0,0,1,.1.09v.1h0m0-.1h.18m-.09.19H8.35m-.1,0h.1m-.1,0h.1" />
            <path class="cls-36" d="M8.25,5.07Zm.19,0Z" />
            <g id="a">
                <path class="cls-35" d="M9.37,6.19h0L9.28,6.1m0,.09h0c-.09,0-.09,0-.09-.09M7.79,6l.09.09v.09M7.6,6a.48.48,0,0,0,.09.28M7.6,5.82h0M8,6.1C8,6,8.07,6,8.07,6" />
                <path class="cls-35" d="M8.07,6.1V5.73s0,.18-.1.18m.75.28V5.73s.09.18-.09.18-.19-.09-.19-.09" />
                <path class="cls-35" d="M8.07,5.73a.18.18,0,0,0,.18.18c.1,0,.1,0,.19-.09m0,0V5.63m-.28-.09h.19m0-.19c0,.1,0,.1.09.1m.09-.1v.1m0,.09h.19m0,.47a.09.09,0,0,0,.09.09m-.65-.19v.47m.09-.47L8.16,6m.19,0a.83.83,0,0,0-.1.28s.1,0,.1.18m.09-.56h0m.09.1.1.18M8.44,6v.18m0,0c-.09,0-.09.1,0,0m.09,0s.1,0,.1.19m.28-.19h0a.1.1,0,0,0-.1.1" />
                <path class="cls-37" d="M8.16,5.91Zm.47,0h0c.09-.09,0-.09,0,0Z" />
                <path class="cls-38" d="M8,6.75c0-.18.1-.28.1-.37h.65v.09c0,.1.09.56.09.75V7.5c0,.19.1.65.1.84H8.53v-1c0-.09-.09-.18-.09-.28l-.09.38v.93s-.19.09-.19.19L8,8.43a3.87,3.87,0,0,1,.1-.74V7.5C8,7.5,8,6.94,8,6.75Z" />
                <path class="cls-35" d="M8.25,7.59c0,.1,0,.1-.09.1m0-1.12A1.3,1.3,0,0,1,8,6.85m.28-.28a7.48,7.48,0,0,0-.09,1m0,.1v.46m-.09.1a.87.87,0,0,0-.1.37m.75-.75a2.59,2.59,0,0,0,.09.66m-.46-2v.37A.09.09,0,0,0,8.44,7v.1m-.19-.28a.48.48,0,0,1-.09.28m.37-.56h.1a5.66,5.66,0,0,0,.09,1m-.28-.93V7m.09,0h0m-.37-.46h0m.19,0v.09m.18.84v.09" />
                <path class="cls-39" d="M8.07,6.47V6.38h.65v.09H8.07Z" />
                <path class="cls-40" d="M8.16,6.47V6.38h0v.09Zm.47-.09v.09h0V6.38Zm-.38,0v.09h0V6.38Z" />
                <path class="cls-41" d="M7.88,8.53v.18L8,8.62V8.34a.09.09,0,0,0-.09.09c.09.19,0,.1,0,.1Zm.65-.1h0c0,.1,0,.1.1.1h.18a.66.66,0,0,0-.28-.1Z" />
            </g>
            <path class="cls-42" d="M7.41,5.73h0c0-.1,0-.1.1-.1h.18a.1.1,0,0,1,.1.1v.09h0c-.28-.09-.28-.09-.38-.09Z" />
            <path class="cls-43" d="M7.6,5.63h0m0,0h0a.09.09,0,0,0-.09-.09m0,.19h0a.1.1,0,0,1-.1-.1" />
            <path class="cls-41" d="M11.43,5.16h0v.1h0a.14.14,0,0,0,.19,0h0a.09.09,0,0,0,.09.09l.37.19v.18h0l.1.1a.09.09,0,0,0,.09-.1V5.54h.09v.09l.19.09v.1a.48.48,0,0,1-.09.28l-.1.09h-.09a.09.09,0,0,0-.09-.09.35.35,0,0,1-.1-.19s-.09.19,0,.28h-.65V6.1l-.09.09c-.1,0-.1,0-.1-.09V5.91h-.46l.09-.09h.28V5.35a.2.2,0,0,1,.19-.19.31.31,0,0,0,.18-.09c-.09.28-.09.19-.09.09" />
            <path class="cls-41" d="M11.8,4.88v.19c0,.09,0,.09-.09.19a.09.09,0,0,1-.09.09h-.19V5.26h0v-.1h0V5.07h0a.5.5,0,0,1,.37-.19h0" />
            <path class="cls-33" d="M11.8,5V4.79h-.37a.09.09,0,0,0-.09.09v.28h0V5h.18c.19,0,.28-.1.28,0Z" />
            <path class="cls-35" d="M11.62,5.07h0m-.19.09h0" />
            <path class="cls-35" d="M11.8,5.07c0-.09-.09,0,0,0h0l-.09.09h0m-.09-.09h-.19m.28.19h-.09m.09,0h-.09m0,0h.09" />
            <path class="cls-44" d="M11.8,5.07Zm-.18,0Z" />
            <path class="cls-37" d="M11.8,5.07Zm-.28,0Z" />
            <path class="cls-45" d="M12.55,5.82h0v-.1h-.19l-.09.1v.09h0V6h0c.19-.18.19-.18.28-.18h0Z" />
            <path class="cls-46" d="M12.36,5.72h0m0,0h0c0-.09.1-.09.1-.09m0,.19h0c.09,0,.09-.1.09,0" />
            <path class="cls-47" d="M12.36,5.63h0v.09h.1l-.1-.09Z" />
            <path class="cls-41" d="M12.27,5.63c0,.09.09.09,0,0h0c.09.19.09.09.09.09h0m0-.09h0m.1.09h0m.09,0h0" />
            <path class="cls-48" d="M10,9.8a1.32,1.32,0,0,0,.94-.31c.39-.23.46-.23.54-.23s.16,0,.16.08-.16.15-.24.15a1.91,1.91,0,0,1-.31-.08L11,9.49c.07,0,.54.16.62,0a2.54,2.54,0,0,0,.15-.39A.32.32,0,0,0,11.44,9a1.48,1.48,0,0,0-.62.23,1.62,1.62,0,0,1-.86.23,1.35,1.35,0,0,1-.85-.23A1.48,1.48,0,0,0,8.49,9a.32.32,0,0,0-.31.15,2.54,2.54,0,0,0,.15.39c.08.16.55,0,.62,0l-.07-.08a1.81,1.81,0,0,1-.32.08c-.07,0-.23-.08-.23-.15s.08-.08.16-.08.15,0,.54.23A1.84,1.84,0,0,0,10,9.8" />
            <path class="cls-48" d="M9.19,9.18V9.1C9.19,9,9.11,9,9.11,9L9,9.1H9S9,9.1,9,9L9.11,9a2.34,2.34,0,0,1,.39.23s.08.16,0,.23a3.55,3.55,0,0,1-.31-.23h0M9,9.49A.28.28,0,0,0,9,9.65c0,.15.08.15.16.15s.15-.07.15-.23c0,.08-.07,0-.23-.08m1.79-.31V9.1c0-.07.08-.07.08-.07L11,9.1h0A.07.07,0,0,0,11.05,9L10.9,9a2.34,2.34,0,0,0-.39.23s-.08.16,0,.23.23-.15.31-.23h0m.16.31a.29.29,0,0,1,.07.16c0,.15-.07.15-.15.15s-.16-.07-.16-.23c-.08.08.08,0,.24-.08" />
            <path class="cls-49" d="M8.88,9.41a1.81,1.81,0,0,1-.32.08c-.07,0-.23-.08-.23-.15s.08-.08.16-.08.15,0,.39.15m2.17,0a1.91,1.91,0,0,0,.31.08c.08,0,.24-.08.24-.15s-.08-.08-.16-.08a1.27,1.27,0,0,0-.39.15M9.19,9.18h0C9.11,9.1,9,9.1,9,9L9.11,9A.08.08,0,0,1,9.19,9v.15M9,9.8h.16c.07,0,.15-.07.15-.23a.35.35,0,0,0,.24.08v.08c0,.07,0,.07-.08.07a1.83,1.83,0,0,0-.39-.07C9,9.88,9,9.8,9,9.8m1.79-.62h0C10.9,9.1,11,9.1,11,9L10.9,9a.08.08,0,0,0-.08.08v.15M11,9.8h-.16c-.08,0-.16-.07-.16-.23a.31.31,0,0,1-.23.08v.08c0,.07,0,.07.08.07a1.69,1.69,0,0,1,.39-.07c0,.15.08.07.08.07" />
            <path class="cls-50" d="M10,9.8a1.32,1.32,0,0,0,.94-.31c.39-.23.46-.23.54-.23s.16,0,.16.08-.16.15-.24.15a1.91,1.91,0,0,1-.31-.08L11,9.49c.07,0,.54.16.62,0a2.54,2.54,0,0,0,.15-.39A.32.32,0,0,0,11.44,9a1.48,1.48,0,0,0-.62.23,1.39,1.39,0,0,1-.86.23,1.35,1.35,0,0,1-.85-.23A1.48,1.48,0,0,0,8.49,9a.32.32,0,0,0-.31.15,2.54,2.54,0,0,0,.15.39c.08.16.55,0,.62,0l-.07-.08a1.81,1.81,0,0,1-.32.08c-.07,0-.23-.08-.23-.15s.08-.08.16-.08.15,0,.54.23A1.84,1.84,0,0,0,10,9.8Z" />
            <path class="cls-50" d="M8.88,9.41a1.81,1.81,0,0,1-.32.08c-.07,0-.23-.08-.23-.15s.08-.08.16-.08.15,0,.39.15Zm2.17,0a1.91,1.91,0,0,0,.31.08c.08,0,.24-.08.24-.15s-.08-.08-.16-.08a1.27,1.27,0,0,0-.39.15ZM9.19,9.18h0C9.11,9.1,9,9.1,9,9L9.11,9A.08.08,0,0,1,9.19,9v.15Z" />
            <path class="cls-50" d="M9.19,9.18V9.1C9.19,9,9.11,9,9.11,9L9,9.1H9S9,9.1,9,9L9.11,9a2.34,2.34,0,0,1,.39.23s.08.16,0,.23a3.55,3.55,0,0,1-.31-.23M9,9.49A.28.28,0,0,0,9,9.65c0,.15.08.15.16.15s.15-.07.15-.23c0,.08-.07,0-.23-.08Z" />
            <path class="cls-50" d="M9.11,9.57A.28.28,0,0,0,9,9.73c0,.07.08.07.08.07s.15-.15.08-.15Z" />
            <path class="cls-50" d="M9,9.8h.16c.07,0,.15-.07.15-.23a.35.35,0,0,0,.24.08v.08c0,.07,0,.07-.08.07a1.83,1.83,0,0,0-.39-.07C9,9.88,9,9.8,9,9.8Zm1.79-.62h0C10.9,9.1,11,9.1,11,9L10.9,9a.08.08,0,0,0-.08.08v.15Z" />
            <path class="cls-50" d="M10.82,9.18V9.1c0-.07.08-.07.08-.07L11,9.1h0A.07.07,0,0,0,11.05,9L10.9,9a2.34,2.34,0,0,0-.39.23s-.08.16,0,.23.23-.15.31-.23m.16.31a.29.29,0,0,1,.07.16c0,.15-.07.15-.15.15s-.16-.07-.16-.23c-.08.08.08,0,.24-.08Z" />
            <path class="cls-50" d="M10.9,9.57a.28.28,0,0,1,.08.16c0,.07-.08.07-.08.07s-.08-.15-.08-.15Z" />
            <path class="cls-50" d="M11,9.8h-.16c-.08,0-.16-.07-.16-.23a.31.31,0,0,1-.23.08v.08c0,.07,0,.07.08.07a1.69,1.69,0,0,1,.39-.07c0,.15.08.07.08.07Z" />
            <path class="cls-51" d="M9.58,9.8a.12.12,0,0,1,0,.16m-.24-.23.24.07m-.24,0,.16.08m-.08-.15.16.07m.85,0a.11.11,0,0,0,0,.16m.23-.23-.23.07m.23,0-.15.08m.08-.15-.16.07" />
            <path class="cls-52" d="M8.64,9.1h0a.08.08,0,0,1-.08.08h0V9.1h0c0,.08,0,.08.08,0h0c.08-.07,0-.07,0,0h0V9h0c-.08,0-.08,0,0,.07h0M9,9.1H9c-.07,0-.07.08,0,0l-.07.08h0L9,9.1H9A.08.08,0,0,1,9,9.18H9V9.1H9M9,9.34H9L9,9.41l-.07-.07h0c0-.08.07-.08.07-.16H9A.08.08,0,0,1,9,9.26H9c.08,0,.08,0,0,.08Zm0-.08H9v0Zm0,.08H9c0-.08-.08-.08,0,0Zm.39.07h0l-.08.08h0l.08-.08H9.5a.08.08,0,0,1-.08.08h0c-.08,0-.08,0,0-.08h0m.23.24h0V9.49h0c0,.08-.07.08-.07.16h0V9.49h0v.08H9.5V9.49h.08v.16l.07-.08h.08l-.08.08h0m.24-.08h0v.08H9.81V9.49h.08v.08Zm-.08,0Zm0,.08Zm.31.08h0c-.08,0-.08,0-.08-.08V9.57h0v.08H10V9.49H10c0,.16,0,.16.08.24h0c-.08-.08,0-.08,0,0ZM10,9.57h0c0-.08-.08-.08,0,0Zm.31.08h0l-.15-.08h-.08V9.41h0c.08.16.16.16.23.24Zm-.15-.08Zm.39-.08h-.08v.08c0-.08,0-.08.08-.08h0v.08h0V9.49h0l-.08.08v.08h-.08V9.49h0c.08-.08.08-.08.16,0h0m.23-.08h0l-.08.16h0c0-.08-.08-.08-.08-.16h.08l.08.08c-.08,0-.08,0,0-.08l-.08.08h0l.08-.08h0m.08-.15h0l.08.08h0V9.26H10.9Zm.08.15h0c0-.07,0-.07-.08-.07h0c0,.07,0,.07.08.07Zm.23-.15h-.16v.08h0a.07.07,0,0,0-.07.07h0l-.08-.07h0A.08.08,0,0,0,11,9.26h.23Zm-.16-.08h0c-.07,0,0,.08,0,0Zm.31-.08h0l-.15.08h0c0-.08,0-.08-.08-.15h0L11.29,9l.07.15h0L11.29,9h0V9.1h.07L11.29,9c0,.07,0,.07.07.07h0c-.07,0-.07.08,0,0h-.07v.08h0l.07-.08h0M11.52,9h0V9.1h0V9h0c-.16,0-.08-.08,0,0Zm0,.07h0V9h0c-.08.15-.08.15,0,.07h0c-.08.08,0,.08,0,0Z" />
            <path class="cls-53" d="M11.05,6.23V7.39A1.54,1.54,0,0,1,10,9,1.65,1.65,0,0,1,8.88,7.39V6.23Z" />
            <path class="cls-54" d="M9.89,3.06c-.08,0-.16,0-.25.17h0c.25-.08.34.08.42.17a2.4,2.4,0,0,0-.75.08c-.08-.17-.42-.42-.58-.08a.32.32,0,0,1,.41.08,4.17,4.17,0,0,0-.58.25h0a.37.37,0,0,0-.67.08c.25-.25.42,0,.59-.08-.17.08-.42.25-.59.33h0a.33.33,0,0,0-.58.25c.17-.25.42-.08.58-.16l-.5.5h0c-.16-.17-.66-.17-.58.25.17-.25.42-.09.5-.25v.08A2,2,0,0,0,7,5.31c-.17-.08-.67,0-.5.42h0c.08-.33.41-.25.41-.33h0l-.25.75c-.16,0-.5.16-.33.5,0-.25.17-.25.25-.34V7c-.17.08-.42.42-.08.58a.35.35,0,0,1,.08-.41,1.79,1.79,0,0,0,.17.66.32.32,0,0,0,0,.59A.36.36,0,0,1,6.81,8a1.32,1.32,0,0,0,.33.58c-.16.17-.25.5.17.59a.42.42,0,0,1-.08-.42c.16.17.33.42.5.58-.17.17-.17.5.25.59-.17-.17-.09-.34-.09-.5a5.83,5.83,0,0,0,.67.5c0,.16.08.58.42.41-.17,0-.25-.16-.25-.33l.75.25a.34.34,0,0,0,.5.33c-.25,0-.25-.16-.34-.33.17,0,.42.08.59.08h.08c.08.17.25.5.58.17-.25.08-.33-.08-.41-.17a2.52,2.52,0,0,0,.75-.16.32.32,0,0,0,.58,0,.74.74,0,0,1-.42,0A1.43,1.43,0,0,0,12,9.81c.16.09.58.17.58-.25-.08.17-.25.17-.42.17.17-.17.42-.33.59-.5.16.08.58.08.5-.33-.09.16-.25.16-.42.16a2.43,2.43,0,0,0,.42-.58c.16,0,.58-.08.41-.5h0c0,.25-.16.25-.33.33l.25-.75c.17-.08.5-.25.17-.58a.43.43,0,0,1-.17.33V6.65c.17-.09.42-.34.17-.59.08.17-.09.34-.17.42,0-.17-.08-.42-.08-.58.16-.09.33-.5,0-.59.16.17,0,.34,0,.42a5,5,0,0,0-.25-.58c.16-.17.25-.5-.17-.59a.42.42,0,0,1,.08.42,2.26,2.26,0,0,0-.41-.5c.08-.17,0-.58-.34-.5.17.08.17.17.17.33-.17-.16-.33-.25-.5-.41.08-.17-.08-.59-.42-.42h0c.25,0,.25.17.25.33a1.64,1.64,0,0,0-.66-.33c0-.17-.09-.58-.5-.42.25,0,.25.25.33.34a2.79,2.79,0,0,0-.92-.17c0,.08-.08-.17-.25-.17Zm.09.42h0c-.09.08-.17.33-.42.25.25.33.58-.08.58-.25a3.25,3.25,0,0,1,.92.17c-.17,0-.33.16-.5.08.17.42.58.17.67,0a4.49,4.49,0,0,1,.66.33c-.16,0-.33.17-.58,0,.08.42.5.25.67.09l.5.5v.08c-.09-.08-.42.08-.59-.17,0,.42.5.34.67.17a3.64,3.64,0,0,1,.42.58c-.09-.08-.42,0-.5-.25-.17.42.33.5.5.42.08.17.16.42.25.67-.09-.09-.34-.09-.42-.34-.17.34.25.5.42.5a1.93,1.93,0,0,1,.08.67c-.08-.17-.33-.25-.25-.5-.33.33.08.58.25.58v.09a1.87,1.87,0,0,1-.08.66V7.9c0-.17-.34-.25-.25-.59-.34.25,0,.59.25.67L13,8.73c0-.17-.25-.33,0-.58-.42.16-.17.58,0,.66-.17.25-.25.42-.42.67.08-.17-.08-.42.17-.5-.42,0-.34.5-.25.58-.17.17-.42.34-.59.5,0-.16-.08-.33.17-.5a.39.39,0,0,0-.33.59,5.24,5.24,0,0,1-.67.33H11c.16-.08.16-.42.41-.42-.33-.25-.58.25-.5.42h0a2.54,2.54,0,0,1-.75.17c.17-.09.25-.34.5-.25-.25-.34-.58,0-.66.25H9.89a1.67,1.67,0,0,1-.66-.09H9.14c.17.09.34-.25.59,0-.17-.41-.59-.16-.67,0h0a2.37,2.37,0,0,1-.83-.33h0c.16.08.33-.17.58,0-.08-.42-.58-.25-.67-.08a1.55,1.55,0,0,1-.58-.42c.17,0,.33,0,.42.25.08-.42-.42-.42-.59-.33-.16-.17-.33-.42-.5-.59.09.09.42,0,.5.25.09-.41-.33-.5-.58-.41a2.73,2.73,0,0,1-.33-.75c.08.16.41.16.41.41.25-.33-.25-.58-.41-.5-.09-.25-.09-.5-.17-.75.08.09.33.17.33.42a.31.31,0,0,0-.33-.5V6.56c.08.17.25.25.17.5.33-.16.08-.58-.09-.66a1.65,1.65,0,0,1,.17-.59.39.39,0,0,1,0,.42.32.32,0,0,0,.08-.58A1.71,1.71,0,0,1,7,5.15a.33.33,0,0,1-.17.33c.33,0,.33-.33.25-.58.17-.17.25-.34.42-.5,0,.16,0,.33-.17.41.42.09.42-.33.33-.5A1.7,1.7,0,0,0,8.06,4c0,.17-.08.33-.25.33a.33.33,0,0,0,.42-.41c.25-.09.41-.17.66-.25-.08.08-.16.33-.41.33.33.25.58-.17.58-.33A5,5,0,0,1,10,3.48Z" />
            <path class="cls-55" d="M7.89,8.56v.17L8,8.65v.08l.08-.08v.08a.08.08,0,0,1,.08-.08V8.4l-.08.08c-.08.17-.17.08-.17.08Zm.67-.08h0c0,.08,0,.17.08.17H9a.09.09,0,0,1-.09-.09H8.73a.28.28,0,0,0-.17-.08Z" />
            <path class="cls-56" d="M8.14,8.65v0l.09-.17h.08V8.4l.08.08V8.4l.09.08c0,.08.08-.08.08-.08v.08l.08-.08.09.08h.08v.08l.08-.08h.25V8.4h.09V8.31l.08.09V8.31h.08V8.23l.09.08V8.23l.08.08m1.08.34h0c.09-.09.09,0,.09,0h.33V8.56h0l.08-.08v.08s.09,0,.09-.08h.08V8.4h.08a.09.09,0,0,1,.09-.09V8.4l.08-.09V8.4l.08-.09V8.4h.09v.08h.08M9.39,8.9a.09.09,0,0,1,.09-.09l.08.09V8.81a.08.08,0,0,1,.08.09.09.09,0,0,1,.09-.09V8.9l.08-.09a.08.08,0,0,1,.08.09s.09-.09.09,0,.08,0,0,.08a.25.25,0,0,0,.16-.08l.09.08.08-.08a.08.08,0,0,1,.08.08V8.9s.09,0,.09.08a.08.08,0,0,1,.08-.08V9a.08.08,0,0,1,.08-.08" />
            <path class="cls-57" d="M8.14,8.65v0l.09-.17h.08V8.4l.08.08V8.4l.09.08c0,.08.08-.08.08-.08v.08l.08-.08.09.08h.08v.08l.08-.08h.25V8.4h.09V8.31l.08.09V8.31h.08V8.23l.09.08V8.23l.08.08a1.09,1.09,0,0,1-.67.09,1.93,1.93,0,0,1-.75.25m2.5,0h0c.09-.09.09,0,.09,0h.33V8.56h0l.08-.08v.08s.09,0,.09-.08h.08V8.4h.08a.09.09,0,0,1,.09-.09V8.4l.08-.09V8.4l.08-.09V8.4h.09v.08h.08a1.27,1.27,0,0,1-.58,0,.67.67,0,0,1-.59.17m-.16.16a.38.38,0,0,1-.34.25,2,2,0,0,1-.75-.16.09.09,0,0,1,.09-.09l.08.09V8.81a.08.08,0,0,1,.08.09.09.09,0,0,1,.09-.09V8.9l.08-.09a.08.08,0,0,1,.08.09s.09-.09.09,0,.08,0,0,.08a.25.25,0,0,0,.16-.08l.09.08.08-.08a.08.08,0,0,1,.08.08V8.9s.09,0,.09.08a.08.08,0,0,1,.08-.08V9c-.17-.08-.17-.17-.08-.17Z" />
        </g>
    </g>
</svg>