<?xml version="1.0" encoding="UTF-8"?>
<svg width="20px" height="14px" viewBox="0 0 20 14" version="1.1" xmlns="http://www.w3.org/2000/svg" xmlns:xlink="http://www.w3.org/1999/xlink">
    <title>KY</title>
    <defs>
        <style>
        .cls-1,
        .cls-13,
        .cls-17,
        .cls-23 {
            fill: none;
        }

        .cls-2 {
            clip-path: url(#clip-path);
        }

        .cls-3 {
            fill: #012169;
        }

        .cls-10,
        .cls-24,
        .cls-4,
        .cls-7 {
            fill: #fff;
        }

        .cls-25,
        .cls-4 {
            stroke: #fff;
        }

        .cls-4 {
            stroke-linecap: square;
            stroke-linejoin: round;
            stroke-width: 0.16px;
        }

        .cls-5 {
            fill: #fcea83;
        }

        .cls-10,
        .cls-11,
        .cls-12,
        .cls-13,
        .cls-14,
        .cls-15,
        .cls-16,
        .cls-17,
        .cls-18,
        .cls-23,
        .cls-5,
        .cls-6 {
            stroke: #000;
        }

        .cls-23,
        .cls-5 {
            stroke-width: 0.02px;
        }

        .cls-6 {
            fill: #db161c;
        }

        .cls-10,
        .cls-11,
        .cls-14,
        .cls-15,
        .cls-16,
        .cls-17,
        .cls-18,
        .cls-6 {
            stroke-width: 0.06px;
        }

        .cls-8 {
            fill: #c8102e;
        }

        .cls-9 {
            fill: #0b50a0;
        }

        .cls-11,
        .cls-19 {
            fill: #073163;
        }

        .cls-12,
        .cls-18,
        .cls-20 {
            fill: #f9d050;
        }

        .cls-12,
        .cls-13 {
            stroke-width: 0.03px;
        }

        .cls-14 {
            fill: #059334;
        }

        .cls-16,
        .cls-22 {
            fill: #00493d;
        }

        .cls-21 {
            fill: #024919;
        }

        .cls-24 {
            fill-rule: evenodd;
        }

        .cls-25,
        .cls-26 {
            stroke-miterlimit: 4.8;
        }

        .cls-25 {
            stroke-width: 2.33px;
        }

        .cls-26 {
            stroke: #c8102e;
            stroke-width: 1.4px;
        }
        </style>
        <clipPath id="clip-path">
            <rect class="cls-1" width="20" height="14" rx="2" />
        </clipPath>
    </defs>
    <g class="cls-2">
        <g id="Flag">
            <rect class="cls-3" width="20" height="14" />
            <path class="cls-4" d="M15,2.5a.22.22,0,0,0-.2.2c0-.1,0-.1-.1-.2,0,.1-.1.2,0,.3h-.3l-.3-.3a4.88,4.88,0,0,1,.3.7L14,2.8a.76.76,0,0,0,.2.4l-.6-.3a1.21,1.21,0,0,1,.5.5,1.42,1.42,0,0,0-.6-.2,2.65,2.65,0,0,1,.6.5l-.6-.3c.1.1.3.2.5.4h-.2c-.1,0-.1,0-.2-.1a.6.6,0,0,0-.4-.1h-.1c0,.2-.1.3-.1.4h.1a.22.22,0,0,0,.2.2h.1a.1.1,0,0,1,.1.1h0a.19.19,0,0,0,0,.3c.1,0,.1.1.2.1h0c-.1,0-.2,0-.2.1a.19.19,0,0,0,0,.3.1.1,0,0,1,.1.1h-1V7.3h0a3.59,3.59,0,0,0,.2,1.1l-.1-.1h-.1c-.1,0-.2.1-.3.1h0c-.1.1-.3.2-.4.3s-.3.2-.1.4a1.38,1.38,0,0,0,.3.4.4.4,0,0,1-.4-.2h0a.1.1,0,0,0-.1-.1c-.1-.1-.2-.3-.3-.2s-.1.1-.1.2a2.54,2.54,0,0,0,.2.7h0c.1.2.5.4,1.1.1h0a3.7,3.7,0,0,0,2.2.9,3.17,3.17,0,0,0,2.2-.9h0A.83.83,0,0,0,18,9.9h0a2.54,2.54,0,0,0,.2-.7c0-.1,0-.2-.1-.2s-.2.1-.3.2a.1.1,0,0,1-.1.1h0c0,.7-.1.7-.3.7.1-.1.2-.3.3-.4s0-.4-.1-.4-.3-.2-.4-.3h0c-.1-.1-.2-.2-.4-.1h0a.1.1,0,0,0-.1.1c0-.1,0-.1.1-.2h0c0-.2.1-.3.1-.5h0V7.8h0V5.4H14c.1,0,.2-.1.3-.1h0a.37.37,0,0,0,.3-.1h0c.1.1.4,0,.4,0s.4.1.4,0h0a.6.6,0,0,0,.4.1h0c.1.1.3.1.3-.1V4.9c0-.3-.2-.4-.2-.5h.2l.1-.1h-.1a.1.1,0,0,1-.1-.1h0c.3-.2.6-.3.7-.4a1.27,1.27,0,0,0-.6.1.72.72,0,0,1,0-.9,2.18,2.18,0,0,0-.8.5,5.72,5.72,0,0,0,.7-.8,2.76,2.76,0,0,0-.8.6,4.35,4.35,0,0,1,.4-.7,1.38,1.38,0,0,0-.4.3.52.52,0,0,1,.2-.4l-.2.2h-.1c-.1,0-.1-.1,0-.1-.1,0-.2,0-.2.1,0-.1,0-.1.1-.2Zm1.7,6.2ZM14.4,2.9c.1,0,.2,0,.2.1h-.1l-.1-.1Zm.6,0Zm-.4.1h0l-.1.1a.1.1,0,0,0-.1-.1Zm0,.1Zm.6.7Zm.4.9c0,.1.1.1.1.2,0-.1-.1-.1-.2-.1h-.2a.49.49,0,0,0,.3-.1Zm-1.2.1h0Zm.3,0ZM12.9,9h0a1.08,1.08,0,0,1-.3.7.1.1,0,0,0-.1-.1c0-.1.2-.2.2-.1a1.06,1.06,0,0,0,.2-.5Zm3.9.4h0c.1,0,.1,0,.2.1a.1.1,0,0,1-.1.1h0s-.1,0-.1-.2Zm-3.5.2.3.3h0a4.13,4.13,0,0,0,1.1.7h0a8.79,8.79,0,0,0,1-.6h0l.3-.3a2.19,2.19,0,0,0,.3.5,3,3,0,0,1-3.6,0,1.13,1.13,0,0,0,.6-.6Z" />
            <path class="cls-5" d="M11.4,10.4c.1.2.5.4,1.1.1a1.65,1.65,0,0,0,.8-1,.25.25,0,0,0-.1-.4c0-.1-.2-.2-.3-.3l-.1-.1.1.1a.69.69,0,0,1-.3.9c-.2.2-.5.6-1,.2-.1-.1-.3.2-.2.5Zm6.7,0c-.1.2-.5.4-1.1.1a2.23,2.23,0,0,1-.9-1,.25.25,0,0,1,.1-.4c.1-.1.3-.2.4-.3l.1-.1-.1.1a.76.76,0,0,0,.2.9c.2.2.5.6,1,.2.2-.1.4.2.3.5Z" />
            <path class="cls-5" d="M14.8,11.4a3.44,3.44,0,0,0,3-1.8c.1-.2,0-.4-.1-.4a1.38,1.38,0,0,1-.4-.3c.2.2.1.3,0,.5a2.76,2.76,0,0,1-4.8,0c-.1-.2-.2-.3,0-.5-.1.1-.3.3-.4.3s-.3.2-.1.4a2.89,2.89,0,0,0,2.8,1.8Z" />
            <path class="cls-6" d="M12.7,9.5c0-.1-.2-.1-.2.1-.1-.1-.1-.2-.2-.2-.1-.2-.2-.3,0-.5s.3-.2.4-.1C13,8.9,12.9,9.3,12.7,9.5Zm4.1,0c0-.1.2-.1.2.1.1-.1.1-.2.2-.2.1-.2.2-.3,0-.5s-.3-.2-.4-.1C16.5,8.9,16.6,9.3,16.8,9.5Zm-5.4.9a2.54,2.54,0,0,1-.2-.7c0-.1,0-.2.1-.2s.2.1.3.2.1.3.2.6C11.6,10.2,11.4,10.3,11.4,10.4Zm6.7,0a2.54,2.54,0,0,0,.2-.7c0-.1,0-.2-.1-.2s-.2.1-.3.2-.1.3-.2.6C18,10.2,18.1,10.3,18.1,10.4Z" />
            <path class="cls-7" d="M16.8,5.4V7.6a2.82,2.82,0,0,1-2.1,3,2.9,2.9,0,0,1-2.1-3V5.4Z" />
            <path class="cls-8" d="M14.8,7.2a.76.76,0,0,0,.4-.2c.1-.2.4-.2.6,0s.4.1.5,0a.59.59,0,0,1,.5-.2V5.4H12.7V6.8c.3,0,.4,0,.5.2a.33.33,0,0,0,.5,0q.45-.3.6,0c.2.1.3.2.5.2Z" />
            <path class="cls-9" d="M14.8,8.3a1.06,1.06,0,0,0,.5-.2.66.66,0,0,1,.6.1.64.64,0,0,0,.6,0,.76.76,0,0,1,.4-.1V7.4c-.2,0-.2,0-.4.2a.64.64,0,0,1-.6,0c-.2-.1-.5-.3-.7,0a.5.5,0,0,1-.8,0c-.2-.3-.5-.1-.7,0a.64.64,0,0,1-.6,0c-.2-.1-.2-.2-.4-.2V8a.76.76,0,0,1,.4.1.63.63,0,0,0,.6,0,.61.61,0,0,1,.6-.1A.55.55,0,0,0,14.8,8.3Zm0,.5a.76.76,0,0,0,.5-.2.64.64,0,0,1,.6,0,.45.45,0,0,0,.5,0c.1,0,.1-.1.3-.1a4.88,4.88,0,0,1-.3.7.63.63,0,0,1-.6,0,.88.88,0,0,0-.7-.1.85.85,0,0,1-.8,0c-.2-.1-.4,0-.7.1a.64.64,0,0,1-.6,0,4.88,4.88,0,0,1-.3-.7c.1,0,.2.1.3.1a.45.45,0,0,0,.5,0c.2-.1.4-.2.6,0A1.08,1.08,0,0,0,14.8,8.8Zm0,1.8A7.46,7.46,0,0,0,16,9.9c-.1,0-.1,0-.2-.1a.45.45,0,0,0-.5,0c-.3.2-.4.2-.5.2a1.34,1.34,0,0,1-.5-.1.45.45,0,0,0-.5,0c-.1.1-.1,0-.2.1A6.66,6.66,0,0,0,14.8,10.6Z" />
            <path class="cls-10" d="M13.9,5.4a.76.76,0,0,1-.4-.1.19.19,0,0,1,0-.3.37.37,0,0,1,.3-.1c.1,0,.4.3.4.3S14,5.4,13.9,5.4Zm.3-.5a.35.35,0,0,1,.2-.1.37.37,0,0,1,.3.1c0,.1.1.3.2.3-.1,0-.3.1-.4,0S14.3,4.9,14.2,4.9Zm1,0h.2c.1,0,.2,0,.2.1a.6.6,0,0,0,.1.4.6.6,0,0,1-.4-.1C15.2,5.2,15.3,4.9,15.2,4.9Z" />
            <path class="cls-11" d="M15.9,4.9h-.2c.1.1,0,.3.1.4s.3.1.3-.1A.36.36,0,0,0,15.9,4.9Zm-1.2-.1h.2a.37.37,0,0,1,.3.1c0,.1,0,.3.1.3h-.4C14.8,5.1,14.8,4.9,14.7,4.8Zm-.9.1c0-.1.1-.1.3-.1s.2,0,.3.1.1.2.2.3a.45.45,0,0,1-.5,0,.32.32,0,0,1-.3-.3Z" />
            <path class="cls-12" d="M14.3,3.8a2,2,0,0,0-.8-.4,4.35,4.35,0,0,1,.7.6" />
            <path class="cls-12" d="M14.4,3.6a1.8,1.8,0,0,0-.9-.4,4.17,4.17,0,0,1,.8.6m.5-.5a4.23,4.23,0,0,1,.5-.7c-.1.2-.2.7-.3.9" />
            <path class="cls-12" d="M15,3.2a1.17,1.17,0,0,1,.6-.6,2,2,0,0,0-.4.8" />
            <path class="cls-12" d="M15.1,3.5a1.74,1.74,0,0,1,.9-.7,5.77,5.77,0,0,0-.8,1m.1-.1a1.34,1.34,0,0,1,.9-.2,3.09,3.09,0,0,0-1,.5" />
            <path class="cls-12" d="M15.2,3.6a2,2,0,0,1,.9-.6l-.9.9m-.5-.4c-.1-.4-.3-.8-.6-.9a2.26,2.26,0,0,1,.5,1.1m-.1-.2a1.8,1.8,0,0,0-.9-.6,2.42,2.42,0,0,1,.8.9" />
            <path class="cls-12" d="M14.6,3.5a2.31,2.31,0,0,0-.6-.7,4.05,4.05,0,0,0,.5.9" />
            <path class="cls-13" d="M14,3.5l.4.4M14,3.7c.1.1.2.1.3.2m1,0c.1-.1.4-.2.5-.3m-.5.2.4-.4m-.1-.3c-.1.1-.3.4-.4.5m.1-.6c-.1.1-.2.4-.3.5M14.4,3a2.07,2.07,0,0,1,.2.6m-.3-.4c0,.1.1.2.2.3" />
            <path class="cls-12" d="M14.7,3.1a.35.35,0,0,1,.1-.2c.1,0,.1.1.1.2a.35.35,0,0,1-.1.2A.35.35,0,0,1,14.7,3.1Z" />
            <path class="cls-12" d="M14.6,3.2a.22.22,0,0,1,.2-.2c.1,0,.1.1.1.2s-.1.2-.1.1C14.6,3.4,14.5,3.3,14.6,3.2Zm.3.1c0-.1,0-.2.1-.2s.1.1.1.2,0,.2-.1.2S14.9,3.4,14.9,3.3Z" />
            <path class="cls-12" d="M14.7,3.4a.35.35,0,0,1,.1-.2c.1,0,.1.1.1.2a.35.35,0,0,1-.1.2C14.8,3.5,14.7,3.5,14.7,3.4Z" />
            <path class="cls-12" d="M14.5,3.4a.35.35,0,0,1,.1-.2c.1,0,.1.1.1.2a.35.35,0,0,1-.1.2A.35.35,0,0,1,14.5,3.4Zm.4,0a.35.35,0,0,1,.1-.2c.1,0,.1.1.1.2a.35.35,0,0,1-.1.2C15,3.5,14.9,3.5,14.9,3.4Z" />
            <path class="cls-12" d="M14.9,3.5a.35.35,0,0,1,.1-.2c.1,0,.1.1.1.2s0,.1-.1.1S14.9,3.6,14.9,3.5Z" />
            <path class="cls-12" d="M14.7,3.6a.35.35,0,0,1,.1-.2c.1,0,.1.1.1.2a.35.35,0,0,1-.1.2C14.7,3.7,14.7,3.7,14.7,3.6Zm-.3,0a.35.35,0,0,1,.1-.2.35.35,0,0,1,.1.2.35.35,0,0,1-.1.2C14.5,3.7,14.4,3.7,14.4,3.6Zm.6-.1a.35.35,0,0,1,.1-.2.35.35,0,0,1,.1.2.35.35,0,0,1-.1.2A.35.35,0,0,1,15,3.5Z" />
            <path class="cls-12" d="M15.1,3.7a.35.35,0,0,1,.1-.2.14.14,0,0,1,0,.2c0,.1-.1.2-.1.1Z" />
            <path class="cls-12" d="M14.9,3.7a.35.35,0,0,1,.1-.2c.1,0,.1.1.1.2a.35.35,0,0,1-.1.2C14.9,3.9,14.9,3.8,14.9,3.7Zm-.3,0a.35.35,0,0,0-.1-.2.14.14,0,0,0,0,.2.1.1,0,0,0,.1.1Z" />
            <path class="cls-12" d="M14.5,3.7a.35.35,0,0,1,.1-.2c.1,0,.1.1.1.2a.35.35,0,0,1-.1.2A.35.35,0,0,1,14.5,3.7Z" />
            <path class="cls-12" d="M14.7,3.8a.35.35,0,0,1,.1-.2c.1,0,.1.1.1.2a.35.35,0,0,1-.1.2C14.7,3.9,14.7,3.9,14.7,3.8Z" />
            <path class="cls-12" d="M14.7,2.5c0,.1-.1.2,0,.3h-.3c.1,0,.2,0,.2.1s-.1,0-.2.1h.2l-.1.1c.1-.1.1,0,.2-.1,0,.1,0,.2.1.2s.1-.2,0-.2c.1,0,.1.1.3.1L15,3h.2l-.1-.1.2-.2c-.1,0-.2,0-.2.1.1-.1.1-.3.2-.3-.1,0-.2,0-.2.1,0-.1,0-.2.1-.2a.22.22,0,0,0-.2.2C14.8,2.6,14.7,2.6,14.7,2.5Z" />
            <path class="cls-13" d="M14.8,2.7v.1m.1-.1a.35.35,0,0,0-.1.2m.2-.1-.1.1" />
            <path class="cls-14" d="M13.8,3.9c-.1,0-.1,0-.2-.1a.6.6,0,0,0-.4-.1h-.1c0,.1-.1.2-.1.3h.1a.22.22,0,0,0,.2.2c.1,0,.2,0,.2.1v.2a.19.19,0,0,0,0,.3.72.72,0,0,0,.9,0,1,1,0,0,1,1.1,0,.31.31,0,0,1,.1.2l.1.1q.3-.15.3,0c.1,0,.1,0,.1-.1a.62.62,0,0,0-.3-.5H16l.1-.1h-.2A9.07,9.07,0,0,0,13.8,3.9Z" />
            <path class="cls-15" d="M16.1,4.3c-.1,0-.1.1-.2.2a1.21,1.21,0,0,1-.8.3,1.55,1.55,0,0,1-.8-.2c-.1-.1-.2-.1-.2-.2a.37.37,0,0,1-.1-.3.1.1,0,0,1-.1.1h-.1V4.1H14a.1.1,0,0,0,.1-.1V3.9c.1,0,1.2.2,1.5.2C15.5,4.1,16.1,4.2,16.1,4.3Z" />
            <path class="cls-14" d="M14,3.9c.1-.1.2-.2.4-.1h0a.19.19,0,0,1,.3,0h0c.1,0,.4,0,.5.1h0a.91.91,0,0,1,.7.3l.1.1c.1,0,.1,0,0,.1s-.1.1-.2.2a1.21,1.21,0,0,1-.8.3,1.55,1.55,0,0,1-.8-.2c-.1-.2-.2-.2-.2-.3s-.2-.1-.1-.2a.37.37,0,0,0-.1-.3Z" />
            <path class="cls-16" d="M15.9,4.2a.91.91,0,0,0-.7-.3V4a2.18,2.18,0,0,1,.5.4Zm-.7-.4a.75.75,0,0,0-.5-.1v.2c.1,0,.1.1.2.2s.2,0,.2-.1A.35.35,0,0,0,15.2,3.8Zm-.5-.1h-.3v.2a.1.1,0,0,1,.1.1.35.35,0,0,0,.2-.1Zm-.7.2c.1-.1.2-.2.4-.1V4c-.1,0-.3,0-.3.1V3.9Z" />
            <path class="cls-16" d="M15.7,4.3a.85.85,0,0,0-.5-.3v.1c.1.1.2.3.3.4Zm-.8.3V4.1c.1,0,.2,0,.2-.1a.76.76,0,0,1,.2.4A.76.76,0,0,1,14.9,4.6Zm-.4-.5c.1,0,.1-.1.2-.1l.2.2v.5a.37.37,0,0,1-.3-.1A1.09,1.09,0,0,1,14.5,4.1Zm-.6.1V4.1a.45.45,0,0,1,.5,0v.5A.66.66,0,0,0,13.9,4.2Z" />
            <path d="M13.4,4h0l-.1-.1V4Z" />
            <path class="cls-17" d="M13.4,4.2c.1,0,.2-.2.2-.2m-.1.2c.1,0,.2-.2.3-.2m-.5-.1h.2m-.1.2c0,.1-.1.1-.2.1m0-.4-.1.1m0,.1h0" />
            <path class="cls-18" d="M14.5,5.9V6a.1.1,0,0,0,.1.1h.1c.2,0,.5-.1.8-.1a4.33,4.33,0,0,1,.5.1V6c0-.1-.1-.1-.3-.1s-.4.1-.6.1-.4-.1-.4-.2.1-.1.2-.1H15a.1.1,0,0,1,.1-.1.37.37,0,0,0,.3-.1l-.1.1a.37.37,0,0,1,.3.1h-.3l.1.1a.19.19,0,0,1-.3,0h-.2c-.1,0-.2,0-.2.1s.1.1.3.1.3-.1.6-.1V5.8a.37.37,0,0,1,.3.1c0-.1.1-.1,0-.2a.1.1,0,0,1,.1.1V5.7c.1,0,.1.1.1.2,0-.1.1,0,.1-.1s0,.2-.1.2h.1c-.1.1-.4.1-.5.1h-.3c.1,0,.2.1.3.1H16l.1.1a.1.1,0,0,1-.1.1c.1,0,0,.1.1.1H16a.1.1,0,0,0,.1.1H16v.1a.1.1,0,0,1-.1.1.1.1,0,0,1-.1.1s-.1,0,0-.1h-.1c-.1,0-.1,0-.1-.1s.1,0,.1,0h.1V6.6s0-.1-.2-.1a1.27,1.27,0,0,1-.6-.1h0v.1c0,.1,0,.1.1.1s-.1,0-.1,0v0c0,.1-.1.1-.2.1h-.2v.1h-.1V6.7h-.1V6.6h-.1V6.5h.3c.1,0,.1-.1.2-.1-.2,0-.1-.2,0-.2h-.2c-.2.1-.5.3-.6.2v.1h-.1v.1a.1.1,0,0,1-.1-.1v.1s-.1-.1-.1,0h-.1l-.1.1V6.6a.1.1,0,0,1-.1.1V6.6l-.1.1V6.6l-.1.1V6.6l-.1.1s0,.1-.1,0-.1,0,0-.1a.1.1,0,0,1-.1-.1h0V6.4H13c0-.1.1-.1.1,0l.1.1h.1c.1,0,.2-.1.3-.1V6.3a.1.1,0,0,0-.1.1h-.1V6.3h-.2V6.2h-.1a.1.1,0,0,1,.1-.1H13l.1-.1c-.1,0-.1,0-.2-.1H13l-.1-.1h-.1V5.7c-.1,0-.1-.1,0-.1s.1-.1.1,0h0V5.5H13a.1.1,0,0,1,.1.1v.1h.1v.2c.1.1.2.2.3.2a.1.1,0,0,1,.1-.1V5.9c0-.1,0-.1.1-.1h0s-.1-.1,0-.1h.1c0-.1.1-.1.1-.2v.1l.1-.1v.1c0-.1.1-.1.2-.1v.1h.1v.1h.1a.1.1,0,0,1-.1.1h.1c.2,0,.1.1.1.1Z" />
            <path class="cls-17" d="M13.8,6.1c-.1,0-.1.1-.1.2m.1-.1c-.1.1-.2.1-.1.2m.1.1c.1,0,.1,0,.2-.1" />
            <path class="cls-17" d="M14,6.4v0" />
            <path class="cls-17" d="M14,6.5a.35.35,0,0,0,.1-.2v.1l.1-.1h0V6.2m0,.1h0m.1,0c.1,0,.1-.1.1-.2m0,.1a.35.35,0,0,0,.1-.2m-.2-.3h0a.1.1,0,0,1-.1.1s0,.1-.1,0V5.7l.1-.1c0,.1,0,.1.1.1-.1,0-.2,0-.2-.1" />
            <path class="cls-17" d="M14.4,5.8h-.1" />
            <path class="cls-17" d="M14.2,5.8h.1c0,.1,0,0-.1,0m-.1-.1h0m0,.6h0a.31.31,0,0,1,.2-.1V6.1h.1m-.5-.2h0c0,.1,0,.1-.1.1v.2m.2-.5v.1" />
            <path class="cls-17" d="M14,5.9V6a.1.1,0,0,0,.1.1c.1,0,.2,0,.2-.2m.1.5h0m.1,0h0m0,0h0m-.6-.7h0v.1m-.1.1h0m0,.1h0m-.5-.2h0m-.1,0h0m0,.1h0m-.1-.1h0m.7.5c-.1.1-.1.1-.1.2m.1-.2-.1.1m-.3.2h-.2m.5-.1v.1a.22.22,0,0,0,.2-.2m-.8.3h0M15,6.3h.2m-1,.3a.1.1,0,0,1,.1-.1m-.5.3h0m-.5,0h0m-.2,0h0m1.5-.1h0m0,0h0m.1.1h0m.3,0h0m-.1,0h0m.3-.1h0m.8.1h0c0-.1,0-.1.1-.1m-.8-.3c-.2-.1-.2-.2-.3-.2m1.1.5h0m.1,0h0m-.9-1h0m-.9.4a.1.1,0,0,0,.1.1c0-.1,0-.1-.1-.1" />
            <path class="cls-17" d="M14.5,5.9c0,.1-.1,0,0,0h-.2l-.1.1s-.1-.1,0-.1c-.1.1-.1,0-.1,0V5.8" />
            <path d="M15.2,6.4h0c-.1.1-.1.1,0,.1V6.4Z" />
            <path class="cls-19" d="M14.2,6h0c-.1-.1-.1,0,0,0-.1,0-.2.1-.3.1s-.1.1,0,.1S14.1,6.2,14.2,6Zm-1.1-.3h0c0-.1-.1-.1-.1,0Zm0-.2h.1v.1a.1.1,0,0,1-.1-.1Zm.3.2h0c0-.1,0-.1-.1-.1C13.4,5.6,13.3,5.7,13.4,5.7Zm-.4.2c0,.1,0,.1.1.1V5.9s-.1-.1-.1,0Zm.1.7h0Zm.1-.1c0-.1-.1-.1-.1,0h.1c-.1,0,0,.1,0,0Zm-.1.2a.1.1,0,0,0-.1.1l.1-.1Zm0,.2h0l.1-.1c0,.1,0,.1-.1.1C13.2,6.9,13.1,7,13.1,6.9Zm1.5-.3h0Zm-.1.1a.1.1,0,0,0-.1.1.1.1,0,0,1,.1-.1Zm.1,0Zm.1.1h0l-.1.1a.1.1,0,0,0,.1-.1Zm1.2-.1h0a.1.1,0,0,0-.1.1c.1,0,.1,0,.1-.1C15.9,6.8,16,6.8,15.9,6.7Zm.1.1v0c.1.1.1,0,0,0Zm.1,0h0c-.1.1,0,.1,0,.1V6.8C16.2,6.9,16.2,6.8,16.1,6.8Zm.1,0Z" />
            <path class="cls-20" d="M13.7,7.2l-.2.7h-.7l.5.4-.2.7.5-.4.5.4-.2-.7.5-.4h-.7Zm2.1,0,.2.6h.7l-.6.4.2.7-.5-.4-.5.4.2-.7-.6-.4h.7Z" />
            <path class="cls-20" d="M14.8,8.4l-.3.6h-.7l.5.4-.2.7.5-.4.5.4-.2-.7.7-.4H15Z" />
            <path class="cls-21" d="M13.7,7.4l-.2.5H13l.4.3-.2.5.4-.3.4.3V8.2l.4-.3h-.5Zm2.1,0,.2.5h.5l-.4.3.2.5-.4-.3-.4.3.2-.5-.4-.3h.5Zm-1,1.2-.2.5h-.5l.4.3-.2.5.4-.3.4.3L15,9.4l.4-.3h-.5Z" />
            <path class="cls-22" d="M12,9.4h0l-.1.1h0V9.4h0l.2-.1h0l.1.1h-.1v.1h0l-.1.1h0l-.1-.1h0l.1-.1Zm.2.2c.1,0,.1-.1,0,0h0l.1.1-.1.1h0c.1-.1.1-.1,0-.2h0v.1h.1l-.1.1h0c.1,0,0-.1,0-.1l-.1.1h0L12,9.7h0Zm.2.4h0l-.1.1h0l-.1-.1h0l.1-.1h0l.1.1h.1l.1.1h0l-.1.1h0l-.1-.1h0V10Zm.2.2h0l.1-.1h0l-.1.2v.1l-.1-.1.1-.1Zm.1.2h0l.2-.2h-.1v-.1l.2.1-.1.1h0v-.1h0l-.2.2c0,.1.1.1,0,0Z" />
            <path class="cls-22" d="M13,10.5h0c-.1.1-.1.1,0,.1h0l-.1-.1h0c-.1.1-.1.1.1,0v-.1h0l.1.1h0c-.1-.1-.1-.1-.1,0h.1l.1.1h0l-.2.1h0l-.1-.1h0l.1-.1Zm.2.3h0l.1-.2h0l.2.1v.1h0v-.1h0v.1h.1l-.1.1h0v-.1Zm.3.2v-.2a.1.1,0,0,1,.1-.1v.1a.35.35,0,0,1-.1.2h0c.1,0,.1,0,.2-.1v-.2c-.1,0-.1,0-.2.1s-.1.1,0,.2Zm.3,0v-.1h.1l-.1.1c0,.1,0,.1-.1.1l-.1-.1.1-.1h.1l-.1.1Zm.1-.2h0l.1.2v-.1h.1l-.1.2h0l-.1-.3V11h-.1l.1-.2Zm.4.3a.1.1,0,0,1-.1.1h0V11h0c.1-.1.1,0,.1.1h0c.1-.1,0-.1,0-.2h-.1v.2h.1Zm.1-.1h.2v.1c0-.1-.1-.1-.2-.1h0c.1,0,0,.1,0,.1l.1-.1v.1h0v0h0a.1.1,0,0,0,.1-.1h0v.1h-.2Zm.7.2h0L15,11h.1Zm.1,0h0v-.3h0V11h0v-.1h.2V11h0a.1.1,0,0,0-.1-.1h0l-.1.3h0Zm.5-.2v-.1h.1l-.1.1v.1a.1.1,0,0,1-.1-.1v-.1h.1V11a.1.1,0,0,0,.1.1A.1.1,0,0,1,15.7,11Zm.1-.1h0v-.1h0v.1h0V11h-.1l.1-.1-.1-.1h.2c0,.1,0,.1-.1.1Zm.3-.3h0l.2.1-.1-.1h.1l.1.2h0l-.3-.2.1.2h-.1v-.2Zm.5.1h0l-.1-.2h0v.1h0v-.1l.2-.1v.1h-.1v.2Zm.1-.3h0l.1.1h0l-.1.1h0l-.1-.2h0l.1-.1h0c-.1,0-.1,0,0,.1h0v-.1h0l.1-.1h0l.1.2h0l-.1.1h0l-.1-.1Zm.1-.2h0l.1-.1.1.1h0c-.1-.2-.1-.1-.2,0h.1v-.1h0l.1.1h0c-.1-.1-.1,0-.1,0l.1.1h0v-.1h0v.1l-.1.1h0Zm.3-.3h0c.1,0,.2,0,.2.1s0,.1,0,.1h0l-.2-.1h.1V9.9Zm.1-.1h0l.1-.2.1.1h-.1c-.1,0-.1,0-.1.1h.1s0-.1-.1,0h.1l.1.1h0V9.8h0l.1.1-.1.2h0V10Zm.2-.2h.1c.1-.1.1-.1-.1,0a.31.31,0,0,0-.2-.1h0l.2.2h0V9.6Zm0-.3h.2c.1,0,.1.1,0,.1h0V9.3h-.1c0,.1,0,.1-.1,0Zm-2.6,1.8c0,.1,0,.1-.1.1h0V11h0a.1.1,0,0,1,.1.1h0c0-.1,0-.1-.1-.1h-.1v.2h.1a.1.1,0,0,0,.1-.1Zm1.3-.2a.1.1,0,0,1-.1-.1v-.1a.1.1,0,0,1,.1.1v.1c.1,0,.1-.1.1-.2s-.1-.1-.2-.1-.1.1-.1.2S16,11,16.1,10.9Z" />
            <path class="cls-23" d="M16.8,5.4V7.6a2.82,2.82,0,0,1-2.1,3,2.9,2.9,0,0,1-2.1-3V5.4Z" />
            <path class="cls-24" d="M0,0V.8L4,3.5,0,6.2V7H1.3l4-2.7L9.3,7h1.3V6.2l-4-2.7,4-2.7V0H9.2l-4,2.7L1.3,0Z" />
            <path class="cls-8" d="M0,7,3.5,4.7h.8L.6,7ZM0,0,3.5,2.3H2.7L0,.5ZM6.2,2.3,9.7,0h.8L7,2.3ZM10.5,7,7,4.7h.8l2.7,1.8Z" />
            <path class="cls-25" d="M5.2,0V7M0,3.5H10.5" />
            <path class="cls-26" d="M5.2,0V7M0,3.5H10.5" />
        </g>
    </g>
</svg>