<?xml version="1.0" encoding="utf-8"?>
<!-- Generator: Adobe Illustrator 25.2.0, SVG Export Plug-In . SVG Version: 6.00 Build 0)  -->
<svg width="20px" height="14px" viewBox="0 0 20 14" version="1.1" xmlns="http://www.w3.org/2000/svg" xmlns:xlink="http://www.w3.org/1999/xlink">
	<style type="text/css">
		.st0{clip-path:url(#SVGID_2_);}
		.st1{fill:#FFFFFF;}
		.st2{fill:#8A1538;}
	</style>
	<g>
		<defs>
			<path id="SVGID_1_" d="M2,0h16c1.1,0,2,0.9,2,2v10c0,1.1-0.9,2-2,2H2c-1.1,0-2-0.9-2-2V2C0,0.9,0.9,0,2,0z"/>
		</defs>
		<clipPath id="SVGID_2_">
			<use xlink:href="#SVGID_1_" style="overflow:visible;"/>
		</clipPath>
		<g class="st0">
			<path class="st1" d="M0,0h20v14H0"/>
			<polygon class="st2" points="5.2,0 8,0.8 5.2,1.6 8,2.3 5.2,3.1 8,3.9 5.2,4.7 8,5.4 5.2,6.2 8,7 5.2,7.8 8,8.6 5.2,9.3 8,10.1 5.2,10.9 8,11.7 5.2,12.4 8,13.2 5.2,14 20,14 20,0"/>
		</g>
	</g>
</svg>
