<?xml version="1.0" encoding="utf-8"?>
<!-- Generator: Adobe Illustrator 23.0.6, SVG Export Plug-In . SVG Version: 6.00 Build 0)  -->
<svg version="1.1" id="Layer_1" xmlns="http://www.w3.org/2000/svg" xmlns:xlink="http://www.w3.org/1999/xlink" width="20px" height="14px" x="0px" y="0px"
	 viewBox="0 0 20 14" style="enable-background:new 0 0 20 14;" xml:space="preserve">
<style type="text/css">
	.st0{fill:#F7E017;}
	.st1{fill:#FFFFFF;}
	.st2{fill:#CF1126;}
</style>
<path class="st0" d="M0,7.9v4.2c0,1,0.8,1.9,1.9,1.9h16.3c1,0,1.8-0.8,1.8-1.8v-0.1L0,7.9z"/>
<path class="st0" d="M20,5.9v-4c0-1-0.9-1.9-1.9-1.9H1.7C0.8,0,0,0.8,0,1.7l0,0L20,5.9z"/>
<polygon class="st1" points="0,5 20,9.2 20,5.9 0,1.7 "/>
<polygon points="0,5 0,7.6 0,7.9 20,12.1 20,9.6 20,9.2 "/>
<g>
	<path class="st2" d="M10.1,11.1c-0.4,0-0.7-0.2-1-0.3L9,10.7c0,0,0,0,0,0.1S9,11,8.8,11c-0.1,0-0.3,0-0.5-0.2
		c-0.2-0.1-0.3-0.2-0.5-0.3c-0.1,0-0.3,0-0.4,0s-0.1,0-0.1,0.1c0,0,0,0-0.1,0c0,0,0-0.1,0-0.2c0-0.1,0.1-0.1,0.2-0.1h0.1
		c0,0,0,0,0-0.1c-0.1-0.1,0-0.2,0.1-0.3s0.3-0.1,0.4,0h0.1c0,0,0,0,0-0.1C8,9.8,8,9.7,8,9.6c0-0.1,0.1-0.3,0.3-0.3
		c0.1,0,0.2,0,0.4,0.2c0.5,0.5,1,0.7,1.7,0.8c0.2,0,0.5,0,0.7,0c0.6-0.1,1.1-0.4,1.6-0.8c0.1-0.1,0.2-0.1,0.3-0.1s0.2,0,0.2,0.1
		c0.1,0.1,0.1,0.1,0.1,0.2c0,0.1,0,0.1-0.1,0.2c-0.1,0.1,0,0.1,0.1,0.1c0.1-0.1,0.3,0,0.4,0.1c0.1,0.1,0.1,0.2,0,0.3v0.1
		c0,0,0,0,0.1,0s0.2,0.1,0.2,0.2v0.1c0,0,0,0-0.1,0c-0.1-0.1-0.2-0.1-0.4-0.1c-0.1,0-0.2,0-0.2,0c-0.1,0-0.3,0.1-0.4,0.2
		C12.8,11,12.7,11,12.6,11s-0.2,0-0.2-0.1v-0.1c0-0.1,0-0.1,0-0.1s0,0-0.1,0.1s-0.2,0.1-0.4,0.2C11.2,11.1,10.6,11.1,10.1,11.1
		L10.1,11.1z"/>
	<path class="st2" d="M10.3,10.2c-0.8-0.1-1.5-0.5-1.9-1.1C7.9,8.5,7.7,7.6,7.9,6.8c0.1-0.4,0.2-0.7,0.5-1c-0.2,0.4-0.3,1-0.2,1.4
		c0.2,1,1,1.8,2,1.9c0.4,0.1,0.8,0,1.2-0.1c0.8-0.3,1.4-1.1,1.5-1.9c0.1-0.5,0-1-0.2-1.4C12.8,5.8,13,6,13.1,6.2
		c0.3,0.6,0.3,1.3,0.1,2C13,9,12.3,9.7,11.5,10C11.1,10.2,10.7,10.2,10.3,10.2L10.3,10.2z"/>
	<g id="a">
		<path class="st2" d="M6.5,9.1C6.4,9.1,6.4,9.2,6.5,9.1c0,0.1,0,0.2,0.1,0.2C6.7,9.4,6.8,9.4,7,9.4l0,0c0.1,0,0.2,0,0.3-0.1
			c0.1,0,0.1,0,0.2-0.1c0,0,0-0.1-0.1-0.1s-0.1,0-0.2,0.1c-0.1,0-0.3,0-0.4,0C6.8,9.2,6.7,9.2,6.5,9.1C6.6,9.2,6.5,9.1,6.5,9.1
			L6.5,9.1z"/>
		<path class="st2" d="M6.5,8.9C6.5,8.9,6.5,9,6.5,8.9c0,0.2,0,0.2,0.1,0.2s0.2,0.1,0.3,0.1l0,0c0.1,0,0.2,0,0.3-0.1
			c0.1,0,0.1,0,0.1-0.1V8.9H7.2C7.2,9,7,9.1,6.9,9.1C6.8,9,6.7,9,6.5,8.9C6.6,9,6.6,8.9,6.5,8.9L6.5,8.9z"/>
		<path class="st2" d="M6.6,8.7C6.6,8.7,6.5,8.8,6.6,8.7c-0.1,0.1,0,0.1,0,0.2C6.7,9,6.8,9,7,9c0,0,0.1,0,0,0c0.1,0,0.2,0,0.2-0.1
			c0,0,0.1,0,0.1-0.1V8.7H7.2c0,0.1-0.1,0.2-0.2,0.2S6.8,8.8,6.6,8.7C6.7,8.8,6.6,8.7,6.6,8.7L6.6,8.7z"/>
		<path class="st2" d="M5.9,5.9c-0.1,0.1,0,0.2,0,0.3C5.9,6.5,6,6.7,6.1,7c0.1,0.2,0.4,0.4,0.5,0.6c0.1,0.1,0,0.2,0,0.3
			c0,0.3,0,0.6,0,0.9C6.7,8.9,6.9,8.9,7,8.9s0.3,0,0.3-0.1c0-0.5,0-1,0-1.5C7.3,7,7.1,6.9,7,6.8C6.9,6.7,6.8,6.6,6.7,6.5
			c-0.1-0.1-0.3-0.1-0.2,0c0,0.1,0.2,0.2,0.2,0.4c0,0.1,0.1,0.2,0,0.3C6.7,7.1,6.6,7,6.5,7C6.4,6.9,6.3,6.8,6.3,6.7
			c0-0.2-0.1-0.3-0.2-0.4C6.1,6.2,6,6,5.9,5.9L5.9,5.9L5.9,5.9z"/>
		<path class="st2" d="M6.1,5.9C6,5.9,6,6,6.1,5.9c0,0.2,0,0.3,0,0.4c0.1,0.1,0.2,0.3,0.2,0.4s0.1,0.1,0.1,0.1
			C6.5,6.9,6.6,6.9,6.7,7l0,0c0,0,0-0.1-0.1-0.1c0-0.1-0.1-0.1-0.2-0.2c0-0.1,0-0.2-0.1-0.2c0-0.1-0.1-0.1-0.1-0.2
			C6.2,6.2,6.2,6.1,6.1,5.9L6.1,5.9L6.1,5.9z"/>
		<path class="st2" d="M6.3,6C6.2,6,6.2,6,6.3,6c0,0.2,0,0.3,0,0.3c0.1,0.1,0.1,0.1,0.2,0.2c0,0.1,0.1,0.1,0.1,0.2
			c0.1,0,0.1,0.1,0.2,0.1c0-0.1-0.1-0.1-0.1-0.2S6.6,6.5,6.6,6.4c-0.2,0-0.2-0.1-0.2-0.1C6.4,6.2,6.4,6.1,6.3,6L6.3,6L6.3,6z"/>
		<path class="st2" d="M6.4,6L6.4,6C6.4,6,6.4,6.1,6.4,6c0,0.2,0,0.2,0,0.3v0.1c0,0,0-0.1,0.1-0.1l0,0C6.6,6.3,6.5,6.2,6.4,6
			C6.5,6,6.5,6,6.4,6C6.5,6,6.4,6,6.4,6L6.4,6z"/>
	</g>
	<path class="st2" d="M10.5,9.3C10.2,9.2,10,9,9.9,8.8H10c0,0,0.1,0,0.2,0.1c0.1,0,0.1,0.1,0.2,0.1c0,0,0.1,0.1,0.1,0V8.9
		c0-0.1,0.1-0.2,0.2-0.2l0.1,0.1c0,0.1,0.1,0.1,0.1,0.2v0.1C11,9.1,11,9,11.1,9s0.1,0,0.2-0.1c0,0,0.1-0.1,0.1,0s-0.1,0.2-0.1,0.2
		c-0.1,0.1-0.2,0.2-0.4,0.2C10.6,9.3,10.5,9.3,10.5,9.3L10.5,9.3z"/>
	<path class="st2" d="M10.8,8.9c0-0.1,0-0.1,0-0.2c0-0.1-0.1-0.2-0.2-0.2c-0.1,0-0.1,0.1-0.1,0.1c-0.1,0.1-0.1,0.2-0.1,0.3
		c0,0-0.1,0-0.1-0.1s-0.1-0.1-0.1-0.2c0-0.1,0-0.3,0.1-0.4c0-0.1,0.1-0.2,0.1-0.3c0-0.1,0-0.2-0.1-0.2c-0.1-0.1,0-0.1,0.1,0
		c0.1,0,0.1,0.1,0.2,0.1c0-0.1,0-0.1,0.1-0.2c0-0.1,0.1,0,0.1,0.1c0,0,0,0.1,0.1,0.1s0.1-0.1,0.2-0.1c0,0,0.1,0,0,0
		C11,7.8,11,7.8,11,7.9s0,0.2,0.1,0.3c0.1,0.2,0.2,0.4,0.1,0.6C10.9,8.8,10.9,8.9,10.8,8.9C10.8,9,10.8,9,10.8,8.9L10.8,8.9z"/>
	<path class="st2" d="M10.7,7.6c0-0.1-0.1-0.1-0.1-0.1l-0.1,0.1c0,0,0,0.1-0.1,0.1c-0.1-0.1-0.1-0.2-0.1-0.3c0-0.1,0.1-0.3,0.1-0.4
		s0-0.2,0-0.3c0-0.1-0.1-0.2-0.2-0.2h0.1c0.1,0,0.1,0.1,0.2,0.1V6.5c0,0,0.1-0.1,0.1,0c0,0,0,0.1,0,0.2l0.1-0.1c0,0,0.1,0,0.2,0
		l-0.1,0.1c-0.1,0.1-0.1,0.2-0.1,0.4c0,0.1,0.1,0.2,0.1,0.3C10.8,7.5,10.8,7.6,10.7,7.6C10.8,7.6,10.8,7.6,10.7,7.6L10.7,7.6
		L10.7,7.6z"/>
	<path class="st2" d="M10.4,6.4c-0.1,0-0.1-0.1-0.1-0.2V6.1c0-0.1,0-0.1,0-0.1c-0.1,0-0.2,0-0.2-0.1c0,0,0-0.1,0.1-0.1
		c0-0.1,0.1-0.1,0.1-0.1s-0.1,0-0.2,0.2C10,5.9,9.9,6,9.9,6C9.7,6.1,9.5,6.1,9.4,6c0-0.1,0-0.1,0-0.1s0.1,0,0.1-0.1
		c0.1-0.1,0.2-0.2,0.3-0.2s0.1-0.1,0-0.1S9.6,5.6,9.4,5.8L9.3,5.9C9.3,6,9.1,6,9.1,6L9,5.9l0,0c0,0,0.1,0,0.1-0.1
		c0.1-0.1,0.3-0.2,0.5-0.2c0.1,0,0,0,0,0c-0.1,0-0.3,0.1-0.5,0.2s-0.4,0.1-0.5,0c0,0,0,0,0-0.1h0.1c0.1,0,0.2-0.1,0.3-0.1
		c0.2-0.1,0.2-0.1,0.4-0.1c0.1,0,0.1,0,0,0S9.2,5.5,9,5.6c-0.3,0-0.4,0-0.5,0s-0.2,0-0.3-0.1c0-0.1-0.1-0.2-0.1-0.3c0,0,0,0,0.1,0
		c0,0,0.1,0,0.2,0c0.2,0,0.2,0,0.3,0C8.9,5.2,9,5.1,9.2,5c0.3-0.2,0.5-0.3,0.7-0.3s0.4,0.1,0.5,0.2L10.5,5c0,0,0-0.1,0-0.2h0.1
		c0,0.2,0,0.2,0,0.2l0,0c0,0,0.1-0.1,0.2-0.2c0.2-0.1,0.5-0.1,0.7,0c0.1,0,0.2,0.1,0.3,0.2s0.3,0.2,0.5,0.2c0.1,0,0.4,0,0.5,0h0.1
		c0,0,0,0.1-0.1,0.2c-0.2,0.2-0.4,0.2-0.7,0c-0.2-0.1-0.4-0.2-0.4-0.1l0,0c0.1,0,0.2,0,0.4,0.1s0.3,0.1,0.4,0.1c0,0,0,0,0,0.1
		s-0.1,0.1-0.2,0.1c-0.1,0-0.2,0-0.3-0.1c-0.2-0.1-0.5-0.3-0.5-0.2c0,0,0,0,0.1,0s0.3,0.1,0.5,0.2l0.1,0.1l0,0C12.1,5.9,12,6,12,6
		c-0.1,0-0.2,0-0.3-0.1c-0.2-0.2-0.4-0.3-0.4-0.3s0,0,0.1,0.1s0.2,0.1,0.3,0.2L11.8,6c0,0,0,0,0,0.1s-0.1,0.1-0.2,0.1
		c-0.2,0-0.3-0.1-0.5-0.3c-0.1-0.1-0.2-0.2-0.2-0.2s0,0,0,0.1C11,5.8,11,5.9,11,6s-0.1,0.1-0.1,0c-0.1,0-0.1,0,0,0.1s0.1,0.2,0,0.3
		h-0.1l0,0C10.6,6.3,10.5,6.3,10.4,6.4C10.5,6.4,10.4,6.4,10.4,6.4L10.4,6.4L10.4,6.4z"/>
	<path class="st2" d="M10.7,4.5L10.7,4.5h-0.2V5h0.2V4.5z"/>
	<path class="st2" d="M10,4c0,0.3-0.1,0.4-0.2,0.6L10,4.4l0.2,0.2l0.2-0.2l0.2,0.2l0.2-0.2L11,4.6V4.4l0.2,0.2C11.1,4.4,11,4.2,11,4
		C10.9,4.1,10.3,4.2,10,4L10,4z"/>
	<path class="st2" d="M10.5,3.8c-0.1,0-0.2,0-0.3,0s-0.1,0-0.2,0.1c0,0.2,0.8,0.2,1,0c0,0-0.1-0.1-0.2-0.1c-0.1,0-0.2,0-0.2,0v0.1
		L10.5,3.8L10.5,3.8L10.5,3.8z"/>
	<path class="st2" d="M10.6,3h-0.1v1h0.1V3z"/>
	<path class="st2" d="M10.6,3v0.5l0.5,0.2l-0.2-0.3l0.3-0.1L10.6,3z"/>
	<path class="st2" d="M10.6,2.9c-0.1,0-0.1,0-0.1,0.1l0.1,0.1c0.1,0,0.1,0,0.1-0.1C10.7,2.9,10.7,2.9,10.6,2.9z"/>
</g>
<g>
	<path class="st0" d="M10.4,11c0.1,0,0.1-0.1,0.2-0.2v-0.1c0,0,0,0-0.1,0c0,0,0,0,0,0.1s0,0.1-0.2,0.2h-0.1c-0.1,0-0.1,0-0.1,0
		s0,0,0.1,0C10.1,11,10.3,11,10.4,11L10.4,11z"/>
	<path class="st0" d="M10.8,10.9L10.8,10.9c0.1-0.1,0.2-0.1,0.2-0.1c0.1-0.1,0-0.2,0-0.3s-0.1-0.1-0.1,0s0,0.1,0,0.1s0,0,0.1,0
		c0.1,0.1,0,0.1,0,0.1C10.8,10.8,10.8,10.9,10.8,10.9C10.7,10.9,10.7,10.9,10.8,10.9C10.7,11,10.8,11,10.8,10.9L10.8,10.9z"/>
	<path class="st0" d="M10.6,10.8c0,0,0-0.1,0-0.2c0-0.1,0-0.2,0-0.2h-0.1c0,0,0,0,0,0.1c0,0,0,0.1,0,0.2
		C10.6,10.9,10.6,10.9,10.6,10.8L10.6,10.8z"/>
	<path class="st0" d="M10.3,10.8v-0.1v-0.1c0-0.1,0-0.1-0.1,0l0,0v0.1c0,0.1,0,0.2,0,0.3C10.2,10.9,10.3,10.9,10.3,10.8L10.3,10.8z"
		/>
	<path class="st0" d="M10,10.8c0.1-0.1,0.1-0.2,0.1-0.2c0-0.1,0-0.1,0-0.2c-0.1,0-0.1,0.1-0.1,0.1C10,10.6,10,10.7,10,10.8
		c-0.1,0-0.1,0-0.1-0.1s-0.1,0-0.1,0H9.7c0-0.1-0.1,0-0.2,0c0,0,0-0.1-0.1-0.1s-0.3,0-0.4-0.1c-0.1,0-0.1-0.1,0-0.2
		c0-0.1,0.1-0.2,0.1-0.2c0.1-0.1-0.1,0-0.1,0c-0.1,0,0,0.1-0.1,0.2c0,0.1-0.1,0.1-0.1,0.1c-0.1,0-0.2-0.1-0.2-0.2
		c-0.1,0,0,0.1,0,0.1c0.1,0,0.1,0.1,0.2,0.1c0.1,0,0.1,0.1,0.1,0.1c0.1,0.1,0.3,0.1,0.4,0.1c0.1,0,0,0.1,0.1,0.1h0.1
		c-0.1,0.1,0.1,0.1,0.1,0.1c0.1,0,0.1,0,0.1,0C9.9,10.9,10,10.9,10,10.8L10,10.8L10,10.8z"/>
	<path class="st0" d="M8.9,10.2L9,10.1V10c0,0,0-0.1,0,0l0,0C8.9,10.1,8.9,10.2,8.9,10.2C8.8,10.3,8.8,10.3,8.9,10.2
		C8.8,10.3,8.8,10.2,8.9,10.2L8.9,10.2z"/>
	<path class="st0" d="M8.1,9.8L8.1,9.8c0,0.1,0,0.1,0.1,0.1C8.3,10,8.3,10,8.4,10h0.1v0.1v0.1c0,0,0,0,0.1,0s0.1-0.1,0.1-0.2
		L8.6,9.9H8.5C8.4,10,8.3,10,8.3,9.9C8.2,9.8,8.2,9.8,8.1,9.8L8.1,9.8z M8.6,10L8.6,10L8.6,10L8.6,10L8.6,10z"/>
	<path class="st0" d="M12.3,9.8L12.3,9.8c-0.1,0.1-0.1,0.2-0.1,0.3c0,0,0,0,0.1,0s0.1,0,0.1,0c0,0.1-0.1,0.3-0.3,0.3L12,10.5
		c0,0,0,0,0.1,0s0.2-0.1,0.2-0.2c0-0.1,0-0.1,0-0.2C12.4,9.9,12.4,9.9,12.3,9.8C12.4,9.8,12.4,9.8,12.3,9.8L12.3,9.8L12.3,9.8z
		 M12.3,9.9L12.3,9.9c0,0.1,0,0.1,0,0.1l0,0C12.2,10,12.3,9.9,12.3,9.9L12.3,9.9z"/>
	<path class="st0" d="M11.7,10.7c0.1-0.1,0.2-0.1,0.2-0.2v-0.1h-0.1c0,0,0,0,0-0.1s0-0.1,0-0.1l0,0c0,0,0,0,0,0.1s0,0.1,0,0.1
		s0,0,0,0.1l0,0c0,0,0,0,0.1,0H12l0,0c0,0,0,0,0,0.1s-0.2,0.2-0.3,0.2s-0.1,0-0.1,0s0,0,0-0.1v-0.1c0-0.1,0-0.1-0.1,0
		c0,0.1,0,0.1,0,0.2C11.5,10.8,11.6,10.9,11.7,10.7C11.6,10.8,11.7,10.8,11.7,10.7L11.7,10.7z"/>
	<path class="st0" d="M12.5,10.3c0.1-0.1,0.1-0.2,0.1-0.3V9.9h0.1c0.1,0,0.1-0.1,0.1-0.1s0,0-0.1,0c0,0-0.1,0.1-0.2,0.1
		c0,0,0,0,0,0.1C12.5,10.1,12.5,10.2,12.5,10.3C12.4,10.4,12.4,10.4,12.5,10.3C12.4,10.4,12.4,10.3,12.5,10.3z"/>
	<path class="st0" d="M11.7,10.2L11.7,10.2C11.6,10.2,11.6,10.2,11.7,10.2C11.7,10.3,11.7,10.3,11.7,10.2L11.7,10.2z"/>
	<path class="st0" d="M12.8,10C12.8,9.9,12.7,9.9,12.8,10C12.7,9.9,12.7,10,12.8,10C12.7,10,12.8,10,12.8,10L12.8,10z"/>
	<path class="st0" d="M11.5,9.2C11.5,9.2,11.4,9.2,11.5,9.2C11.4,9.3,11.4,9.3,11.5,9.2c0,0.1,0,0.2,0,0.3s0.1,0.2,0,0.2
		c0,0,0,0.1-0.1,0.1s-0.1,0-0.2,0c-0.1,0-0.1,0.1-0.1,0c0,0,0-0.1-0.1-0.1v0.1l0,0h0.1v0.1h0.1c0,0,0-0.1,0.1-0.1h0.1
		c0.1,0,0.1-0.1,0.1-0.2c0-0.1,0-0.2-0.1-0.3C11.5,9.3,11.5,9.3,11.5,9.2L11.5,9.2L11.5,9.2z M11.3,9.8C11.3,9.8,11.4,9.9,11.3,9.8
		C11.3,10,11.3,9.9,11.3,9.8C11.3,9.9,11.3,9.8,11.3,9.8L11.3,9.8z"/>
	<path class="st0" d="M9.8,9.5L9.8,9.5C9.7,9.6,9.6,9.7,9.7,9.7c0.1,0,0,0.1,0,0.1c-0.1,0.1-0.2,0.1-0.4,0c0,0-0.1,0,0,0
		c0,0,0,0.1,0.1,0.1s0.2,0,0.3,0l0.1-0.1l0.1-0.1H10c0.1,0,0.1,0,0.1,0.1c0,0,0,0,0.1,0h0.1h0.1c0,0,0,0,0.2,0c0.1,0,0.2,0,0.2,0
		h0.1c0.1,0,0.2-0.1,0.3-0.2c0,0,0,0,0.1,0s0.1,0,0-0.1h-0.1h-0.1c0,0-0.1,0-0.1,0.1c0,0,0,0,0.1,0s0.1,0,0.1,0l0,0
		c0,0-0.1,0.1-0.2,0.1h-0.1h-0.1l0,0l0,0h-0.1c-0.1,0-0.1,0-0.1,0s0,0-0.1,0s-0.1,0-0.1,0s0,0,0-0.1l0,0c0,0,0,0-0.1,0
		C9.9,9.7,9.9,9.6,9.8,9.5C9.9,9.5,9.9,9.5,9.8,9.5L9.8,9.5z M9.8,9.6L9.8,9.6L9.8,9.6L9.8,9.6L9.8,9.6L9.8,9.6L9.8,9.6z"/>
	<path class="st0" d="M9.6,9.6c0.1,0,0.1,0,0.1-0.2c0-0.1,0-0.1,0-0.1s-0.1,0-0.1,0.1C9.6,9.5,9.6,9.6,9.6,9.6c-0.1,0-0.2,0-0.2-0.1
		c0,0,0,0,0-0.1c0.1-0.1,0-0.1,0,0c-0.1,0-0.1,0-0.1,0s0-0.1-0.1,0l0,0l0,0c0,0-0.1,0-0.1-0.1c0,0,0.1-0.1,0.2-0.2L9.4,9
		c0,0,0,0-0.1,0H9.2c0,0-0.1,0.1-0.1,0.2C9,9.4,9,9.5,9.1,9.5s0.1,0,0.2,0l0,0v0.1c0,0.1,0,0.1,0.1,0.1C9.4,9.7,9.5,9.7,9.6,9.6
		L9.6,9.6z"/>
	<path class="st0" d="M12.6,8.6c-0.1,0,0,0.1,0,0.1c0,0.1-0.1,0.1-0.2,0.1c-0.1,0-0.1,0.1-0.2,0.2c0,0-0.1,0.1-0.1,0
		c0,0-0.1-0.1-0.2,0c0,0,0,0.1-0.1,0.1c0,0,0-0.1-0.1-0.1s0,0.1,0,0.1s0.1,0.1,0,0.1c0,0.1-0.1,0.1-0.2,0c0,0,0-0.1-0.1-0.1
		c0,0,0,0.1-0.1,0.1V9.1l-0.1,0.1c0.1,0.1,0.1,0.2,0.1,0.2v0.1c0-0.1,0-0.1,0-0.2c0.1,0,0.1,0,0.2,0c0.1,0,0.1-0.1,0.2-0.1
		c0-0.1,0-0.1,0-0.2c0.1,0,0.1,0,0.2,0c0,0,0,0.1,0,0.2c0,0.1-0.1,0.2-0.2,0.2c0,0,0,0.1,0,0c0.1,0,0.2-0.1,0.2-0.2
		c0-0.1,0-0.2,0-0.2c0-0.1,0.1,0,0.2,0c0.1,0,0.1-0.1,0.1-0.1c0-0.1,0-0.1,0.1-0.1s0.1-0.1,0.1-0.2C12.7,8.7,12.7,8.6,12.6,8.6
		L12.6,8.6z M12.4,9C12.5,9,12.4,9.1,12.4,9L12.4,9z M12.1,9.1C12.2,9.1,12.2,9.2,12.1,9.1L12.1,9.1z"/>
	<path class="st0" d="M9.1,9.6C9.1,9.5,9.1,9.5,9.1,9.6C9,9.5,9,9.6,9.1,9.6L9.1,9.6L9.1,9.6z"/>
	<path class="st0" d="M10.1,9.4L10.1,9.4C10,9.4,10,9.5,10.1,9.4C10.1,9.5,10.1,9.5,10.1,9.4z"/>
	<path class="st0" d="M8.8,8.9C8.8,8.8,8.8,8.9,8.8,8.9C8.7,9,8.7,9,8.6,9H8.5V8.9H8.4c0,0,0,0.1,0.1,0.1c0,0,0.1,0,0.1,0.1
		c0,0,0,0.1,0.1,0.1c0,0,0.1,0.1,0,0.1v0.1c0,0,0,0,0.1,0l0,0c0.1,0,0.2,0,0.2,0c0.1,0,0.1,0,0.1-0.1s0.1-0.1,0.1-0.2V9L9.1,9.1
		C9.1,9.2,9,9.2,9,9.3H8.9l0,0c0,0,0.1,0,0.1-0.1H8.9c-0.1,0-0.1,0.1-0.2,0.1c-0.1,0,0-0.1,0-0.1C8.7,9,8.8,9,8.8,8.9
		C8.9,8.9,8.9,8.9,8.8,8.9C8.9,8.9,8.9,8.9,8.8,8.9L8.8,8.9z M8.9,9.1C8.9,9.2,8.9,9.2,8.9,9.1C8.8,9.2,8.8,9.2,8.9,9.1
		C8.8,9.2,8.9,9.1,8.9,9.1L8.9,9.1z M8.8,9.2L8.8,9.2C8.8,9.3,8.7,9.2,8.8,9.2z"/>
	<path class="st0" d="M8.4,8.8C8.5,8.8,8.5,8.8,8.4,8.8c0-0.2,0-0.2,0-0.2s0.2,0,0.2,0.1c0,0,0,0,0,0.1v0.1l0.1-0.1
		c0,0-0.1-0.1-0.2-0.2H8.4c-0.1,0-0.1,0-0.1,0.1s0,0.1-0.1,0c0,0,0-0.1,0-0.2s0-0.2,0.1-0.2s0.1,0,0,0S8.1,8.4,8.1,8.5
		S8.1,8.8,8.4,8.8L8.4,8.8z"/>
	<path class="st0" d="M12.5,8.7C12.5,8.7,12.5,8.6,12.5,8.7c0-0.1,0-0.1,0-0.1s0,0,0-0.1c0,0,0,0-0.1,0h-0.1l0,0c0,0,0.1,0,0-0.1
		c-0.1,0-0.1,0-0.1,0.1C12.4,8.5,12.4,8.5,12.5,8.7C12.5,8.6,12.5,8.6,12.5,8.7C12.4,8.7,12.5,8.7,12.5,8.7L12.5,8.7z"/>
	<path class="st0" d="M12.9,8.6L12.9,8.6c0-0.1,0.1-0.1,0.1-0.1c0.1-0.1,0.1-0.1,0.1-0.2c0,0-0.1-0.1-0.2-0.2C12.8,8,12.7,8,12.7,8
		v0.1c0,0,0.1,0,0.2,0.1C13,8.3,13,8.4,13,8.4s-0.1,0-0.1-0.1l-0.1-0.1l0,0c0,0,0,0.1,0.1,0.1C12.9,8.5,12.9,8.5,12.9,8.6
		C12.8,8.6,12.8,8.6,12.9,8.6c-0.1,0-0.1-0.1-0.1-0.1c0-0.1-0.2-0.2-0.2-0.2l0,0c0,0,0,0,0,0.1c0,0,0.1,0.1,0.2,0.2
		C12.8,8.6,12.8,8.7,12.9,8.6C12.8,8.7,12.8,8.6,12.9,8.6L12.9,8.6z"/>
	<path class="st0" d="M13,8.1c0,0-0.2-0.3-0.3-0.3c0,0,0,0,0,0.1V8l0.1,0.1C13,8.1,13,8.2,13,8.1C13.1,8.2,13.1,8.1,13,8.1L13,8.1z"
		/>
	<path class="st0" d="M11.7,10.8C11.7,10.8,11.6,10.9,11.7,10.8C11.6,10.9,11.6,10.8,11.7,10.8C11.6,10.8,11.6,10.8,11.7,10.8
		C11.6,10.8,11.6,10.8,11.7,10.8C11.6,10.8,11.7,10.8,11.7,10.8L11.7,10.8z"/>
</g>
</svg>
