<?xml version="1.0" encoding="utf-8"?>
<!-- Generator: Adobe Illustrator 22.0.1, SVG Export Plug-In . SVG Version: 6.00 Build 0)  -->
<svg width="170px" height="130px" viewBox="0 0 170 130" version="1.1" xmlns="http://www.w3.org/2000/svg" xmlns:xlink="http://www.w3.org/1999/xlink" x="0px" y="0px" style="enable-background:new 0 0 170 130;" xml:space="preserve">
<title>South America</title>
<desc>Created with Sketch.</desc>
<g id="Creative-Round-2---Region-Selector">
	<g id="Region-Selector---Language" transform="translate(-304.000000, -152.000000)">
		<path id="South-America" d="M358,170v-0.3c0-0.4-0.3-0.8-0.3-1.2c0-0.7,0.3-0.9,0.3-1.5c0-1.2-1-1-1-2c0-0.8,1.1-1.1,1.4-1.6
			c0.4,0.1,0.3,0.1,0.7,0v-0.3c0-0.1,0.2-0.3,0.3-0.3c0-0.6,0.6-0.7,0.9-0.9c0.3-0.2,0.4-1,0.5-1.4c0.3-0.9,0.8-1.1,1.5-1.3
			c1.3-0.4,2.2-0.7,3.6-1.1c0.7-0.2,0.9-1.1,1.6-1.1c0.3,0,0.5,0.6,0.5,0.7c0,0.4-0.3,0.7-0.6,0.7c-0.2,0.8-0.5,1.8-0.5,2.3
			c0,0.6,0.3,1.7,0.9,1.7c0.2,0,0.5-0.7,0.5-0.9c0-0.7-0.7-1.1-0.7-1.7c0-0.8,0.9-0.7,1.4-1.1h1.3c-0.2-0.7-1.1-0.4-1.1-1.1l1,0
			c0.2,0.9,1.5,1.2,2.3,1.4c0,0.6,0.3,0.9,0.7,1h3c0,0.5,0.7,0.6,1.1,0.6c0.8-0.1,1.4-0.1,1.7-0.8c0.1-0.2,1.2-0.2,1.4-0.3
			c0.6,0,1.6,0.2,1.6,0.2c-0.2,0.2-0.7,0.2-0.8,0.1v0.4c0.4,0.8,1.6,0.9,2.4,1.2c0.7,0.2,0.6,1.1,0.8,1.8h1.6
			c1.1,1.1,1.6,0.9,2.2,2.3c0.1,0.2,0.6,0.3,0.8,0.3c0.4,1.6,2.7,1.4,4.3,1.7h1.5c0.4,0.2,1.3,0.6,1.8,0.6v0.1h0.3
			c0.9,0,2.1,1.8,3,2.1c0,0.7,0.7,2.5,1,3.1c0.3,0.6,1,0.6,1,1.1c-0.9,1.1-2.5,1.7-2.5,3.4c0,0.6,0.5,0.5,0.8,0.6
			c0.6,0.3,0.8,0.7,1,1.3h1.3c0,0.2,0.1,0.6,0.3,0.6c0.2,0,0.4-0.4,0.6-0.7c0.6-0.9,1.2-2.1,2.1-2.1c1,0,3,1.1,3.8,1.5
			c0.4,0.3,1,0.2,1.1,0.6c0.2,0.5,0.1,0.9,0.1,1.4h0.4c0.5-0.2,0.7-0.6,1.2-0.6c1.2,0,1.4,0.9,2.5,0.9l2.1-0.3
			c1.1,0.2,2,0.6,2.6,0.9c0.5,0.8,2.2,2.4,3.1,2.7c0.8,0.2,1.3-0.1,2.1,0.1c1.1,0.3,1.4,1.5,1.4,2.7c0,4.1-2.3,5.2-3.8,7.5
			c-0.3,0.5-0.6,0.6-0.9,1.1c-0.6,0.8-1.2,0.9-1.7,1.5c-0.8,0.8,0,2.7,0,4c0,1-0.4,1.9-0.4,2.7c0,0.3-0.2,0.5-0.3,0.7
			c-0.2,0.3-0.7,0.8-0.7,1.3c0,0.6-0.2,1.7-0.3,1.9c-0.8,1.3-1.1,1.8-2,3c-0.2,0.3-0.2,1-0.3,1.2c-0.3,0.7-1.5,1.5-2.5,1.5
			c-1.1,0-1.9-0.1-2.7,0.3c-0.3,0.2-0.4,0.4-0.6,0.6c-1.3,1.3-2.7,0.6-3.8,2.1c-0.4,0.7-1.2,0.7-1.6,1.2c-0.7,0.7-0.6,1.5-0.6,2.6
			v2.6c-1.1,0.6-1.7,1.5-2.2,2.7v-0.1c-0.4,0.7-0.3,1.1-0.8,1.8c-1,1.5-2.1,1.7-3.1,3.1c-1.1,1.7-1.5,4.5-4.1,4.5
			c-0.9,0-2.1-0.6-2.5-0.6c-0.8,0-1.5-0.7-2.4-0.7c-0.2,0-0.4,0.1-0.4,0.3c0,0.5,0.8,0.8,1,0.9c0.4,0.4,0.4,1.1,0.7,1.7
			c0.2,0.6,1.1,0.6,1.1,1.2c0,0.7,0,1-0.3,1.5c-0.5,0.8-0.9,1.1-1.5,1.7c-1,0.9-2.1,0.7-3.5,1.1c-0.9,0.3-2.7-0.3-3.2,0.2
			c-0.7,0.7-0.2,2.4-0.6,3.2v-0.1v0.7c0,0.3-0.9,0.7-1.3,0.7c-1.2,0-1.4-0.8-2.5-0.8c-0.4,0-0.6,0.4-0.6,0.7c0,0.8,0.7,2.2,1.2,2.2
			c0.3,0,0.6-0.3,0.8-0.4c0.2,0.2,0.5,0.3,0.5,0.6c0,0.3-0.4,0.7-0.6,0.7c-0.7,0-0.9-0.5-1.5-0.5c0,0.6,0.3,0.7,0.6,0.8
			c-1,1-1,2-1.3,3.4c-0.1,0.6-1.1,0.7-1.5,0.7c-0.9,0.2-1.7,1-1.7,2c0,2.2,2.5,1.4,2.5,3.1c0,1.6-1.4,1.7-2.2,2.5
			c-0.4,0.4-0.3,1.2-0.6,1.9c-0.4,0.8-1.3,0.4-1.8,0.9c-0.7,0.7-1,1.5-1,2.5c0,0.6,0.5,1.2,0.8,1.3c1,0.6,1,3.1,1.7,3.9
			c1.2,1.2,2.7,1.7,4.3,2.5c-0.2,0.3-0.6,0.2-0.9,0.2c-0.8,0-2.2,1.1-2.7,1.1h-0.6c-0.2,0-0.4,0.2-0.6,0.2h-1.6
			c-1.3,0-0.8-1.5-1.7-1.8c-0.8-0.3-2.1-0.3-2.1-1.3h-1.1c-0.4,0-0.6-0.5-0.6-0.7c-1.6,0-2-0.8-2.7-1.5c-0.2-0.2-0.5-0.5-0.5-0.6
			c0-0.5,1-0.5,1.1-1c-0.2-0.1-0.3-0.2-0.4-0.3c0.2-0.3,0.4-0.6,0.4-1c0-1.3-1.5-1.1-1.5-2.3v-0.8c0-1.2-0.8-3.2-0.8-4.1
			c0-1,1.3-1.4,1.3-2.3c0-0.4-0.7-1.3-0.8-2v-0.6h0.1c0-0.3,0.2-0.6,0.5-0.6c1,0,0.6,1,1.5,1l1.8-8.3v-0.8c-0.2,0-0.3-0.1-0.5,0
			c-0.4,0.2-0.4,0.6-0.8,0.6c-0.4,0-0.8-1.3-0.8-1.9c0-1.1,0.4-1.5,0.6-2.5c0.4,0,0.6-0.2,0.6-0.3c0-0.3-0.3-0.6-0.3-0.6
			c-0.2,0-0.3-1.6-0.3-2c0-1.3,0.8-2.6,1.3-3.4c0.2-0.4,0.3-1.2,0.6-1.6c0.2-0.2,0.5-0.2,0.5-0.4c0.4-1.3,0.4-2.2,0.7-3.6l-0.1-4.2
			c-0.3-1,0.3-1.8,0.3-2.7c0-2.1,1.3-3.5,1.3-5.4v-0.5c0-0.4,0.3-1.4,0.4-2v-2.5c0-0.8,0.5-2.3,0.5-3.2c0-0.6-0.3-3.9-0.4-4.5
			c-0.5-1.3-1.4-2.2-2.4-2.7c-0.8-0.4-1.5-0.3-2.1-0.9c-0.7-0.7-1-0.9-1.8-1.1c-1.6-0.5-2.4-1.3-3.4-2.3c-0.5-0.4-0.2-1.1-0.2-1.7
			c0-0.9-0.8-1.3-1.1-2.1c-0.4-1.3-1.6-2.4-2-3.6c-0.4-1.3-0.7-2-1.2-3.1c-0.2-0.3-0.6-0.2-0.7-0.4c-0.4-0.4-0.5-1.2-0.7-1.6
			c-0.2-0.3-0.6-0.2-0.8-0.5c-0.6-0.6-1.4-1.7-1.4-2.7c0-0.7,0.4-1.5,0.6-1.7c0.5-0.8,1.5-1.1,1.7-2c-0.5-0.3-0.4-0.1-0.8-0.1
			c-0.8,0-0.9-1.1-0.9-1.9c0-1.3,1.4-1.1,1.2-3.5c1.5,0,1.9-1.5,2.4-2.4c0.6-1.2,2.1-0.8,2.4-2.4c-0.3-0.1-0.6-0.4-0.6-0.6L358,170
			L358,170z"/>
	</g>
</g>
</svg>
