<?xml version="1.0" encoding="utf-8"?>
<!-- Generator: Adobe Illustrator 22.0.1, SVG Export Plug-In . SVG Version: 6.00 Build 0)  -->
<svg width="170px" height="130px" viewBox="0 0 170 130" version="1.1" xmlns="http://www.w3.org/2000/svg" xmlns:xlink="http://www.w3.org/1999/xlink" x="0px" y="0px" style="enable-background:new 0 0 170 130;" xml:space="preserve">
<title>Australia</title>
<desc>Created with Sketch.</desc>
<g id="Creative-Round-2---Region-Selector">
	<g id="Region-Selector---Language" transform="translate(-1163.000000, -153.000000)">
		<path d="M1227.2,174.9C1227.2,174.9,1227.1,174.9,1227.2,174.9c0,0.2,0,0.5,0,0.7c0,0.2,0,0.5,0,0.7c0,1.1,0,2.2,0,3.3
			c0.6,0,0.7,0.1,1.3,0.2c0.4,0.1,0.8-0.2,1.3-0.1c0.2,0,0.7,0.4,0.9,0.4c0.2-0.1,0.4-0.2,0.6-0.3c0.1-0.1,0.1-0.2,0.2-0.2
			c0.2-0.1,0.5,0.1,0.6-0.1c0.6-1-1-1.6-1.7-1.4c-0.1,0-0.2,0-0.2-0.1c0.3,0,0.6-0.2,0.9-0.1c0.1,0,0.2,0.1,0.3,0.1
			c0.3,0,0.5-0.2,0.7-0.2c0.2,0,0.5,0.2,0.6,0c0.1-0.2-0.2-0.5-0.4-0.7c0.3,0.1,0.6,0.2,0.9,0.2s-0.2-0.4,0-0.2
			c0.1,0,0.2,0.2,0.2,0.1c-0.3-1-0.1-0.2-0.4-0.9l0,0c1,1,1.1,0.1,1.2,0.1c0.2,0,0.2,0.3,0.4,0.4c0.2,0.1-0.1-0.6,0.1-0.6
			c1.4-0.4,0.3,0.3,0.8,0.6c0.8,0.6,1.8,0,2.6,0.6c0.1,0.1,0.7,1.1,0.9,1.3c0.1,0.1,0.2,0.1,0.2,0.2s-0.1,0.3,0,0.4
			c0.2,0.2,0.9-0.2,0.8,0.1c-0.3,1.2,0.5,0.8,0.7,1.1c0.1,0.1,0.8,1.2,0.9,1.2c0.1,0,0.2-0.1,0.3-0.1c0.2,0,0.4,0,0.6,0.1
			c0.2,0.1,0.4,0.2,0.6,0.2c0.2,0,0.3-0.2,0.5-0.2c0.2,0,0.4,0.3,0.6,0.4c0,0,1.6,0.1,1.7,0.1c0.4,0.3,0.2,0.9,1,0.7
			c0.2,0,0.5-0.1,0.7-0.2c0.1,0,0.3,0,0.2-0.1c-0.2-0.2-0.9-0.5-0.7-0.5c0.1,0,1.1,0.3,1.1-0.2c0-0.2-0.3,0.1-0.5,0.1
			c-0.1,0-2.1-0.6-1.9-1c0.1-0.2,0.6-0.2,0.6-0.4s-0.4-0.1-0.6-0.1c-0.1,0-0.2,0.1-0.3,0.1c-0.6,0-0.1-0.1-0.6-0.2
			c-0.1,0-0.2,0-0.2,0c0-0.4,0.5-1.1-0.2-1.1c0,0-1,0.5-1.1,0.2c-0.2-0.3-0.1-0.7-0.3-0.9c-0.1-0.1-0.3-0.1-0.5-0.2
			c-0.2-0.2-0.1-0.6-0.2-0.9c0-0.1,0-0.2,0-0.2c-0.2-0.1-0.3-0.2-0.5-0.2c-0.1,0-0.2,0.1-0.3,0c-0.2-0.1-0.2-0.4-0.3-0.5
			c-0.2-0.2-0.7-0.2-0.8-0.5c-0.1-0.2-0.2-0.4-0.2-0.7c0-0.1,0-0.2,0-0.3c0-0.2-0.4-0.4-0.2-0.6c0.4-0.4,2.6,0.7,1.8-0.9
			c-0.4-0.9-0.8-0.5-1.5-0.8c-0.5-0.2-0.9-0.6-1.3-0.8c-0.3-0.2-1-0.2-1.3-0.2c-0.1,0-0.2,0.1-0.2,0c-0.1-0.2,0.3-1.1,0.1-1.4
			c-0.3-0.4-0.6-0.7-1-0.9c-0.2-0.1-0.4,0-0.5-0.1c-0.2-0.1-0.3-0.4-0.5-0.6c-0.2-0.1-0.5-0.1-0.6-0.2c-0.1-0.1,0-0.3-0.1-0.4
			c-0.2-0.1-0.5,0-0.8,0c-0.1,0-0.2,0-0.3,0c-0.6-0.3-0.6-0.6-1.1-0.8c-0.8-0.4-2.2-0.3-3.1-0.8c-0.6-0.3-1.2-0.8-1.8-0.9
			c-0.1,0-0.5-0.1-0.5,0v5.6v1.4c0,0.1,0,0.3,0,0.4c0,0.1,0,0.3,0,0.4c0,0.1-0.3,0.6-0.3,0.6
			C1226.8,174.9,1226.8,174.7,1227.2,174.9z"/>
		<path d="M1252.8,184.3c0.1,0.1,0.1,0.3,0.2,0.4c0.2,0.1,0.4,0.2,0.7,0.2c0.1,0,0.4,0.1,0.4,0
			C1254,184.9,1252.9,184.3,1252.8,184.3z"/>
		<path d="M1252.4,179.7c0-0.4-0.8-0.3-0.9-0.3C1251.7,179.5,1252.5,180.5,1252.4,179.7z"/>
		<path d="M1248.3,178.2c0,0.2-0.1,0.7,0.1,0.6c0.2-0.1,0-0.5,0-0.7L1248.3,178.2z"/>
		<path d="M1247,180.7c0.2,0.2,0.5,0.1,0.7,0.1c0,0,0.1-0.1,0.1,0l0.1,0.1c0-0.2-0.1-0.4-0.2-0.5c-0.2-0.1-0.4-0.1-0.6-0.2
			C1247.1,180.3,1246.9,180.6,1247,180.7z"/>
		<path d="M1246.6,179.8c-0.1,0.1-0.3,0.1-0.3,0.2c0.1,0.2,0.3,0.3,0.6,0.3c0.1,0,0.1-0.1,0-0.2
			C1246.8,180.1,1246.7,180,1246.6,179.8z"/>
		<path d="M1232,178.1c0.2,0.1,0.4,0.4,0.6,0.2C1232.7,178.2,1232.2,178.1,1232,178.1C1232,178,1232,178.1,1232,178.1z"/>
		<path d="M1248.2,166.2c0.8,0.3,1.3,1.1,2,1.4c0.5,0.2,0.3-0.2,0.7,0.2c0.2,0.2,0.8,1,0.9,1.3c0.1,0.4-0.3,1.1,0.4,1.4
			c0.1,0,0.1-0.1,0.2-0.2c0.2-0.6,0.5-1.1-0.1-1.6c-0.2-0.2-0.6-0.2-0.8-0.4c-0.2-0.2-0.8-1.1-1.1-1.2c-0.9-0.4-1.8-0.8-2.6-1.4
			c0,0.1-0.2,0.3-0.1,0.4C1247.8,166.3,1248,166.2,1248.2,166.2z"/>
		<path d="M1243.2,172.7c0.1,0,0.2,0,0.2,0c0.6,0.4,0.4,0.1,1.2,0.4c0.2,0.1,0.4,0.4,0.6,0.5c0,0,1.5,0,1.6,0c0.2,0,2-0.9,2-1
			c0.1-0.1,0.3-0.2,0.4-0.3c0-0.1-0.2-0.3-0.1-0.3c0.4-0.1,1.1,0.5,1.4-0.2c0.1-0.3-0.6-0.7-0.3-0.9c0.8-0.5,0.5,0.7,0.9-0.7
			c0.4-1.5-0.5-0.1-0.5-1.1c-0.2,0.1-0.3,0.4-0.5,0.4c-0.2,0-0.3-0.2-0.5-0.3c-0.1,0-0.3,0-0.4,0l0,0c0.1,0.7,0.2,0.7,0.3,1.2
			c0,0,0.2,0.2,0,0.3c-0.3,0.1-0.7,0-0.9,0.2c-0.7,0.7-0.3,1.1-1.4,1.2c-0.4,0-1.3,0.2-1.2-0.5c0-0.2,0.3-0.3,0.4-0.5
			c0-0.1-0.2-0.2-0.2-0.1c-0.1,0.1,0,0.3-0.1,0.5c-0.1,0.1-0.2,0.2-0.2,0.3c0,0.1,0.2,0.3,0.1,0.3c-0.2,0-1.4,0.3-1.5,0.2
			c-0.2,0-0.3-0.2-0.4-0.2c-0.3-0.1-0.5,0-0.8,0c-0.1,0-0.1,0.1-0.2,0.1c-0.1,0-0.4-0.3-0.4-0.1c0,0.2-0.1,0.5,0,0.6
			C1242.8,172.7,1243.1,172.7,1243.2,172.7z"/>
		<path d="M1242,172.3c0.1-0.2-0.3-0.2-0.5-0.3c-0.1,0.1-0.3,0.2-0.2,0.2C1241.6,172.3,1241.9,172.5,1242,172.3z"/>
		<path d="M1239.4,165c0.3,0,1.4,0.1,1.2-0.5c-0.5,0-2.4-0.2-1.8,0.6C1239,165.2,1239.2,165,1239.4,165z"/>
		<path d="M1245.6,163.7c0.1-0.2-0.3-0.3-0.4-0.5c0,0.1-0.2,0.2-0.1,0.2C1245.2,163.6,1245.6,163.9,1245.6,163.7z"/>
		<path d="M1246.4,166c0.9,0.4,0.9-1-0.5-0.4C1246.1,165.7,1246.2,165.9,1246.4,166z"/>
		<path d="M1261.2,175.5c-0.1-0.2-0.1-0.4-0.3-0.6c-0.2-0.2-0.9-0.5-1.2-0.6c-0.1,0.4,0.8,1.3,1.1,1.4c0.2,0.1,0.4,0.2,0.6,0.2
			c0.1,0,0.5,0,0.4,0C1261.7,175.8,1261.4,175.7,1261.2,175.5z"/>
		<path d="M1259.9,176.4c-0.1,0.3-0.3,0.6,0.3,0.8c0.1,0,0.2-0.2,0.2-0.4C1260.3,176.6,1260.1,176.5,1259.9,176.4z"/>
		<path d="M1267,178.5c0.1-0.9-1.2-1.2-1.7-1.4c-0.7-0.4-0.2-0.3-0.7-0.6c0,0-0.5-0.1-0.6-0.1c0.6,0.8,1,1.2,2,1.6
			c0.4,0.1,0.5,0.4,0.8,0.6C1266.8,178.5,1266.9,178.5,1267,178.5z"/>
		<path d="M1262.7,178.5c0.2-0.1-0.7-1.1-0.8-1.3C1261.9,177.3,1262,179,1262.7,178.5z"/>
		<path d="M1268,180.3c-0.8-0.3-0.6,0.3-1.4-0.4c-0.6,1.6,0.4,1,1.3,1.2c1,0.2-0.8,0.2,0.7,0.2
			C1269.4,181.4,1268.3,180.4,1268,180.3z"/>
		<path d="M1267.8,179.6c0.1-0.1-0.2-0.2-0.3-0.2c0,0-0.2,0.1-0.1,0.1C1267.5,179.6,1267.6,179.7,1267.8,179.6z"/>
		<path d="M1270.1,180.7c0-0.3-0.3-1.3-0.5-1.4c-0.1-0.1-0.4-0.1-0.5-0.3c-0.1-0.3,0.6-0.5-0.5-1.1c-0.8,0.2,0.4,1.8,0.8,2.1
			c0.1,0.1,0.2,0.1,0.2,0.2c0.1,0.1,0.1,0.3,0.2,0.4C1270,180.7,1270.1,180.8,1270.1,180.7z"/>
		<path d="M1271.9,183.3c-0.1-0.3,0.1-0.6-0.3-0.8c-0.2-0.1-0.4,0-0.7-0.1c-0.4-0.1-0.6-0.4-1-0.5c0.1,0.1,0.3,0.2,0.4,0.4
			c0.1,0.2,0.1,0.4,0.2,0.6c0.3,0.4,1.1,0.3,1.4,0.5C1272.1,183.3,1271.9,183.3,1271.9,183.3z"/>
		<path d="M1268.1,185.1c-0.1-0.1-0.3-0.2-0.5-0.2c-0.2-0.1-0.3-0.2-0.5-0.2C1267,184.9,1269.1,185.7,1268.1,185.1z"/>
		<path d="M1257,172.7c-0.1-0.1-0.1-0.6-0.3-0.7c-0.2-0.1-0.4-0.2-0.7-0.2h-0.1c0,1.6,1.1,1.8,1.1,1.9c0,0.2-0.1,0.3-0.1,0.5
			s0.2,0.3,0.4,0.4c0.2,0.2,1,0.6,1.2,0.1C1259.1,173.9,1257.4,173.3,1257,172.7z"/>
		<path d="M1255.9,171.9c0.2,0.3,0.1-0.7,0-1C1255.6,171.2,1255.7,171.7,1255.9,171.9z"/>
		<polygon points="1168.5,217 1168,215.8 1168,216.5 1168.5,217.4 		"/>
		<path d="M1217.9,184.2c-0.1,0.1-0.2,0.3-0.2,0.4C1217.7,184.8,1218.7,182.9,1217.9,184.2z"/>
		<polygon points="1205.2,185.4 1205.9,185.8 1206.6,185.4 1206.8,185 1207,185.1 1207,184.8 1207.2,184.8 1206.9,184.4 
			1206.6,184.4 1206.6,184.2 1206.4,184.4 1206.5,184.8 1206.3,184.3 1206.2,184.5 1206.1,184.4 1206.1,184.8 1206,184.5 
			1206,184.5 1205.8,184.4 1205.4,184.6 1205.6,185 1205.4,184.8 1205.3,184.5 1205.2,184.6 1205.2,184.7 1205.2,184.7 
			1205.2,184.6 1205.2,184.4 1204.7,184.1 1204.9,185 1204.6,185 1204.8,184.9 1204.6,185 1204.8,184.7 1204.6,184.4 1204.2,184.8 
			1204.4,184.9 1204.3,184.9 1204.3,185.2 1204.4,185.2 1204.4,185.4 1204.3,185.2 1204.2,185.3 1204,185.2 1204,185.4 
			1203.9,185.4 1205.2,185.6 		"/>
		<polygon points="1218.3,189.7 1218.3,189.9 1218.1,189.9 1218,189.6 1218.1,189.5 1217.7,189.5 1217.9,189.7 1217.4,189.9 
			1217.4,190.2 1217.5,190.5 1217.2,190.7 1217.5,190.6 1217.9,190.9 1218.5,190.9 1218.5,190.5 1218.4,190.7 1218.1,190.6 
			1218.1,190.3 1218.3,190.3 1218.2,190.1 1218.5,189.8 		"/>
		<polygon points="1252.6,214.2 1252.9,214.6 1252.3,215.2 1252.5,215.2 1252.3,215.7 1252.2,216 1252.5,216.5 1253.1,214.7 
			1252.9,214.4 1252.9,214 		"/>
		<polygon points="1223.6,195.9 1223.8,196 1224,195.6 1224.1,195.8 1224.4,195.7 1224,195.4 1223.5,195.6 1223.2,195.9 
			1223.5,196.1 		"/>
		<polygon points="1220.3,241.1 1220.3,240.8 1219.9,240.8 1220,240.4 1217.8,240.9 1217.7,241.2 1218.1,241.7 1218.7,241.6 
			1219.1,241.5 1219.7,241.7 1219.9,241.5 1220,241.3 1220.9,241.3 1221,241 1220.5,240.8 		"/>
		<path d="M1253.5,222.3v-0.1l-0.3-0.3l-0.2-0.8l-0.1-0.6l-0.2-0.3l-0.2,0.1l0.1-0.2l-0.3-0.1l0.2-0.2l-0.2-0.2l0.3-0.1l-0.2-0.2
			v-0.2l0.3,0.4l-0.2-0.6l-0.1,0.2l0.1-0.5l-0.1-0.1l0.1-0.6h-0.1l0.3-1.1h-0.1l-0.1-0.3l-0.2,0.5l0.1-0.3h-0.2l0.1-0.1l-0.3-0.2
			V216l0.2-0.2l-0.4,0.1l0.3-0.1l-0.1-0.3l-0.7-0.2l0.2-0.1l-0.4-0.5l0.1-0.3l-0.2-0.1v0l0.1-0.2l-0.4-0.2v0.1l-0.3-0.3l-0.4-1
			l-0.3-0.1l0.1-0.3l-0.1,0.2v-0.2l-0.2-0.1l0.1,0.3l-0.3-0.1v0.1l-0.3-0.1v0.1l-0.9-1.2l-0.1,0.4l-0.3-0.4l0.1-0.1l-0.2-0.4
			l0.1-0.1l-0.2-0.7h0.1l0.1-0.5l-0.1-0.3v0.2l-0.1-0.1l-0.1-0.3l0.2,0.1l0.1-0.1l-0.2-0.3v0.3l-0.1-0.3l-0.1-0.1l-0.1,0.2l0.2,0.3
			l-0.2-0.1l0.1,0.3l-0.9-0.7l-0.3-0.5l-0.1,0.2l-0.2,0.3l0.2,0.5l0.1,0.3l-0.1-0.2l-0.4-0.5l-0.4,0.5l0.2-0.5h-0.3l0.1-0.1
			l-0.1-0.1l-0.1,0.1l0.3-0.1l-0.4-0.9l0.1-0.7l-0.1,0.1l-0.3-0.3l-0.1,0.1v-0.6l-0.3,0.1l0.1-0.2h-0.1l0.1-0.3l-0.3-0.3v0.1
			l0.1-0.3h-0.5l-0.1-0.2l0.1-0.1l-0.3-0.2l0.1-0.1l-0.2-0.2l0.2-0.1l-0.1-0.1l0.2,0.1l0.1-0.1l0.3,0.3l-0.4-0.7l-0.2,0.1v-0.2h-0.2
			l-0.1-0.3h-0.2h-0.1v0.3l-0.2-0.1l-0.3-0.3l0.1-0.1v-0.1l-0.3-0.1l-0.4,0.1l-0.1-0.5h-0.2l0.1,0.3l-0.3-0.1l-0.4-0.4l0.3,0.1
			l-0.4-0.9v0.3l-0.6,0.1l-0.3-0.6l-0.1,0.3h-0.2l-0.2-0.3l-0.7-0.3l-0.4-0.5l0.1-0.7h-0.2l-0.5-0.8l0.3-1.1h-0.1v-0.5l-0.4-0.7
			l0.1-0.3l-0.3,0.1l-0.8-1.1v-0.3h0.1v-0.5l-0.3-0.3l-0.1-0.7l-0.3-0.3l0.3-0.4V193l0,0v-0.4l0.3-0.3h-0.1l-0.2-0.3l-0.4-0.1
			l-0.3-0.4l-0.5-0.1l-0.3-0.9l-0.4,0.3l-0.3-0.1l-0.1,0.4l-0.4,0.2l-0.3-0.3l-0.2-0.9l-0.3-0.5l0.1-0.7l-0.2-0.7l0.1-0.6l-0.5,0.3
			l0.2-0.6l-0.4-0.3v-0.3l-0.3-0.1l-0.1-0.5l0.4-0.3l-0.3-0.1l-0.3,0.1l-0.2-0.2v-1l-0.3-0.8h-0.2l-0.1-0.3v0.1l-0.3,0.1l0.3-0.5
			l-0.1-0.1l-0.1-0.1l-0.3,0.1l-0.2,0.4l-0.4,0.1l0.1,0.3l-0.2,0.9h-0.1l-0.1,0.5h0.2l-0.3,0.1l-0.1,0.4l0.1,0.2l0.1-0.1l-0.1,0.2
			l0.2-0.1l-0.1,0.3l-0.1-0.5l-0.3,0.5l0.2,0.1h-0.2l-0.3,0.7h0.2l-0.1-0.3l0.2,0.1l-0.1,0.1l0.3,0.2h0.3l-0.3,0.1l0.3,0.1l-0.1,0.1
			l0.1,0.3l-0.3-0.5l-0.1,0.3l-0.4,0.4l0.2,0.6l-0.1,0.2l0.1-0.1l-0.1,0.1l0.1,0.1h-0.3l-0.3,1l0.3,0.7l-0.2,0.7l0.3,1.2l-0.3,1.1
			l-0.2,0.8l0.1,0.3l-0.4,1.3l-0.5,0.7l-0.1,0.9l-0.6,0.5l-1.1,0.3l-0.2-0.1l-0.4-0.3l-0.5-0.1l-0.3-0.3l-0.5-0.2l-0.1-0.6l-0.2-0.3
			l-0.9-0.3l-1.1-0.1l-0.6-0.8l-0.2-0.3l-0.7-0.2l-0.9-0.6l-0.2,0.1l0.1,0.1l-0.3-0.1l-0.2,0.1v-0.3l-0.7-0.3l-0.3-0.6l-1.1-0.7
			l-0.1,0.1v-0.1l-0.2,0.1l-0.3-0.3l-0.1-0.5l0.4-0.1l0.3-0.8l0.4-0.2l0.1-0.4l0.3-0.7l-0.3,0.2l-0.1-0.1l-0.1-0.7l0.1,0.1l0.1-0.1
			l-0.2-0.1l0.1-0.2l0.2-0.1l0.1,0.2l0.2-0.4l0.1,0.3l0.1-0.3l0.2,0.1l0.1-0.2l0.1,0.3l-0.1,0.2l0.3-0.1l0.2-0.4l-0.3-0.3l0.4,0.1
			l-0.4-0.5l0.1,0.1l0.1-0.1l0.1,0.2l-0.1-0.3h0.3l0.1-0.3l-0.1-0.2h0.1v0.2l0.4-0.5l-0.4-0.4l-0.1,0.1l0.1,0.1h-0.2l-0.3-0.6h-0.1
			l0.2-0.3l-0.8,0.6l0.5,0.1l-0.2,0.4l-0.2,0.2l-0.3-0.1l-0.1,0.2v-0.2h-0.1l0.2-0.3l-0.2,0.1l-0.1-0.1l0.3-0.3l-0.5,0.3h-0.2
			l-0.2-0.1l0.5-0.6l-0.7,0.4V186l-0.3,0.1l-0.3,0.2l0.3,0.1l-0.4-0.1l0.1,0.2l-0.8-0.3l-0.2-0.5l-0.3,0.3l-0.8-0.2l-0.2,0.4
			l0.1-0.3l-0.1-0.3l-0.1,0.1l-0.1-0.2l-0.3,0.2l-0.2-0.2l0.2-0.2l-0.3-0.1l-0.6,0.3l0.1-0.3l-0.1,0.1l-0.1-0.2l-0.2,0.1l0.1-0.2
			l-0.4,0.1l-0.5-0.8h-0.1l0.1,0.2l-0.1-0.1l-0.3,0.3l-0.5-0.7l-0.1,0.2l-0.3-0.2l-0.2,0.1l0.1,0.2l-0.4-0.3l0.1,0.4l0.1,0.1
			l-0.1,0.2l-0.1-0.5l-0.4-0.2v0.3l-0.3-0.1l0.1,0.1l-0.1,0.1l0.3-0.1l0.1,0.1l-0.1,0.2l0.3,0.1l0.1,0.2l0.3-0.1l0.6-0.1v0.1h0.1
			l-0.1,0.1l0.2,0.1h-0.1l0.1,0.1l-0.1,0.1h0.3h0.1l-0.3,0.3l0.3,0.2l-0.1,0.1l-0.1,0.4l0.3,0.1l-0.5-0.1l-0.2,0.1l-0.2,0.3
			l-0.1-0.3l-0.2,0.1l-0.1-0.2l-0.3,0.3l-0.3-0.2l-1,0.2l-0.3-0.2l-0.1-0.3l-0.1,0.4l-0.5-0.2l0.1,0.5l-0.3-0.1l-0.1,0.1l0.3,0.3
			h-0.3l0.1,0.2l-0.1,0.1l-0.1-0.3v0.1l-0.1,0.1l0.1-0.3l-0.4-0.1l0.1,0.5h-0.3l0.4,0.2h-0.2v0.1l-0.3-0.3l-0.2,0.1l0.1,0.1
			l-0.1-0.1v0.5l-0.5,0.1v0.5l0.4,0.5l-0.1-0.1l-0.5,0.4l-0.2-0.1V189l-0.2,0.1l-0.1,0.6l0.1-0.1l-0.3,0.2l0.1,0.3l-0.2,0.1h-0.2
			l0.1,0.3l-0.1-0.1l-0.1,0.3l-0.1-0.2l-0.3,0.5v0.2l0.2,0.2l0.1-0.1v0.2l0.3-0.1l0.1,0.1l0.3-0.1l-0.1,0.1l-0.3,0.2h0.2v0.1h-0.1
			v0.1l0,0l0.2-0.1v0.2l0.5-0.3v0.2h-0.3l0.1,0.1h-0.1h-0.1h-0.3l0.1,0.3l-0.1-0.1l0.1,0.5h-0.3l-0.2-0.5l-0.2-0.1l0.1,0.3l-0.3-0.4
			l0.1,0.1h-0.1h-0.1l0.1,0.2l-0.1,0.1l0.2,0.1h-0.2l-0.1,0.3v-0.2l-0.1,0.4l0.1-0.3l-0.1-0.1l-0.1-0.2v-0.3l-0.1,0.2V192h-0.2h-0.4
			l-0.1-0.1l-0.3-0.1l-0.4,0.1l0.3,0.2l0.1,0.3l-0.3-0.3l0.2,0.3l-0.1-0.1l-0.1,0.1l-0.1-0.1l-0.1,0.3l-0.1-0.3l-0.1,0.2l0.3,0.9
			h-0.1l-0.1-0.3l-0.3-0.3v0.5l-0.2,0.2l0.1-0.3l-0.2-0.2l0.1-0.1l-0.1-0.4l0.2-0.5h-0.1l0.3-0.1l-0.1-0.1l0.1-0.1l-0.5-0.3
			l-0.1,0.1l-0.5-0.9l-0.5-0.3l-0.1-0.3h-0.1l0.1,0.2l-0.3-0.2l-0.1,0.1V190l-0.1,0.1l-0.1-0.3l-0.4-0.1v0.1l-0.3-0.1l0.1,0.3
			l0.3,0.1h-0.1h-0.4l0.1,0.2l-0.1,0.1l-0.1-0.1l-0.1,0.4l-0.2-0.4l-0.1,0.1l0.1-0.3l-0.4,0.3l-0.1,0.1l0.1,0.1l-0.2,0.1l-0.1-0.3
			h-0.1l0.1-0.1h-0.1l0.1-0.1l-0.2,0.1l-0.2-0.1v0.1l-0.1-0.1v0.1l0.4,0.2l-0.3,0.2l0.1,0.2l-0.2,0.1l0.1,0.3h-0.3v0.3l-0.2-0.2
			l0.1-0.3l-0.3,0.1V191l-0.2,0.5l0.1-0.6l0.1-0.2l-0.3-0.1v0.7l-0.2-0.1l-0.1,0.3l-0.1-0.2l-0.1,0.1l0.1-0.3l-0.3,0.3l0.1,0.1
			l-0.4,0.2l0.2,0.3h0.3l-0.3,0.2l0.4,0.1l0.1-0.1l0.1,0.1l-0.3,0.3l0.3,0.1h-0.3v-0.1l-0.3,0.2l-0.2-0.5l-0.1,0.1l0.1,0.3h-0.5
			l0.1,0.1v0.2l0.4-0.3l-0.4,0.3l0.1,0.1l0.3-0.2v0.1h0.1l-0.2,0.2l0.4,0.3l-0.3-0.3l-0.1,0.1l-0.1-0.3l-0.3,0.2V193l-0.2,0.1
			l-0.1,0.3l-0.1-0.1l-0.1,0.2l-0.3-0.1l0.1,0.1l-0.3,0.2l0.1,0.1h-0.1l0.3,0.7l0.1-0.1l0,0l0.1-0.2l-0.1,0.1l0.2-0.3l0.2-0.1
			l-0.1,0.1h0.2l-0.3,0.2l-0.1,0.5h0.1l-0.3,0.1l0.1,0.1v0.1l-0.1-0.3l-0.1,0.6l0.5-0.1l0.3,0.1l-0.6,0.1l-0.1-0.1l-0.3,0.1l0.1,0.1
			l-0.3,0.1l0.2-0.1l-0.2-0.1l-0.2-0.3l-0.5-0.1l0.2,0.2h-0.1l0.1,0.2l-0.3-0.2v0.1l-0.3-0.1h0.1l-0.1-0.2h0.1l-0.3-0.1v0.1
			l-0.2-0.1l0.1,0.1l-0.1-0.1l0.1,0.2l-0.1,0.1l0.3,0.1l0.1,0.1l-0.2-0.1l0.2,0.1h-0.1h-0.1h-0.3l0.3,0.2h-0.5l0.1,0.2l0.1-0.1
			l0.2,0.1l-0.2,0.2l0.5,0.1l0.1,0.4l0.3-0.1v-0.1l0.1,0.1l-0.3,0.3l0.1,0.1l-0.2-0.1l0.3,0.6l-0.6-0.6l-0.2,0.1l0.3,0.5l-0.1-0.1
			l-0.1,0.3v0.3l-0.4-0.4l-0.2-0.7l-0.3-0.2V196h-0.2l-0.2-0.2l0.1-0.3l0.2-0.1l-0.1-0.2l-0.3,0.2l-0.4,0.6l0.2,0.2l-0.5-0.1
			l-0.1,0.2l0.1,0.3l-0.3-0.1v0.1l-0.3,0.1l-0.1,0.3l0.1,0.1l-0.3,0.3l-0.1,0.6l0.2,0.5l-0.1,0.5l0.5,0.1v0.3l-0.9,0.7l-0.3,0.1
			l-0.2,0.3l0.1,0.2l-0.3,0.1l0.1,0.3l-0.4,0.2l-0.8,1l-1.9,0.8l-0.5,0.1h-0.5l-0.2,0.1l-0.3,0.2l-0.2-0.2l-0.6-0.1l0.1,0.1v0.1
			l-0.1-0.1l0,0l-0.1,0.1l-0.5,0.6l-1.4,0.2v-0.1l-0.5,0.3l0.1,0.1h-0.2l-0.1,0.3l-0.3,0.1v-0.1l-0.5,0.3l-0.4-0.2l-0.1-0.2
			l-0.6,0.3l-0.2-0.1l-0.2-0.1l0.2-0.3h-0.1l-0.3,0.4l0.1,0.1h-0.1l-0.8,0.3l-0.2-0.1l-0.1,0.3l-0.5,0.3l-0.2,0.4l-0.3,0.1l-0.3,0.5
			l-1.3,0.3l-0.5,0.3l-0.1,0.4l-0.1,0.1l-0.1-0.1l0.1,0.3l-0.2,0.3l0.1,0.1l-0.1-0.1l0.1,0.1l-0.4,0.5l-0.1-0.2l-0.4,0.2l0.1-0.5
			l-0.1,0.1l-0.1-0.5l0.3-0.8l-0.5,0.1l-0.7,1.6l0.4,1l-0.1,0.4l0.1,0.8l-0.7,0.9l-0.1,1.2l0.5,0.9l-0.1,0.1l0.1,0.5l0.3,0.2
			l0.7,1.5l0.2,0.1l0.1,0.4h-0.2l0.1,0.7l-0.3,0.4l-0.4-0.5l-0.1-0.7v0.3l-0.3,0.3l0.1-0.7l-0.5-0.9l-0.2,0.5l0.1,0.1v-0.3l0.2,1
			l0.7,0.5l-0.1,0.6l-0.4,0.2l-0.1-0.5l-0.1,0.4l-0.1-0.8l-0.1,0.4l-0.2-1l0.1,0.9l-0.2-0.1V217l-0.1,0.5l-0.3-0.2l1.7,2.6l0.4,1.1
			l-0.1,0.3l0.1,0.7l0.7,0.9l0.2,0.4l-0.1,0.3l0.7,0.8l0.3,0.9l-0.1,1.2v0.1l0.2,1.1l1.3,2.8l0.1,1l0.3-0.2v0.1l-0.3,0.1l0.1,0.3
			l-0.1,0.2l0.1,0.5l-0.3,0.5l0.2,1.5l-0.8,1h-0.3l-0.4-0.3v1.4l0.3,0.7l0.1-0.1l0.4-0.1l0.7,0.4l0.6,0.9l0.8,0.3l0.1-0.2l0.3,0.2
			h-0.3l0.5,0.3l0.2-0.2l0.4,0.2l0.9-0.1l0.5,0.3l0.1-0.3l0.6,0.2l0.1-0.1h-0.3l0.1-0.3l0.1-0.1v0.4h0.5v-0.2l0.5-0.1l0.1-0.4
			l0.6-0.3l0.1-0.3l0.3-0.1l-0.1-0.1l0.9,0.3l0.1-0.3l0.3,0.1v-0.3l0.3,0.1l-0.3-0.3l0.9-0.9h0.2l0.9,0.1l0.3-0.3l1.7-0.2l0.9,0.3
			l0.5-0.2l0.3,0.5h0.3l0.1-0.3l0.5,0.1l0.1-0.2l0.9-0.1l0.2,0.1l0.1,0.3l0.5-0.3l0.3,0.1l0.9-0.9l0.3-1.1l0.3-0.3l1.2-0.4l2.4-1.4
			l0.5-0.1l1,0.1l1.1-0.1l2.2-0.7l1.5-0.7l0.1-0.1l2.1-0.2l0.3-0.1l1.3,0.1l0.7-0.4l1.3,0.7l0.9,0.7h0.6l-0.1-0.1l0.1-0.1h0.5
			l0.8,0.7h0.8l-0.2-0.2l0.1-0.1l0.1,0.1l0.1-0.2l0.7,0.7l-0.1,0.4v0.3l0.4-0.2l0.3,0.1l0.3,0.5l-0.2,0.3l0.1-0.2h-0.3l0.1,0.3
			l-0.1,0.2l0.3,0.1l-0.1,0.2l0.4,0.4l-0.1-0.4l0.2,0.4l0.2-0.1l0.4,0.3l-0.2-0.2l0.3,0.1l-0.1,0.1l0.4,0.5v0.4l0.7,0.7l0.4,1.8
			l0.1-0.2l0.1,0.2l0.1,0.1l-0.5-0.1l-0.1-0.3l0.1-0.1l-0.3-0.1v-0.1l-0.2,0.4l0.3-0.1l0.8,1l0.3-0.2l0.3,0.4l0.1-0.7l-0.5,0.2
			l0.2-0.1l0.1-0.5l0.3-0.1l0.1,0.1v-0.5l1-1.1l0.8-0.4l-0.2,0.1l0.1-0.3l0.1,0.1l0.5-0.1l0.5-1.3l0.4-0.5l0.3,0.1v-1.3l0.3,0.7
			l0.1,0.6l0.2,0.2l-0.5,0.5l0.4,0.7l-0.8,0.8l-0.2,0.6l-0.1,0.1l0.1,0.4l-0.2,0.4l0.1-0.1l0.1,0.4l-0.1,0.8l-0.1,0.1l-0.8-0.2
			l-0.3,1l0.7-0.1l0.5-0.4l0.5,0.2l0.3-0.1l-0.1-0.1l0.3-0.7l0.1-0.7l0.4-0.9l0.9,1.6l0.1,0.1l-0.1,0.1l-0.1-0.2l-0.1,1.5l-0.7,0.7
			l0.9,0.1l0.4-0.3l0.3,0.1l1,0.8l-1-0.7l0.9,0.7l0.6,0.7l-0.4-0.7l0.3,0.3l0.4,0.9l-0.3-0.5l0.5,1.3l-0.1,0.3l-0.3,0.4l0.3,0.4
			l-0.1,0.2l0.5,0.7l0.8,1v0.1l0.4,0.3l0.8,0.1h0.1l0.7,0.6v0.3l0.2-0.1l0.2,0.1l0.4-0.5l0.8,0.4l0.5-0.1l2.5,1.3l1-1l0.8-0.5h0.5
			l0.1-0.4l-0.5,0.1h-0.1h0.3l0.9-0.7l0.4,0.8l-0.4,0.5l-0.6-0.1l0.6,0.5l0.4-0.3l0.2,0.1l0.1-0.5h0.5l0.1,0.4l-0.3,0.1l-0.1,0.4
			l0.5,0.3l0.5-0.1l0.1,0.1l-0.2-0.1l0.3,0.6l0.3-0.2l0.3,0.1l-0.1-0.2l0.3,0.5l0.3,0.3l0.1-0.9l-0.4,0.3l-0.1-0.5h0.7l0.8-0.3
			l1.3-1.3l0.9-0.5l-1.2,0.7l0.6-0.4l0,0l-0.2-0.2l0.5,0.1l0.5-0.2l-0.1,0.1l3-0.3l0.6-0.5l-0.2-0.2h0.1h0.2v0.1l0,0l0.3-0.2
			l-0.1-0.5l0.1-0.1h0.1l-0.1-0.2l-0.3-0.1l0.1-0.3l-0.1-0.3l0.1,0.1l0.1-0.5l0.3-1.1l-0.1-0.7l0.1-0.4h-0.1l0.3-0.3l-0.2-0.3
			l0.3,0.1l0.5-1.3l0.5-0.1l-0.1-0.3l0.2-0.1v0.3l0.1-0.1l-0.1-0.4l-0.1,0.1l0.1-0.1l-0.3-0.1l0.5-0.2l0.1-0.5l-0.1-0.2l0.2-0.1
			v-0.5l0.5-0.5l-0.2-0.1l0.3-0.1l-0.4-0.1l0.5-0.1l0.1-0.3l-0.2,0.1l-0.2,0l0.2,0.1l-0.1-0.2l0.2,0.1l0.1-0.5v-0.1l-0.1,0.1v-0.2
			l-0.1,0.1l-0.1-0.2l0.2,0.1l0.1-0.3v0.3l0.3-0.1l0.1-0.3l-0.1-0.1h0.3l0.2-0.5l-0.2,0.3l-0.1-0.3h0.2V234l0.1,0.3l0.3-0.5
			l-0.1-0.1h0.1v0.2l0.8-0.5l-0.3-0.1l-0.3,0.2l-0.1-0.1l0.1-0.1V233l0.3,0.1l0.2-0.1l0.1,0.1l0.3-0.4l0.5-0.3l0.1-0.5l-0.2-0.1v0.2
			l-0.4-0.1h0.3h0.1l0.1-0.5l0.5-0.4l0.6-1.9l-0.1-1.3l0.5-1.2l0.1-0.2l0.2-1.1l-0.4-0.3l0.2,0.1l-0.1-0.3l0.5-1h-0.1l0.1-0.1
			l0.1-0.5l-0.2-0.3L1253.5,222.3z M1193,195.5l-0.1-0.1L1193,195.5l0.3-0.1L1193,195.5z M1242.6,240.7c0-0.2,0-0.3,0.1-0.4
			C1242.6,240.4,1242.5,240.6,1242.6,240.7c0.1,0.2,0.1,0.4,0.2,0.5C1242.7,241.1,1242.6,240.9,1242.6,240.7z M1243.4,241.2
			c0,0,0,0.1-0.1,0.2C1243.4,241.3,1243.4,241.2,1243.4,241.2s0-0.1,0-0.2C1243.4,241.1,1243.4,241.1,1243.4,241.2z M1243.8,240.4
			c0-0.1,0.1-0.1,0.1-0.2c0-0.1,0-0.2-0.1-0.2l0,0l0,0c0.1,0.1,0.2,0.1,0.1,0.2C1243.9,240.3,1243.8,240.4,1243.8,240.4z"/>
		<path d="M1240.4,250.8C1240.3,250.8,1240.4,250.8,1240.4,250.8S1240.4,250.6,1240.4,250.8z"/>
		<polygon points="1233.3,251 1233.1,251.4 1233.2,252.2 1233.2,252.5 1233.3,252.6 1233.7,252.2 1233.6,251.3 		"/>
		<polygon points="1242.5,252.1 1242.2,252.1 1241.7,251.4 1241.3,251.9 1241.5,251.9 1241.5,252.2 1241.8,252.5 1242,252.9 
			1242.5,252.7 1242.4,252.4 1242.3,252.5 1242.4,252.2 		"/>
		<polygon points="1242.5,256.6 1242.3,256.2 1242.5,255.7 1242.3,255.5 1242.5,254.9 1242,254.3 1241.7,254.2 1241.5,254.6 
			1241.1,254.4 1240.7,254.9 1240.3,254.7 1240,255 1239.7,254.9 1239.3,255.1 1239.6,255.4 1239.5,255.6 1239.1,255.1 
			1238.8,255.4 1238.9,255.6 1238.7,255.3 1238.1,255.4 1236.6,254.5 1236.2,254.5 1236,254.1 1236,254.4 1235.8,254.3 
			1235.8,254.5 1234.8,254 1234.9,254.5 1234.7,254.9 1235,256.1 1235.4,256.8 1235.3,256.9 1236,257.8 1236,258.4 1236.2,258.2 
			1236.5,258.8 1236.6,258.8 1236.5,259.2 1236.4,258.8 1235.8,258.3 1236,259.5 1236.2,259.6 1236.6,260.6 1236.9,260.7 
			1237.2,261.5 1237.4,261.5 1237.3,261.4 1237.4,261.1 1237.6,261.5 1238.1,261.5 1238,261.7 1237.6,261.5 1237.6,261.7 
			1237.4,261.7 1237.6,262.2 1238.1,262 1238.9,262.1 1238.8,261.9 1239.1,262.4 1239.5,262.4 1239.7,262 1239.5,261.8 
			1239.8,261.9 1239.9,261.6 1239.7,261.5 1239.9,261.4 1239.7,261.1 1239.7,260.9 1239.7,261.1 1239.9,261.3 1239.9,261.1 
			1239.9,261.3 1240.2,261.4 1240.3,260.7 1240.5,260.7 1240.5,260.3 1240.1,259.8 1240.6,260.4 1240.7,260.3 1240.6,260.7 
			1240.9,260.5 1240.8,260.2 1241,260.1 1240.7,259.9 1241,260 1241.1,260.3 1241.4,260.2 1241.7,259.6 1241.5,259.3 1241.8,259.2 
			1241.9,258.6 1241.7,258.7 1242,258 1242.2,258 1242,258 1242.3,257.6 1242.1,258 1242.5,258.1 1242.5,258.5 1242.6,258.3 
			1242.4,257.8 		"/>
		<polygon points="1241.3,260.7 1241.1,260.4 1241,260.8 1241.3,260.9 1241.1,261 1241.3,261.3 1241.5,261.2 1241.5,260.9 
			1241.8,261.3 1241.7,260.7 		"/>
		<polygon points="1241.8,253.3 1242.5,253.3 1242.5,253.5 1242.8,253.3 1242.5,253 		"/>
		<path d="M1315.5,244c-0.7,0.2-0.5,0.9-1.1,1.1c-0.8,0.3-1.7-0.3-2.5-0.7c-0.1,0-0.2-0.3-0.2-0.2s0.1,0.1,0.1,0.2
			c0,0.2-0.4-0.1-0.5-0.2c-0.1-0.1,0-0.3,0-0.4c-0.1-0.6-0.2-1-0.2-1.2c0-0.5-0.3-0.2-0.6-0.6c-0.1-0.2,0-0.5-0.2-0.7
			c-0.1-0.1-0.3-0.2-0.4-0.1c-0.1,0.2,0.1,0.4,0.2,0.6c0,0.1,0.1,0.1,0.1,0.2c0,0.4-0.3-0.2,0,0.9c0,0.1,0.1,0.2,0.1,0.4l0,0
			c-0.2,0-0.4,0-0.5-0.1c-0.2-0.2-0.1-0.5-0.3-0.7c-0.2-0.2-0.4-0.3-0.6-0.3c-0.1,0,0,0.2-0.1,0.3c0.1,0.1,0.1,0.1,0.1,0.3
			c0,0.5-0.1,0.6-0.2,0.6c0,0.1-0.2,0.2-0.2,0.4c0,0.3,0.1,0.6,0.3,0.9c0.2,0.3,0.1-0.4,0.2,0h0.1c-0.1,0.1-0.3,0-0.4,0.1
			c-0.5,0.8,0.5,0.6,0.3,0.7c-0.1,0.1-0.4-0.1-0.5,0c-0.1,0.2,0,1.6-0.2,1.9c-0.5,0.7-2,0.4-1.7,1.6c0.1,0.5,0.8,0.4,1.1,0.5
			c0.2,0.1,0.3,0.4,0.5,0.5c0.2,0.1,0.4,0.1,0.6,0.1c0.6,0.2,0.6,0.7,0.8,1.1c0.1,0.1,0.3-0.3,0.3-0.2c-0.1,0.4-0.8,2.2-1,2.5
			c-0.2,0.2-0.6,0.2-0.6,0.5c0,0.2,0.5-0.2,0.6-0.1c0.1,0.1-0.2,0.4-0.1,0.5c0.7,0.7,0.9,0.7,0.9,0.6c0.2-0.1,0.5-0.4,0.6-0.5
			c1-0.6,1.1-1.4,1.7-2.4c0.1-0.2,0.3-0.2,0.4-0.3c0.1-0.2,0-0.5,0.1-0.6c0.5-0.3,0.5-0.9,0.7-1.4c0-0.1,0.3-0.2,0.2-0.3
			c-0.1-0.1-0.3,0-0.4,0c0-0.2-0.1-0.5-0.1-0.7c0.1-0.6,1.6-1.5,2-0.9c0.1,0.1,0,0.5,0.1,0.5c0.2,0-0.1-0.3-0.1-0.5
			c0-0.3,0.2-0.6,0.2-0.9c0-0.1-0.1-0.1-0.1-0.2c0.1-0.1,0.2,0.1,0.3,0c0.2-0.1,0.4-0.3,0.5-0.5c0.2-0.4,0-1,0.1-1.4
			c0.1-0.3,0.4-0.5,0.5-0.8C1316.8,244,1315.5,244,1315.5,244z"/>
		<path d="M1308.7,243.2L1308.7,243.2L1308.7,243.2C1308.8,243.2,1308.7,243.2,1308.7,243.2z"/>
		<path d="M1308.5,242.3c-0.1-0.2,0.1-0.5,0.1-0.8c0-0.2-0.1-0.3,0-0.5c0-0.1,0.1,0.2,0.1,0.2c0-0.1-0.1-0.2-0.1-0.3s0.3,0.1,0.3,0
			c-0.1-0.3-0.4-0.5-0.6-0.8c-0.1-0.1-0.2,0-0.2-0.1c0-0.1,0.1-0.2,0.1-0.3c0.1,0,0.1,0,0.1-0.1c0.1-0.2-0.2-0.3-0.3-0.5
			c-0.1-0.3,0.1-0.7-0.1-0.8h-0.1c-0.1-0.1,0.1-0.4,0-0.3c-0.2,0.1-0.3,0.5-0.5,0.4c-0.2,0,0.1-0.4,0-0.5c-0.5-0.8-0.9-0.1-1.4-0.5
			c-0.1-0.1,0.1-0.5-0.1-0.5c-0.2,0-0.1,0.5-0.4,0.6c-0.2,0-0.1-0.4-0.2-0.5c-0.1-0.2-0.1-0.5-0.3-0.7c-0.1-0.1,0,0.3-0.1,0.3
			s-0.2-0.2-0.2-0.3c0-0.2,0.4-0.2,0.3-0.3c-0.2-0.2-0.6-0.2-0.8,0c-0.1,0.1,1,1.1,1,1.4s-0.2,0.5-0.1,0.8c0,0.1,0.3-0.1,0.4,0
			c0.1,0.2,0.1,0.6,0.2,0.7c0.1,0.3,1.5,2,1.7,2c0.2-0.1-0.3-0.4-0.4-0.6c-0.2-0.3-0.2-0.3-0.1-0.6l0,0c0.5,1.7,0.7-0.4,1.1,0.6
			c0.1,0.2-0.4,0.3-0.4,0.5s0.3,0.2,0.4,0.3c0.1,0.2,0.1,0.5,0,0.5c-0.2,0-0.3-0.5-0.5-0.5c-0.2,0,0.2,0.3,0.2,0.4
			c0.2,0.3,0.1,0.9,0.4,1.1C1308,242.6,1308.2,242.4,1308.5,242.3C1308.5,242.3,1308.5,242.3,1308.5,242.3z"/>
		<path d="M1308.6,242.4c0.1,0.1,0.2,0.1,0.3,0.1c0,0,0,0,0-0.1C1308.9,242.3,1308.7,242.3,1308.6,242.4z"/>
		<path d="M1308.2,242.7c-0.2,0.1,0.1,0.4,0.2,0.6c0,0,0.1,0,0.2,0C1308.5,243.1,1308.3,242.7,1308.2,242.7z"/>
		<path d="M1327.9,262.3c-0.2-0.3-1.2-0.4-1.1,0c0.1,0.2,0.5,0.2,0.5,0.4c0.1,0.1-0.2,0.3-0.2,0.4
			C1327.3,263.6,1328.3,263,1327.9,262.3z"/>
		<path d="M1307.4,255.2c0.1,0,0.1,0,0.2-0.1V255c-0.2,0.1-0.4,0.1-0.4,0.1C1307.2,255.2,1307.4,255.2,1307.4,255.2z"/>
		<path d="M1308,254.4c-0.4-0.1-0.4,0.3-0.4,0.6C1308.2,254.9,1308.9,254.6,1308,254.4z"/>
		<path d="M1306.9,255.2c-0.2-0.1-0.1-0.5,0-0.7s0.7-0.2,0.5-0.2c-0.8-0.2-1.7,1.2-1.8,1.1c-0.2-0.2-0.2-0.8-0.3-0.9
			c-0.3-0.4-0.8-0.9-0.8-1c0.1-0.2,0.6-0.1,0.7-0.3s-0.4-0.1-0.6-0.1c-0.4,0.1-0.5,0.4-0.8,0.6c-0.9,0.8-0.1,0.9-0.5,1.6
			c-0.1,0.4-0.3,0.7-0.6,1c-0.1,0.1-0.3,0.2-0.4,0.3c-0.1,0-0.3-0.2-0.4,0c0,0.1-0.3,1.4-0.3,1.5c0,0.1-0.2,0.3-0.2,0.4
			c0,0,0.1,0.1,0.1,0c-0.3,0.2-0.5,0.4-0.6,0.8l0,0l0,0c-0.7-0.4-0.4,0.7-0.5,1c-0.1,0.3-0.8-0.1-1,0.1c-0.1,0.1,0.4,0.3,0.3,0.5
			c-0.1,0.3-0.9,0.3-1.1,0.4c-0.1,0-0.2,0.1-0.2,0.2s0.2,0.2,0.1,0.3c-0.2,0.2-0.5,0.1-0.8,0.2c-0.1,0,0.1,0.2,0,0.2
			c-0.1,0-0.1-0.2-0.2-0.2c-0.2,0-0.3,0.2-0.4,0.3c-0.1,0.1-0.3,0.1-0.3,0.2c0,0.2,0.4,0.3,0.4,0.4c-0.1,0.2-0.2-0.4-0.4-0.3
			c-0.3,0-0.4,0.4-0.6,0.5c-0.1,0-0.1,0-0.2,0c0,0,0-0.1-0.1-0.1c-0.2,0-0.4,0.1-0.6,0.2c-0.1,0.1-0.1,0.3-0.2,0.4
			c-0.1,0.1-0.9,0.9-0.9,1c0,0.2,0.4,0.4,0.2,0.6c-0.2,0.2-0.5-0.1-0.7,0c-0.1,0.1,0.1,0.4,0,0.5c-0.1,0.1-0.1-0.4-0.2-0.3
			c-0.2,0.2-0.1,0.6-0.2,0.7c-0.1,0.1-1.1-0.7-0.7,0.5c0.1,0.2,0.6,0.1,0.6,0.3c0,0.2-0.5-0.1-0.5,0c-0.1,0.2,0.5,0.4,0.4,0.4
			c-1.2,0,0-1.2-0.7-0.6c-0.9,0.7,0,0.8,0.2,1.3c0.1,0.3-1.1,0.2-1.1,0.3c0,0.2-0.1,0.5,0,0.6c0.2,0.1,0.5-0.4,0.7-0.3
			c0.2,0.1-0.4,0.3-0.4,0.5c-0.3,0.7,0.8-1.1,0.7-0.4c-0.1,0.3-0.6,0.3-0.6,0.6c0,0.3,1.3,0.5,1.5,0.3c0.2-0.1-0.3-0.2,0.2-0.3
			c0.2,0,0.3,0,0.5,0.1v0.1c0.1,0.2,0.1,0.5,0.3,0.6c0.2,0.1,0.5-0.2,0.7-0.2c0.4,0,0.2,0.8,0.4,0.9c0.2,0.1,0.4-0.1,0.7-0.1
			c0.1,0,0.2-0.1,0.3-0.1c0.4,0.2-0.2,0.4,0.4,0.4c0.9-0.1,1.2-0.2,1.8-0.9c0.2-0.3,0.6-0.4,0.8-0.7c0.1-0.2,0-0.5,0.2-0.6
			c0.1,0,0.9-0.2,0.9-0.3c-0.1-0.2-0.4-0.3-0.4-0.5c0-0.2,0.3-0.3,0.4-0.5c0.3-0.4,0.1-0.7,0.4-1.2c0.1-0.2,0.5-0.4,0.4-0.6
			c0,0,0,0,0-0.1h0.1c0.3-0.3,0.1-0.9,0.1-1.3c0-0.2,0.4-0.4,0.2-0.5l0,0l0,0c0.2-0.2-0.2-0.6,0-0.8c0.2-0.2,0.5,0.3,0.7,0.2
			c0.2,0,0-0.4,0.2-0.4c0.1,0,0,0.3,0.1,0.3c0.1,0,0.1-0.1,0.2-0.2c0.2-0.1,0.5-0.1,0.5-0.3c0-0.3-0.4-0.4-0.5-0.5
			c-0.1-0.1-0.1-0.2-0.2-0.3c0.4,0.3,0.9,0.7,0.9,0.8c0.3,0.1,0.7-0.2,1.1-0.1c0,0,0.3,0.3,0.4,0.2c0.9-1.1-0.6-0.7-0.6-0.8
			c-0.1-0.2,0.3-0.5,0.1-0.6h-0.1c0,0,0.1,0,0.1-0.1c0.1,0,0.1-0.2,0-0.3c-0.2-0.1-0.5,0-0.7,0c-0.1,0-0.3-0.1-0.2-0.1
			c0.1,0,0.3,0,0.4,0c0.2,0,0.4,0.1,0.5,0c0.1-0.1,0.1-0.3,0.2-0.3c0.3-0.2,0.7-0.3,0.9-0.6c0.3-0.4,0.4-0.9,0.6-1.3
			c0.2-0.4,0.5-0.1,0.8-0.8c0-0.1-0.2-0.2-0.1-0.3c0-0.1,0.2,0,0.2,0c0.3-0.2,0.6-0.4,0.6-0.8c0-0.2-0.3-0.3-0.5-0.4
			c0-0.2,0-0.5,0.1-0.7c0.2-0.4,1.4-0.4,0.6-0.6c-0.2,0-0.3,0.1-0.4,0.1C1307.6,255.4,1307.5,255.5,1306.9,255.2z M1300.5,265.6
			c-0.1,0-0.1-0.1-0.1-0.1c-0.1-0.1-0.5-0.4-0.4-0.3c0,0,0.4,0.3,0.8,0.4C1300.6,265.6,1300.5,265.6,1300.5,265.6z M1301.1,259.5
			c0.1,0.2,0.2,0.5,0,0.5C1300.9,260,1301,259.7,1301.1,259.5z M1301.1,263.3c0-0.1,0,0.2,0.2,0.4
			C1301.1,263.8,1301.1,263.8,1301.1,263.3z M1302.1,261.1C1302,261.1,1302,261.1,1302.1,261.1c-0.9-0.3-1.4,0.2-1.1-0.2
			c0.1-0.1,0.4,0,0.5,0c0.2,0,0.4,0.2,0.5,0c0,0-0.4-0.8-0.2-0.8c1.2,0,0.2,0.6,0.3,0.8C1302,261,1302,261.1,1302.1,261.1z
			 M1302.5,258c-0.2,0.1-0.4,0.2-0.5,0.3C1302.1,258.2,1302.2,258.1,1302.5,258C1302.4,258,1302.6,258,1302.5,258z M1304.2,261.4
			c-0.1,0-0.1,0-0.2,0.1c-0.6,0.1-1.4-0.7-1-0.5C1303.6,261.2,1303.8,261.5,1304.2,261.4z"/>
		<path d="M1294.1,271.2l-0.1,0.1l0,0C1294.1,271.3,1294.2,271.2,1294.1,271.2z"/>
		<path d="M1294.7,271.9c-0.1-0.2,0.5,0,0.5-0.2c0-0.2-0.3-0.4-0.4-0.6c-0.3,0.4-0.6,0.9-0.8,1.3c-0.1,0.1-0.4,0.4-0.2,0.4
			c0.3-0.1,1.6-0.5,1.6-0.8C1295.3,271.7,1294.7,272.1,1294.7,271.9z"/>
	</g>
</g>
</svg>
