<?xml version="1.0" encoding="utf-8"?>
<!-- Generator: Adobe Illustrator 22.0.1, SVG Export Plug-In . SVG Version: 6.00 Build 0)  -->
<svg width="170px" height="130px" viewBox="0 0 170 130" version="1.1" xmlns="http://www.w3.org/2000/svg" xmlns:xlink="http://www.w3.org/1999/xlink" x="0px" y="0px" style="enable-background:new 0 0 170 130;" xml:space="preserve">
<title>Africa</title>
<desc>Created with Sketch.</desc>
<g id="Creative-Round-2---Region-Selector">
	<g id="Region-Selector---Language" transform="translate(-947.000000, -153.000000)">
		<path d="M1075,246.8c-0.1-0.4-0.1-0.8-0.1-1.2c0-0.8-0.2-1.6-0.5-2.3l0,0c0,0,0,0-0.1,0l0,0c0,0,0-0.1-0.1-0.1l0,0c0,0,0,0,0-0.1
			c0,0,0-0.1,0-0.2c0,0,0-0.1-0.1-0.1c0-0.1-0.1-0.3-0.2-0.3l0,0c0,0,0.1,0,0.1-0.1c0-0.1,0-0.2-0.1-0.2c-0.1-0.1-0.2-0.1-0.2-0.1
			c-0.1,0-0.1,0.1-0.1,0.3c0,0,0,0.1-0.1,0.2c-0.1,0.1-0.3,0.2-0.4,0.2l0,0l0,0c0,0-0.1,0-0.1,0.1v0.1c0.2,0.1,0.2,0.4,0.1,0.7v0.1
			v0.1c-0.1,0.3-0.1,0.4-0.4,0.4c0,0,0,0-0.1,0c0,0,0,0,0,0.1c0,0,0,0,0,0.1c0,0-0.1,0-0.1,0.1c-0.1,0.1-0.1,0.2-0.1,0.3
			c0,0,0-0.1-0.1-0.1c-0.1-0.2-0.2-0.3-0.4-0.3c-0.1,0-0.1,0.2-0.1,0.3c0,0.2,0,0.4,0.1,0.5c0,0,0,0.1,0,0.2l0,0c0,0-0.1,0-0.1,0.1
			l-0.1,0.1c-0.1,0.1-0.3,0.2-0.2,0.5c0,0.1,0.1,0.1,0.1,0.1s-0.1,0-0.1,0.1c-0.1,0.1-0.2,0.2-0.2,0.3s-0.1,0.2-0.2,0.2
			c0,0,0-0.1,0.1-0.1c0-0.1,0.1-0.2,0.1-0.3l0,0c0,0,0,0-0.1,0c-0.2,0-0.2,0.1-0.2,0.2v0.1l-0.1,0.1c-0.1,0.1-0.2,0.1-0.2,0.3
			c0,0.1,0,0.2,0.1,0.3v0.1l0,0c0,0-0.1,0.1-0.2,0.1c0-0.1,0.1-0.2,0-0.3c0-0.1-0.1-0.1-0.2-0.1s-0.3,0.1-0.4,0.2l-0.1,0.1l0,0
			c-0.1,0.1-0.3,0.2-0.3,0.4v0.1v0.1c0-0.1-0.1-0.2-0.2-0.2s-0.1,0.1-0.2,0.2c-0.1-0.1-0.3-0.1-0.4,0c-0.1,0-0.1,0.2-0.1,0.2l0,0
			h-0.1c-0.1,0-0.2,0.1-0.3,0.2l-0.1-0.1h-0.1c-0.1,0-0.1,0.1-0.2,0.2c-0.1,0.1-0.2,0.2-0.3,0.2s-0.1,0-0.2,0s-0.3,0-0.4,0.1
			c-0.1,0-0.1,0.2-0.1,0.4v0.1c0,0,0,0,0,0.1c0,0.2-0.1,0.4-0.2,0.6c0,0.1-0.1,0.1-0.2,0.2c-0.2,0.3-0.5,0.7-0.3,1
			c0.1,0.1,0.1,0.4,0,0.6c0,0.1,0,0.2,0,0.3c0,0.2,0.1,0.3,0.1,0.4c0.1,0.1,0.1,0.3,0.1,0.4c0,0.3,0,0.5,0.1,0.8
			c0.1,0.2,0.1,0.3,0,0.5v0.1c0,0.1,0,0.2,0.1,0.3c0,0.1,0.1,0.1,0,0.2c-0.1,0.1-0.2,0.3-0.2,0.4c-0.1,0.1-0.1,0.2-0.2,0.3
			c-0.2,0.2-0.3,0.5-0.4,0.7c0,0.1,0,0.1,0,0.2c0,0.2,0,0.3-0.2,0.3l0,0c-0.3,0.1-0.4,0.1-0.4,0.5c0,0.1-0.1,0.3-0.2,0.4
			c-0.1,0.1-0.1,0.3-0.2,0.4c0,0,0,0,0,0.1c0,0.2,0,0.3,0,0.5c0,0.3,0,0.6,0.2,0.9c0.1,0.2,0.2,0.4,0.2,0.6c0,0.1,0.1,0.1,0.1,0.2
			c0.1,0.1,0.1,0.1,0,0.2l0,0c-0.2,0.4-0.2,0.8,0,1.3c0.1,0.2,0.2,0.4,0.3,0.7c0.1,0.3,0.2,0.4,0.4,0.5l0,0c0,0.1,0.2,0.2,0.2,0.2
			c0.1,0,0.1,0,0.2,0s0.1,0,0.2,0s0.2,0.1,0.3,0.2c0.1,0.1,0.2,0.2,0.4,0.2h0.1c0.3,0,0.6-0.2,0.8-0.4c0.2-0.1,0.4-0.2,0.5-0.3
			c0.1,0,0.1,0,0.2,0s0.2,0,0.3,0c0.1-0.1,0.2-0.1,0.3-0.1c0.2,0,0.3-0.3,0.4-0.4c0.1-0.2,0.2-0.4,0.2-0.6c0-0.2,0.1-0.3,0.2-0.4
			c0.1-0.1,0.1-0.2,0.2-0.4c0-0.1,0.1-0.3,0.1-0.4c0.1-0.4,0.2-0.7,0.3-1.1c0.1-0.5,0.3-1,0.5-1.5c0.1-0.2,0.2-0.5,0.3-0.7
			c0.1-0.2,0.2-0.5,0.2-0.7c0.1-0.4,0.2-0.7,0.4-1.1v-0.1c0.1-0.2,0.2-0.4,0.1-0.6c0.1-0.1,0.1-0.2,0.2-0.4l0,0
			c0.1-0.2,0.1-0.4,0.2-0.6c0.1-0.2,0.1-0.4,0.2-0.7c0.3-0.5,0.5-1.1,0.6-1.7c0-0.2,0-0.3,0-0.5c0-0.4,0-0.7,0.3-0.9l0,0
			c0.1-0.2,0.2-0.4,0.3-0.6c0-0.1,0-0.1,0-0.2c0-0.1,0-0.1,0-0.2c0-0.1-0.1-0.2-0.1-0.2l-0.1-0.1v-0.1c0-0.5,0-0.8,0.1-0.8l0,0
			c0.1,0,0.1,0.2,0.2,0.4c0,0.2,0.1,0.4,0.3,0.4c0.1,0,0.1,0,0.2,0c0.3-0.1,0.4-0.8,0.4-0.9c0-0.2,0-0.3-0.1-0.4
			C1075,247,1075,246.9,1075,246.8z"/>
		<path d="M1072.3,244.5L1072.3,244.5c0.1-0.2,0.1-0.3,0-0.4h-0.1c-0.1,0.1-0.1,0.2-0.1,0.3C1072.1,244.4,1072.2,244.5,1072.3,244.5
			z"/>
		<path d="M1074.3,249.5L1074.3,249.5c-0.1,0.1-0.1,0.1-0.2,0.1c-0.1,0.1-0.2,0.3-0.1,0.4c0,0,0,0,0.1,0l0,0c0,0,0,0,0.1,0
			c0-0.1,0.1-0.2,0.1-0.2c0-0.1,0.1-0.1,0.1-0.2l0,0L1074.3,249.5C1074.4,249.5,1074.4,249.5,1074.3,249.5z"/>
		<path d="M983.9,205.5L983.9,205.5c0-0.1,0-0.1,0-0.1s0,0-0.1,0c-0.1,0-0.1,0.1-0.1,0.1s0,0,0,0.1
			C983.7,205.6,983.7,205.6,983.9,205.5L983.9,205.5C983.8,205.6,983.9,205.6,983.9,205.5C983.9,205.6,983.9,205.6,983.9,205.5
			L983.9,205.5z"/>
		<path d="M984,206C983.9,206,983.9,206,984,206c-0.1,0.1-0.1,0.2,0,0.3l0,0l0,0l0.1-0.1l0,0c0,0,0,0,0-0.1
			C984.2,206,984.1,206,984,206z"/>
		<path d="M984.4,205.4L984.4,205.4L984.4,205.4L984.4,205.4c-0.1,0-0.2,0-0.2,0.1v0.1v0.1h0.1h0.1
			C984.4,205.7,984.4,205.6,984.4,205.4C984.4,205.5,984.4,205.5,984.4,205.4C984.4,205.5,984.4,205.4,984.4,205.4z"/>
		<path d="M984.7,205.8c-0.1,0-0.2,0.2-0.2,0.3c0,0,0,0,0,0.1l0,0l0,0C984.7,206,984.8,206,984.7,205.8
			C984.8,205.8,984.8,205.8,984.7,205.8L984.7,205.8z"/>
		<path d="M1054.1,257.5C1054.2,257.5,1054.2,257.5,1054.1,257.5C1054.2,257.5,1054.2,257.5,1054.1,257.5
			C1054.2,257.6,1054.2,257.5,1054.1,257.5c0.2-0.1,0.2-0.3,0.2-0.4V257h-0.1C1054.1,257.1,1054.1,257.3,1054.1,257.5z"/>
		<path d="M1060.4,233c0-0.2,0-0.4-0.1-0.6c0,0,0,0-0.1,0h-0.1c0,0,0,0.1-0.1,0.1c-0.1,0.1-0.1,0.2-0.1,0.3c0,0.3,0.2,0.5,0.4,0.7
			h0.1h0.1c0.1-0.1,0.1-0.4,0-0.5C1060.5,233.1,1060.5,233,1060.4,233z"/>
		<path d="M1060.6,236L1060.6,236C1060.7,236,1060.7,235.9,1060.6,236c0.2-0.2,0.4-0.3,0.3-0.5c0,0,0,0-0.1,0h-0.1
			c0,0.1-0.1,0.1-0.1,0.1C1060.6,235.7,1060.5,235.8,1060.6,236C1060.5,236,1060.6,236,1060.6,236L1060.6,236z"/>
		<path d="M1061,231.3c0-0.1-0.1-0.2-0.3-0.3c0,0,0,0-0.1,0c0,0,0,0,0,0.1v0.1l0,0l0,0c0,0.1,0,0.1,0,0.2v0.1l0,0c0,0-0.1,0-0.1,0.1
			v0.1c0,0,0,0,0.1,0c-0.1,0.1-0.1,0.2-0.1,0.2c0,0.1,0.1,0.1,0.1,0.1l0,0c0.1,0,0.1-0.1,0.2-0.1
			C1061,231.7,1061.1,231.5,1061,231.3z"/>
		<path d="M1018.1,218.5c0.1-0.1,0.4-0.7,0.3-0.9c0,0-0.1-0.1-0.2-0.1c-0.2,0-0.3,0.2-0.3,0.3s-0.1,0.1-0.1,0.2l-0.1,0.1v0.1
			C1017.7,218.3,1017.9,218.4,1018.1,218.5C1018.1,218.5,1018.1,218.5,1018.1,218.5C1018,218.5,1018.1,218.5,1018.1,218.5
			L1018.1,218.5L1018.1,218.5L1018.1,218.5z"/>
		<path d="M1060.6,199c0.1,0.2,0.3,0.2,0.5,0.2c0.1,0,0.1,0,0.2,0c0,0,0,0,0.1,0c0,0,0,0,0-0.1c-0.1-0.1-0.2-0.1-0.3-0.1
			s-0.1,0-0.1-0.1c0,0,0,0,0-0.1c0-0.1,0-0.2-0.1-0.2h-0.1c0,0,0,0,0,0.1v0.1C1060.7,198.8,1060.7,198.9,1060.6,199
			C1060.7,198.9,1060.7,198.9,1060.6,199C1060.6,198.9,1060.6,199,1060.6,199z"/>
		<path d="M1065.5,242l0.1,0.1c0,0,0,0,0.1,0l0,0l0,0c0.1-0.1,0-0.3,0-0.3c0-0.2-0.1-0.4-0.1-0.6c0,0,0-0.1-0.1-0.1l0,0
			c-0.1,0-0.1,0-0.2,0.1c-0.1,0.1-0.1,0.2-0.1,0.3s0,0.1,0,0.1C1065.2,241.8,1065.4,242,1065.5,242z"/>
		<path d="M1066.1,242.8C1066.1,242.8,1066.2,242.8,1066.1,242.8C1066.2,242.9,1066.2,242.9,1066.1,242.8
			C1066.2,242.8,1066.2,242.8,1066.1,242.8C1066.2,242.8,1066.2,242.8,1066.1,242.8c0.1-0.3-0.1-0.4-0.3-0.3c0,0-0.1,0-0.1,0.1
			C1065.8,242.8,1066,242.8,1066.1,242.8z"/>
		<path d="M1067.1,242.8L1067.1,242.8L1067.1,242.8C1067.2,242.8,1067.2,242.8,1067.1,242.8c0.2-0.1,0.2-0.2,0.1-0.3
			c-0.1-0.1-0.2-0.1-0.3-0.1c-0.1,0-0.1,0-0.2,0h-0.1v0.1C1066.8,242.6,1066.9,242.7,1067.1,242.8z"/>
		<path d="M1084.3,254.6C1084.2,254.6,1084.2,254.6,1084.3,254.6c-0.1,0.1-0.5,0.6-0.4,0.8c0,0.1,0.1,0.1,0.2,0.1c0,0,0,0,0.1,0
			s0.3-0.1,0.4-0.2c0.1-0.2,0.1-0.5,0-0.6C1084.4,254.6,1084.4,254.6,1084.3,254.6z"/>
		<path d="M1015.2,222.8c-0.3,0.1-0.3,0.4-0.2,0.6v0.1l0,0l0,0l0,0c0.1-0.1,0.3-0.2,0.3-0.3C1015.3,223.1,1015.3,223,1015.2,222.8
			C1015.3,222.8,1015.3,222.8,1015.2,222.8z"/>
		<path d="M1016.3,220.7L1016.3,220.7c-0.1,0-0.1,0.1-0.2,0.1c0,0.1,0,0.1,0,0.2c0,0,0,0.1,0.1,0.1l0,0l0,0l0,0
			C1016.4,221,1016.4,220.9,1016.3,220.7C1016.3,220.8,1016.3,220.8,1016.3,220.7z"/>
		<path d="M1082.3,230.6C1082.3,230.6,1082.3,230.7,1082.3,230.6c-0.1,0.1,0,0.1,0,0.1c0.1,0,0.1,0.1,0.2,0.2c0,0,0,0.1,0.1,0.1l0,0
			c0,0,0.1,0,0.1-0.1c0-0.1,0-0.2-0.1-0.3C1082.5,230.6,1082.4,230.6,1082.3,230.6z"/>
		<path d="M1067.9,243.8L1067.9,243.8C1067.9,243.8,1068,243.8,1067.9,243.8c0.1-0.1,0.2-0.3,0.2-0.4c0-0.1-0.1-0.1-0.1-0.2h-0.1
			C1067.8,243.4,1067.8,243.6,1067.9,243.8L1067.9,243.8z"/>
		<path d="M1064.5,201.6c0,0.1,0.1,0.1,0.1,0.2l0,0l0,0l0,0C1064.6,201.7,1064.6,201.7,1064.5,201.6L1064.5,201.6L1064.5,201.6
			C1064.6,201.5,1064.5,201.6,1064.5,201.6z"/>
		<path d="M1077.6,204.4L1077.6,204.4C1077.5,204.4,1077.5,204.4,1077.6,204.4C1077.5,204.5,1077.5,204.5,1077.6,204.4
			c0.1,0.1,0.2,0.2,0.3,0.2l0,0l0,0c0,0,0,0,0-0.1c0-0.1,0-0.1-0.1-0.1C1077.8,204.3,1077.6,204.4,1077.6,204.4z"/>
		<path d="M1080.7,203.8c-0.2-0.1-0.4-0.2-0.6-0.2c-0.1,0-0.2,0.1-0.3,0.1h-0.1c-0.1,0-0.2-0.1-0.2-0.1c-0.1,0-0.2,0.1-0.2,0.3
			c0,0.1,0,0.2,0.1,0.3c0.1,0.1,0.3,0.2,0.5,0.2l0,0l0,0c0.1,0,0.1,0,0.2,0c0.3,0,0.7-0.1,0.8-0.4
			C1080.8,203.9,1080.8,203.8,1080.7,203.8L1080.7,203.8z"/>
		<path d="M1077.5,181.6C1077.5,181.6,1077.4,181.6,1077.5,181.6c0,0.1,0,0.1,0,0.1h0.1h0.1l0,0l0,0c0,0,0,0,0.1,0l0,0h0.1v-0.1
			C1077.7,181.5,1077.6,181.5,1077.5,181.6z"/>
		<path d="M1078.5,182.1L1078.5,182.1c0,0.1,0,0.1,0,0.1s0,0,0.1,0h0.1l0,0c0,0,0.1,0,0.1-0.1c0,0,0-0.1,0-0.2
			C1078.7,182,1078.6,182,1078.5,182.1z"/>
		<path d="M1090.9,180.9c-0.1,0-0.2,0-0.3,0c-0.2,0-0.2,0-0.3-0.4l0,0c-0.1-0.8-0.2-1.1-0.4-1.1c-0.1,0-0.2-0.1-0.3-0.2
			c-0.1-0.1-0.1-0.1-0.2-0.1c-0.1,0-0.2-0.1-0.3-0.1s-0.2-0.1-0.2-0.1c-0.4-0.2-0.5-0.5-0.7-0.8c-0.1-0.1-0.1-0.2-0.2-0.3
			c-0.1-0.2-0.3-0.4-0.5-0.6l0,0c-0.1-0.1-0.2-0.2-0.2-0.2c0-0.1,0.2-0.3,0.3-0.5c0.1-0.1,0.1-0.1,0.1-0.2c0.2-0.2,0.3-0.5,0.5-0.8
			c0.1-0.3,0.1-0.8-0.2-1c-0.1-0.1-0.3-0.1-0.5-0.1c-0.2,0-0.4,0-0.5-0.1c-0.2-0.2-0.2-0.4-0.2-0.7c0-0.2,0-0.3-0.1-0.5
			c0-0.1-0.1-0.3-0.2-0.5c-0.2-0.3-0.4-0.6-0.3-0.9c0-0.1,0.1-0.1,0.1-0.2c0.1-0.1,0.2-0.3,0.1-0.4c0-0.1-0.1-0.1-0.2-0.1
			s-0.2-0.1-0.2-0.2c-0.1-0.2-0.2-0.6-0.1-0.7c0-0.1,0.1-0.1,0.2-0.1s0.2-0.1,0.2-0.2s-0.1-0.2-0.1-0.2c0.1,0,0.1-0.1,0.2-0.1
			c0.2-0.2,0.1-0.7,0.1-0.9c0-0.1,0-0.2,0.1-0.3c0-0.1,0.1-0.2,0.1-0.3c0-0.2-0.1-0.4-0.2-0.6l0,0l-0.1-0.1l0,0c0,0,0-0.1,0-0.2
			c0-0.1,0-0.1-0.1-0.2c0,0,0-0.1-0.1-0.1c0,0,0,0,0-0.1c0-0.2,0-0.4-0.2-0.4l0,0c-0.3,0.1-0.7,0-1,0c-0.1-0.1-0.2-0.2-0.3-0.3
			s-0.2-0.2-0.3-0.3c-0.1-0.1-0.2-0.1-0.3-0.1c-0.2-0.1-0.3-0.1-0.4-0.2c-0.1-0.2-0.3-0.4-0.6-0.5c-0.3-0.1-0.6-0.1-0.9-0.1
			c-0.1,0-0.2-0.1-0.4-0.2c-0.1-0.1-0.2-0.1-0.4-0.2h-0.1c-0.2,0-0.5-0.1-0.6-0.2c-0.1-0.3-0.2-0.4-0.5-0.3c-0.1,0-0.2,0-0.2-0.1
			c-0.1-0.1-0.2,0-0.2,0s0,0-0.1,0s-0.3,0-0.4,0.1c0,0-0.1,0.1,0,0.2c-0.1,0-0.3,0-0.4,0c-0.2,0-0.4-0.1-0.6,0
			c-0.3,0.1-0.6,0.3-0.8,0.6c-0.1,0.1-0.1,0.2-0.1,0.3s0,0.1-0.2,0.2c-0.3,0.1-0.5,0.1-0.8,0.1l0,0l0,0c0,0,0,0-0.1,0c0,0,0,0,0,0.1
			c0,0.1,0.1,0.1,0.1,0.2c0.1,0.1,0.1,0.3,0.2,0.4l0,0c-0.7,0-1.4,0.1-2.1,0.4c-0.5,0.1-1.1,0-1.6-0.2c-0.3-0.1-0.5-0.2-0.8-0.4
			c-0.1-0.1-0.1-0.1-0.2-0.2c-0.1-0.1-0.2-0.3-0.4-0.3c-0.2-0.1-0.4-0.1-0.6-0.1c-0.2,0-0.4,0-0.6-0.1c-0.3-0.1-0.4-0.5-0.4-0.8
			c0-0.2-0.1-0.3-0.2-0.5c0-0.1-0.1-0.1-0.2-0.1h-0.1c-0.2-0.1-0.3-0.2-0.4-0.3l0,0c-0.1-0.1-0.4-0.2-0.4-0.3c0,0,0,0,0.2-0.1
			c0.1,0,0.1,0,0.1-0.1c0-0.1,0-0.2-0.1-0.2c0-0.1-0.1-0.2-0.1-0.2l0.1-0.1l0,0c0,0,0,0,0-0.1c-0.2-0.3-0.6-0.7-1-0.4
			c-0.1,0.1-0.3,0.2-0.4,0.3l-0.1,0.1c-0.1,0-0.2,0.1-0.2,0.2c-0.2,0.2-0.4,0.4-0.6,0.5c-0.3,0.1-0.5,0.1-0.8,0
			c-0.3,0-0.6-0.2-0.8-0.4c-0.1-0.1-0.1-0.1-0.2-0.2c-0.1-0.1-0.1-0.1-0.2-0.2c-0.1-0.3-0.1-0.3-0.2-0.4l-0.1-0.1l0,0
			c-0.2-0.3-0.5-0.6-0.8-0.7l0,0c-0.2,0-0.5,0-0.7-0.1c0-0.1,0-0.2-0.1-0.3c-0.1-0.1-0.1-0.2,0-0.3c0.2-0.3-0.1-0.5-0.3-0.7
			c0,0-0.1-0.1-0.1-0.2s0-0.1-0.1-0.2c-0.1-0.1-0.2-0.1-0.2-0.1h-0.1V159l-0.1-0.1c-0.1,0-0.1-0.1-0.2-0.1c-0.1-0.1-0.2-0.1-0.3-0.1
			c0-0.1,0-0.1-0.1-0.1c-0.1-0.1-0.4,0.1-0.4,0.2c0,0.1-0.2,0-0.3,0h-0.1h-0.1h-0.1c-0.1,0-0.1,0-0.2,0.1l0,0c0,0-0.1,0-0.1-0.1
			c-0.1-0.1-0.2-0.1-0.3,0c-0.4,0.3-0.8,0.5-1.2,0.7c-0.3,0.1-0.6,0.1-0.9,0c-0.2-0.1-0.5-0.1-0.7,0c-0.1,0-0.3,0.1-0.4,0.1
			c-0.2,0.1-0.3,0.1-0.5,0.1h-0.1c-0.2,0-0.4,0-0.6-0.2c-0.2-0.2-0.3-0.1-0.3,0h-0.1c-0.3-0.1-0.5-0.2-0.8-0.3
			c-0.2-0.2-0.5-0.2-0.7,0l0,0c-0.1,0-0.3-0.3-0.4-0.4c0,0-0.1-0.3-0.3-0.3l0,0c0,0,0,0-0.1,0c-0.1,0-0.1,0-0.2,0h-0.1
			c-0.1,0-0.3,0-0.4-0.1c-0.1,0-0.3-0.2-0.3-0.3c0-0.1,0-0.1,0-0.1s0,0,0-0.1c0,0,0,0-0.1,0h-0.1c-0.1,0-0.1,0-0.2,0
			s-0.1,0.1-0.1,0.1l-0.1,0.1c-0.2,0-0.4,0-0.7,0c-0.5-0.1-1,0-1.5,0.1c-0.5,0.2-0.9,0.4-1.4,0.7c0,0-0.1,0.1-0.2,0.1
			c-0.2,0.1-0.4,0.2-0.4,0.3l0,0c-0.1,0.1-0.1,0.2-0.2,0.2c-0.2,0-0.4,0-0.6-0.1c-0.2,0-0.4-0.1-0.7,0c-0.3,0-0.6,0-1-0.1
			c-0.1,0-0.3,0-0.4,0.1c0-0.1-0.1-0.1-0.1-0.1c-0.5-0.1-0.9-0.4-1.3-0.8c0,0,0,0,0-0.1c0,0,0.1-0.1,0-0.2c-0.1-0.1-0.2-0.1-0.3-0.1
			s-0.1,0-0.2,0c-0.1,0-0.1,0-0.2-0.1c-0.2-0.2-0.4-0.2-0.5-0.1h-0.1c-0.5,0.1-0.5,0.2-0.5,0.3l-0.1,0.1c0,0,0,0,0,0.1
			s0.1,0.1,0.2,0.2c0.1,0,0.1,0.1,0.1,0.2v0.1l0,0c0,0,0,0-0.1,0c-0.3,0.1-0.2,0.3-0.2,0.4c0,0.1,0,0.1,0,0.2c0,0.2-0.1,0.3-0.3,0.4
			v0.1c0,0.1,0.1,0.2,0.1,0.2c0.1,0.1,0.3,0,0.5,0s0.3-0.1,0.4,0c0,0,0,0.1-0.3,0.2l0,0c-0.3,0.1-0.5,0.4-0.4,0.6l0,0
			c-0.1,0.1-0.1,0.2-0.1,0.7c0,0.1,0,0.1,0,0.1l0,0v0.1c0.2,0.1,0.4,0,0.6-0.1c0.2-0.1,0.3-0.1,0.4-0.1c0,0.1-0.1,0.1-0.2,0.2
			c0,0.1-0.1,0.1-0.1,0.2v0.1l0.1,0.1c0.1,0.1,0.2,0.1,0.2,0.3c0,0,0,0.1,0,0.2h0.1c0,0,0,0,0.1,0c-0.1,0-0.1,0.1-0.2,0.1l-0.1,0.1
			l0,0c0,0,0,0,0,0.1c0.1,0.2,0.3,0.3,0.5,0.4c0,0-0.1,0-0.2,0s-0.2,0-0.2,0v-0.1c0-0.1,0-0.2-0.1-0.2c0-0.1-0.2-0.1-0.3-0.1
			c-0.1,0-0.1,0.1-0.1,0.1c0,0.1,0,0.1,0.1,0.2c0,0.1,0.1,0.2,0.1,0.2s0,0-0.1,0c0,0,0,0-0.1,0c0,0,0,0,0,0.1c0,0.1,0.3,0.3,0.4,0.4
			c0.1,0,0.1,0,0.1-0.1c0-0.1,0.1-0.1,0.1-0.1l0.1,0.1l0,0c0.1,0.1,0.2,0.1,0.3,0.1c0.1,0,0.2,0,0.2,0.1c0,0.1,0.1,0.1,0,0.2
			c0,0.1-0.1,0.1-0.2,0.2l0,0c0,0,0,0,0,0.1c0,0,0,0,0.1,0c0.1,0,0.1,0.1,0.2,0.2s0.1,0.2,0.2,0.2h0.1l0,0h0.1c0,0,0,0,0.1,0
			c0,0.1,0,0.1,0,0.2h-0.1c-0.1,0-0.2,0-0.3,0.1c0,0.1,0,0.2,0.1,0.2h0.1c0.3-0.2,0.7-0.2,1.1-0.1l0,0c-0.1,0-0.1,0.1-0.2,0.2v0.1
			l0,0h-0.1l0,0c-0.2,0-0.5,0-0.6,0.2c0,0,0,0,0,0.1c0,0,0,0,0.1,0c0.2,0,0.5,0,0.7-0.1l0,0c0,0,0,0.1,0.1,0.1h0.1c0,0,0,0,0,0.1
			v0.1h0.1c0,0,0,0,0.1-0.1c0.2-0.1,0.3-0.2,0.4-0.4c0.1,0.1,0.2,0.1,0.3,0.2c0.1,0,0.1,0.1,0.2,0.1c0,0,0,0,0.1,0c0,0,0,0,0-0.1
			v-0.1h0.1v0.1c0,0,0,0,0,0.1c0,0,0,0,0.1,0c0.1,0,0.1,0.1,0.1,0.2c0,0.1,0.1,0.2,0.1,0.2c0.2,0.2,0.5,0.2,0.8,0.2
			c0.1,0,0.2-0.1,0.3-0.1c0.1-0.1,0.2-0.1,0.3-0.1c0,0,0,0,0.1,0s0.2,0.1,0.3,0c0.1-0.2,0.1-0.4,0.1-0.7v-0.1c0-0.1,0-0.1,0.1-0.1
			c0.1-0.1,0.4,0,0.5,0c0.4,0.1,0.8,0.2,1.1,0.5c0.1,0.1,0.3,0.2,0.4,0.3s0.3,0.3,0.5,0.4c0.3,0.1,0.5,0.1,0.8,0
			c0.2-0.1,0.4-0.1,0.6-0.1c0.2,0.1,0.3-0.1,0.3-0.2l0,0l0.1,0.1c0,0,0,0,0.1,0c0,0,0,0,0.1,0c0.1-0.1,0.1-0.2,0.2-0.3
			c0.3-0.4,0.5-0.7,0.8-0.6c0.2,0.1,0.5,0.2,0.7,0.3c0.2,0,0.3-0.1,0.4-0.2c0-0.1,0-0.1,0-0.1l0,0c0,0,0,0,0.1,0
			c0.1,0,0.2-0.1,0.3-0.2l0,0l0,0c0,0,0.1,0,0.1,0.1c0.1,0.2,0.1,0.2-0.1,0.4l0,0c-0.2,0.1-0.3,0.3-0.1,0.5c0.1,0.1,0.2,0.3,0.1,0.4
			l0,0h-0.1l-0.1,0.1v0.1c0,0.2,0,0.5,0.2,0.6c0.1,0.1,0.1,0.3,0.1,0.5c0,0.1,0,0.2,0,0.3c0,0.2,0.1,0.3,0.2,0.4l0,0
			c0,0.1,0,0.2-0.2,0.3l-0.1,0.1c-0.1,0.1-0.1,0.2-0.1,0.4c0,0.1,0,0.2,0,0.3c-0.1,0.2-0.2,0.4-0.2,0.6c-0.1,0.3-0.1,0.5-0.3,0.7
			l0,0c-0.1,0.1,0,0.2,0,0.2c0,0.1,0,0.1,0,0.1c-0.1,0.1-0.1,0.3-0.2,0.4v0.1c-0.1,0.5-0.2,1-0.4,1.4l0,0c-0.1,0.1-0.2,0.3-0.3,0.4
			l0,0l0,0c-0.2,0.1-0.4,0.2-0.6,0.3c-0.1,0-0.2,0-0.3,0s-0.3,0-0.4,0.1c0,0,0,0,0-0.1c-0.1-0.1-0.2,0-0.3,0h-0.1
			c-0.2,0-0.3-0.1-0.4-0.2c-0.1-0.1-0.2-0.1-0.4-0.2l0,0l0,0l0,0l-0.1-0.1c-0.1-0.1-0.1-0.2-0.2-0.2c-0.1,0-0.2,0-0.3,0.1
			c-0.1,0-0.1,0-0.1,0.1c-0.1,0-0.2,0-0.3-0.1s-0.3-0.2-0.5-0.1c0,0,0,0,0,0.1l0,0c-0.1,0-0.2,0-0.3,0.1c-0.1,0.1-0.2,0.1-0.3,0
			c0,0,0,0-0.1,0l0,0c0,0.1-0.1,0.2-0.2,0.3c0,0,0,0-0.1,0l0,0h-0.1c-0.1,0.1-0.2,0.2-0.4,0.4s-0.5,0.4-0.9,0.4l0,0
			c-0.2,0-0.3-0.1-0.5-0.2c-0.2-0.1-0.4-0.2-0.6-0.2c-0.1,0-0.2,0-0.4,0c0,0-0.1,0-0.1-0.1c0,0-0.1-0.1-0.2-0.1c-0.1,0-0.2,0-0.4,0
			c-0.1,0-0.1-0.1-0.1-0.1c-0.1-0.1-0.1-0.1-0.2-0.2c-0.4-0.1-0.8-0.2-1.2-0.2c-0.3-0.1-0.7-0.1-1.1,0c-0.1,0-0.4,0.1-0.5,0
			l-0.1-0.1l0,0c0-0.1,0-0.2-0.1-0.3c-0.1-0.1-0.2-0.3-0.4-0.3c-0.3,0-0.6,0-0.9,0c-0.3-0.1-0.6-0.2-0.9-0.3c-0.1,0-0.5-0.1-0.5-0.2
			s0-0.1,0-0.1c0-0.2,0-0.3-0.3-0.4c-0.3-0.1-0.6-0.2-0.9-0.3c-0.3-0.1-0.5-0.1-0.8,0c-0.1,0-0.2,0.1-0.3,0.1
			c-0.1,0.1-0.2,0.1-0.3,0.1c-0.7,0.1-1.3,0.6-1.6,1.2c-0.1,0.3,0,0.6,0.1,0.9c0,0.1,0.1,0.1,0.1,0.2c0.1,0.2,0.1,0.3,0.1,0.5
			c-0.2,0.6-0.7,1-1.3,1.1c-0.3,0-0.6-0.2-0.9-0.5c-0.1-0.1-0.2-0.2-0.3-0.2c-0.5-0.4-1.2-0.6-1.8-0.7c-0.2,0-0.3,0-0.5-0.1
			c-0.4,0-0.8-0.1-1.1-0.3c-0.2-0.2-0.4-0.5-0.4-0.7c0-0.3-0.1-0.5-0.3-0.7c-1.1,0.2-1.2,0.2-1.4,0.2c-0.1,0-0.2,0-0.3,0
			c-0.1,0-0.2-0.1-0.4-0.2c-0.1-0.1-0.2-0.1-0.3-0.2c-0.2-0.1-0.3-0.1-0.5-0.1c-0.1,0-0.3-0.1-0.4-0.1c-0.2-0.1-0.4,0-0.6,0
			c-0.1,0-0.2,0.1-0.3,0.1c-0.3,0-0.6,0-0.8-0.2c-0.1-0.1-0.3-0.1-0.4-0.2c-0.1-0.1-0.3-0.1-0.4-0.2l0,0c-0.1-0.1-0.2-0.1-0.3-0.1
			h-0.1l0,0c0-0.1,0-0.1-0.1-0.2l-0.1-0.1v-0.1c0-0.1,0-0.2-0.1-0.2h-0.1c0.1-0.1,0.2-0.2,0.1-0.3c0-0.1-0.2-0.1-0.3-0.1
			c-0.1,0-0.2,0-0.3,0.1c0,0.1,0,0.1,0,0.2l0,0c-0.1,0-0.1,0-0.2,0c-0.1,0-0.1,0-0.2,0c-0.1-0.1-0.2-0.2-0.3-0.3
			c-0.3-0.4-0.1-0.5,0.3-0.8c0.1-0.1,0.2-0.1,0.2-0.2c0.4-0.3,0.7-0.8,0.6-1.4l0,0c-0.1-0.4-0.1-0.4-0.4-0.6
			c-0.2-0.1-0.3-0.4-0.3-0.6s0.2-0.3,0.4-0.5c0.1-0.1,0.3-0.2,0.3-0.4c0.1-0.1,0.1-0.2,0.1-0.3s-0.1-0.1-0.2-0.2
			c-0.1,0-0.2,0.1-0.3,0.2l0,0c-0.1,0.1-0.2,0.2-0.4,0.3h-0.1c0-0.1,0-0.1,0-0.2c0-0.1-0.1-0.1-0.1-0.1l0,0c0,0,0-0.1,0-0.2
			c-0.1-0.2-0.2-0.2-0.4-0.3h-0.1c0-0.1-0.1-0.1-0.1-0.1c-0.1-0.1-0.3,0-0.4,0h-0.1c-0.3,0.1-0.5,0.2-0.7,0.4l-0.1,0.1h-0.1
			c0,0,0,0-0.1,0l0,0c-0.1,0-0.2,0-0.4,0c-0.1,0-0.2,0-0.4,0c-0.2,0.1-0.3,0-0.3,0s0,0,0-0.1c0,0,0,0,0-0.1c0,0,0,0-0.1,0
			c-0.1,0-0.2,0-0.3-0.1c-0.1,0-0.1-0.1-0.2-0.1c-0.2,0-0.2,0-0.3,0.1c0,0,0,0.1-0.1,0.1c-0.2,0.1-0.5,0.1-0.7,0
			c-0.1,0-0.4-0.2-0.5-0.1c0,0-0.1,0.1-0.1,0.2c0,0.1-0.2,0.1-0.5,0.1h-0.1c-0.1,0-0.2,0.1-0.3,0.1c-0.1,0.1-0.2,0.2-0.4,0
			c-0.2-0.2-0.5-0.3-0.8-0.3c-0.4,0-0.9,0-1.3,0.1c0,0-0.2,0-0.3,0c-0.2,0-0.2,0-0.3,0l0,0l0,0c-0.2-0.1-0.3,0-0.5,0.1
			c-0.1,0.1-0.2,0.1-0.3,0.1c-0.4,0-0.9,0.1-1.3,0.1c-0.7,0.1-1.6,0.4-1.9,1c-0.1,0.2-0.2,0.2-0.3,0.1c-0.1,0-0.2-0.1-0.4,0l0,0
			c-0.1,0.1-0.2,0.2-0.2,0.1c-0.1-0.1-0.3,0-0.4,0.1c0,0,0,0-0.1,0c-0.1,0.1-0.3,0.2-0.3,0.4c-0.1,0.1-0.1,0.1-0.2,0.2
			c0,0-0.1,0-0.1,0.1c-0.3,0.2-0.6,0.3-0.9,0.3l0,0c-0.1-0.1-0.2-0.1-0.3-0.1c-0.1,0.1-0.3,0-0.4,0c0,0,0-0.1-0.1-0.1c0,0,0,0-0.1,0
			c0-0.1,0-0.2,0-0.2s0-0.1-0.1-0.1h-0.1c-0.2,0.3-0.4,0.3-0.8,0.3c-0.1,0-0.3,0-0.4,0c-0.4,0.1-0.9,0.1-1.3-0.2
			c-0.2-0.1-0.3-0.3-0.4-0.5c0,0,0,0,0-0.1c0-0.1-0.1-0.2-0.2-0.2c0,0-0.1,0-0.2,0c-0.1,0.1-0.3,0.1-0.4,0.1l0,0
			c-0.1,0-0.2,0.2-0.3,0.5c0,0,0,0,0,0.1v0.1c-0.3,0.9-0.7,2-1.6,2.5c-0.3,0.2-0.6,0.3-0.9,0.4c-0.2,0.1-0.3,0.1-0.5,0.2
			c-0.4,0.2-0.7,0.5-1,0.9c-0.2,0.1-0.3,0.3-0.4,0.6c0,0.1,0,0.2-0.1,0.3c0,0.2,0,0.3-0.2,0.5c-0.4,0.4-0.6,0.8-0.6,1.4
			c0,0.2,0,0.4-0.1,0.6c-0.1,0.2,0,0.3,0.1,0.3c0,0,0,0,0.1,0c0.1,0,0.1,0.1,0.1,0.2c0,0.3-0.2,0.8-0.4,1c-0.3,0.4-0.6,0.8-0.9,1.1
			c-0.1,0.1-0.3,0.2-0.4,0.3c-0.2,0.2-0.5,0.4-0.7,0.6c-0.4,0.3-0.8,0.5-1.3,0.6c-0.3,0-0.5,0.1-0.8,0.2c-0.1,0-0.1,0.1-0.3,0.3
			c0,0.1-0.1,0.1-0.1,0.1s0,0,0,0.1c-0.2,0.1-0.2,0.4-0.3,0.6c0,0.1,0,0.1-0.1,0.2c-0.2,0.5-0.5,0.9-1,1.1c-0.4,0.3-0.8,0.8-0.9,1.4
			c-0.1,0.2-0.1,0.4-0.2,0.6c-0.1,0.4-0.1,0.7-0.5,1c-0.1,0.1-0.2,0.2-0.4,0.3c-0.3,0.3-0.6,0.6-0.8,0.9v0.1h0.1
			c0-0.1,0.1-0.1,0.1-0.2c0,0.2-0.3,0.6-0.4,0.8l-0.1,0.1c0,0.1-0.1,0.2-0.1,0.2c0,0.1,0,0.1,0,0.1c-0.2,0.1-0.2,0.3-0.2,0.5
			c0,0.1,0,0.1,0,0.1c-0.1,0.2-0.2,0.3-0.3,0.3c-0.1,0.1-0.2,0.1-0.3,0.3c-0.1,0.2-0.2,0.5-0.3,0.8c0,0.1-0.1,0.2-0.1,0.4
			c-0.1,0.4-0.2,0.8-0.1,1.1l0,0l0,0l0,0l0,0l0,0l0,0l0,0l0,0l0,0l0,0c0-0.1,0.1-0.2,0.1-0.3c0-0.1,0-0.1,0-0.2
			c0.1,0.1,0.1,0.2,0.2,0.3c0.1,0.2,0.1,0.4,0.3,0.5c0,0,0,0,0.1,0c0,0,0,0,0-0.1v-0.1c0,0,0,0.1,0.1,0.1c0.1,0.3,0.3,0.7,0.1,0.9
			v0.1l0,0c0,0,0,0-0.1,0c-0.1,0.1-0.2,0.3-0.1,0.5l0,0c0,0.1-0.1,0.1-0.1,0.2c0,0,0,0-0.1,0c0,0,0,0,0,0.1c0,0.2,0.1,0.3,0.2,0.4
			l0.1,0.1c0.1,0.2,0.1,0.4,0.1,0.6c0.1,0.5,0.1,1,0.1,1.5c0,0.4-0.2,0.8-0.4,1.2c-0.2,0.5-0.4,0.9-0.4,1.4l0,0
			c0,0.1-0.1,0.3-0.1,0.4c0,0.1-0.1,0.2-0.1,0.2c-0.2,0.4-0.4,0.7-0.7,1c0,0-0.1,0.1-0.2,0.1c-0.2,0.1-0.4,0.2-0.3,0.4
			c0,0,0,0,0,0.1h0.1l0.1-0.1c0.4,0.2,0.7,0.9,0.7,1.3l0,0c0,0,0,0.1,0.1,0.1l0,0c0,0,0,0.1,0.1,0h0.1v0.1c0,0,0,0,0,0.1l0,0h0.1
			c0,0,0,0,0,0.1l0,0c0,0,0,0.1,0,0.2c0,0,0,0-0.1,0c-0.1,0-0.1,0-0.2,0.1l0,0l0,0c0,0,0,0,0,0.1c0,0.2,0,0.3,0.1,0.5l0,0l0,0
			c-0.1,0.2-0.1,0.4,0,0.5l0,0c0,0.1,0,0.2,0,0.2l0,0l0,0c-0.1,0.1,0,0.2,0,0.3l0,0l0,0l0,0l0,0l0,0l0,0l0,0c0,0,0.1,0,0.1,0.1
			c0.1,0.1,0.1,0.1,0.3,0.1c0,0,0,0,0.1,0l0.1-0.1l0,0c-0.1,0.1-0.2,0.2-0.1,0.4c0,0,0,0.1,0.1,0.1l0,0c0,0,0,0,0,0.1l0.1,0.1l0,0
			l0,0l0,0c0,0,0,0,0.1,0c0,0.1,0,0.1,0.1,0.1c0,0,0,0,0.1,0h0.1c0,0,0,0,0,0.1c0,0,0,0,0,0.1c0,0,0,0,0.1,0h0.1
			c0.1,0,0.2,0,0.3-0.1c0.1-0.1,0.2-0.1,0.3-0.2c0,0,0,0,0.1,0c-0.1,0-0.2,0.1-0.2,0.2c0,0.1,0,0.3,0.1,0.4l0,0
			c-0.1,0.1-0.1,0.2,0,0.3l0,0l0,0c0,0,0,0,0,0.1l0,0l0,0l0,0c0,0,0,0,0,0.1l0.1,0.1l0,0l0,0l0,0l0,0c0.1,0.1,0.1,0.2,0.2,0.3l0,0
			l0,0v0.1c0,0.1,0.1,0.1,0.2,0.1l0,0c0,0,0,0,0.1,0c0,0,0,0,0-0.1c0-0.1,0-0.1,0-0.2l0,0h0.1c0,0.1,0,0.3,0,0.4c0,0,0,0,0.1,0.1
			h0.1c0,0,0,0,0-0.1l0,0c0,0,0,0.1,0.1,0.1l0,0c0,0.1-0.1,0.2-0.1,0.2s0,0,0,0.1c0,0,0,0,0.1,0h0.1c0,0.2,0.2,0.3,0.3,0.4
			c0.1,0.1,0.2,0.1,0.2,0.2c0,0,0,0.1,0.1,0.1h0.1c0,0,0-0.1,0.1-0.1c0,0,0,0,0,0.1c0,0.1,0,0.2,0.1,0.3c0.1,0,0.1,0.1,0.2,0.1
			c0,0,0,0,0,0.1c0,0,0,0,0,0.1l0,0c0.1,0,0.1,0,0.1,0l0,0c0,0.2,0,0.3,0.1,0.3l0,0c0,0,0,0.1,0.1,0.1c0,0,0.1,0.1,0,0.1
			c0,0,0,0,0,0.1c0,0,0,0,0.1,0c0,0,0,0,0.1,0c0,0.1,0,0.1,0,0.2c0,0,0,0,0,0.1v0.1c0,0,0,0,0,0.1c0,0.1,0.1,0.1,0.2,0.2
			c0,0,0,0,0.1,0c-0.1,0-0.2,0.1-0.2,0.2s0,0.2,0.1,0.3c0,0,0,0,0.1,0c0,0,0,0,0.1,0l0,0l0,0c0,0,0.1,0,0.1,0.1
			c-0.1,0-0.1,0.1-0.1,0.1s-0.1,0-0.1-0.1c0,0,0,0-0.1,0l0,0c-0.1,0.1-0.1,0.2,0,0.3c0.1,0.1,0.2,0.2,0.4,0.2c0,0.2,0.1,0.6,0.2,0.7
			c0,0,0,0,0.1,0c0,0,0.1,0,0.1,0.1l0.1,0.1c-0.1,0-0.1,0-0.1,0h-0.1l0,0h-0.1v0.1c0,0,0,0,0,0.1l0,0c0.2,0.1,0.4,0.1,0.5,0.2l0,0
			l0,0v0.1c0,0,0.9,0.6,1.3,0.7c0,0,0,0,0,0.1c0.1,0.1,0.1,0.1,0.2,0.2c0.1,0.1,0.1,0.2,0.3,0.3c0,0,0.1,0.1,0.2,0.1
			c0.1,0.1,0.2,0.2,0.3,0.2l0,0c0,0.2,0.3,0.3,0.6,0.5c0.1,0.1,0.2,0.1,0.3,0.1c0.2,0.2,0.4,0.4,0.6,0.6c0.2,0.2,0.3,0.4,0.5,0.6
			c0.2,0.2,0.4,0.3,0.7,0.5c0.2,0.1,0.4,0.2,0.6,0.4c0.2,0.1,0.5,0.2,0.7,0.3c0,0,0.1,0,0.1,0.1c0.1,0.1,0.3,0.2,0.4,0.2h0.1l0,0
			l0,0l0,0c0.1,0,0.1,0,0.2-0.1c0.2-0.2,0.5-0.3,0.8-0.4c0.4-0.1,0.8-0.3,1.1-0.5c0.4-0.1,0.9-0.2,1.3-0.2l0,0c0.1,0,0.2,0,0.3,0
			c0.3-0.1,0.7-0.1,1-0.1c0,0,0,0,0.1,0l0,0c0.1,0.1,0.2,0.1,0.3,0.1c0,0,0,0,0.1,0c0.1,0.1,0.2,0.1,0.4,0.1s0.3-0.1,0.3-0.2l0,0
			c0,0.1,0.1,0.1,0.1,0.2l0,0c0,0,0,0,0,0.1c0.1,0.2,0.4,0.2,0.6,0.2c0.1,0,0.2,0,0.2,0c0.2,0,0.3,0.1,0.5,0.2
			c0.1,0.1,0.2,0.1,0.3,0.1s0.1,0,0.2-0.1c0.1-0.1,0.3-0.2,0.4-0.3c0.2-0.1,0.3-0.2,0.5-0.2c0.3-0.1,0.6-0.2,0.9-0.3l0,0
			c0.4-0.3,0.9-0.6,1.4-0.7c0,0,0.2,0,0.4-0.1c0,0.1,0.1,0.1,0.2,0.1c0.2,0,0.4-0.1,0.4-0.3l0.1-0.1l0.1-0.1
			c0.2-0.1,0.3-0.1,0.5-0.2l0,0l0,0c0.3,0,0.6-0.1,0.8-0.1l0,0c0.2,0,0.4,0,0.6-0.1l0,0l0,0c0.3,0,0.6-0.1,0.9-0.1c0,0,0,0,0.1,0
			l0,0c0.1,0,0.3,0,0.4,0h0.1c0.2,0,0.5,0,0.7,0.1c0.4,0.2,0.8,0.5,1,0.9l0,0v0.1c0.1,0.1,0.2,0.2,0.2,0.1h0.1l0,0
			c-0.1,0-0.2,0.1-0.2,0.2c0,0.1,0.2,0.1,0.2,0.2c0.1,0,0.2,0,0.3-0.1l0,0l0,0c0,0,0,0-0.1,0c-0.1,0-0.1,0-0.2,0.1
			c0,0.1,0,0.2,0,0.2l0,0c0,0,0,0,0.1,0h0.1c0,0,0,0,0,0.1c0,0.2,0,0.4,0.2,0.6c0.1,0.2,0.2,0.4,0.4,0.5c0.1,0,0.1,0.1,0.1,0.1
			l0.1,0.1c0,0.1,0.1,0.1,0.1,0.1l0,0c0.1,0,0.1-0.1,0.2-0.1c0,0,0.1,0,0.2,0.1h0.1c0.1,0,0.1,0,0.2,0l0,0h0.1c0,0,0-0.1,0.1-0.1
			c0,0.1,0,0.1,0.1,0.2c0.1,0,0.1-0.1,0.1-0.1v-0.1l0.1,0.1c0,0,0,0,0.1,0l0,0v-0.1l0,0c0.1,0,0.1,0,0.2,0v0.1c0,0,0,0,0,0.1l0,0
			l0,0c0.1,0,0.2,0,0.2-0.1l0,0h0.1c0,0,0,0,0.1,0l0,0l0,0l0.1-0.1c0,0,0,0,0-0.1c0,0,0,0-0.1,0c-0.1,0-0.2,0-0.3,0.1
			c0,0,0-0.1-0.1-0.1c0,0,0,0,0.1,0c0.1,0,0.2,0,0.2,0l0,0c0.1,0.1,0.4,0.1,0.7,0.1l0,0c0.2,0,0.3-0.1,0.4-0.2c0-0.1,0-0.2,0-0.3
			l0,0l0,0v0.1l0.1,0.1c0,0.1,0,0.2,0,0.3c0,0.1,0.1,0.1,0.3,0.1c0,0,0.1,0,0.1-0.1c0,0,0,0,0-0.1l0,0h0.1c0.1,0.1,0.1,0.3,0.1,0.4
			c0,0.1,0,0.2,0,0.2c0,0.1,0.2,0.3,0.4,0.3h0.1c0,0,0,0.1,0.1,0.1c0,0,0.1,0.1,0.2,0.1h0.1v-0.1l0,0l0,0c0,0,0,0,0.1,0
			c0,0,0,0,0,0.1c0,0,0,0,0.1,0h0.1l-0.1,0.1l0,0c-0.1,0.1-0.1,0.2,0,0.3c0,0.1,0.1,0.1,0.2,0.1c0,0.1,0.1,0.2,0.1,0.3
			c0,0,0,0.1,0.1,0.1c0.1,0.3,0.1,0.6,0,0.9c-0.1,0.2-0.1,0.4,0,0.5l0,0c-0.1,0.1,0,0.3,0,0.4c0,0.1,0,0.3,0,0.4
			c-0.1,0.2-0.2,0.3-0.2,0.4l0,0c0,0-0.1,0.1-0.1,0.2c-0.1,0.2-0.3,0.4-0.2,0.6c0.1,0.1,0.2,0.2,0.4,0.1c0,0,0,0,0,0.1
			c0,0.1,0,0.2,0,0.4c0,0.1,0,0.1,0,0.2c-0.1,0-0.2-0.1-0.2,0c-0.1,0-0.1,0-0.2,0.1c0,0.1,0,0.2,0.1,0.2l0.1,0.1
			c0.1,0.1,0.2,0.3,0.4,0.3c-0.1,0-0.1,0-0.2,0h-0.1c0-0.1-0.1-0.1-0.1-0.2l0,0c0,0,0,0-0.1,0c-0.2,0.1-0.1,0.4-0.1,0.7
			c0,0.1,0,0.2,0,0.3c0,0.2-0.1,0.3-0.2,0.4l-0.1,0.1c0,0,0-0.1-0.1-0.1c0,0,0,0-0.1,0c0,0,0,0,0,0.1v0.1l0,0c0,0-0.1,0-0.1,0.1
			v-0.1c0,0,0-0.1-0.1-0.1h-0.1c-0.1,0.2,0,0.3,0.1,0.4l0,0c0,0,0.1,0.1,0.1,0.2c0.1,0.1,0.1,0.2,0.2,0.3l0,0v0.1
			c0.1,0.2,0.2,0.3,0.3,0.5c0,0,0,0,0,0.1c0,0.1,0,0.2,0.1,0.2c0,0,0,0,0,0.1c0.1,0.1,0.1,0.2,0.2,0.3c0.1,0.2,0.3,0.5,0.5,0.6l0,0
			c0,0,0,0,0,0.1c0.4,0.4,0.8,0.8,1.1,1.2c0.2,0.4,0.5,0.7,0.8,1.1l0,0c0.4,0.3,0.7,0.7,0.9,1.1l0,0c0.1,0.3,0.1,0.5,0.3,0.5l0,0
			l0,0c0,0.1,0,0.3,0.1,0.3l0.1,0.1c0,0.1,0,0.2,0,0.2c0,0.1,0,0.1,0,0.2c0,0.1,0,0.2,0.1,0.2l0,0c0.1,0.2,0.2,0.3,0.3,0.4
			c0,0,0,0,0.1,0l0,0c-0.1,0-0.1,0.1-0.2,0.1c-0.1,0.2,0.1,0.6,0.3,0.8c0.1,0.1,0.1,0.2,0.2,0.2c0.1,0.1,0.2,0.2,0.2,0.4
			c0,0.1,0,0.1,0,0.2c0,0.1,0,0.2,0.1,0.3c0.1,0.4,0.3,0.7,0.4,1.1c0.2,0.3,0.2,0.6,0.2,0.9c0,0,0,0.1-0.1,0.1c0,0-0.1,0-0.1,0.1
			c0,0,0,0.1-0.1,0.1l0,0c-0.3,0.2-0.2,0.5-0.1,0.7v0.1c0,0.1,0.1,0.3,0.1,0.5c0,0.1,0.1,0.2,0.1,0.2l0.1,0.1
			c0.1,0.3,0.2,0.5,0.3,0.8c0.2,0.2,0.3,0.5,0.4,0.8c0.2,0.7,0.1,1.5-0.3,2.1c0,0.1-0.1,0.1-0.1,0.2c-0.1,0.2-0.1,0.3-0.3,0.3
			c-0.3,0-0.4,0.3-0.4,0.5c0,0.1,0,0.2-0.1,0.2c-0.1,0.2-0.3,0.4-0.5,0.6c-0.1,0.1-0.1,0.2-0.1,0.4c0,0.1,0,0.3-0.1,0.3
			c-0.1,0.2-0.1,0.4-0.2,0.7c0,0.1,0,0.2,0,0.3c0,0.1-0.1,0.2-0.1,0.3c-0.1,0.3-0.2,0.6-0.1,0.7c0,0,0,0.1-0.1,0.1
			c0,0.1-0.1,0.1-0.1,0.2c0,0.1,0,0.2-0.1,0.4c0,0.1-0.1,0.1-0.1,0.2c-0.1,0.1-0.1,0.1-0.2,0.2c0,0.1,0,0.2,0,0.2v0.1
			c0,0.3,0,0.7,0,1.1c0,0.3-0.1,0.6,0,0.8l0,0c-0.1,0.8,0.1,1.6,0.7,2.2c0.4,0.3,0.5,0.8,0.7,1.3c0.1,0.3,0.2,0.5,0.3,0.8
			c0.2,0.3,0.3,0.6,0.4,0.9c0.2,0.5,0.3,0.9,0.7,1.3c0.1,0.2,0.2,0.3,0.2,0.5c0.1,0.1,0.2,0.2,0.2,0.3c0,0.1,0.1,0.1,0.1,0.2
			c0.2,0.3,0.3,0.6,0.4,1l0,0c0,0,0,0.2-0.1,0.6v0.1c0,0.3,0,0.5,0,0.8c0,0.4,0,0.8,0.1,1.2c0.2,0.3,0.3,0.7,0.4,1
			c0,0.1,0,0.2,0,0.3s0,0.2,0,0.4c0,0.1,0,0.3,0,0.5c0,0.2,0.1,0.4,0.1,0.6v0.1c0,0.1,0,0.2,0.1,0.3c0.1,0.2,0.1,0.2,0.1,0.4
			c0,0.1,0,0.2,0,0.3s0.1,0.2,0.1,0.2c0,0.1,0.1,0.1,0.1,0.2c0,0.2,0.1,0.4,0.1,0.5c0.1,0.3,0.3,0.6,0.5,0.9
			c0.2,0.3,0.5,0.6,0.8,0.9c0.1,0.1,0.1,0.1,0.2,0.1c0,0.2,0.2,0.5,0.3,0.7c0.1,0.1,0.2,0.3,0.2,0.4c0.1,0.2,0.1,0.4,0.2,0.7
			c0,0.1,0.1,0.3,0.1,0.4c0.3,0.8,0.6,1.5,1.1,2.2c0.3,0.4,0.4,0.9,0.4,1.5c0,0.2-0.1,0.5-0.2,0.5s-0.1,0-0.3,0c0,0,0,0-0.1,0l0,0
			l0,0c-0.1,0.2-0.1,0.4-0.1,0.5l0.1,0.1c0.1,0,0.1,0,0.1,0.1l0,0c0,0,0,0.1,0.2,0.5l0.1,0.1c0.1,0.1,0.2,0.3,0.2,0.5
			c0,0,0,0.1-0.1,0.2c-0.1,0.2-0.2,0.6,0.1,0.7c0,0,0,0,0.1,0c0,0,0,0,0-0.1v-0.1c0-0.2,0-0.2,0.1-0.3c0.1,0,0.2,0,0.2,0.1
			c0.1,0.1,0.1,0.2,0,0.3c0,0,0,0,0,0.1l0,0h0.1c0.1,0,0.5,0.1,0.5,0.2v0.1c0,0,0,0,0,0.1l0,0c0.1,0.1,0.2,0.1,0.3,0.2
			s0.2,0.1,0.2,0.1h0.1h0.1h0.1c0,0,0.1,0,0.2-0.1l0.1-0.1c0.2-0.1,0.3-0.3,0.5-0.4c0.1,0,0.1,0,0.2,0s0.2,0,0.3-0.1
			c0.1,0,0.3,0,0.5,0c0.4,0,0.7,0.1,0.8-0.1c0.3-0.3,0.7-0.5,1.1-0.4l0,0c0.1,0.1,0.3,0,0.4,0.1c0.2,0.1,0.2,0,0.3,0
			c0,0,0,0,0.1-0.1c0.4-0.1,0.8,0,1.1,0.1c0.4,0.2,0.6,0.1,0.8-0.1l0.1-0.1c0.1-0.1,0.3,0,0.4,0c0.2,0.1,0.3,0.1,0.5,0
			c0,0,0,0,0-0.1c0,0,0,0,0-0.1c-0.1-0.1-0.1-0.1-0.1-0.1c0-0.1,0.1-0.2,0.3-0.2c0.1,0,0.3,0,0.4,0s0.2,0,0.4,0
			c0.6-0.1,1.1-0.4,1.5-0.8c0.4-0.3,0.8-0.6,1.2-0.9c0.2-0.1,0.3-0.3,0.5-0.4c0.2-0.2,0.4-0.4,0.6-0.6c0.2-0.2,0.3-0.4,0.5-0.6
			c0.5-0.4,0.9-0.8,1.3-1.3c0.2-0.3,0.4-0.6,0.6-0.9c0-0.1,0.1-0.1,0.2-0.2c0.1-0.1,0.2-0.2,0.2-0.4c0.2-0.4,0.4-0.8,0.7-1.1
			c0,0,0,0,0.1-0.1c0.1-0.1,0.2-0.2,0.2-0.2s0,0,0.1,0s0.2,0,0.2-0.1c0,0,0,0,0-0.1c0.5,0,0.6-0.7,0.7-1.1c0.1-0.2,0.1-0.5,0.2-0.7
			c0.1-0.4,0.2-0.8,0.3-1.2h0.1c0.1-0.1,0.1-0.5,0.1-0.8c0-0.1,0-0.3,0-0.3s0-0.1-0.1-0.1h-0.1c0,0.1,0,0.1-0.1,0.1
			c0,0-0.1-0.1-0.2-0.2l-0.1-0.1c0.1-0.1,0.2-0.2,0.3-0.4v-0.1c0.1-0.2,0.3-0.4,0.5-0.5c0.5-0.3,1-0.5,1.5-0.7
			c0.5-0.1,1-0.4,1.3-0.7c0.4-0.5,0.5-0.9,0.4-1.1c0,0,0,0-0.1,0c0,0,0,0-0.1,0.1l0,0l0,0l0,0l0,0c0-0.2,0.1-0.5,0.2-0.7
			c0.1-0.2,0.2-0.4,0.2-0.6c0-0.1,0-0.2,0-0.3s-0.1-0.2,0-0.2c0-0.1,0-0.3,0.1-0.4c0-0.1,0-0.1,0-0.2c0,0,0-0.1-0.1-0.1l0,0
			c0,0,0,0,0-0.1v-0.1h-0.1c-0.1,0.1-0.1,0.2-0.1,0.4v-0.1v-0.1c0-0.2,0-0.4-0.1-0.6c0-0.1-0.1-0.2-0.1-0.4
			c-0.1-0.2-0.1-0.4-0.1-0.6v-0.1l0,0v-0.1v-0.1c0-0.2,0-0.4-0.2-0.6c-0.1-0.1-0.1-0.1-0.2-0.2c-0.1-0.1-0.1-0.1-0.1-0.3
			c0-0.1,0-0.1,0-0.2l0.1-0.1c0.1-0.1,0.1-0.3,0-0.4c0,0,0,0,0-0.1l0,0l0.1,0.1l0,0c0.1,0,0.3-0.2,0.5-0.3l0,0
			c0.2-0.2,0.4-0.4,0.6-0.7c0.2-0.2,0.4-0.4,0.6-0.5c0,0,0,0,0,0.1h0.1l0.1-0.1c0,0,0,0,0,0.1l0,0l0,0l0,0l0.1-0.1l0,0
			c0,0,0,0,0-0.1c0-0.2,0.2-0.4,0.4-0.6c0.2-0.2,0.4-0.3,0.4-0.5c0-0.1,0-0.1,0-0.2c0.2,0,0.4-0.2,0.5-0.4c0.1-0.1,0.2-0.2,0.3-0.2
			c0.3-0.1,0.5-0.3,0.8-0.4c0.1-0.1,0.1-0.1,0.1-0.1s0.1,0,0.2,0s0.3-0.1,0.4-0.2c0,0,0.2-0.1,0.3-0.1c0.3-0.1,0.5-0.2,0.5-0.3
			c0-0.1,0.3-0.3,0.5-0.4c0.2-0.1,0.4-0.2,0.5-0.3c0,0,0,0,0-0.1l0,0c0,0,0,0,0.1,0l0,0c0,0,0,0,0.1,0c0-0.1,0-0.1,0-0.2
			c0,0,0,0,0-0.1c0.1-0.1,0.2-0.3,0.3-0.4c0.1-0.1,0.2-0.3,0.3-0.4c0.1-0.1,0.2-0.2,0.3-0.4l0,0c0.1-0.2,0.2-0.4,0.1-0.5l0,0
			c0,0,0.1,0,0.1-0.1V247l0,0h0.1v-0.1c0,0,0,0-0.1,0c0.1-0.1,0.2-0.3,0.2-0.4c0,0,0-0.1,0-0.2c0-0.1,0-0.2-0.1-0.2h-0.1
			c0,0,0,0,0-0.1c0-0.1,0.1-0.2,0-0.3h-0.1c0-0.1,0-0.2,0-0.3c0-0.3,0.1-0.7-0.1-0.7c0,0,0-0.2,0.1-0.2c0.1-0.2,0.1-0.4,0-0.6
			c0,0,0,0-0.1-0.1c0.1-0.1,0.1-0.3,0.1-0.5c0,0,0-0.1-0.1-0.1v-0.1c0-0.1,0-0.2,0-0.2c0-0.1,0-0.1,0-0.1s0-0.1,0-0.2
			c0-0.1,0-0.3,0-0.4c0,0,0-0.1,0-0.2c0-0.3,0-0.5-0.1-0.6l0,0l0.1-0.1l0.1-0.1c0-0.1,0-0.2,0-0.3c0-0.1,0-0.2,0.1-0.3
			c0,0,0,0,0-0.1l0,0l0,0c0-0.1,0.1-0.1,0.1-0.2c0-0.1-0.1-0.2-0.1-0.2h-0.1c0-0.1,0.1-0.2,0.1-0.3c0,0,0,0,0-0.1c0,0,0,0-0.1,0
			c0,0-0.2-0.1-0.3-0.1c-0.1-0.1-0.2-0.1-0.3-0.1c-0.1-0.2-0.2-0.2-0.2-0.2c0-0.1,0-0.2,0-0.3v-0.1v-0.1c0-0.1-0.1-0.2-0.1-0.2
			c-0.1-0.1-0.1-0.1-0.1-0.2c0-0.1,0.1-0.3,0-0.4c0,0-0.1-0.1-0.2-0.1v-0.1c0-0.1,0-0.1-0.1-0.2l0,0c0-0.1,0-0.2-0.1-0.4
			c0-0.1-0.1-0.2-0.1-0.2c0-0.2,0-0.4,0.1-0.6c0.1-0.1,0.1-0.5,0-0.6h-0.1c0-0.1,0-0.2,0-0.3c0-0.2,0-0.4,0.2-0.5
			c0.1-0.1,0.2-0.4,0.1-0.6c0,0-0.1-0.1-0.3-0.1c0-0.2-0.2-0.4-0.3-0.5c-0.2-0.1-0.3-0.2-0.3-0.4c0-0.1,0-0.1,0-0.2
			c0-0.1,0-0.1,0-0.1c0-0.1,0-0.2,0-0.2c0.1-0.2,0.1-0.4,0.2-0.5c0.2-0.4,0.3-0.8,0.3-1.2c0,0,0,0,0-0.1c0,0,0.1,0,0.1-0.1l0,0l0,0
			c0,0,0,0,0.1,0l0,0c0-0.1,0.1-0.2,0.2-0.4c0.1-0.2,0.2-0.4,0.2-0.6l0,0c0.1,0,0.2-0.2,0.3-0.6c0.1-0.2,0.1-0.4,0.2-0.5
			c0.1-0.1,0.4-0.5,0.3-0.7v-0.1c0-0.1,0-0.2,0.1-0.3c0.1-0.1,0.2-0.1,0.3-0.1c0.1,0,0.3,0,0.4-0.3l0,0c0-0.1,0-0.1,0.1-0.1l0,0
			c0,0,0,0,0,0.1h0.1c0.1-0.1,0.1-0.3,0-0.4l0,0c0,0,0,0,0-0.1c0.1,0,0.1,0,0.2,0c0.2,0,0.5-0.3,0.6-0.4l0.1-0.1l0,0
			c0.3-0.3,0.5-0.7,0.5-1.1c0.1,0,0.3-0.1,0.4-0.4c0,0,0-0.1,0.1-0.1c0.1-0.1,0.1-0.2,0.2-0.3c0.1-0.1,0.2-0.2,0.3-0.4
			c0.2-0.2,0.4-0.5,0.6-0.7c0.2-0.2,0.3-0.4,0.5-0.6c0.2-0.3,0.5-0.6,0.8-0.8c0.1-0.1,0.3-0.3,0.4-0.4c0.4-0.3,0.7-0.6,1.2-0.9
			c1-0.6,1.8-1.4,2.5-2.3c0.4-0.5,0.8-1,1.1-1.4c0.2-0.2,0.3-0.5,0.5-0.8c0.1-0.2,0.2-0.4,0.3-0.6c0.3-0.4,0.6-0.9,0.8-1.4
			c0.1-0.5,0.3-1,0.5-1.5c0.2-0.3,0.4-0.7,0.6-1.1c0-0.1,0-0.2,0-0.3c0-0.1,0-0.2,0-0.2c0-0.1,0.1-0.1,0.2-0.2
			c0.1,0,0.1-0.1,0.1-0.1c0.2-0.2,0.2-0.4,0.3-0.6c0-0.2,0.1-0.4,0.2-0.5c0.2-0.3,0.4-0.6,0.5-0.9c0.1-0.4,0.1-0.8,0.1-1.2
			c0-0.1,0-0.1,0-0.2c0.1-0.1,0.2-0.1,0.3-0.1c0.1,0,0.3,0,0.4-0.2c0,0,0-0.1-0.1-0.1s-0.2-0.1-0.3-0.1h-0.1c0,0,0,0,0,0.1v0.1
			c0,0,0,0-0.1,0c0.2-0.3,0.1-0.6,0.1-0.9c-0.1-0.3,0-0.7,0.1-1c0-0.1,0-0.2-0.1-0.3c-0.2-0.2-0.6-0.2-0.8-0.2
			c-0.1,0.1-0.2,0.2-0.3,0.3c-0.1,0.1-0.1,0.2-0.2,0.3c-0.2,0.1-0.3,0.1-0.5,0.1c-0.2,0-0.3,0-0.5,0.1c-0.3,0.2-0.6,0.3-0.8,0.3
			c-0.1,0-0.1,0-0.2,0c-0.1,0-0.2-0.1-0.4,0c-0.2,0.1-0.4,0.1-0.5,0.2c-0.2,0.1-0.5,0.1-0.7,0c-0.2-0.1-0.5,0.2-0.8,0.4
			c-0.1,0.1-0.1,0.1-0.2,0.1c-0.3,0.2-0.5,0.2-0.8,0.1c-0.1,0-0.1,0-0.2,0h-0.1c-0.3-0.1-0.5-0.1-0.8,0.2c-0.2,0.2-0.4,0.3-0.7,0.4
			c-0.5,0.2-1.1,0-1.4-0.4c-0.1-0.1-0.2-0.3-0.3-0.4c-0.2-0.3-0.4-0.6-0.7-0.8l0,0c0-0.1-0.1-0.1-0.2-0.2c-0.1,0-0.3,0-0.4,0
			s-0.2,0-0.2,0.1l0.1-0.1c0-0.1,0.1-0.1,0.2-0.1c0.3-0.1,0.5-0.2,0.7-0.4c0.2-0.3,0-0.6-0.2-0.9c-0.1-0.1-0.1-0.2-0.2-0.2l0,0l0,0
			c0-0.1,0-0.2-0.1-0.2c0,0,0,0-0.1,0l0,0v0.1l0,0c-0.1,0-0.3-0.3-0.3-0.4s-0.1-0.1-0.1-0.1c0.7-0.4,0.7-0.4,0.6-0.4s-0.1,0-0.1-0.1
			v-0.1c0-0.2-0.1-0.3-0.2-0.4h-0.1l0,0l0,0c0,0,0-0.1-0.1-0.1c-0.1-0.1-0.2-0.2-0.3-0.3c-0.2-0.2-0.4-0.4-0.6-0.7l-0.1-0.1
			c-0.2-0.2-0.3-0.5-0.6-0.5c-0.2,0-0.2-0.1-0.3-0.2l-0.1-0.1c-0.2-0.2-0.3-0.1-0.4-0.1c-0.1,0-0.1,0-0.2,0
			c-0.1-0.1-0.2-0.3-0.2-0.4c0-0.1-0.1-0.3-0.2-0.3c-0.1,0-0.1-0.1-0.2-0.1c0,0-0.1,0-0.1,0.1c0,0.1,0,0.2,0,0.3c0,0.1,0,0.2,0,0.2
			c-0.1-0.1-0.1-0.2-0.1-0.3v-0.1c0-0.1-0.1-0.2-0.2-0.2s-0.1-0.1-0.1-0.1c-0.1-0.2-0.1-0.4-0.2-0.6s-0.1-0.4-0.1-0.6
			c-0.2-0.9-0.5-1.7-0.9-2.5l0,0l0,0l0,0c0-0.2-0.2-0.2-0.3-0.3c-0.1,0-0.2-0.1-0.2-0.1s0,0,0-0.1h-0.1c0,0-0.3-0.2-0.4-0.3
			c-0.2-0.2-0.3-0.4-0.5-0.4c-0.4-0.1-0.5-0.8-0.5-1.2c-0.1-0.5-0.1-1-0.1-1.5c0-0.2,0-0.5-0.1-0.7c0-0.1,0-0.2,0-0.2s0,0,0.1,0.1
			c0,0,0,0.1,0.1,0.1c0,0,0.1,0,0.1-0.1c0-0.2-0.2-0.4-0.3-0.6c-0.1-0.1-0.2-0.3-0.2-0.4c0-0.1,0-0.2-0.1-0.3c0-0.2,0-0.3-0.3-0.5
			c-0.1-0.1-0.2-0.2-0.3-0.3c-0.1-0.2-0.3-0.3-0.4-0.4c-0.3-0.2-0.6-0.3-0.7-0.7l0,0v-0.1l0,0v-0.1l0,0c-0.1-0.3-0.2-0.7-0.2-1.1
			c0.1,0,0.2,0.1,0.3,0c0,0,0,0,0.1,0s0,0,0-0.1c-0.1-0.1-0.2-0.2-0.3-0.3c-0.1-0.1-0.2-0.1-0.3-0.2c-0.2-0.2-0.4-0.5-0.5-0.7
			c-0.3-0.5-0.6-1.1-0.8-1.6l-0.3-0.5c-0.1-0.1-0.1-0.2-0.2-0.3c-0.1-0.1-0.1-0.2-0.2-0.3l-0.1-0.1c0-0.1-0.1-0.1-0.1-0.2
			c0,0,0,0,0-0.1s0.1-0.2,0-0.2c-0.1-0.1-0.1-0.2-0.2-0.3c-0.1-0.2-0.2-0.5-0.4-0.7c0,0,0-0.1,0-0.2c0-0.1,0-0.1,0-0.2l0,0
			c0.1-0.1-0.1-0.4-0.1-0.4c-0.1-0.1-0.2-0.2-0.2-0.2l-0.1-0.1c-0.3-0.3-0.5-0.6-0.7-0.9c-0.1-0.2-0.2-0.3-0.2-0.5
			c-0.1-0.2-0.1-0.4-0.3-0.6c-0.1-0.1,0-0.4,0.1-0.6c0.1,0.4,0.3,0.7,0.5,1c0,0.1,0.1,0.1,0.2,0.2c0.2,0.2,0.3,0.4,0.3,0.6
			c-0.1,0.3,0.2,0.4,0.4,0.6c0.1,0.1,0.2,0.1,0.2,0.2c0.1,0.2,0.3,0.4,0.5,0.5c0.2,0.1,0.3,0.2,0.5,0.3h0.1c0,0,0,0,0-0.1
			c0-0.1,0-0.2,0.1-0.3c0.1-0.1,0.1-0.2,0.1-0.3c0-0.2,0-0.4,0.1-0.6s0.1-0.4,0.1-0.6c0-0.3,0-0.5,0.2-0.7l0,0l0,0l0,0v0.1
			c0,0,0,0,0,0.1l0,0l0,0c-0.1,0.1-0.1,0.2-0.1,0.3c0,0.3,0,0.7-0.1,1c0,0,0,0.1-0.1,0.1c-0.1,0.2-0.2,0.5-0.1,0.6c0,0,0,0,0.1,0
			c0,0,0,0,0-0.1l0,0c0.1-0.1,0.4,0,0.5,0c0.2,0.1,0.3,0.3,0.4,0.5c0,0,0,0.1,0.1,0.1c0.2,0.3,0.4,0.7,0.6,1
			c0.3,0.4,0.5,0.7,0.7,1.1c0.1,0.1,0.1,0.2,0.2,0.3c0.1,0.1,0.2,0.2,0.2,0.4c0,0.1,0.1,0.3,0.3,0.4l0.1,0.1
			c0.4,0.5,0.5,0.8,0.5,0.9c0,0.1,0,0.1-0.1,0.1l0,0c0,0,0,0,0,0.1c0.1,0.2,0.3,0.3,0.3,0.5c0,0,0,0,0,0.1c0,0.1,0.1,0.3,0.2,0.4
			c0.3,0,0.5,0.1,0.7,0.3c0.5,0.4,0.8,0.9,1,1.5c0,0.1,0.1,0.2,0.1,0.2c-0.1,0.1,0,0.1,0.1,0.3l0,0c0.1,0.1,0.1,0.2,0.2,0.4
			c0,0.3,0,0.7,0,1c0,0.1,0.1,0.3,0.1,0.4c0,0.1,0.1,0.2,0.1,0.3c0,0.2,0,0.4,0.1,0.6c0.2,0.4,0.5,0.8,0.8,1.1
			c0.1,0.1,0.2,0.1,0.3,0.1s0.2,0,0.3,0.2c0.2,0.2,0.4,0.4,0.5,0.5l0.1,0.1c0,0,0.1,0,0.1,0.1v0.1c0,0,0,0.1,0,0.2
			c0,0.1,0.1,0.1,0.1,0.1s0.1,0,0.1,0.1c0,0.1,0.1,0.2,0.1,0.3c0.1,0.2,0.1,0.4,0.2,0.5c0,0.1,0,0.1,0,0.2c0,0.1,0,0.1,0.1,0.2
			c0.1,0.1,0.1,0.1,0.2,0.2s0.2,0.2,0.2,0.3c0.1,0.2,0.2,0.4,0.4,0.6c0.1,0.1,0.2,0.2,0.3,0.3c0.3,0.2,0.5,0.4,0.5,0.9l0,0
			c0,0,0,0.1,0.1,0.1l0,0h0.1c0,0.1,0.1,0.2,0.2,0.2c0.1,0.1,0.1,0.2,0.2,0.2c0.1,0.2,0.2,0.4,0.2,0.6l0,0l0,0c0,0.1,0,0.1,0,0.2
			v0.1c0,0.2,0,0.3,0,0.5c0,0.1,0,0.1-0.1,0.2c0,0.2,0,0.3,0.1,0.4c0,0.1,0.1,0.2,0.1,0.2c-0.1,0-0.2,0-0.2,0s-0.1,0.1,0,0.1l0,0
			c0.1,0,0.2,0.1,0.2,0.1c0.1,0.1,0.2,0.3,0.2,0.5s0.1,0.4,0.1,0.5c0,0.2,0.1,0.5,0.1,0.7c0,0.1,0.1,0.2,0.1,0.2
			c0,0.1,0.1,0.1,0.1,0.2c0,0.2,0,0.4,0,0.6s0.1,0.4,0.2,0.5c0.1,0.2,0.2,0.4,0.1,0.5c0,0,0,0,0,0.1c0,0,0,0,0.1,0
			c0.1,0,0.1,0,0.2,0s0.1,0,0.2,0c0.1,0.1,0.3,0.1,0.4,0.1h0.1c0.1,0,0.3-0.1,0.4-0.1c0.2-0.1,0.4-0.2,0.6,0h0.1c0,0,0,0,0-0.1
			c0,0,0,0,0-0.1l0,0c0,0,0,0,0.1,0h0.1c0.1-0.1,0.1-0.2,0.2-0.3c0-0.1,0.1-0.1,0.2-0.1s0.1,0,0.2-0.1c0.1-0.1,0.2-0.1,0.2-0.2
			c0.1-0.1,0.2-0.2,0.4-0.3c0.3-0.1,0.7-0.1,1-0.1c0.2,0,0.3-0.1,0.5-0.2c0.1,0,0.2-0.1,0.3-0.1c0.2-0.1,0.3-0.2,0.5-0.3
			c0.1-0.1,0.2-0.2,0.3-0.2c0.1-0.1,0.2-0.1,0.3-0.2c0.1,0,0.2,0,0.2,0.1l0,0c0.1,0,0.2,0,0.3,0c0.4-0.1,0.6-0.3,0.8-0.6
			c0.2-0.2,0.3-0.4,0.6-0.5c0.2-0.1,0.5-0.2,0.8-0.2c0.2,0,0.4-0.1,0.6-0.2c0.2-0.1,0.3-0.1,0.5-0.2c0.3-0.1,0.5-0.1,0.7-0.2
			c0.1-0.1,0.2-0.1,0.3-0.2c0.1-0.1,0.1-0.1,0.2-0.2c0,0,0.1,0,0.2-0.1c0.2,0,0.4-0.1,0.4-0.3c0-0.1,0-0.3,0-0.4
			c0-0.1-0.1-0.3,0-0.4c0.1-0.3,0.4-0.4,0.7-0.5c0.2-0.1,0.3-0.1,0.5-0.2l0,0l0,0c0.3,0,0.6-0.1,0.8-0.3c0.2-0.1,0.5-0.2,0.7-0.2
			h0.1c0.1,0,0.2,0,0.3,0.1c0.1,0.1,0.2,0,0.3,0l0,0c0.2-0.1,0.5-0.3,0.5-0.5c0-0.1,0-0.2,0-0.2c0-0.1,0-0.2,0.1-0.3
			c0.1-0.2,0.4-0.3,0.6-0.3h0.1c0.3,0,0.6,0,0.7-0.3c0.1-0.2,0.2-0.4,0.2-0.7c0.1-0.5,0.7-0.7,1.2-0.7c0.1,0,0.2,0,0.3-0.1
			c0.1-0.1,0-0.3,0-0.5c-0.1-0.3-0.2-0.6-0.1-0.9c0-0.1,0-0.2,0.1-0.3c0-0.3,0.1-0.6,0.3-0.7h0.1c0,0,0,0.1,0.1,0.1
			c0,0.1,0.1,0.2,0.2,0.2s0.1,0,0.2,0c0.1-0.1,0.2-0.3,0.2-0.5v-0.1c0.1-0.3,0.3-0.6,0.5-0.8c0.2-0.2,0.4-0.5,0.5-0.8
			c0-0.1,0.1-0.2,0.1-0.3c0.2-0.3,0.3-0.6,0.2-0.9c0-0.1-0.1-0.2-0.2-0.2c-0.2,0-0.3-0.1-0.5-0.3c-0.1-0.1-0.2-0.2-0.2-0.3
			c-0.1-0.1-0.1-0.2-0.2-0.3c0-0.1-0.1-0.1-0.2-0.2c-0.2-0.2-0.4-0.5-0.7-0.6c-0.2,0-0.3-0.1-0.4-0.1s-0.2-0.1-0.3-0.1
			c-0.6-0.1-1.1-0.3-1.5-0.7c-0.2-0.3-0.5-0.6-0.6-0.9l0,0c0-0.1-0.1-0.2-0.1-0.2c0.1-0.2,0-0.4,0-0.6c0-0.1,0-0.1,0-0.2
			c0-0.1-0.1-0.2-0.1-0.2s0-0.1,0.1-0.1c0.1-0.2,0.1-0.5,0-0.6c0,0,0.1,0,0.1-0.1c0-0.1-0.1-0.4-0.2-0.4h-0.1v0.1v0.1l0,0
			c0,0,0,0-0.1,0c0,0,0,0-0.1,0c-0.1,0.1-0.1,0.2-0.1,0.3l0,0c-0.1,0.3-0.2,0.4-0.4,0.6c0,0-0.1,0.1-0.2,0.1
			c-0.2,0.1-0.3,0.3-0.4,0.5s-0.2,0.3-0.4,0.5s-0.4,0.5-0.5,0.8c-0.1,0.1-0.2,0.3-0.3,0.3l0,0c0,0-0.1-0.1-0.2-0.1l0,0
			c0,0,0,0,0,0.1l0.1,0.1c-0.1,0-0.1,0.1-0.2,0.1c0,0,0,0,0.1-0.1v-0.1c-0.1-0.1-0.1-0.1-0.2-0.1l0,0c-0.1,0-0.1,0-0.2,0.1
			c0,0,0,0.1-0.1,0.1c0,0,0,0,0,0.1l0,0h-0.1c-0.1,0-0.3,0-0.4,0s-0.2,0-0.3,0c-0.1,0-0.1,0-0.2,0c0,0-0.1,0-0.2-0.1
			c-0.1,0-0.2-0.1-0.2-0.1c-0.1,0-0.1,0.1-0.2,0.2v0.1c-0.1,0.1-0.2,0.1-0.4,0.1l0,0l0,0c-0.1,0-0.3,0-0.3-0.1c0,0,0-0.1,0-0.2
			c0-0.1,0-0.2-0.1-0.2l0,0c0,0,0,0-0.1,0l0,0l0,0c0,0-0.1,0-0.2,0l0,0l0,0c-0.1,0-0.2,0-0.2,0c0-0.1,0-0.2,0.1-0.3c0,0,0,0,0-0.1
			l0,0h-0.1h-0.1c0.2-0.1,0.2-0.2,0.2-0.3c0-0.1,0-0.1,0.1-0.2c0.1-0.1,0.1-0.3,0.1-0.5c0-0.1-0.1-0.1-0.1-0.1s0,0-0.1-0.1
			c0-0.1,0-0.2,0-0.3c0-0.1,0.1-0.2,0.1-0.3c0-0.2-0.1-0.3-0.2-0.3l-0.1-0.1c-0.1-0.1-0.3-0.2-0.4-0.1c-0.2,0.1-0.3,0.5-0.3,0.7l0,0
			c0,0-0.1,0-0.1,0.2l0,0c-0.1,0-0.1,0.2,0,0.4l0,0l0,0c0,0.2,0.1,0.4,0.2,0.7c0,0,0-0.1-0.1-0.1v-0.1c-0.1-0.1-0.1-0.3-0.2-0.4
			c0-0.1-0.1-0.2-0.1-0.3c-0.1-0.1-0.2-0.2-0.3-0.3c0,0,0,0-0.1-0.1l0,0c-0.1-0.2-0.2-0.4-0.3-0.5l0,0c-0.1,0-0.1,0-0.1,0l0,0l0,0
			c0.1,0,0.1,0,0.1,0c0.1-0.1,0.1-0.3,0.1-0.4c0-0.1-0.1-0.2-0.2-0.3l-0.1-0.1h0.1h0.1V182c0,0-0.1-0.1-0.2-0.2l0,0c0,0,0,0-0.1,0
			c-0.2-0.2-0.6-0.4-0.5-0.6v-0.1h-0.1c0,0.1,0,0.1,0,0.1s-0.1-0.1-0.2-0.2c0-0.1-0.1-0.1-0.1-0.1c0-0.1,0-0.1,0-0.1
			c-0.1-0.2-0.4-0.2-0.6-0.2v-0.1l0,0c0.1-0.2-0.1-0.4-0.3-0.6c-0.1-0.1-0.2-0.2-0.2-0.3l0,0c0-0.1-0.1-0.2-0.2-0.3l0,0
			c-0.1-0.2-0.1-0.3-0.2-0.5c-0.1-0.2-0.2-0.3-0.2-0.5c-0.1-0.2-0.3-0.4-0.5-0.4c0.1-0.1,0.2-0.2,0.2-0.2s0,0,0.1,0c0,0,0,0,0.1,0
			l0,0c0,0,0,0,0.1,0c0,0,0,0,0-0.1l0,0l0,0c0.1,0,0.2-0.1,0.2-0.1c0-0.1,0-0.3-0.1-0.4c0.2,0,0.3,0.1,0.3,0c0,0,0,0,0.1,0l0,0
			c0,0,0,0,0.1,0c0,0,0,0,0-0.1c0.1,0,0.2,0,0.3,0c0.1-0.1,0.1-0.2,0-0.4v-0.1c0.1,0,0.1,0.1,0.2,0.1l0.1,0.1
			c0.1,0.1,0.2,0.1,0.2,0.2c0.1,0,0.1,0,0.2,0.1c0,0.1,0.1,0.1,0.1,0.1c0.1,0,0.2-0.1,0.3-0.2s0.2-0.1,0.2-0.1s0.1,0,0.1,0.1
			c0.1,0.3,0.3,0.5,0.5,0.7l0.1,0.1c0.1,0.1,0.4,0.3,0.3,0.5c0,0.1,0,0.1,0,0.2c0,0.1,0.2,0.1,0.3,0.1h0.1c0,0,0.1,0,0.1,0.1
			c0,0,0,0-0.1,0c0,0,0,0-0.1,0l0,0c0,0.2,0.1,0.3,0.2,0.3c0,0,0.1,0,0.1,0.1c0.1,0.1,0.1,0.2,0.1,0.3c0,0.1,0,0.2,0.1,0.3
			c0.2,0.3,0.4,0.6,0.7,0.9c0.1,0.1,0.3,0.1,0.4,0.1s0.2,0,0.2,0c0.1,0.1,0.2,0.1,0.4,0.2h0.1c0.1,0,0.4,0.2,0.5,0.3c0,0,0,0,0,0.1
			c0,0,0,0,0,0.1l0,0c0.2,0.1,0.4,0.2,0.5,0.3c0.1,0,0.1,0.1,0.2,0.1s0.1,0.1,0.2,0.1c0.1,0.1,0.3,0.1,0.4,0.2
			c0.2,0.3,0.5,0.3,0.7,0.3c0.1,0,0.1,0,0.2,0s0.2,0.1,0.4,0.2c0.2,0.1,0.4,0.2,0.6,0.1c0.1,0,0.2-0.1,0.2-0.2
			c0.1-0.1,0.2-0.2,0.3-0.2c0,0,0,0,0.1,0s0.2,0,0.3,0c-0.1,0.1-0.2,0.1-0.3,0.1c0,0,0,0-0.1,0l0,0c0,0.1,0,0.2,0.1,0.2h0.1
			c0.1,0,0.3-0.1,0.4-0.2h0.1h0.1c0.1,0,0.1,0,0.2,0s0.1-0.1,0.2-0.2c0.1-0.1,0.1-0.1,0.2-0.2c0,0,0,0,0.1,0v-0.1
			c-0.2-0.2-0.3-0.1-0.4,0c-0.1,0-0.1,0.1-0.2,0h-0.1c-0.1,0-0.1,0.1-0.2,0.2l0,0l0,0v-0.1c0,0,0.1-0.1,0.2-0.1h0.1
			c0.1,0,0.2-0.1,0.3-0.1c0.1-0.1,0.2-0.1,0.3-0.1c0.5-0.1,0.9,0.2,1,0.7c0,0.5,0.2,1,0.5,1.4c0.1,0.1,0.2,0.1,0.3,0.1
			c0.1,0,0.2,0,0.3,0.1l0,0v0.1h0.1c0.1-0.1,0.1-0.1,0.1-0.1l0,0c0,0,0,0,0.1,0.1c0,0,0.1,0.1,0.2,0.1c0.1,0,0.2,0,0.3,0
			s0.1,0,0.2,0c0.1,0,0.2,0,0.3,0s0.2,0,0.3,0.1c0.1,0.2,0.4,0.2,0.6,0.2c0.3-0.1,0.6-0.1,0.8,0.1l0,0c0.3,0,0.5,0.1,0.8,0.1
			c0,0,0,0,0.1-0.1v-0.1l0,0l0,0l0.1,0.1c0,0.2,0.2,0.2,0.4,0.2h0.1c0,0,0,0,0.1,0c0.2,0.1,0.4,0.1,0.6,0.1c0.1,0,0.1,0,0.2-0.1
			c0,0,0,0,0-0.1h0.1c0.1-0.1,0.1-0.3,0.1-0.4l0,0c0-0.2,0-0.5,0.1-0.7c0-0.1,0-0.2,0-0.2c0-0.2,0-0.3,0.1-0.3
			c0.1-0.1,0.3-0.1,0.4-0.1l0,0c0,0,0,0,0.1,0c0,0,0,0,0-0.1c0-0.1,0-0.1,0-0.2c0.1-0.1,0.3-0.1,0.5-0.2c0.3,0,0.6-0.1,0.7-0.3V182
			C1091,181.3,1091.1,181,1090.9,180.9z M1070.3,176.9c0,0,0-0.1-0.1-0.1c0,0,0,0,0-0.1c0.1,0,0.1,0,0.2,0.1
			C1070.3,176.8,1070.3,176.8,1070.3,176.9C1070.3,176.8,1070.3,176.9,1070.3,176.9z M1071.6,176L1071.6,176L1071.6,176L1071.6,176
			C1071.5,175.9,1071.6,175.9,1071.6,176z M1044,159.7c0.1,0.1,0.3,0.2,0.5,0.2c-0.3,0-0.7,0.1-0.8,0.3v0.1c0.1,0.1,0.2,0.1,0.2,0.1
			h0.1c-0.1,0.1-0.3,0-0.5,0c-0.1,0-0.2,0-0.4,0h-0.1c-0.3,0-0.4,0-0.4,0l0,0c0,0,0.1,0,0.1-0.1v-0.1c-0.1,0-0.3,0-0.4,0
			c0,0,0,0,0,0.1v0.1c0.1,0,0.1,0.1,0.1,0.1s-0.3,0.1-0.5,0c0,0,0,0-0.1,0c-0.1-0.1-0.2-0.1-0.4,0c0,0-0.1,0-0.2,0h-0.1
			c0.2-0.1,0.5-0.3,0.7-0.4l0.1-0.1c0.1-0.1,0.1-0.2,0.2-0.2s0.1,0,0.2,0s0.2,0,0.3,0c0,0,0.1,0,0.1-0.1c0.1,0,0.1-0.1,0.2-0.1l0,0
			c0.1,0,0.2,0,0.3,0.1c0.2,0.1,0.4,0.1,0.6,0.1c0,0,0.1,0,0.1-0.1C1043.9,159.6,1043.9,159.7,1044,159.7z M1010.9,213.3
			L1010.9,213.3L1010.9,213.3L1010.9,213.3z M985.5,204.9L985.5,204.9C985.6,204.9,985.6,204.9,985.5,204.9L985.5,204.9
			C985.5,205,985.5,205,985.5,204.9C985.5,205,985.5,204.9,985.5,204.9C985.4,204.9,985.5,204.9,985.5,204.9z M983.5,203.7
			L983.5,203.7L983.5,203.7L983.5,203.7z M984,202.6L984,202.6C984,202.7,983.9,202.7,984,202.6C983.9,202.7,984,202.6,984,202.6z
			 M983.9,202.7C983.9,202.7,983.8,202.7,983.9,202.7c-0.2,0.1-0.2,0.1-0.2,0v-0.1l0,0C983.7,202.7,983.8,202.7,983.9,202.7z
			 M989,211.7L989,211.7L989,211.7L989,211.7z M1019.6,223.2L1019.6,223.2h-0.1C1019.5,223.2,1019.5,223.2,1019.6,223.2z
			 M1019.1,225.9L1019.1,225.9L1019.1,225.9L1019.1,225.9z M1018.8,225.7L1018.8,225.7C1018.9,225.7,1018.9,225.7,1018.8,225.7
			L1018.8,225.7L1018.8,225.7L1018.8,225.7z M1076.5,166L1076.5,166L1076.5,166L1076.5,166h-0.1H1076.5z M1049.1,174.7
			C1049.2,174.8,1049.2,174.8,1049.1,174.7c0.1,0.1,0,0.2-0.1,0.2l0,0C1049,174.9,1049,174.9,1049.1,174.7c-0.1,0-0.2,0-0.3-0.1
			c-0.1,0-0.1,0,0-0.2v-0.1c0.1,0,0.1,0.1,0.2,0.1l0.1,0.1C1049,174.7,1049,174.7,1049.1,174.7L1049.1,174.7L1049.1,174.7z
			 M1047.5,174.3L1047.5,174.3L1047.5,174.3C1047.4,174.3,1047.5,174.3,1047.5,174.3z M1021,171.1
			C1021,171.1,1020.9,171.1,1021,171.1C1020.9,171.2,1020.9,171.1,1021,171.1l-0.1-0.1h0.1l0,0C1020.9,171,1020.9,171,1021,171.1
			C1020.9,171,1020.9,171,1021,171.1L1021,171.1L1021,171.1z M984.3,204.9L984.3,204.9L984.3,204.9L984.3,204.9z M1016,216.4
			L1016,216.4L1016,216.4C1016,216.3,1016,216.3,1016,216.4L1016,216.4z M1023.6,232.8c0.1-0.1,0.2-0.1,0.3-0.1c0,0-0.1,0-0.1,0.1
			C1023.8,232.7,1023.7,232.8,1023.6,232.8c0,0-0.1,0.1-0.2,0.1C1023.5,232.8,1023.6,232.8,1023.6,232.8z"/>
		<path d="M1086,191.2C1086,191.2,1086,191.1,1086,191.2c-0.1-0.1-0.1,0-0.1,0c0,0.1-0.1,0.2-0.1,0.3c-0.1,0.2-0.2,0.3-0.1,0.6l0,0
			l0,0l0,0c0.1-0.1,0.2-0.3,0.2-0.4l0.1-0.1C1086.2,191.5,1086.1,191.4,1086,191.2L1086,191.2z"/>
		<path d="M1063.1,197.1L1063.1,197.1C1063.1,197.1,1063,197.1,1063.1,197.1C1063,197.2,1063,197.2,1063.1,197.1
			c0,0.2,0.1,0.3,0.2,0.3c0.1,0.1,0.2,0.1,0.2,0.2c0,0,0,0,0.1,0l0,0c0,0,0.1,0,0.1-0.1c0-0.2-0.1-0.3-0.2-0.4c0,0,0,0-0.1,0
			c0,0,0,0,0,0.1c0,0,0,0,0,0.1c0,0-0.1,0-0.1-0.1c0,0,0,0,0.1,0c0-0.1,0-0.1,0-0.2c0,0,0,0,0-0.1c0-0.1-0.1-0.1-0.1-0.1h-0.1v0.1
			l0,0C1063.2,197.1,1063.2,197.1,1063.1,197.1L1063.1,197.1z"/>
		<path d="M1072.5,180.8C1072.5,180.9,1072.5,180.9,1072.5,180.8c0,0.1,0,0.1,0,0.1h0.1h0.1c0,0,0,0,0.1,0c0,0,0,0,0-0.1
			C1072.7,180.7,1072.7,180.7,1072.5,180.8L1072.5,180.8z"/>
		<path d="M1081.5,256c-0.1-0.1-0.4,0-0.5,0.1c-0.1,0.1-0.2,0.2-0.1,0.3c0.1,0.2,0.3,0.4,0.5,0.4h0.1c0.1,0,0.2,0,0.3-0.1
			c0.1-0.1,0.1-0.3-0.1-0.5C1081.7,256.1,1081.6,256,1081.5,256z"/>
		<path d="M972.3,196.9c0.1-0.1,0.1-0.2,0-0.2c0-0.1-0.1-0.1-0.2-0.1c-0.1,0-0.3,0.1-0.3,0.2c-0.1,0.1,0,0.2,0,0.3l0,0l0,0
			C972,197.2,972.2,197.1,972.3,196.9z"/>
		<path d="M972.2,197.1c-0.1,0-0.1,0.1,0,0.2c0,0,0,0,0.1,0l0,0c0.1,0,0.2,0,0.2-0.1c0-0.1,0-0.1-0.1-0.2
			C972.3,197.1,972.2,197.1,972.2,197.1z"/>
		<path d="M972.9,200c-0.1,0-0.1,0.1-0.1,0.2c0,0.1,0.1,0.2,0.1,0.3l0,0l0,0c0.1,0,0.2-0.2,0.2-0.3
			C973.1,200.1,973.1,200.1,972.9,200C973,199.9,972.9,199.9,972.9,200z"/>
		<path d="M973,197.4L973,197.4C972.9,197.5,972.9,197.5,973,197.4c0,0.2,0.1,0.3,0.1,0.4c0,0,0,0,0.1,0l0,0c0,0,0.1,0,0.1-0.1
			c0-0.1,0-0.1,0-0.1h0.1c0.1,0,0.2,0,0.3-0.1v-0.1C973.4,197.4,973.2,197.4,973,197.4z"/>
		<path d="M974,199.5C973.9,199.5,973.9,199.5,974,199.5C973.9,199.5,973.9,199.5,974,199.5c-0.2,0.2-0.2,0.4-0.1,0.6
			c0.1,0.1,0.2,0.1,0.3,0.1l0,0l0,0c0.2-0.2,0-0.4-0.1-0.6C974,199.6,974,199.6,974,199.5z"/>
		<path d="M974.6,199.6c-0.1,0-0.2,0.1-0.2,0.1c0,0.1,0,0.1,0.1,0.2l0,0l0,0C974.5,199.9,974.7,199.7,974.6,199.6
			C974.8,199.6,974.7,199.6,974.6,199.6z"/>
		<path d="M975.1,198.1C975.1,198.1,975,198.1,975.1,198.1C975,198.1,975,198.1,975.1,198.1c-0.1,0.1-0.1,0.2-0.1,0.2
			c0,0.1,0,0.2,0,0.3c0,0,0.1,0.1,0.2,0.1l0,0c0.1-0.1,0.2-0.1,0.2-0.2C975.4,198.2,975.2,198.1,975.1,198.1z"/>
		<path d="M975,197.6L975,197.6C975,197.7,975.1,197.7,975,197.6c0.1,0.1,0.1,0.1,0.1,0c0.1-0.1,0.1-0.3,0-0.5l0,0c0,0,0,0-0.1,0
			c-0.1,0.1-0.1,0.2-0.1,0.3C975,197.5,975,197.6,975,197.6z"/>
		<path d="M1074,183.1l0.1,0.1c0,0,0,0,0.1,0.1l0,0h0.1c0-0.1,0.1-0.6-0.1-0.7c0,0-0.1,0-0.2,0.1l0,0c0,0,0,0,0,0.1
			C1074,182.9,1074.1,183,1074,183.1C1073.9,183,1074,183.1,1074,183.1z"/>
	</g>
</g>
</svg>
