<?xml version="1.0" encoding="utf-8"?>
<!-- Generator: Adobe Illustrator 22.0.1, SVG Export Plug-In . SVG Version: 6.00 Build 0)  -->
<svg width="170px" height="130px" viewBox="0 0 170 130" version="1.1" xmlns="http://www.w3.org/2000/svg" xmlns:xlink="http://www.w3.org/1999/xlink" x="0px" y="0px" style="enable-background:new 0 0 170 130;" xml:space="preserve">
<title>Europe</title>
<desc>Created with Sketch.</desc>
<g id="Creative-Round-2---Region-Selector">
	<g id="Region-Selector---Language" transform="translate(-529.000000, -149.000000)">
		<path d="M615.3,158.8c0.2,0,0.3,0.1,0.5,0.2c0.3,0.1,0.7,0.3,1,0.3h0.1c0,0,0.1,0,0.1-0.1v-0.1c-0.1-0.1-0.2-0.2-0.3-0.2l0,0
			c-0.2-0.1-0.4-0.2-0.6-0.3c-0.2-0.1-0.4-0.1-0.6-0.3c-0.1-0.1-0.1-0.1-0.2-0.2c-0.3-0.3-0.6-0.6-1.1-0.4c0,0-0.1,0-0.1,0.1v0.1
			C614.3,158.4,614.8,158.7,615.3,158.8z"/>
		<path d="M614.7,156.2h0.2l0,0c0,0,0.1,0,0.1-0.1V156c-0.2-0.2-0.5-0.2-0.7-0.1l-0.1,0.1c0,0.1,0.1,0.1,0.1,0.1
			C614.4,156.2,614.6,156.2,614.7,156.2z"/>
		<path d="M614.4,156.4c-0.1,0-0.1,0.1-0.1,0.1c0,0.1,0.1,0.1,0.1,0.1h0.1l0,0l0,0c0,0.2,0.2,0.3,0.4,0.4c0.1,0,0.1,0.1,0.2,0.1
			c0,0.1,0.1,0.2,0.2,0.2s0.2,0.1,0.3,0c-0.1,0-0.2,0.1-0.3,0.1c0,0-0.1,0.1,0,0.1c0,0,0,0.1,0.1,0.1c0.2,0,0.3,0.2,0.5,0.3
			c0.2,0.2,0.3,0.3,0.6,0.4c0.2,0,0.4,0.1,0.5,0.1l0,0l-0.1,0.1c0,0,0,0.1,0.1,0.1c0.5,0.3,1.1,0.5,1.8,0.5c0.4,0,0.8,0,1.2-0.1
			c0,0,0,0,0.1,0c0.2-0.2,0.3-0.2,0.5-0.2c0.1,0,0.3,0,0.5-0.1l0.1-0.1c0,0,0-0.1-0.1-0.1c-0.1,0-0.2-0.1-0.3-0.1c0,0,0,0,0-0.1
			c0,0,0-0.1,0-0.2c0.1,0,0.2,0,0.4,0c0.3,0.1,0.6,0.1,0.9-0.3v0.1c0,0.1-0.1,0.1-0.2,0.1c0,0-0.1,0-0.1,0.1c0,0.1,0,0.1,0,0.1
			c0.2,0.2,0.5,0.5,1.3,0.2c0.2-0.1,0.5-0.2,0.7-0.3c0.1-0.1,0.2-0.1,0.3-0.1c-0.1,0.1-0.3,0.2-0.4,0.3c0,0,0,0,0,0.1
			c-0.3,0-0.6,0-0.9,0.2c-0.5,0.4-0.6,0.4-0.8,0.4s-0.3,0-0.5,0.1c-0.3,0.2-0.6,0.2-0.9,0.2c-0.2,0-0.5,0-0.7,0.1c0,0-0.1,0-0.1,0.1
			l0,0c-0.3-0.1-0.7-0.1-0.9,0c-0.2,0.1-0.2,0.3-0.2,0.4c0.1,0.3,1,0.5,1.1,0.5l0,0c0.3,0,0.6,0,0.9-0.1l-0.1,0.1
			c0,0.1,0,0.1,0.1,0.1h0.1c-0.1,0-0.3,0-0.4,0c-0.1,0-0.3-0.1-0.5-0.1c-0.3,0-0.5,0.1-0.5,0.3s0.1,0.4,0.4,0.6
			c0.6,0.3,1.2,0.5,1.9,0.6c0.3,0.1,0.5,0,0.8,0c0.1,0,0.2-0.1,0.3-0.1c0.1,0,0.3,0,0.4,0h-0.1c-0.3,0-0.6,0-0.9,0.2l-0.1,0.1
			c0,0.1,0,0.1,0.1,0.1c0.5,0.1,1,0.3,1.4,0.6c0.1,0.1,0.2,0.1,0.4,0.1c0.3,0,0.6-0.1,0.8-0.2c0.2-0.1,0.2-0.3,0.2-0.3
			c0-0.1,0-0.1-0.1-0.1c0.1,0,0.2-0.1,0.3-0.2V162c0,0,0-0.1-0.1-0.1c0.1,0,0.1-0.1,0.2-0.2c0,0,0,0,0-0.1c0.1-0.4,0.5-0.7,0.9-0.7
			c0.2,0,0.5-0.2,0.6-0.4c0.1-0.2,0.1-0.4-0.1-0.6c0.1-0.1,0.6-0.2,0.8-0.2s0.3-0.1,0.3-0.1l0.1-0.1c0,0,0-0.1-0.1-0.1l0,0l0,0
			c0.1-0.1,0-0.3,0-0.5c0.6-0.1,1.2-0.2,1.8-0.3c-0.1,0-0.1,0-0.2,0s-0.1,0.1-0.1,0.1l0,0l0,0c0,0.1,0.1,0.1,0.1,0.1
			c0.4,0,0.7,0.2,1.1,0.4c0.1,0.1,0.2,0.1,0.3,0.1l0,0v0.1c0.3,0.2,0.6,0.4,0.9,0.4c-0.1,0.1-0.1,0.3-0.2,0.4c0,0.1-0.1,0.1-0.2,0.1
			c-0.2,0-0.4,0.1-0.4,0.4l0,0c0,0.1,0,0.1,0.1,0.1c0.6,0.2,1.2,0,1.8-0.1c0.3-0.1,0.6-0.1,0.9-0.1c-0.1,0.1-0.2,0.2-0.2,0.3
			c0,0,0,0.1,0.1,0.2c0.2,0.1,0.3,0.2,0.4,0.2c0.2,0,0.4-0.1,0.5-0.1c0.1,0,0.2-0.1,0.3-0.1c0.4,0,0.8-0.2,1.2-0.3
			c0.4-0.3,0.9-0.4,1.4-0.4c0.1,0,0.1,0,0.1-0.1v-0.1c-0.4-0.3-0.9-0.4-1.4-0.3c-0.4,0-0.9,0-1.3-0.2c0.1-0.1,0.2-0.1,0.3-0.2
			c0.1,0,0.1-0.1,0.1-0.1c0-0.1,0-0.1-0.1-0.1c-0.6-0.2-1.3-0.2-2-0.1c-0.1,0-0.1,0-0.2,0c0.1,0,0.1-0.1,0.2-0.2
			c0-0.1,0-0.2-0.1-0.4c-0.3-0.3-0.8-0.3-1.4-0.3c0.1-0.1,0.2-0.2,0.2-0.3v-0.1c0,0-0.1,0-0.1-0.1c-0.5,0-1-0.1-1.5-0.2
			c0.1,0,0.2,0,0.3-0.1c0.1,0,0.1-0.1,0.1-0.1c0-0.1,0-0.1-0.1-0.1h-0.1c-0.3-0.1-0.7-0.2-1,0.1c-0.2,0-0.3-0.1-0.5-0.1
			c-0.3-0.2-0.6-0.2-1-0.2c-0.2,0-0.4,0-0.5-0.1c0,0-0.1,0-0.1-0.1v-0.1c0-0.3-0.7-0.6-0.8-0.7c-0.3-0.1-0.5,0.1-0.7,0.2
			c-0.1,0-0.1,0.1-0.1,0.1c-0.1,0.1-0.2,0-0.2,0v-0.1c0,0,0.1-0.1,0.2-0.2c0.1-0.1,0.2-0.1,0.2-0.2v-0.1c0,0,0-0.1-0.1-0.1
			s-0.3-0.1-0.4-0.2c-0.2-0.1-0.4-0.2-0.6-0.2s-0.3,0-0.5,0c-0.1,0-0.2,0-0.3,0c-0.1,0-0.1,0-0.3-0.1c-0.3-0.1-0.6-0.2-0.8-0.1
			c-0.1,0.1-0.1,0.1-0.1,0.2c-0.1,0-0.3,0-0.3,0.1c-0.1,0.6,0.2,1.1,0.9,2c-0.2-0.1-0.4-0.2-0.6-0.2c0,0,0,0,0-0.1
			c-0.2-0.5-1.3-1.1-1.3-1.1c-0.3-0.2-0.8-0.2-1.1,0.1c-0.1,0.1-0.2,0.1-0.3,0.1c-0.1,0-0.2,0.1-0.4,0.1c-0.1,0.1-0.1,0.2-0.1,0.3
			c-0.2-0.1-0.4-0.1-0.5-0.1c-0.1,0-0.2,0-0.3,0c0,0,0-0.1,0.1-0.1v-0.1c0.3,0,0.6,0,0.9-0.1c0.1,0,0.1-0.1,0.1-0.1
			c0-0.1-0.1-0.2-0.2-0.3c-0.3-0.2-0.7-0.1-1,0c-0.1,0-0.1,0-0.2,0s-0.3,0-0.4,0.1c-0.2,0-0.3,0.1-0.5,0.1h-0.2
			c-0.3-0.1-0.5-0.1-0.7,0c0,0.1,0,0.1,0,0.2c0,0-0.1-0.1-0.2-0.1c-0.1-0.1-0.2-0.2-0.4-0.2c-0.2,0-0.8,0.1-0.9,0.4c0,0,0,0,0,0.1
			c-0.2,0-0.5,0.1-0.5,0.2C614.6,156.3,614.5,156.4,614.4,156.4z M616.4,157.1c-0.1,0-0.1,0.1-0.2,0.1l0,0v-0.1
			C616.3,157.1,616.3,157.1,616.4,157.1z M616,157.4C615.9,157.4,615.9,157.4,616,157.4c0,0.1,0,0.1,0,0.2c-0.1,0-0.2-0.1-0.3-0.1
			c0,0,0,0-0.1,0C615.7,157.5,615.8,157.4,616,157.4z M624.4,160L624.4,160h-0.1C624.3,160,624.3,160,624.4,160z"/>
		<path d="M625.6,155.3c0.1,0,0.3,0,0.4,0.1c0,0,0,0.1,0.1,0.1c0.1,0,0.1,0,0.2,0c-0.1,0-0.2,0-0.2,0.1c-0.1,0-0.1,0.1-0.1,0.1
			c0,0.1,0,0.1,0.1,0.1c0.8,0.3,1.7,0.4,2.6,0.3c0,0-0.1,0-0.1,0.1v0.1c0.1,0.1,0.3,0.2,0.4,0.3c-0.1,0-0.2,0-0.4,0.1l-0.1,0.1
			c0.1,0.2,0.1,0.2,0.2,0.2h0.1c0.1,0,0.3,0,0.4,0h0.3c0.1,0,0.1,0,0.1-0.1v-0.1c0.3,0.1,0.7,0.1,1,0.1c0.1,0,0.2,0,0.2,0
			c0.8,0.1,1.7,0,2.5,0l0,0c0,0,0,0.1,0.1,0.1c0.5,0.3,1,0.4,1.6,0.4c0.4,0,0.7-0.1,1.1-0.2c0.4-0.2,0.9-0.3,1.4-0.2
			c0.5,0,0.9-0.1,1.3-0.4c0,0,0-0.1,0.1-0.1v-0.1l-0.1-0.1c0.6-0.2,1.2-0.3,1.9-0.5c0,0,0.1,0,0.1-0.1v-0.1
			c-0.3-0.8-1.2-0.7-1.9-0.7c-0.1,0-0.2,0-0.3,0c-0.3,0-0.5,0-0.8-0.1c-0.2,0-0.5-0.1-0.7-0.1c-0.3,0-0.5-0.1-0.8,0
			c0,0-0.1,0-0.2-0.1c-0.1-0.1-0.2-0.2-0.4-0.1c-0.1,0-0.1,0.1-0.1,0.1l0,0h-0.1c-0.5,0.4-0.7,0.4-0.7,0.4c-0.2,0.1-0.4,0.1-0.6,0.1
			h-0.1c0-0.1,0-0.2,0-0.2s0,0,0.1,0c0.1,0,0.1,0,0.1-0.1c0-0.1,0-0.1-0.1-0.1c-0.3-0.1-0.5-0.2-0.8-0.2h-0.1v0.1c0,0.1,0,0.1,0,0.1
			s-0.1,0-0.2,0l-0.1-0.1c-0.1,0-0.1,0-0.2,0c0,0,0,0.1,0,0.2l0.1,0.1c0,0,0,0-0.1,0.1c-0.1,0.1-0.1,0.2-0.1,0.3v0.1
			c-0.1,0.1-0.3,0-0.5-0.1c-0.1,0-0.2-0.1-0.3-0.1l0,0c-0.1-0.2-0.8-0.2-0.9-0.2c-0.3,0.1-0.6,0-0.9-0.1c-0.6-0.4-1.2-0.5-1.9-0.4
			c-0.1,0-0.1,0.1-0.1,0.1c0,0.1,0,0.1,0.1,0.1c0.1,0.1,0.2,0.1,0.3,0.1c-0.1,0.1-0.3,0-0.5-0.1c-0.1,0-0.3-0.1-0.5-0.1
			c-0.1,0-0.1,0-0.1,0.1v0.1c0.1,0.1,0.1,0.2,0.2,0.3c-0.1,0-0.2,0-0.2-0.1c-0.1,0-0.1,0-0.2-0.1c-0.1,0-0.2,0-0.4,0l0,0
			c0,0,0.1-0.1,0-0.1c0,0,0-0.1-0.1-0.1c-0.3-0.1-0.6-0.1-0.9,0.1c0,0-0.1,0.1,0,0.1c0,0,0,0,0.1,0c-0.1,0-0.2,0-0.3,0
			c-0.1,0-0.1,0.1-0.1,0.1C625.5,155.3,625.5,155.3,625.6,155.3z M630.1,156c0.6,0,1.2-0.1,1.7,0C631.3,156.1,630.7,156.1,630.1,156
			z M629.3,156.1c0.2,0,0.5-0.1,0.7-0.1c0,0,0,0-0.1,0.1v0.1c-0.1,0-0.1,0-0.2,0c-0.2,0-0.5,0-0.7,0
			C629.1,156.2,629.2,156.1,629.3,156.1z"/>
		<path d="M628.4,167.2C628.3,167.2,628.3,167.3,628.4,167.2c-0.1,0.1-0.1,0.2,0,0.2c0.2,0.1,0.3,0.2,0.5,0.3c0,0,0,0,0.1,0l0,0
			c0.2,0,0.4-0.2,0.4-0.5c0-0.1,0-0.1-0.1-0.1C628.9,167.1,628.6,167.1,628.4,167.2z"/>
		<path d="M629.7,154.2L629.7,154.2L629.7,154.2c0,0.1,0,0.2,0.1,0.2h0.1h0.1l0,0h0.1c0,0,0,0,0-0.1l0,0l0,0l0,0l0.2-0.1
			c0.1,0,0.1-0.1,0.1-0.1c0-0.1-0.1-0.1-0.1-0.1c-0.2,0-0.5,0-0.7-0.1c-0.1,0-0.1,0-0.1,0.1C629.6,154.2,629.6,154.2,629.7,154.2z"
			/>
		<path d="M639.8,158.1v0.1c0,0,0,0.1,0.1,0.1c0.2,0.1,0.3,0.1,0.5,0.2c0,0,0,0,0.1,0h0.1l0.2-0.2c0,0,0.1-0.1,0-0.1
			c0,0,0-0.1-0.1-0.1c-0.1,0-0.1,0-0.2-0.1C640.2,157.9,640,157.8,639.8,158.1z"/>
		<path d="M641.3,155.4c0.2,0,0.3,0,0.5-0.1c0.1,0,0.1-0.1,0.1-0.1c0-0.1,0-0.1-0.1-0.1c-0.1,0-0.1,0-0.2,0h-0.1h-0.1l-0.2,0.1
			c-0.1,0-0.1,0.1-0.1,0.1C641.1,155.4,641.2,155.4,641.3,155.4C641.2,155.4,641.2,155.4,641.3,155.4z"/>
		<path d="M642.3,158.1h0.1l0,0l0,0c0.3-0.1,0.7-0.1,1.1-0.1s0.9,0.1,1.3-0.1c0.1,0,0.1-0.1,0.1-0.1c0-0.1-0.1-0.1-0.1-0.1
			c-0.3,0-0.6,0-0.9-0.1c-0.6-0.1-1.2-0.2-1.7,0.2c0,0-0.1,0.1,0,0.1l0.1,0.1C642.2,158.1,642.3,158.1,642.3,158.1z"/>
		<path d="M647.3,155.5L647.3,155.5c0.4,0,0.7-0.1,1.1-0.1c0.7,0,1.4-0.1,2.1-0.2c0.1,0,0.1-0.1,0.1-0.1c0-0.1,0-0.1-0.1-0.1
			c-1.1-0.2-2.2-0.1-3.2,0.3c-0.1,0-0.1,0.1-0.1,0.1C647.2,155.5,647.3,155.5,647.3,155.5z"/>
		<path d="M603.5,200c-0.1-0.1-0.2-0.2-0.3-0.2h-0.1c0,0-0.1,0-0.1,0.1c0,0.1-0.1,0.3,0,0.4h0.1c0.1,0,0.1,0,0.2,0
			c0,0.1,0,0.1,0,0.2c0,0,0,0-0.1,0l-0.1,0.1c0,0.1,0,0.2,0.1,0.2c0,0,0,0-0.1,0c-0.1,0-0.1,0-0.1,0.1c0,0.1,0,0.1,0.1,0.1
			c0,0,0,0,0.1,0c-0.1,0-0.1,0-0.2,0.1l-0.1,0.1c0,0,0,0.1,0.1,0.1c0,0,0.1,0,0.1,0.1v0.1l0,0l0,0c0,0.1,0,0.1,0,0.1
			c0.1,0.1,0.2,0.1,0.3,0.2l0,0l0,0c-0.1,0-0.1-0.1-0.2-0.1l-0.1-0.1H603c0,0-0.1,0.1,0,0.1c0.1,0.2,0.1,0.3,0.1,0.5
			c0,0.1,0.1,0.1,0.1,0.1l0,0c0.2,0,0.3-0.1,0.3-0.1s0.1-0.1,0-0.2c0,0,0.1,0.1,0.1,0.2s0.1,0.3,0.2,0.3c0.1,0,0.2,0,0.3,0
			c0.1,0,0.1-0.1,0.2-0.1h0.1c0.1,0,0.1,0,0.2,0.2l0,0l0,0c-0.1-0.1-0.4,0-0.5,0.1h-0.2c0,0-0.1,0-0.1,0.1h-0.1
			c-0.1,0.1-0.1,0.2-0.1,0.3l0,0c-0.1,0-0.2,0-0.3,0.1c-0.1,0.1-0.1,0.3-0.1,0.4c0,0.1,0,0.1,0,0.2c0,0.1,0,0.1,0.1,0.1l0,0
			c0.1,0,0.1,0,0.1-0.1c0-0.1,0.1-0.1,0.1-0.1h0.1c-0.1,0.1-0.2,0.3-0.2,0.5c0,0,0,0,0,0.1l0,0l-0.1,0.1v0.1v0.1
			c-0.1,0.1-0.1,0.2-0.1,0.3c0,0.1,0.1,0.2,0.1,0.3c0,0,0.1,0.1,0.2,0.1l0,0c0,0,0.1,0,0.1-0.1c0.1-0.1,0.1-0.3,0.1-0.4
			c0,0,0,0,0.1,0l0,0l0,0c0.1,0.1,0.2,0,0.3,0l0,0c0,0,0,0,0.1,0h0.1c0.1-0.1,0.3-0.1,0.4-0.1h0.1l0,0h0.1c0,0,0,0,0.1,0.1
			c0.1,0,0.1,0,0.2,0l0,0c-0.1,0.1-0.2,0.1-0.2,0.2l0,0c-0.1,0-0.2,0-0.2,0.1c-0.1,0-0.1,0.1-0.1,0.1s0,0.1,0.1,0.1
			c0.1,0,0.2,0.2,0.2,0.3c-0.1,0-0.1,0-0.2-0.1c-0.2-0.1-0.5-0.2-0.7-0.2c-0.1,0-0.1,0-0.1,0.1c0,0.1,0,0.1,0.1,0.1
			c0,0,0.1,0,0.1,0.1c-0.2,0.1-0.2,0.3-0.2,0.4c0,0.4,0.5,0.9,1.1,1.2c0.3,0.2,0.8,0.4,1.1,0.4l0,0c0,0-0.1,0.1,0,0.2
			c0.2,0.3,0.7,0.3,1.1,0.3c0.1,0,0.2,0,0.3,0c0.1,0,0.2,0,0.3,0.1c0.1,0,0.2,0.1,0.4,0.1l0,0c0.3-0.1,0.5-0.2,0.7-0.3
			c0.5-0.1,1-0.3,1.5-0.6c0.2-0.1,0.3-0.2,0.4-0.4c0.2-0.2,0.3-0.4,0.6-0.4c0,0,0.1,0,0.1-0.1v-0.1v-0.1l0,0c0.2,0,0.3,0,0.5-0.1
			c0,0,0.1,0,0.1-0.1V206v-0.1c0.3-0.1,0.6-0.2,0.6-0.5l0,0c0.1,0,0.2,0.1,0.2,0.1c0.2,0.1,0.3,0.2,0.4,0c0,0,0-0.1,0.1-0.1
			s0.1-0.1,0.2-0.1c0.1-0.1,0.2-0.1,0.3-0.2c0,0,0,0,0.1-0.1l0,0c0.1,0,0.1,0,0.1-0.1c0.1-0.3,0.1-0.6-0.1-0.9c0,0,0.1,0,0.1-0.1
			l0.1,0.1c0,0.1,0.1,0.1,0.2,0c0,0,0,0,0.1,0c0,0.1,0,0.2,0.1,0.3c0.1,0.4,0.4,0.5,0.7,0.7c0.1,0,0.2,0.1,0.3,0.1h0.1
			c-0.1,0.2-0.1,0.6,0,1.1c0.1,0.3,0.2,0.7,0.1,0.9c0,0.1,0,0.1,0,0.1h0.1c0.1,0,0.1-0.1,0.1,0c0,0,0,0.1,0.1,0.1c0,0,0,0.1,0.1,0.1
			c0,0,0,0,0.1,0l0,0l0,0l-0.1,0.1c0,0-0.1,0-0.1,0.1v0.1c0.1,0.1,0.2,0.1,0.3,0.2c0,0.1-0.1,0.1-0.1,0.2v0.1l0.1,0.1h0.1
			c0.1,0,0.2,0,0.3-0.1c0,0.2,0,0.3,0,0.4v0.1c0,0.1,0.1,0.2,0.1,0.2c0.1,0.1,0.1,0.1,0.2,0.2c0,0.2,0,0.3,0,0.5v0.1h0.1
			c0.2-0.1,0.3,0.1,0.4,0.4v0.1c0.2,0.4,0.5,0.8,0.8,1.1c0.1,0.1,0.3,0.2,0.4,0.4c0.1,0.1,0.3,0.2,0.3,0.3c0,0,0,0.1-0.4,0.1
			c-0.1,0-0.1,0.1-0.1,0.1c0,0.2,0.1,0.3,0.1,0.4c-0.1,0-0.1,0-0.3-0.1h-0.1l-0.1,0.1c0,0.1,0,0.3,0.1,0.5c-0.4-0.2-0.8,0-1.2,0.1
			c-0.1,0-0.1,0.1-0.2,0.1l-0.1,0.1c0,0.1,0,0.1,0.1,0.1c0,0,0.1,0,0.1,0.1c0,0-0.1,0.1-0.2,0.2c-0.1,0.1-0.1,0.2-0.2,0.3
			c0,0,0-0.1-0.1-0.1c0-0.1,0-0.2,0-0.3l0.1-0.1c0-0.1,0-0.1-0.1-0.1c-0.3-0.1-0.6-0.2-0.9-0.1c-0.1,0-0.1,0.1-0.1,0.1
			c0,0.1,0.1,0.1,0.1,0.1l0,0h0.1c-0.1,0.3-0.8,0.4-1.1,0.4c-0.1,0-0.1,0-0.1,0.1v0.1l0.1,0.1c0.5,0.5,0.5,0.6,0.5,0.7
			c0,0,0,0-0.1,0c-0.1,0-0.1,0.1-0.1,0.1v0.1l0,0c0.1,0,0.1,0.1,0.2,0.2c0.1,0.1,0.1,0.2,0.2,0.2c0.2,0.1,0.4,0.1,0.6,0
			c0.1,0,0.2,0,0.3,0.1l0,0l0,0c-0.1,0-0.1,0-0.1,0c-0.1,0-0.1,0-0.1,0.1c0,0.1,0,0.1,0.1,0.1h0.1h0.1c0,0,0,0-0.1,0
			c0,0-0.1,0.1,0,0.1c0,0.1,0,0.1,0.1,0.2c-0.2,0-0.3,0-0.3,0c-0.1,0-0.3-0.1-0.4-0.1c-0.2-0.1-0.4-0.3-0.8,0c-0.1,0-0.1,0.1,0,0.2
			c0,0,0,0.1,0.1,0.1h-0.1c0,0-0.1,0-0.1,0.1c0,0,0,0.1,0.1,0.1c0.2,0.2,0.9,0.5,1.4,0.5c0.2,0,0.3,0,0.4-0.1c0,0.1,0.1,0.1,0.1,0.2
			l0.1,0.1l0,0c0,0,0.1,0,0.1-0.1c0-0.1,0.1-0.2,0.2-0.3c0.1-0.2,0.2-0.3,0.2-0.5l0,0c0,0,0,0,0.1,0c0.5-0.1,0.7-0.2,0.8-0.3V216
			c-0.1-0.2-0.4-0.1-0.7-0.1h-0.1c0-0.1-0.1-0.1-0.1-0.2c0-0.1,0.3-0.2,0.4-0.2s0.2-0.1,0.2-0.2c0-0.2-0.1-0.3-0.3-0.4l-0.1-0.1
			l-0.1-0.1c0-0.1,0.2-0.2,0.3-0.2c0,0,0,0,0.1,0c0,0.1,0.1,0.2,0.2,0.2l0,0c0.1,0,0.2-0.2,0.2-0.3v-0.1h-0.1h-0.1
			c0.1-0.2,0-0.3,0-0.5s-0.1-0.3,0.1-0.4l0,0c0.2,0.3,0.4,0.5,0.6,0.7c0.1,0.1,0.1,0.4,0,0.6c0,0.1-0.1,0.2-0.1,0.2
			c-0.1,0-0.1,0.1-0.1,0.1c0,0.1,0.1,0.1,0.1,0.1c0.7,0,1.5,0,2.2-0.1h0.2c0.1,0,0.3,0.1,0.4,0.1c0.1,0,0.2,0,0.3-0.1
			c0.1-0.1,0.1-0.2,0.1-0.4s-0.1-0.3-0.2-0.4c-0.1-0.2-0.2-0.3-0.1-0.4c0.1-0.3,0.3-0.3,0.6-0.3c0.1,0,0.3,0,0.5-0.1
			c0,0,0.1,0,0.1-0.1v-0.1c-0.1-0.1-0.1-0.1-0.1-0.1s0.1-0.1,0.5,0c0.2,0,0.4,0,0.6,0c0.3,0,0.5-0.1,0.8,0c0.7,0.2,0.9-0.5,1.2-1
			c0.1-0.2,0.2-0.4,0.3-0.5l0,0c-0.1,0.2-0.1,0.4-0.1,0.7l0,0c0,0.1,0.1,0.3,0,0.4v0.1h0.1l0,0c0.4-0.1,0.6-0.8,0.7-1.2v-0.1
			c0.2-0.6,0.4-1.2,0.7-1.7v-0.1l-0.1-0.1c-0.4,0-0.5,0.4-0.7,0.7c0,0.1-0.1,0.2-0.1,0.3c-0.1,0.1-0.2,0.2-0.3,0.4
			c-0.1,0.1-0.2,0.2-0.3,0.4c0.2-0.3,0.2-0.6,0.2-0.9c0-0.3,0-0.6,0.2-0.9c0.2-0.2,0-0.4-0.1-0.5c0,0,0,0-0.1-0.1l0,0
			c0.1-0.1,0.2-0.1,0.2-0.2c0-0.2-0.1-0.3-0.2-0.4c0.1,0,0.1,0,0.1,0.1h0.1c0,0,0.1,0,0.1-0.1c0-0.2,0-0.3,0-0.3
			c0.1-0.1,0.2-0.3,0.2-0.4c0-0.3-0.2-0.5-0.4-0.7c0.2,0,0.3,0,0.5-0.1c0,0,0.1,0,0.1-0.1v-0.1c-0.1-0.1-0.1-0.2-0.2-0.2
			c0.2,0,0.5,0,0.7-0.1l0.1-0.1c0,0,0,0,0-0.1c0.2,0,0.5-0.1,0.7-0.2c0.1,0,0.1-0.1,0.1-0.2l0,0h0.1l0.1-0.1l0,0h0.1
			c0,0,0.1,0,0.1-0.1c0,0.1,0.1,0.1,0.2,0.1h0.1c0.1-0.1,0.2-0.2,0.3-0.3l0,0l0,0l0,0c0.1,0,0.2-0.1,0.3-0.2v-0.1
			c0.1,0,0.2,0,0.2-0.1c0,0,0,0.1-0.1,0.1v0.1h0.1l0,0c0.2-0.1,0.3-0.2,0.2-0.4l0,0l0.1-0.1c0-0.1,0-0.1-0.1-0.1s-0.1,0-0.1-0.1
			c0.4,0.1,0.4,0.1,0.5,0l0,0l0,0c0.1-0.1,0-0.3-0.2-0.5l0.1-0.1l0,0c0.1,0,0.1-0.1,0.2-0.1l0.1-0.1c0,0,0-0.1-0.1-0.1l0,0
			c0.2-0.1,0.4-0.3,0.7-0.3c0,0,0.1,0,0.1-0.1v-0.1c-0.1-0.1-0.1-0.2-0.2-0.3v-0.1c0-0.1-0.4-0.7-0.6-0.7c-0.1,0-0.3-0.1-0.4-0.1
			l0,0c0,0,0.1,0,0.1-0.1v-0.1c0,0,0,0-0.1,0c0,0,0.1,0,0.1-0.1v-0.1c-0.1-0.2-0.3-0.4-0.5-0.5h-0.1c0,0-0.1,0.1,0,0.1
			c0,0.1,0,0.1,0.1,0.2l0,0c-0.4-0.1-0.6-0.2-0.6-0.5v-0.1H629c-0.1,0-0.2,0.1-0.3,0.1c-0.2,0.1-0.3,0.1-0.4-0.1
			c-0.1-0.1-0.2-0.1-0.5-0.2c0,0,0,0,0-0.1v-0.1c-0.2-0.2-0.4-0.5-0.4-0.8c0-0.1,0-0.1,0-0.2c0-0.2,0-0.4,0-0.5l0.1-0.1
			c0-0.1,0-0.1,0-0.2c0,0,0.1,0,0.1-0.1v-0.1c0,0,0,0,0-0.1v-0.1c0,0,0,0,0.1-0.1c0.1,0,0.2,0.1,0.2,0.2c0,0,0.1,0.1,0.1,0
			c0,0,0.1,0,0.1-0.1c0.1-0.2,0-0.4-0.1-0.5c-0.1-0.1-0.2-0.2-0.1-0.3c0.1-0.3,0.2-0.6,0.4-0.6c0.1,0,0.1-0.1,0.1-0.1
			c0-0.1-0.1-0.1-0.1-0.1c-0.2,0-0.3-0.1-0.4-0.2l0,0c0-0.1,0-0.2,0-0.2c0.1,0,0.2,0.1,0.3,0.1c0.2,0,0.4-0.1,0.5-0.3
			c0.1-0.1,0.2-0.3,0.2-0.5v-0.1c0.2,0.1,0.4-0.1,0.4-0.1l0,0c0.1,0,0.2,0.1,0.3,0c0.2,0,0.4-0.3,0.4-0.5c0-0.1-0.1-0.1-0.1-0.1
			h-0.1c0.2-0.1,0.3-0.1,0.5-0.2c0.3-0.1,0.6-0.2,0.8-0.3c0.1-0.1,0.1-0.1,0.2-0.2c0-0.1,0.1-0.2,0.2-0.2s0.1,0,0.2,0
			c0.1,0,0.1,0,0.2,0l0,0h0.1c0.1,0,0.2-0.1,0.3-0.2c0.1-0.1,0.1-0.1,0.2-0.2c0.3-0.1,0.6-0.1,0.8-0.4c0,0,0,0.1,0.1,0.1
			c0,0.1,0.1,0.1,0.2,0.1c0.1,0,0.1-0.1,0.1-0.1c0-0.1,0.3-0.3,0.4-0.4c0.2-0.2,0.4-0.3,0.5-0.5c0.2-0.4,0.7-0.7,1.1-0.9l0.1-0.1
			c0,0,0.1,0,0.1-0.1v-0.1c-0.1-0.1-0.2-0.2-0.4-0.3c-0.1-0.1-0.3-0.2-0.4-0.3c0,0,0,0,0.1,0c0.1,0,0.1-0.1,0.1-0.1
			c0-0.1,0-0.1-0.1-0.1c-0.1,0-0.2,0-0.2-0.1c0.3-0.1,0.7-0.4,0.8-0.5c0.3-0.4,0.1-0.6-0.1-0.8l0,0c0.7-0.1,0.8-0.2,0.9-0.3
			c0.1,0,0.1,0,0.2-0.1c0.1,0.1,0.1,0.1,0.2,0.1h0.1l0,0l0,0c0,0,0,0,0.1,0h0.1v-0.1c0-0.1-0.1-0.2-0.1-0.3
			c-0.1-0.1-0.1-0.2-0.1-0.3c0-0.1,0,0,0,0s0.1,0.1,0.2,0.1c0.1,0.1,0.3,0.2,0.4,0.1c0.1,0,0.1-0.1,0.1-0.1c0.3,0.1,0.6,0.2,0.9,0.2
			c0.1,0,0.1,0,0.2-0.1c0.4,0.1,0.9,0,1.3-0.1c0.1,0,0.2,0,0.3-0.1l0,0c0.2,0.1,0.4,0.2,0.7,0.1c0.1,0.3,0.5,0.4,0.9,0.5
			c0.2,0.1,0.5,0.1,0.6,0.2c0.1,0.1,0.1,0.3,0,0.5v0.1c0,0.2,0.1,0.3,0.3,0.4c0,0,0.1,0,0.1,0.1c-0.1,0-0.1,0.1-0.2,0.1
			c0,0-0.1,0-0.1,0.1v0.1c-0.3-0.1-0.7-0.2-1.1,0.1c-0.2,0.1-0.3,0.3-0.3,0.4c-0.1,0.1-0.1,0.2-0.2,0.3c-0.1,0.1-0.3,0.3-0.5,0.4
			c-0.2,0.1-0.4,0.3-0.6,0.5c-0.1,0.2-0.3,0.3-0.6,0.4c0,0-0.1,0-0.1,0.1v0.1v0.1c-0.2,0-0.4,0.1-0.6,0.2l0,0c0,0-0.1-0.1-0.2,0
			c-0.1,0-0.2,0-0.2,0c-0.1,0-0.1,0-0.1,0.1v0.1c0.1,0,0.1,0.1,0.2,0.1l-0.1,0.1c-0.3,0-0.5,0.1-0.6,0.3c-0.1,0.1-0.2,0.1-0.2,0.1
			l0,0c0,0-0.1,0-0.2,0v0.1c-0.1,0.1,0,0.2,0.1,0.3c0,0,0,0-0.1,0c-0.1,0-0.1,0-0.2,0c0,0,0,0,0-0.1c0,0-0.1-0.1-0.1,0l-0.3,0.1
			c-0.1,0-0.1,0.1-0.1,0.1c0,0.1,0.1,0.1,0.1,0.1s0,0,0.1,0c0.1,0,0.1,0,0.2-0.1l0,0c0,0,0,0,0.1,0.1c-0.3,0.1-0.7,0.1-0.9-0.1h-0.1
			c0,0-0.1,0-0.1,0.1c-0.1,0.2-0.1,0.4,0.1,0.6c-0.3,0.1-0.5,0.5-0.7,0.8c-0.1,0.1-0.1,0.2-0.2,0.2v0.1c0,0,0,0.1,0.1,0.1
			c0.1,0,0.2,0.3,0.3,0.4c0,0.1,0.1,0.1,0.1,0.2c0.1,0.2,0.1,0.3,0.1,0.4c0,0.1,0,0.3,0,0.4c0.1,0.4,0.4,0.8,0.7,1.1l0,0
			c-0.2,0.1-0.1,0.3-0.1,0.6c0,0.2,0.1,0.5,0,0.6c0,0,0,0.1-0.2,0.1l0,0c0,0-0.1,0-0.1,0.1v0.1c0.2,0.3,0.4,0.8,0.3,1v0.1l0,0
			c-0.1,0-0.1,0.1-0.1,0.3v0.1h0.1l0,0h0.1c0.1,0,0.1,0,0.2,0c0,0,0.1,0,0.1-0.1l0,0c0.1,0,0.1,0.1,0.2,0.1h0.1l0.1-0.1V201
			c0,0,0.1,0.1,0.2,0.1l0,0c-0.1,0.2-0.1,0.3,0,0.4s0.2,0.2,0.4,0.2h0.1c0,0,0,0,0,0.1l0,0c-0.1,0-0.1,0.1-0.2,0.1l0,0
			c-0.1,0-0.1-0.1-0.2-0.1c-0.1,0-0.1,0-0.1,0.1c0,0.1,0,0.1,0.1,0.2h0.1c0,0,0.1,0,0.1,0.1c0,0,0,0,0.1,0c0,0,0,0,0.1,0
			c0,0,0.1,0,0.2,0h0.1c0,0,0.1-0.1,0.1-0.2l0,0h0.1c0,0,0,0,0.1,0l0,0l0.2-0.1c0,0,0.1,0,0.1-0.1h0.1l0,0c-0.1,0-0.1,0-0.1,0.1
			c0,0.1,0,0.1,0.1,0.1l0,0c-0.1,0.1-0.3,0.2-0.2,0.5c0,0.1,0.1,0.1,0.1,0.1l0,0l0,0c0.1,0,0.2,0,0.3,0c0.1,0,0.2,0,0.3,0
			c0.1,0,0.1,0,0.1,0c0.1,0.1,0.2,0.2,0.4,0.3h-0.1c-0.1,0-0.1,0.1-0.1,0.1c0,0.1,0.1,0.1,0.1,0.1l0,0c0.3,0,0.5-0.2,0.8-0.3l0,0
			l0,0c0.6,0,1.1-0.1,1.6-0.3c0.1,0,0.2,0,0.3,0c0.1,0.1,0.2,0.1,0.4,0.1c0.1,0,0.2-0.1,0.3-0.2c0-0.1,0.1-0.1,0.1-0.1
			c0.2-0.1,0.4-0.1,0.6-0.2c0.1,0,0.2,0,0.3,0c0.3,0,0.7-0.1,1-0.3l0.1,0.1c0.1,0.1,0.3,0.1,0.5,0.1c0,0,0.1,0,0.1-0.1v-0.1v-0.1
			c0.1,0,0.2-0.1,0.2-0.2l0,0c0.2,0.1,0.4,0.1,0.6,0.1c0.1,0,0.2-0.1,0.2-0.2c0.1,0,0.2,0.1,0.3,0c0.3,0,0.6-0.1,0.9-0.2
			c0.1-0.1,0.2,0,0.3,0c0.1,0,0.2,0.1,0.4,0.1c0,0,0.1,0,0.2,0c0.2,0,0.5,0.1,0.6-0.1c0.1-0.1,0.2-0.2,0.3-0.3
			c0.3-0.2,0.6-0.5,0.9-0.7c0.2-0.2,0.5-0.3,0.7-0.5c0.5-0.3,0.9-0.6,1.4-1c0.4-0.3,0.7-0.6,1-1c0.3-0.3,0.6-0.6,0.9-0.9
			c0.5-0.3,0.9-0.8,1.2-1.4c0-0.1,0-0.1,0.1-0.1c0.1-0.3,0.2-0.5-0.1-0.8c-0.3-0.3-0.7-0.5-1-0.7c-0.4-0.2-0.8-0.4-1.2-0.6
			c-0.3-0.1-0.5-0.3-0.8-0.4c0.3-0.2,0.9-0.6,0.9-1c0-0.1-0.1-0.3-0.3-0.5c0,0-0.1,0-0.2-0.1c-0.2-0.1-0.8-0.4-0.8-0.6
			c0-0.1,0.1-0.1,0.2-0.2c0,0,0.1,0,0.1-0.1v-0.1c-0.1-0.3-0.4-0.3-0.6-0.3c-0.1,0-0.3,0-0.4-0.1c-0.1-0.1-0.2-0.3-0.2-0.4
			c0-0.1,0.2-0.2,0.2-0.2s0.1,0,0.1-0.1V189c0-0.1-0.2-0.2-0.3-0.2s-0.2-0.1-0.2-0.1c0.1-0.2,0.3-0.5,0.2-0.8l0,0
			c0.2,0,0.3-0.1,0.5-0.1c0,0,0.1,0,0.1-0.1v-0.1c-0.3-0.8-0.8-1.3-1.4-1.8c-0.3-0.3-0.7-0.6-1-1c-0.2-0.2,0.2-0.5,0.6-1
			c0.4-0.3,0.7-0.6,0.7-0.9c0-0.1-0.1-0.2-0.2-0.3c-0.1-0.1-0.2-0.1-0.3-0.2c-0.3-0.2-0.6-0.4-0.9-0.6c-0.2-0.1-0.4-0.2-0.6-0.2
			c-0.3-0.1-0.6-0.2-0.8-0.3c-0.2-0.1-0.3-0.3-0.3-0.4c0-0.1,0.1-0.3,0.3-0.4c0.1-0.1,0.2-0.2,0.1-0.3c0-0.1-0.1-0.2-0.3-0.2
			c0,0,0,0,0.1,0c0.2,0,0.3-0.1,0.5-0.1l0,0c0.1,0,0.1,0,0.2,0c0.3-0.1,0.3-0.3,0.3-0.4c0-0.1,0-0.1,0.1-0.2
			c0.1-0.1,0.3-0.1,0.5-0.1c0.1,0,0.2,0,0.2,0c0.3-0.1,0.6-0.2,0.7-0.4c0-0.1,0-0.1,0-0.2c0.3,0.1,1,0.3,1.2,0.1
			c0.1-0.1,0.1-0.2,0.1-0.4c-0.1-0.2-0.4-0.4-0.6-0.4l0,0c-0.1,0-0.2,0-0.3,0.1c-0.2-0.2-0.5-0.2-0.6-0.2s-0.1,0-0.1,0l0,0l0,0
			c-0.1,0-0.1,0-0.1,0.1c0,0,0,0,0-0.1s0-0.1-0.1-0.1c-0.2-0.1-0.3,0.1-0.4,0.1c-0.1,0-0.1-0.1-0.2-0.1v-0.1c0,0,0-0.1-0.1-0.1
			c0,0,0,0,0.1,0c0.4,0.1,0.7-0.1,1-0.2c0.2-0.1,0.3-0.1,0.5-0.2c0,0,0,0,0.1,0c0.4-0.1,0.7-0.2,0.8-0.3c0,0,0-0.1-0.1-0.3
			c-0.4-0.3-1-0.4-1.5-0.4c0-0.1-0.1-0.2-0.2-0.3c-0.2-0.1-0.4-0.1-0.6,0l-0.1-0.1c-0.2-0.1-0.4,0-0.6,0c0-0.1,0-0.2-0.1-0.2
			c-0.2-0.2-0.9-0.3-1.1-0.2c-0.1,0.1-0.7,0.5-0.6,0.9l0,0c-0.1,0-0.2,0-0.3,0c0.1,0,0.1-0.1,0.2-0.1l0.1-0.1v-0.1
			c-0.1-0.1-0.2-0.1-0.3-0.1c0,0,0-0.1-0.1-0.1l0,0c0.4-0.1,0.6-0.2,0.6-0.3c0-0.1,0-0.1-0.1-0.2c-0.1-0.1-0.2-0.1-0.3-0.1
			c-0.1,0-0.2,0-0.2-0.1s-0.1-0.2-0.2-0.2c-0.3-0.2-0.9,0.1-1.5,0.3c-0.1,0-0.2,0.1-0.3,0.1c-0.1,0-0.1,0.1-0.1,0.1
			c0,0.1,0,0.1,0.1,0.1s0.1,0,0.2,0h0.1c0,0,0,0-0.1,0c-0.1,0-0.2,0.1-0.3,0.1h-0.1v0.1c0,0.1,0,0.2,0,0.2h-0.1c0,0-0.1,0-0.1,0.1
			v0.1l0,0c-0.2,0-0.3,0-0.5,0.1l0,0c0-0.2,0-0.3-0.1-0.5l0,0c0,0,0.1,0,0.1-0.1c0.1-0.2,0.1-0.4,0-0.6c0,0,0-0.1-0.1-0.1h-0.1
			c-0.8,0.3-1.5,0.8-2,1.4c-0.1,0.1,0,0.2,0,0.3c-0.1,0.1-0.2,0.2-0.3,0.3h-0.1c-0.1,0-0.1,0-0.2,0c0.1-0.2,0.3-0.3,0.3-0.3
			c0.1,0,0.1-0.1,0.1-0.1c0-0.2-0.1-0.3-0.1-0.3l0,0c0.1-0.1,0.2-0.1,0.4-0.2c0.3-0.1,0.6-0.3,0.8-0.6v-0.1l0,0h0.1h0.1
			c0.1,0,0.1-0.1,0.1-0.1c0-0.1-0.1-0.1-0.1-0.1h-0.1c0,0,0,0,0.1-0.1v-0.1c0,0,0-0.1-0.1-0.1c-0.2-0.1-0.4-0.1-0.6-0.1
			c-0.2,0-0.3,0.1-0.4,0.1c-0.1,0-0.2,0.1-0.3,0.1c-0.1,0-0.1,0.1-0.1,0.1c0,0.1,0,0.1,0.1,0.1c0.1,0,0.1,0.1,0.1,0.1h-0.1
			c0,0-0.1,0-0.1,0.1v0.1c-0.1,0-0.2-0.1-0.3-0.2c-0.1,0-0.1-0.1-0.1-0.1c-0.2,0-0.8,0-1,0.1v0.1l0,0l0,0c-0.1,0-0.3-0.1-0.5,0.1
			v0.1v0.1c0.1,0.1,0.2,0.1,0.3,0.2c-0.2,0-0.3,0.1-0.4,0.2v0.1l0,0h-0.1c0-0.1,0-0.2,0-0.2c-0.1-0.2-0.3-0.2-0.6-0.2
			c-0.1,0-0.3,0-0.4,0.1c0,0,0,0,0,0.1h-0.1c-0.2,0.2-0.4,0.2-0.6,0.3c-0.2,0-0.4,0.1-0.6,0.2v0.1l0,0c-0.2-0.1-0.4-0.1-0.7,0
			c0,0-0.1,0-0.1,0.1v0.1c0,0,0,0,0.1,0.1h-0.1l0,0c0,0,0,0-0.1-0.1H636c-0.1,0.1-0.2,0-0.3,0c-0.1,0-0.3-0.1-0.4,0
			c-0.1,0-0.1,0.1-0.1,0.2c-0.1-0.1-0.3-0.2-0.4-0.2h-0.1c0,0-0.1,0-0.1,0.1v0.1c-0.1,0-0.3,0-0.5,0l-0.1,0.1c0,0,0,0.1,0.1,0.1
			c0.2,0.2,0.5,0.2,0.7,0.3c0,0.1,0,0.1,0,0.1h0.1c0,0,0,0,0.1,0c-0.5-0.2-0.7-0.2-0.8-0.1c0,0.1-0.1,0.1,0,0.2
			c-0.1,0-0.1,0.1-0.2,0.1h-0.1l0,0l0.1-0.1v-0.1c0,0,0,0,0.1,0c0,0,0.1-0.1,0-0.1s-0.1-0.1-0.1-0.1s-0.1,0-0.2,0
			c-0.2,0-0.4-0.1-0.5,0.1v0.1c0,0,0,0,0,0.1c-0.1,0-0.2,0-0.2,0c-0.1,0-0.1,0.1-0.1,0.3c0,0.1,0,0.1,0.1,0.1h0.1v0.1
			c0,0,0,0.1,0,0.2c-0.1,0-0.2,0-0.2,0c-0.1,0-0.1,0.1-0.2,0.2c0,0.1-0.1,0.2-0.2,0.2c0.2-0.3,0.4-0.8,0.4-1.1
			c0-0.2-0.1-0.3-0.3-0.3h-0.1l-0.1,0.1c0,0.1-0.1,0.1-0.2,0.2c-0.1,0-0.1,0.1-0.2,0.1H632c-0.2,0-0.3,0.2-0.3,0.4v0.1
			c0,0-0.1,0-0.1,0.1c0-0.2,0-0.4,0-0.5l0,0c0.1-0.1,0.2-0.2,0.3-0.3c0,0,0,0,0-0.1c0.1,0,0.2,0,0.3-0.1l0.1-0.1c0,0,0-0.1-0.1-0.1
			l-0.3-0.1c-0.2-0.2-0.5-0.3-0.8-0.3c-0.1,0-0.1,0-0.1,0.1c0,0.1,0,0.1,0.1,0.1l0,0l0,0h-0.3c0,0-0.1,0-0.1,0.1
			c0-0.1,0-0.2-0.1-0.3c-0.1-0.1-0.2-0.1-0.2-0.1c-0.1,0-0.1,0.1-0.2,0.2c0,0,0,0.1,0.1,0.1c0.1,0,0.1,0.1,0.2,0.1h-0.1l0,0
			c0-0.1-0.1-0.1-0.1-0.1c-0.2,0-0.3,0-0.5,0h-0.1v0.1v0.2c0,0,0,0.1,0.1,0.1c0,0,0,0,0.1,0c0.1,0,0,0,0.1,0c0,0,0,0,0.1,0v0.1
			c-0.1,0-0.1,0-0.2,0l-0.1,0.1l0,0c-0.2,0.1-0.3,0.2-0.3,0.3c-0.1,0-0.2,0.1-0.2,0.1s0,0,0,0.1c-0.1,0-0.2,0.1-0.2,0.1
			s-0.1,0.1,0,0.1c0,0,0,0.1,0.1,0.1s0.2,0,0.3,0.1c-0.1,0-0.2,0.1-0.2,0.1s0,0,0-0.1l0,0l0,0c0-0.1-0.2-0.2-0.3-0.2
			c-0.1,0-0.2,0-0.2-0.1c-0.1-0.1-0.3-0.1-0.4-0.1l0,0c0,0-0.1,0-0.2,0c0,0,0,0.1,0,0.2l0,0c-0.2,0-0.4-0.1-0.6,0l-0.1,0.1v0.1
			c0,0,0,0,0.1,0c-0.2,0-0.3,0-0.5,0H627c-0.1,0-0.1,0.1-0.1,0.1c0,0.1,0.1,0.1,0.1,0.1l0,0h0.1l0,0c0,0,0,0,0,0.1c0,0,0,0,0,0.1
			c0,0,0,0,0,0.1v0.1c-0.1,0-0.1,0-0.2,0.1c-0.1,0-0.1,0.1-0.1,0.1c0,0.1,0,0.1,0.1,0.1c0.2,0.1,0.3,0.1,0.5,0.1s0.4-0.1,0.6-0.2
			c0.2-0.1,0.4-0.1,0.6-0.1l0,0c-0.1,0.1-0.2,0.2-0.3,0.3c-0.1,0.1-0.1,0.3,0,0.3c0,0,0,0,0.1,0.1l0,0h-0.1l0,0
			c-0.1-0.1-0.3-0.3-0.5-0.2c-0.1,0-0.2,0.1-0.2,0.2l0,0l0,0c-0.2,0-0.4,0.1-0.5,0.3c0,0,0,0,0,0.1c-0.1,0-0.1,0.1-0.2,0.1
			c0-0.2,0-0.3-0.2-0.4l0.1-0.1l0.1-0.1c0,0,0-0.1-0.1-0.1c-0.2-0.1-0.5-0.1-0.6,0.1c0,0,0,0,0,0.1c-0.1,0-0.2,0.1-0.3,0.1
			c-0.1,0.1-0.1,0.1-0.2,0.2c0-0.1,0-0.1,0-0.1h-0.1l0,0c0-0.1,0-0.2-0.1-0.3l0,0c0.2-0.1,0.4-0.4,0.6-0.6c0-0.1,0-0.1-0.1-0.2
			c-0.2-0.1-0.4-0.1-0.6,0c-0.4,0.2-0.8,0.6-0.9,0.9c0,0.1,0,0.1,0.1,0.2c0.1,0,0.1,0,0.2,0l0,0c0,0.1,0,0.2,0,0.3h-0.1l0,0h-0.1
			c0,0,0,0,0-0.1l0,0c0.1-0.3-0.2-0.4-0.4-0.5c0,0-0.1,0-0.1-0.1H624l-0.1,0.1v0.1l0,0c-0.1-0.1-0.3,0-0.4,0.2v0.1
			c-0.1,0.1-0.3,0.1-0.4,0.2c-0.1,0.1-0.2,0.1-0.3,0.2l-0.1,0.1v0.1c0.1,0.1,0.2,0.1,0.4,0.1c0,0,0,0,0,0.1c0,0,0,0.1,0.1,0.1h0.1
			c-0.2,0.1-0.3,0.2-0.5,0.3l-0.1,0.1l0,0c-0.1-0.2-0.3-0.2-0.4-0.2c-0.1,0-0.1,0-0.1,0.1c0,0,0,0,0,0.1c-0.1,0-0.1-0.1-0.2-0.1
			c-0.1,0-0.2,0-0.3,0.1c-0.1,0-0.1,0.1-0.2,0c-0.1,0-0.1,0-0.1,0.1v0.1c0,0,0,0-0.1,0c-0.1,0-0.1,0-0.1,0.1v0.1
			c-0.2-0.1-0.4,0-0.5,0.1l0,0h-0.1c-0.1,0.1-0.3,0.2-0.4,0.3l0,0c-0.1,0.1-0.1,0.2-0.2,0.3c0,0.1,0,0.1,0,0.2
			c0.1,0,0.2,0.1,0.2,0.1c0.1,0,0.2,0,0.3-0.1c0.1-0.1,0.1-0.1,0.1-0.2l0,0h0.1c0.2,0,0.3-0.1,0.4-0.2l0,0h0.1c0,0,0,0,0.1,0
			c0.1-0.1,0.3-0.1,0.5-0.2c0.2,0,0.5-0.1,0.7-0.3l0,0l0,0c0,0,0,0,0.1,0.1c0.1,0.1,0.2,0.1,0.4,0.1c0.1,0,0.2,0,0.3,0
			c0.1,0,0.2-0.1,0.2-0.1l0,0h0.1c0,0,0,0,0.1,0l-1,0.2c0.1,0,0.1-0.1,0.1-0.1l0,0c0,0,0,0.1,0.1,0.1c0,0,0,0,0.1,0h0.1
			c0.1-0.1,0.2-0.2,0.4-0.2c0,0,0,0,0,0.1l0.1,0.1c0,0,0.1,0,0.2,0s0.2,0.1,0.4,0c0.1,0,0.2-0.2,0.3-0.3c0,0,0,0.1,0.1,0.1
			c0.1,0,0.2-0.1,0.3-0.2l0,0c0.1,0,0.1,0.1,0.2,0.1c0,0,0,0-0.1,0.1c0,0.1,0,0.1,0.1,0.2l0,0l-0.1,0.1l0,0c-0.2-0.1-0.4,0-0.6,0.1
			l0,0c0,0-0.1-0.1-0.2,0c-0.1,0-0.2,0.1-0.3,0.1c-0.2,0-0.4,0.1-0.5,0.3v0.1l0.1,0.1c0.1,0,0.2,0,0.3,0l0,0l0,0c-0.1,0-0.2,0-0.3,0
			l0,0c-0.1-0.1-0.2-0.1-0.3-0.1c-0.1,0-0.2,0-0.3,0.1c-0.1,0-0.1,0.1-0.1,0.2c0,0,0,0,0,0.1h-0.1c0,0-0.1,0-0.1,0.1
			c0,0.1,0,0.1,0,0.1c0.1,0,0.1,0.1,0.2,0.1c-0.1,0.1-0.1,0.1-0.2,0.2v0.1l0.1,0.1c0,0,0,0,0.1,0c-0.1,0-0.2,0.1-0.3,0.1l0,0
			l-0.1,0.1l0,0c-0.1,0-0.2,0.1-0.2,0.1c-0.1,0.1-0.1,0.1-0.2,0.1s-0.1,0.1-0.1,0.1c0,0.1,0,0.1,0.1,0.1s0.1,0,0.2,0.1
			c-0.2,0.1-0.3,0.2-0.3,0.3c0,0,0,0,0-0.1v-0.1h-0.1c-0.1,0-0.2,0-0.3,0c0,0-0.1,0-0.1,0.1c0,0.1,0,0.1,0,0.1
			c0,0.1,0.1,0.2,0.1,0.2h-0.1c-0.3,0-0.7,0-1,0.2l-0.1,0.1c0,0,0,0,0,0.1c-0.1,0-0.2,0-0.3,0.1c-0.1,0-0.1,0.1-0.1,0.1
			c0,0.1,0.1,0.1,0.1,0.1c-0.1,0-0.1,0-0.2,0s-0.1,0.1-0.1,0.1l0,0c0,0,0,0-0.1,0c0,0-0.1,0-0.1,0.1v0.1c0,0.1,0.1,0.1,0.1,0.2
			c-0.1-0.1-0.2-0.1-0.4,0l-0.1,0.1c0,0,0,0.1,0.1,0.1c0.1,0,0.1,0.1,0.1,0.1s0,0.1-0.1,0.1c0,0-0.1,0.1,0,0.1l0,0
			c-0.1,0-0.1,0.1-0.2,0.1c0,0,0,0,0,0.1h-0.1c-0.2,0.1-0.2,0.2-0.2,0.3l0.1,0.1c-0.1,0-0.1,0-0.2,0.1v-0.1l-0.1-0.1l0,0
			c-0.3-0.2-0.4-0.1-0.4,0c-0.1,0.1-0.1,0.3,0,0.4c0,0,0.1,0,0.1,0.1c-0.1,0.1-0.2,0.1-0.3,0.3v0.1v0.1h0.1l0,0c0.1,0,0.2,0,0.2,0
			l0,0h0.1c-0.1,0.1-0.1,0.2-0.1,0.3c0,0,0,0,0,0.1c-0.1,0-0.3,0-0.4,0.1c-0.1,0.1-0.1,0.2,0,0.3c-0.2,0-0.3,0.1-0.4,0.3
			c-0.1,0.2-0.1,0.4,0,0.6c-0.1,0-0.1,0.1-0.1,0.1c-0.1,0-0.3,0-0.4,0l0,0c-0.2,0-0.5,0-0.6,0.2v0.1l0,0c-0.1,0-0.1,0.1-0.1,0.1
			c-0.1,0-0.1,0-0.2,0.1l0,0c-0.1,0-0.3-0.1-0.4,0h-0.1h-0.3c0,0,0,0-0.1,0c-0.1,0-0.1,0.1-0.2,0.1l-0.1,0.1c-0.1,0-0.1,0.1,0,0.2
			l0.1,0.1l0,0h0.1h0.1c0.1,0,0.2,0,0.3,0c0.1,0,0.1,0,0.2,0l0,0v0.1v0.1l0,0h-0.1c0,0-0.1,0-0.1,0.1v0.1l0,0l-0.1,0.1
			c0,0,0,0,0,0.1c-0.1,0-0.1-0.1-0.2-0.1H615v0.1c0,0.2-0.1,0.2-0.5,0.3c-0.3,0.1-0.5,0.2-0.6,0.4c0,0,0,0.1,0,0.2
			c-0.1,0-0.2,0.1-0.2,0.2c0,0,0,0.1-0.1,0.1l-0.1,0.1c-0.2,0.1-0.4,0.2-0.3,0.4l0,0c-0.2,0.1-0.3,0.1-0.5,0.2
			c-0.1,0-0.2,0.1-0.2,0.1c-0.1,0-0.1,0.1-0.1,0.1c0,0.1,0.1,0.1,0.1,0.1l0,0c0,0-0.1,0-0.1,0.1c-0.1,0-0.1,0.1,0,0.2l0,0
			c-0.3,0.1-0.5,0.2-0.7,0.3l-0.1,0.1c-0.1,0-0.2,0-0.3,0c0.1-0.1,0.2-0.2,0.3-0.3v-0.1c0,0,0-0.1-0.1-0.1c-0.2-0.1-0.4-0.1-0.5-0.1
			c0,0,0,0,0.1,0v-0.1v-0.1c-0.2-0.2-0.6-0.1-0.8,0c-0.1,0-0.2,0.1-0.2,0.1c-0.1,0-0.1,0.1-0.1,0.1c0,0.1,0.1,0.1,0.1,0.1
			c0.1,0,0.2,0,0.3,0h0.1c0,0-0.1,0-0.1,0.1c-0.2,0-0.3,0.1-0.5,0.3c0,0,0,0,0,0.1c0,0,0,0.1,0.1,0.1c0.1,0,0.2,0.1,0.3,0.1l0,0
			c0,0.1,0,0.1,0.1,0.1s0.1,0.1,0.2,0.1c0,0,0,0-0.1,0.1l-0.1-0.1c-0.2,0-0.3,0-0.5,0.2c0,0,0,0,0,0.1c-0.1-0.1-0.1-0.1-0.2-0.1
			c-0.1,0-0.2,0-0.3,0.1l-0.1,0.1v0.1c0,0,0,0.1,0.1,0.1l0,0v0.1c0,0.1,0,0.1,0.1,0.2h-0.1h-0.1c0.1-0.1,0.1-0.2,0-0.3l-0.1-0.1l0,0
			c0,0-0.1,0-0.1,0.1L609,195c-0.1-0.1-0.1-0.2-0.2-0.2h-0.1l-0.1,0.1v0.1c0,0,0,0-0.1-0.1h-0.1l-0.1,0.1c0,0.1,0,0.1,0,0.2
			c-0.3-0.2-0.7-0.2-1,0.1v0.1v0.1c-0.1,0-0.1,0-0.2,0c-0.1,0-0.1,0-0.1,0.1v0.1c0.1,0.1,0.1,0.1,0.2,0.1h0.1v0.1
			c0.2,0.2,0.5,0.2,0.8,0.2c0.1,0,0.1,0.1,0.2,0.1c0,0-0.1,0.1-0.1,0.2c-0.3,0-0.6-0.1-0.7-0.2c-0.1,0-0.1,0-0.2,0v-0.1
			c0,0,0-0.1-0.1-0.1l-0.1-0.1h-0.3c-0.1,0-0.1,0-0.1,0.1v0.1c-0.3,0-0.5,0.1-0.8,0.1c0,0-0.1,0-0.1,0.1v0.1l0.1,0.1h-0.1l0,0
			c-0.1,0-0.1,0-0.2,0c-0.1,0-0.1,0-0.1,0.1c0,0.1,0,0.1,0.1,0.1c0,0,0,0.1,0.1,0.1c0,0,0,0,0.1,0c-0.1,0-0.2,0.1-0.3,0.1
			c0-0.1,0-0.1,0-0.2c0-0.1,0-0.1-0.1-0.1s-0.2,0-0.2,0h-0.1c0,0,0,0.1-0.1,0.1v0.2c-0.2-0.1-0.4-0.1-0.5,0c-0.1,0-0.1,0.1-0.1,0.1
			c0,0.1,0,0.2,0.1,0.2c0,0,0,0-0.1,0s-0.1,0.1-0.1,0.2c-0.2-0.2-0.4-0.3-0.5-0.3l0,0c-0.1,0-0.2,0.1-0.2,0.2c0,0.2,0.2,0.3,0.4,0.4
			c0,0,0,0,0.1,0c-0.1,0-0.1,0-0.2,0c0-0.1,0-0.1-0.1-0.1c-0.1-0.1-0.2-0.1-0.4,0l-0.1,0.1c0,0,0,0.1,0.1,0.1l0.1,0.1l0,0
			c-0.2,0-0.3,0-0.4,0.1v0.1c0,0,0,0.1,0.1,0.1c0.1,0.1,0.3,0.1,0.5,0.1c0,0,0,0,0,0.1c-0.1,0-0.1,0-0.2,0h-0.1v0.1
			c0,0.1,0,0.2,0.1,0.2l-0.1,0.1c0,0.1,0.1,0.1,0.1,0.1c0.1,0,0.1,0,0.2,0c0.1,0,0.2,0,0.2,0s0,0,0,0.1v0.1c-0.1,0-0.2,0-0.3,0.1
			c-0.1,0-0.1,0-0.2,0.1c-0.1,0-0.1,0.1-0.1,0.2l0,0c0,0,0.1,0.1,0.1,0l0,0l0,0v0.1l0,0c0,0,0,0.1,0.1,0.1c0,0,0.1,0,0.1,0.1
			c-0.1,0-0.1,0-0.2,0.1C603.4,199.9,603.5,199.9,603.5,200c0.1,0,0.2,0,0.2,0C603.6,200,603.6,200,603.5,200L603.5,200L603.5,200z
			 M617.8,216.5L617.8,216.5L617.8,216.5L617.8,216.5z M637.8,202l-0.1-0.1l0,0l0,0c0.2,0.1,0.4,0.2,0.7,0.2l0,0l0,0l0,0
			c-0.1,0-0.3-0.1-0.4,0l0,0C637.9,202,637.8,202,637.8,202z M622.9,181.3c0,0.1,0,0.1,0,0.1C623,181.4,623,181.4,622.9,181.3
			C622.9,181.4,622.9,181.3,622.9,181.3c-0.2,0-0.3,0-0.3,0.1c0,0,0,0,0.1,0c0,0,0,0,0-0.1C622.8,181.3,622.9,181.3,622.9,181.3
			L622.9,181.3z M629.3,178.2C629.3,178.3,629.3,178.3,629.3,178.2C629.3,178.3,629.3,178.3,629.3,178.2
			C629.3,178.3,629.3,178.3,629.3,178.2z M626.9,181.6L626.9,181.6C626.9,181.6,626.8,181.6,626.9,181.6L626.9,181.6z M629.7,178.6
			C629.7,178.6,629.8,178.6,629.7,178.6c0.1,0,0,0.1,0,0.2c0,0,0,0,0,0.1c-0.1,0-0.1-0.1-0.2-0.1l0,0
			C629.6,178.8,629.7,178.7,629.7,178.6z M629.1,179.3L629.1,179.3L629.1,179.3C629.1,179.3,629.1,179.2,629.1,179.3
			C629.1,179.2,629.1,179.2,629.1,179.3z M613.3,193.9c0.1,0.1,0.3,0.1,0.4,0.1c-0.1,0-0.2,0.1-0.2,0.2l0,0c0,0,0,0-0.1,0
			C613.4,194.1,613.4,194,613.3,193.9C613.4,193.9,613.4,193.9,613.3,193.9z M614.6,193.7L614.6,193.7c-0.1,0.1-0.1,0.1,0,0.2
			c0,0.1,0.1,0.1,0.2,0c0,0,0,0,0.1,0c0,0,0,0,0,0.1c-0.2,0-0.5,0-0.7,0h-0.1c0.1,0,0.2-0.1,0.3-0.1l0.2-0.1
			C614.5,193.7,614.6,193.7,614.6,193.7z M615.4,192.8L615.4,192.8c0.2-0.1,0.2-0.2,0.3-0.2c0,0,0,0,0,0.1c-0.1,0.1-0.2,0.2-0.2,0.3
			v0.1h0.1c0.1,0,0.1,0,0.1,0l0,0c-0.2,0-0.3,0.1-0.5,0.1l0.1-0.1C615.5,193,615.5,192.9,615.4,192.8z M623.8,183.8
			C623.8,183.8,623.8,183.9,623.8,183.8C623.8,183.9,623.8,183.9,623.8,183.8C623.8,183.9,623.8,183.9,623.8,183.8
			C623.7,183.8,623.7,183.8,623.8,183.8C623.8,183.8,623.8,183.8,623.8,183.8z M620.4,187.1c-0.1,0-0.2,0-0.2,0l0,0h0.1
			C620.3,187,620.4,187,620.4,187.1C620.4,187,620.4,187,620.4,187.1z M648.3,177.5c-0.1,0-0.1,0-0.2,0c0.1,0,0.2,0,0.4,0.1
			C648.4,177.5,648.4,177.5,648.3,177.5z M630.5,178.1C630.5,178.1,630.6,178.1,630.5,178.1L630.5,178.1
			C630.6,178.1,630.6,178.1,630.5,178.1z M625.4,181.5C625.3,181.5,625.3,181.5,625.4,181.5C625.3,181.5,625.3,181.5,625.4,181.5
			C625.3,181.5,625.3,181.5,625.4,181.5z M622.8,183.5c0.1,0,0.2,0,0.2-0.1c0,0,0,0,0,0.1c0,0,0,0.1,0.1,0.1l0,0l0,0
			C623,183.6,622.9,183.5,622.8,183.5z M619.7,186.3L619.7,186.3c-0.1,0-0.1,0-0.2,0C619.6,186.2,619.7,186.3,619.7,186.3z
			 M617.8,189.4v0.1l0,0C617.8,189.5,617.8,189.5,617.8,189.4C617.8,189.5,617.8,189.4,617.8,189.4z M612.8,193.5h0.1l0,0
			c0,0,0,0.1,0.1,0.1C612.9,193.5,612.9,193.5,612.8,193.5z M610.3,195.3L610.3,195.3L610.3,195.3L610.3,195.3z M605.5,202.6
			c-0.1,0-0.1,0-0.2,0.1C605.3,202.6,605.4,202.6,605.5,202.6c0-0.1,0-0.1,0-0.2C605.4,202.5,605.4,202.5,605.5,202.6
			C605.4,202.6,605.5,202.6,605.5,202.6z M606.6,201.8c0.1,0,0.2,0,0.3,0c-0.1,0.1-0.2,0.1-0.2,0.2
			C606.7,202,606.7,201.9,606.6,201.8z M607.5,196.9L607.5,196.9C607.5,197,607.5,197,607.5,196.9C607.5,197,607.5,197,607.5,196.9
			L607.5,196.9z M607.4,200.2L607.4,200.2c0-0.1-0.1-0.2-0.2-0.2c0,0,0,0-0.1,0c0.1,0,0.1,0,0.2,0l0,0c0,0,0,0.1,0.1,0.1h0.1
			C607.4,200.1,607.4,200.2,607.4,200.2z M606.6,199.8C606.6,199.8,606.6,199.9,606.6,199.8C606.6,199.9,606.6,199.9,606.6,199.8
			C606.5,199.9,606.6,199.9,606.6,199.8z M603.9,200.9L603.9,200.9C603.9,200.9,603.8,200.9,603.9,200.9
			C603.8,200.9,603.9,200.9,603.9,200.9z M603.6,201.5L603.6,201.5c0.1,0,0.2,0.1,0.3,0.1c0,0.1-0.1,0.1-0.2,0.2c0,0,0,0,0-0.1
			C603.7,201.6,603.6,201.6,603.6,201.5C603.5,201.5,603.6,201.5,603.6,201.5z M630.5,204.6L630.5,204.6L630.5,204.6
			C630.5,204.5,630.4,204.5,630.5,204.6c-0.1-0.1,0-0.1,0-0.2C630.5,204.5,630.5,204.5,630.5,204.6L630.5,204.6z M639.5,202.7
			L639.5,202.7c0.1,0.1,0.2,0.1,0.3,0.2c-0.1,0-0.2,0-0.3,0C639.4,202.8,639.5,202.7,639.5,202.7z M650.1,178.4
			C650,178.4,650,178.4,650.1,178.4C650,178.3,650.1,178.3,650.1,178.4C650.1,178.3,650.1,178.4,650.1,178.4z M638.3,176.5
			C638.3,176.6,638.3,176.6,638.3,176.5C638.2,176.6,638.2,176.6,638.3,176.5C638.2,176.6,638.2,176.5,638.3,176.5
			C638.2,176.5,638.2,176.5,638.3,176.5z M628.9,179L628.9,179L628.9,179L628.9,179z M626.8,180.7L626.8,180.7c-0.1,0-0.1,0-0.1-0.1
			C626.7,180.7,626.7,180.7,626.8,180.7L626.8,180.7L626.8,180.7z M623.4,181L623.4,181L623.4,181L623.4,181z M625,182.1
			C625,182.2,625,182.2,625,182.1c0,0.1,0,0.2,0,0.2c0.1,0,0.1,0,0.2,0.1l0,0l0,0l0,0c-0.1,0-0.1,0-0.2,0c0,0,0,0-0.1,0l0,0
			C625,182.3,625,182.2,625,182.1C624.9,182.1,625,182.1,625,182.1z M620,185.6L620,185.6L620,185.6L620,185.6c-0.1,0-0.1,0-0.2,0
			H620C619.9,185.6,620,185.6,620,185.6z M616.1,190.8L616.1,190.8L616.1,190.8C616.1,190.8,616,190.8,616.1,190.8L616.1,190.8z
			 M606.2,196.8C606.2,196.8,606.2,196.7,606.2,196.8c0.1-0.1,0.1-0.1,0.2-0.1c0,0.1-0.1,0.1-0.1,0.2
			C606.3,196.8,606.2,196.8,606.2,196.8L606.2,196.8z M605.4,197.2c0,0.1,0.1,0.1,0.1,0.2c-0.1,0-0.1,0-0.1,0
			C605.4,197.3,605.4,197.3,605.4,197.2C605.3,197.2,605.4,197.2,605.4,197.2L605.4,197.2z M604.7,203.1c0-0.1,0.1-0.1,0.1-0.2
			c0,0,0,0.1,0.1,0.1c-0.1,0.1-0.3,0.3-0.3,0.3v0.1v0.1c0.1,0.1,0.2,0.1,0.2,0.1l-0.1,0.1c-0.1,0-0.2,0-0.3,0l0,0v-0.1
			c0,0,0,0,0-0.1c0-0.1,0-0.2-0.1-0.3h0.1C604.5,203.3,604.6,203.2,604.7,203.1z M614.6,203.6C614.6,203.6,614.6,203.5,614.6,203.6
			c0-0.2,0-0.2,0.1-0.2l0,0C614.6,203.4,614.6,203.5,614.6,203.6z M637,177L637,177C637.1,177,637.1,177,637,177
			c0.1,0.1,0.1,0.2,0.2,0.2c0,0,0,0,0.1,0l0,0c0,0.1,0,0.1,0.1,0.1h0.1c0,0-0.1,0-0.1,0.1l-0.1,0.1v0.1l0.1,0.1
			c-0.1,0-0.2,0-0.3-0.1c-0.1,0-0.1-0.1-0.1-0.3c0,0,0-0.1-0.1-0.1h-0.1l0,0l0,0C636.8,177.2,636.9,177.2,637,177L637,177l-0.2-0.1
			C636.9,177,637,177,637,177z M634.7,177.9L634.7,177.9c0.1,0,0.1-0.1,0.1-0.1v-0.1c0.1,0,0.1,0,0.2,0l0.1,0.1v0.1
			c0,0.1,0,0.1,0,0.2C634.9,177.9,634.7,177.9,634.7,177.9C634.6,177.9,634.6,177.9,634.7,177.9z M631,177.5
			c0.1,0.1,0.1,0.1,0.2,0.2l0,0l0,0c0,0,0,0-0.1,0l0,0c-0.1,0-0.2,0-0.3,0c-0.1,0-0.2,0-0.3,0l0,0l0,0l0,0c0.1,0,0.2,0,0.2,0
			c0.1,0,0.1-0.1,0.1-0.1l0,0C630.8,177.4,630.9,177.4,631,177.5z M622.7,181.8L622.7,181.8L622.7,181.8
			C622.7,181.9,622.7,181.8,622.7,181.8z"/>
		<path d="M609.5,194.4c0.1,0,0.3,0,0.4-0.1c0.1,0,0.1-0.1,0.1-0.1c0-0.2-0.2-0.3-0.3-0.3c-0.2,0-0.5,0.1-0.6,0.2v0.1
			c0,0,0,0.1,0.1,0.1C609.2,194.4,609.3,194.4,609.5,194.4z"/>
		<path d="M616.7,188.4L616.7,188.4c0,0.1,0,0.2,0,0.2c0.1,0.1,0.2,0.1,0.3,0.1h0.1c0.1,0,0.1-0.1,0.1-0.1c0-0.1-0.1-0.3-0.2-0.3
			C617,188.2,616.8,188.3,616.7,188.4z"/>
		<path d="M632.2,177.3c0,0-0.1,0.1,0,0.1c0.1,0.2,0.2,0.3,0.4,0.3c0,0,0,0,0.1,0c0.3,0,0.5-0.3,0.5-0.5c0-0.1,0-0.1-0.1-0.1
			C632.8,177,632.4,177.1,632.2,177.3z"/>
		<path d="M635.2,176.5c-0.1,0-0.1,0.1,0,0.2l0.1,0.1c0,0,0,0,0.1,0l0,0c0.2-0.1,0.4-0.1,0.6-0.1c0.1,0,0.3,0,0.4,0
			c0.4-0.1,0.8-0.3,1.2-0.6l0,0l0.1-0.1v-0.1l-0.1-0.1c-0.2,0.1-0.5,0-0.7,0c-0.1,0-0.1,0-0.1,0.1v0.1l0.1,0.1c-0.1,0-0.3,0-0.4,0
			c-0.2,0-0.3,0-0.3,0c-0.1,0-0.3,0-0.4,0.1c-0.1,0.1-0.3,0.1-0.5,0c-0.1,0-0.3,0-0.3,0c-0.1,0-0.1,0.1-0.1,0.1c0,0.1,0,0.1,0.1,0.1
			C635.1,176.4,635.2,176.4,635.2,176.5C635.3,176.5,635.3,176.5,635.2,176.5C635.3,176.5,635.2,176.5,635.2,176.5z"/>
		<path d="M638.3,175.5c0.1,0.1,0.3,0.2,0.5,0.2c0.1,0,0.1,0,0.2,0c0,0,0.1,0,0.1-0.1v-0.1c0,0-0.1-0.1-0.2-0.2c0,0,0,0,0.1,0v-0.1
			l-0.1-0.1h-0.2c-0.1,0-0.1,0-0.1,0.1l0,0c-0.1,0-0.1,0.1-0.2,0.1C638.3,175.4,638.3,175.4,638.3,175.5z"/>
		<path d="M578.9,176C578.9,176,579,176,578.9,176c0.4-0.2,0.8-0.3,1.1-0.4c0,0,0.1,0,0.2,0c0.3,0,0.6,0,0.8-0.3
			c0.1-0.1,0.1-0.3,0-0.3c-0.2-0.2-1.2,0.3-1.2,0.3c-0.1,0.1-0.2,0.1-0.4,0.1c-0.3,0.1-0.6,0.1-0.7,0.5
			C578.8,175.8,578.8,175.9,578.9,176L578.9,176z"/>
		<path d="M632.1,208.7h0.1c0.1,0,0.3-0.1,0.4-0.2c0,0,0-0.1,0-0.2c-0.1-0.1-0.2-0.2-0.4-0.2c-0.1,0-0.2,0.1-0.3,0.2
			c-0.1-0.1-0.3-0.1-0.6,0c-0.5,0.1-0.8,0.4-1.1,0.8c-0.2,0.2-0.2,0.8-0.1,1.1c0.1,0.2,0.1,0.3,0.2,0.4c-0.1,0.1-0.2,0.3-0.2,0.4
			v0.1l0.1,0.1h0.1c0.2,0,0.4-0.1,0.5-0.3v-0.1c0-0.2,0.6-0.7,1-1c0,0,0.1-0.1,0-0.1l-0.1-0.1c-0.1,0-0.1,0-0.1,0
			c0-0.1,0.1-0.3,0.2-0.4C632,209,632.1,208.8,632.1,208.7z"/>
		<path d="M633.5,202.9c0.2,0.1,0.3,0.1,0.4,0.1c0.1,0,0.1,0,0.2-0.1c0,0.1,0,0.1,0.1,0.1c0.1,0,0.1,0,0.2,0c0.1,0,0.1,0,0.2,0
			c0.1,0,0.1-0.1,0.1-0.1c0-0.1-0.1-0.1-0.1-0.1h-0.3h-0.1c0-0.1,0-0.1-0.1-0.2c-0.1-0.1-0.2-0.1-0.4-0.1c0,0,0-0.1,0-0.2
			c0.1,0.1,0.2,0.1,0.4,0.1c0.1-0.1,0.2-0.2,0.1-0.2c-0.1-0.3-0.9-0.5-1.1-0.5c-0.1,0-0.1,0-0.1,0.1c0,0,0,0.1,0.1,0.1
			c0,0,0.1,0,0.1,0.1l0,0c-0.1,0-0.2-0.1-0.3,0l0,0h-0.1c-0.1,0.1-0.2,0.2-0.2,0.3c0,0.1,0.2,0.1,0.3,0.2l0,0l0,0
			c0.1,0.1,0.2,0.2,0.3,0.2h0.1h0.1C633.5,202.8,633.5,202.8,633.5,202.9L633.5,202.9z"/>
		<path d="M635.5,194.9L635.5,194.9c0.3,0,0.3-0.2,0.4-0.2c0-0.1,0-0.2-0.1-0.3c-0.1-0.1-0.3-0.1-0.5,0.1v0.1v0.1
			C635.2,194.7,635.3,194.8,635.5,194.9C635.4,194.9,635.4,194.9,635.5,194.9z"/>
		<path d="M642,190.2c0.1-0.1,0.1-0.1,0.2,0c0.1,0,0.1,0,0.1,0v-0.1c-0.1-0.2-0.4-0.2-0.6-0.2s-0.4,0.1-0.4,0.3c0,0.1,0,0.1,0.1,0.1
			c0.1,0.1,0.2,0.1,0.3,0.1C641.9,190.3,641.9,190.2,642,190.2z"/>
		<path d="M650.5,257.5c-0.2,0-0.4,0.1-0.5,0.2s-0.1,0.3,0,0.4l0.1,0.1l0,0c0.1,0,0.5-0.1,0.6-0.3c0-0.1,0.1-0.1,0-0.2
			C650.7,257.6,650.6,257.5,650.5,257.5z"/>
		<path d="M653.5,267.5c-0.1,0.1,0,0.3,0.1,0.4h0.1l0,0l0.1-0.1c0-0.1,0.3-0.3,0.5-0.4c0.1-0.1,0.2-0.1,0.3-0.2c0,0,0.1-0.1,0-0.1
			c0,0,0-0.1-0.1-0.1C654.3,267.1,653.6,267.2,653.5,267.5z"/>
		<path d="M636.8,259.8L636.8,259.8c-0.2-0.1-0.2-0.2-0.2-0.4c0-0.2,0-0.3-0.1-0.4c-0.1-0.1-0.3-0.1-0.5-0.1c-0.1,0-0.1,0.1-0.1,0.1
			c0,0.3,0.2,0.7,0.5,1c0.2,0.2,0.4,0.2,0.6,0.2h0.1c0,0,0.1,0,0.1-0.1c0,0,0-0.1-0.1-0.1L636.8,259.8z"/>
		<path d="M638.9,263.9c0.1,0,0.1-0.1,0.1-0.2c-0.1-0.2-0.2-0.3-0.3-0.5l0,0c0.1,0,0.1-0.1,0.1-0.1c-0.1-0.2-0.2-0.4-0.3-0.5
			c0,0-0.1-0.1-0.2,0c0,0,0,0-0.1,0.1h-0.1l-0.1,0.1v0.2c0,0.1-0.1,0.1-0.2,0.1c-0.1,0.1-0.4,0.2-0.1,0.6c0,0,0,0.1,0.1,0.1h0.1
			l0.1-0.1c0,0.1,0.1,0.1,0.1,0.1c0.1,0.1,0.3,0.1,0.5,0.1C638.7,263.9,638.8,263.9,638.9,263.9z"/>
		<path d="M638.5,264.3c-0.1,0-0.1,0-0.1,0.1c0,0.4,0.4,0.7,0.6,0.8c0,0,0,0,0.1,0c0,0,0.1,0,0.1-0.1c0.2-0.3,0.2-0.4,0.1-0.6
			C639.1,264.4,638.8,264.3,638.5,264.3z"/>
		<path d="M644.1,268.6c-0.3,0.2-0.2,0.5-0.1,0.7v0.1c0,0.1,0.1,0.1,0.1,0.1l0,0c0.2,0,0.3-0.1,0.3-0.2c0.1-0.2,0-0.4-0.2-0.6
			C644.2,268.6,644.1,268.6,644.1,268.6z"/>
		<path d="M645,264.6L645,264.6c-0.1,0.1-0.1,0.1-0.1,0.2c0.1,0.1,0.1,0.2,0.2,0.3h0.1l0,0c0,0,0.1,0,0.1-0.1
			c0.1-0.1,0.2-0.3,0.1-0.4C645.3,264.5,645.1,264.6,645,264.6z"/>
		<path d="M645.3,260.7C645.3,260.7,645.2,260.7,645.3,260.7c-0.1,0.1-0.1,0.2-0.1,0.2c0.1,0.1,0.2,0.2,0.2,0.2h0.1l0,0
			c0,0,0.1,0,0.1-0.1c0-0.2,0-0.3-0.1-0.3C645.6,260.7,645.5,260.6,645.3,260.7z"/>
		<path d="M652.1,271.9c-0.2,0-0.4,0-0.7,0.1c-0.1,0.1-0.3,0.1-0.4,0.1l0,0V272v-0.1c0-0.1,0-0.2-0.1-0.3c-0.1-0.1-0.3-0.1-0.4,0
			c-0.1,0-0.1,0-0.2,0c-0.3,0-0.5-0.1-0.8-0.1c-0.5-0.1-1-0.2-1.5-0.1c-0.2,0.1-0.5,0.1-0.8-0.1c0,0-0.1-0.1-0.2-0.1c0,0,0,0-0.1,0
			c0,0,0.1,0,0.1-0.1c0.1,0,0.1-0.1,0.1-0.1c0-0.1-0.1-0.1-0.1-0.1c-0.1,0-0.2,0-0.3,0c-0.4,0.1-0.6,0.1-0.7-0.3
			c0-0.1-0.1-0.1-0.1-0.1c-0.1,0-0.1,0.1-0.1,0.1c0,0.1,0,0.2,0,0.3c0,0-0.1,0-0.1-0.1h-0.1l-0.1,0.1c0,0.1,0,0.1,0,0.2
			c-0.1,0.3-0.1,0.7,0.2,0.8c0.4,0.1,0.9,0.2,1.3,0.1c0.4,0,0.9,0.1,1.3,0.3c0.1,0,0.1,0.1,0.1,0.2c0,0.1,0.1,0.2,0.3,0.3
			c0.1,0,0.3,0.1,0.4,0.1c0.2,0,0.3,0,0.4-0.1c0.7-0.1,1.3-0.2,2-0.2l0,0c0.2,0,0.5,0,0.7-0.2c0.1-0.1,0.1-0.3,0.1-0.5
			C652.3,272,652.2,271.9,652.1,271.9z"/>
		<path d="M647.3,264.9C647.3,264.9,647.2,264.9,647.3,264.9c-0.3,0.1-0.4,0.4-0.3,0.6l0.1,0.1c0,0,0,0,0.1,0
			c0.2-0.1,0.3-0.3,0.3-0.6C647.4,264.9,647.4,264.8,647.3,264.9z"/>
		<path d="M647.7,267.6c-0.1,0.1-0.2,0.1-0.3,0c0,0-0.1-0.1-0.1,0l-0.1,0.1v0.3l0,0l0,0c0,0.1,0.1,0.1,0.1,0.1l0,0h0.1
			c0.2,0,0.5-0.1,0.5-0.4C647.9,267.6,647.9,267.6,647.7,267.6C647.9,267.5,647.8,267.5,647.7,267.6
			C647.8,267.6,647.8,267.6,647.7,267.6z"/>
		<path d="M647.9,261.7c-0.1-0.2-0.2-0.5-0.6-0.5c-0.1,0-0.1,0-0.1,0.1c-0.1,0.2,0.1,0.4,0.2,0.5c0.1,0.1,0.1,0.1,0.1,0.2v0.1h0.1
			l0,0c0.1,0,0.1,0,0.2,0c0,0,0.1,0,0.1-0.1C647.9,261.9,647.9,261.8,647.9,261.7L647.9,261.7z"/>
		<path d="M648.1,266.8c0,0-0.1,0-0.1,0.1v0.1l0,0c0,0.1,0.1,0.1,0.1,0.2c0,0,0,0.1,0.1,0.1l0,0h0.1c0.1,0,0.2-0.2,0.2-0.3
			C648.4,266.8,648.3,266.8,648.1,266.8z"/>
		<path d="M649,258.2c-0.1,0-0.2,0-0.4,0c0,0-0.1,0-0.1,0.1c-0.1,0.3-0.1,0.4,0,0.5c0.1,0.1,0.2,0.1,0.4,0.1c0.1,0,0.3,0,0.4,0
			c0,0,0,0,0.1,0c0,0,0,0,0.1,0l0.1-0.1c0-0.2,0-0.3,0.1-0.4v-0.1h-0.1C649.3,258.3,649.1,258.2,649,258.2z"/>
		<path d="M648.6,265C648.6,265,648.6,265.1,648.6,265c0.1,0.1,0.1,0.1,0.1,0.1l0,0c0.1,0.2,0.3,0.4,0.6,0.4h0.1
			c0.1,0,0.1-0.1,0.1-0.1c0-0.3-0.3-0.4-0.5-0.4h-0.1c0.1-0.3-0.1-0.5-0.2-0.6c-0.1-0.1-0.2-0.2-0.2-0.3c0,0,0-0.1-0.1-0.1h-0.1
			c-0.1,0.1-0.2,0.1-0.3,0.2v0.1v0.1C648.2,264.6,648.4,264.8,648.6,265z"/>
		<path d="M648.8,268.2L648.8,268.2c0.1,0,0.1,0,0.2,0c0-0.1,0-0.1,0-0.2c0,0,0,0-0.1-0.1c-0.1-0.1-0.1-0.1-0.3-0.1
			c-0.1,0-0.1,0-0.1,0.1c0,0.1,0,0.1,0.1,0.1C648.6,268.1,648.7,268.1,648.8,268.2z"/>
		<path d="M649.1,266.7c0,0.1,0.1,0.3,0.2,0.4h0.1c0,0,0,0,0.1,0c0,0,0,0,0.1-0.1c0.1-0.1,0.1-0.2,0.1-0.3s0-0.2-0.1-0.3h-0.1
			C649.2,266.5,649.1,266.6,649.1,266.7z"/>
		<path d="M649.7,265.9L649.7,265.9c0.1-0.1,0.2-0.2,0.2-0.2v-0.1v-0.1c0,0,0-0.1-0.1-0.1c-0.2-0.1-0.3-0.1-0.4,0
			C649.4,265.5,649.5,265.7,649.7,265.9C649.6,265.9,649.6,265.9,649.7,265.9z"/>
		<path d="M649.6,267.9L649.6,267.9c0.1,0.1,0.1,0.1,0.2,0.1l0,0c0,0,0.1,0,0.1-0.1c0.1-0.2,0-0.3,0-0.3c-0.1-0.1-0.3-0.1-0.4,0
			l-0.1,0.1v0.1C649.6,267.9,649.6,267.9,649.6,267.9z"/>
		<path d="M649.5,256.8c-0.1,0-0.1,0.1-0.1,0.1v0.1c0.1,0.2,0.2,0.3,0.4,0.3h0.1c0.1,0,0.1-0.1,0.1-0.1V257c0,0,0-0.1-0.1-0.1
			C649.8,256.7,649.6,256.7,649.5,256.8z"/>
		<path d="M650,267.3c0.2-0.1,0.3-0.4,0.4-0.6c0-0.2,0-0.3-0.1-0.3c0,0-0.1-0.1-0.2,0c-0.2,0-0.4,0.2-0.4,0.3
			C649.6,266.9,649.8,267.2,650,267.3v-0.1V267.3C649.9,267.3,650,267.3,650,267.3L650,267.3z"/>
		<path d="M650.8,267.7C650.8,267.7,650.9,267.7,650.8,267.7c0.2-0.1,0.3-0.1,0.4-0.2c0.1-0.1,0.2-0.1,0.3-0.2
			c0.1,0,0.1-0.1,0.1-0.1c0-0.1-0.1-0.1-0.1-0.1c-0.3,0-0.6,0.2-0.7,0.5C650.7,267.6,650.7,267.6,650.8,267.7L650.8,267.7z"/>
		<path d="M651.1,263.7L651.1,263.7c0.1,0,0.1,0,0.1,0c0.3-0.2,0.4-0.6,0.3-0.9c0-0.3-0.2-0.5-0.4-0.6c-0.1,0-0.3,0-0.6,0.3v0.1
			c0,0,0,0.1,0.1,0.1c0.2,0.1,0.2,0.2,0.2,0.4S650.7,263.6,651.1,263.7z"/>
		<path d="M652.1,265L652.1,265C652.1,264.9,652,264.8,652.1,265c-0.2-0.1-0.3,0-0.4,0c-0.3,0.1-0.6,0.1-0.6,0.5v0.1h0.1l0,0
			C651.6,265.6,651.9,265.4,652.1,265z"/>
		<path d="M652.3,261.2c0,0,0.1,0,0.2,0c0,0,0.1-0.1,0-0.2c-0.4-0.7-0.7-1.1-1.5-0.9c-0.2,0.1-0.5,0.1-0.5,0.3
			c0,0.2,0.1,0.3,0.2,0.3c0.1,0.1,0.3,0.1,0.4,0.1l0,0c0,0,0,0.1,0.1,0.1c0.2,0.2,0.5,0.3,0.8,0.3l0,0l0,0l0,0c0.1,0,0.1,0,0.1-0.1
			l0,0l0.1-0.1C652.2,261.2,652.3,261.2,652.3,261.2z"/>
		<path d="M653.1,265.2L653.1,265.2c0.3,0,0.5-0.2,0.6-0.5v-0.1h-0.1c-0.1,0-0.2,0-0.4,0c-0.1,0-0.3-0.1-0.5,0
			c-0.1,0-0.2,0.1-0.3,0.2c0,0.2,0.2,0.3,0.5,0.4C653,265.2,653,265.2,653.1,265.2C653,265.2,653.1,265.2,653.1,265.2z"/>
		<path d="M653.4,266.6L653.4,266.6c-0.1-0.2-0.1-0.3-0.4-0.3c-0.1,0-0.1,0-0.1,0.1v0.1l0.2,0.2h0.1c0,0,0,0,0.1,0
			C653.4,266.7,653.4,266.6,653.4,266.6z"/>
		<path d="M653.6,267.3L653.6,267.3c0.1,0,0.1,0,0.1-0.1s0.1-0.1,0.1-0.2l0,0v-0.1c0,0,0-0.1-0.1-0.1c-0.1,0-0.3-0.1-0.4,0.1
			C653.3,267,653.4,267.1,653.6,267.3C653.5,267.2,653.6,267.3,653.6,267.3z"/>
		<path d="M654.4,270.2c0,0-0.1,0-0.1,0.1c-0.2,0.4-0.2,0.9-0.1,1.3c0,0,0,0.1,0.1,0.1l0,0c0,0,0,0,0.1,0c0.4-0.2,0.2-1.2,0.2-1.4
			C654.5,270.2,654.4,270.2,654.4,270.2z"/>
		<path d="M656.6,268.4c-0.4,0.1-1.3,0.5-1.2,1.1c0,0.1,0.1,0.7,0.4,0.7l0,0c0.2,0,0.3-0.2,0.3-0.3c0.1-0.1,0.1-0.1,0.2-0.1
			c0.2,0,0.2-0.1,0.3-0.3c0.1-0.3,0.2-0.6,0.2-0.9C656.8,268.5,656.7,268.4,656.6,268.4C656.7,268.4,656.6,268.4,656.6,268.4z"/>
		<path d="M680.2,234.7h-0.1H680c0-0.1,0.1-0.1,0-0.2c0-0.2-0.3-0.4-0.5-0.5c-0.1,0-0.1-0.1-0.1-0.1c0-0.1,0-0.2,0-0.2
			c0.1-0.1,0.3-0.2,0.4-0.1h0.1v-0.1c0-0.4-0.3-0.4-0.4-0.4c-0.1,0-0.2,0-0.2-0.1c0-0.1,0-0.1,0-0.1l0,0c0,0,0.1,0,0.1-0.1
			c0.1,0,0.2-0.1,0.2-0.1c0.4-0.3,0.3-0.7,0.2-1c-0.1-0.2-0.1-0.4,0-0.4v-0.1c0,0,0-0.1-0.1-0.1c-0.2-0.1-0.3,0-0.5,0
			c-0.1,0-0.2,0.1-0.3,0.1c-0.2,0-0.4-0.1-0.5-0.3c-0.2-0.2-0.3-0.2-0.5-0.2c-0.2,0-0.3-0.1-0.4-0.3l-0.1-0.1h-0.1
			c-0.2,0.2-1,0-1.4-0.3c-0.5-0.2-0.6-0.3-0.8-0.1c-0.1,0.1-0.1,0.1-0.2,0.2c-0.1-0.2-0.3-0.3-0.5-0.4c-0.2-0.1-0.3-0.2-0.5-0.4
			v-0.1c-0.2-0.2-0.5-0.7-0.9-0.5c-0.2,0.1-0.3,0.1-0.5,0.2c-0.2,0-0.4,0.1-0.6,0.2c-0.2,0.1-0.2,0.1-0.3,0c-0.1,0-0.2-0.1-0.3-0.1
			c-0.2,0-0.3-0.1-0.5-0.2c-0.2-0.1-0.3-0.2-0.6-0.2c-0.1,0-0.3,0.1-0.4,0.1c-0.2,0.1-0.4,0.1-0.5,0c-0.2-0.2-0.2-0.3-0.2-0.5
			c0-0.1,0-0.2-0.1-0.4c0-0.1-0.1-0.2-0.2-0.3c-0.1-0.2-0.2-0.3-0.1-0.4V227l-0.1-0.1l0,0c-0.2,0-0.3-0.1-0.4-0.2
			c-0.2-0.1-0.4-0.3-0.7-0.2c-0.5,0-0.9,0-1.3-0.2l0,0c0.1-0.2-0.2-0.6-0.3-0.8c0-0.1-0.1-0.1-0.1-0.2c0.1,0,0.2-0.1,0.3-0.1
			c0.1,0,0.3-0.1,0.4-0.1c0.1,0,0.1-0.1,0-0.2c-0.1-0.2-0.3-0.4-0.5-0.6c-0.2-0.2-0.4-0.3-0.5-0.5c-0.2-0.3-0.5-0.5-0.8-0.6
			c-0.1,0-0.2,0.1-0.3,0.1c-0.1,0.1-0.2,0.1-0.4,0c-0.1-0.1-0.2-0.1-0.4-0.1s-0.5,0.1-0.7,0.2c-0.2,0.1-0.5,0-0.7,0
			c-0.2,0-0.3-0.1-0.5-0.1h-0.1v0.1c0,0.2,0,0.4-0.1,0.5c-0.1,0.1-0.5,0.1-0.8,0h-0.1h-0.1c-0.2-0.3-0.4-0.7-0.5-1.1
			c0-0.1,0-0.2,0-0.3c0-0.2,0-0.5-0.2-0.6c-0.3-0.2-0.5-0.6-0.5-0.7c0-0.1,0.2-0.1,0.4-0.1s0.3,0.1,0.5,0.2c0.2,0.1,0.4,0.2,0.8,0.2
			c0.3-0.1,0.4-0.2,0.5-0.4c0.1-0.1,0.1-0.1,0.2-0.2c0,0,0.1,0,0.2,0c0.2,0,0.4-0.1,0.4-0.2c0-0.1-0.1-0.3-0.2-0.3
			c-0.1-0.1-0.2-0.1-0.3-0.1c-0.1,0-0.2-0.1-0.2-0.1c-0.1-0.1-0.1-0.2-0.1-0.2c0-0.2-0.1-0.3-0.5-0.4c-0.1,0-0.1,0-0.2-0.1
			c-0.1,0-0.3-0.1-0.4-0.1c-0.1,0-0.2,0.1-0.3,0.1c-0.1,0-0.1,0-0.1,0v-0.1c0-0.1,0.1-0.2,0-0.4c-0.1-0.3-0.4-0.4-0.6-0.4h-0.1
			c-0.4-0.1-0.6-0.5-0.9-0.8c-0.1-0.2-0.2-0.4-0.4-0.5c-0.1-0.1-0.2-0.1-0.3-0.2c-0.3-0.2-0.3-0.3-0.2-0.4v-0.1
			c0.1-0.2,0.3-0.4,0.1-0.7c-0.2-0.3-0.2-0.6-0.2-0.9s-0.3-0.4-0.5-0.5c-0.1,0-0.2-0.1-0.2-0.1c-0.5-0.5-1.3-0.6-1.9-0.3
			c-0.2,0.1-0.6,0.2-0.7,0.1c0,0,0-0.1,0-0.2c0-0.1,0-0.2-0.1-0.3c-0.2-0.2-0.7-0.2-1.1-0.1c-0.1,0-0.3,0-0.4,0
			c-0.1-0.2-0.3-0.3-0.5-0.4c-0.1,0-0.3,0-0.4,0.1c0,0-0.2,0-0.2-0.1c0,0-0.1,0-0.2,0c0.1-0.1,0.2-0.2,0.1-0.4
			c-0.1-0.3-0.3-1-0.7-1.2c-0.1,0-0.1-0.1-0.1-0.1c-0.1-0.2-0.2-0.3-0.5-0.3c0.1-0.4,0.3-1,0.1-1.2c-0.3-0.3-0.6-0.4-1-0.6
			c0-0.2,0.2-0.4,0.5-0.6c0.1-0.1,0.2-0.1,0.3-0.2c0,0,0.1-0.1,0-0.1l-0.1-0.1c-0.1,0-0.1-0.1-0.2-0.2c0-0.1,0-0.2-0.1-0.3
			c-0.1-0.1-0.1-0.1-0.2-0.1c-0.1-0.1-0.2-0.1-0.2-0.2s0-0.2,0-0.3c0-0.1,0.1-0.2,0-0.4c-0.1-0.2-0.2-0.5-0.2-0.7
			c0-0.2,0.1-0.3,0.3-0.4c0.1-0.1,0.3-0.3,0.4-0.5c0.1-0.4,0.2-0.5,0.5-0.5c0,0,0.1,0,0.1-0.1v-0.1c-0.2-0.5-1-0.4-1.8-0.3
			c-0.3,0-0.5,0-0.7,0c-0.2,0-0.4-0.1-0.7-0.2c-0.2-0.1-0.5-0.1-0.8-0.2c-0.6,0-1.2-0.1-1.8-0.2h-0.1v0.1v0.1c0,0.1-0.2,0.1-1.1,0.1
			c-0.1,0-0.1,0-0.1,0H643v0.1v0.1c0,0-0.3,0-0.4,0s-0.1,0-0.1,0c-0.2,0-0.4,0.1-0.5,0.2c-0.1,0.1-0.2,0.1-0.3,0.1h-0.1
			c0,0-0.1,0.1,0,0.1v0.1l0,0c-0.3,0-0.8,0-1,0.3c-0.1,0.1-0.1,0.3-0.1,0.4c0,0.1,0,0.1,0,0.2v0.1h0.1l0,0c0,0,0,0,0,0.1
			c-0.1,0.1-0.2,0.3,0,0.5h0.1c0,0,0,0-0.1,0.1c-0.1,0.1-0.1,0.2,0,0.4c0,0,0,0,0,0.1c0,0,0,0,0.1,0c0.1,0,0.3,0.2,0.4,0.3
			c0.3,0.3,0.8,0.6,1.1,0.6c0.1,0,0.3-0.1,0.3-0.3c0-0.1,0.1-0.1,0.1-0.1l0,0c0,0,0,0,0,0.1c-0.1,0.3-0.2,0.7-0.2,1.1l0,0
			c0,0.3,0,0.5,0.1,0.8c0.2,0.5,0.3,0.9-0.2,1.2c-0.3,0.3-0.7,0.4-1.1,0.3c-0.3-0.1-0.5-0.3-0.7-0.6c-0.1-0.1-0.2-0.3-0.4-0.4
			c-0.4-0.3-0.7-0.6-1-0.9c-0.2-0.2-0.6-0.1-1,0.1c-0.1,0-0.2,0.1-0.3,0.1c-0.5,0.1-1,0.4-1.2,0.9c-0.1,0.2-0.1,0.3-0.1,0.5
			c0,0.1,0,0.2,0,0.3c0,0.1-0.1,0.2-0.2,0.3c-0.1,0.1-0.1,0.1-0.2,0.2c-0.2,0.3-0.2,0.6-0.2,0.9c0,0,0,0,0,0.1
			c-0.1,0.4,0,0.8,0.2,1.1c0,0,0,0,0,0.1c0.1,0.4,0.2,0.8,0.3,1.2c0.1,0.2,0.2,0.5,0.2,0.7c-0.2,0.1-0.3,0.3-0.5,0.4
			c-0.1,0.1-0.2,0.2-0.2,0.3c-0.3,0.2-0.7,0.2-1.1,0.2c-0.3,0-0.4,0.2-0.4,0.4v0.1c-0.1,0.4-0.3,0.7-0.6,0.9c0,0-0.1,0-0.1,0.1
			c0,0,0,0-0.1,0v-0.1c0-0.1-0.1-0.1-0.2-0.1c-0.6,0.2-1.2,0.3-1.7,0.2c-0.2-0.1-0.4-0.3-0.5-0.5c0-0.1-0.1-0.2-0.2-0.3
			c0.1,0,0.2,0,0.3,0.1l0.1,0.1c0.1,0,0.1,0,0.2,0c0-0.1,0-0.1,0-0.2l-0.1-0.1c-0.6-0.5-1.6-0.5-2.9-0.2c-0.9,0.1-1.7,0.5-2.4,1.1
			c-0.2,0.3-0.9,0.4-1.4,0.4c-0.4,0.1-0.7,0.1-1,0.2c-0.1,0-0.2,0.1-0.3,0.1c-0.5,0.2-1.1,0.5-1.5,0.4l0,0c-0.1-0.2-0.3-0.3-0.5-0.4
			c-0.2-0.1-0.3-0.1-0.4-0.2c0,0-0.1-0.1-0.2,0c0,0,0,0,0,0.1h-0.1c-0.2,0-0.3,0-0.4,0.1c-0.1,0-0.1-0.1-0.2-0.2
			c0.1,0,0.1,0,0.2-0.1c0.1-0.1,0.2-0.1,0.3,0c0.1,0,0.1,0,0.2,0h0.1v-0.1c0-0.2-0.1-0.3-0.2-0.3c0,0,0,0-0.1,0v-0.1
			c0-0.1,0.1-0.2,0.1-0.3c-0.1-0.2-0.3-0.2-0.4-0.2h-0.1c0,0,0,0,0-0.1c0,0,0-0.1-0.1-0.1c-0.1,0-0.1,0-0.1,0
			c-0.1,0.1-0.2,0.2-0.2,0.3l0,0c-0.1,0-0.1,0-0.2,0s-0.1,0-0.1,0.1v0.1c0.1,0.2,0.1,0.3,0.1,0.3c-0.1-0.1-0.2-0.2-0.3-0.2
			c-0.1,0-0.2,0-0.3,0c-0.5-0.2-0.7-0.1-1,0.2L618,218l-0.1,0.1c-0.1,0.1-0.3,0.2-0.4,0.3c-0.4-0.1-1.2,0.3-1.3,0.3
			c-0.1,0-0.1,0.1,0,0.2l0,0l-0.1,0.1c-0.3-0.1-0.9-0.3-1.1-0.1l0,0c0.3-0.2,0.5-0.6,0.6-0.9h0.1c0.1,0,0.2,0,0.2,0s0.1,0,0.1-0.1
			v-0.1c-0.1-0.3-0.4-0.4-0.7-0.3c0,0,0,0-0.1,0c0,0-0.1,0-0.1,0.1v0.1l0.1,0.1h-0.1c-0.3,0.1-0.5,0.1-0.8,0
			c-0.2-0.1-0.5-0.2-0.7-0.1l0,0c0,0,0-0.1-0.1-0.1c-0.1-0.1-0.3-0.1-0.4-0.1c0.1-0.1,0.1-0.2,0.1-0.3c0,0,0-0.1-0.1-0.1V217
			c0-0.1-0.1-0.2-0.3-0.2l0,0c0.1,0,0.1,0,0.2-0.1c0.1-0.1,0.2-0.2,0.1-0.4c-0.1-0.2-0.6-0.4-0.9-0.3c0,0,0,0,0,0.1
			c-0.1,0-0.2-0.1-0.3-0.1c0,0,0.1-0.1,0.2-0.1c0.2-0.1,0.4-0.2,0.3-0.6l0,0c0.1,0.1,0.1,0.1,0.2,0.2c0.1,0.1,0.3,0.3,0.3,0.4
			c0,0.1,0.1,0.1,0.1,0.1c0.1,0,0.1-0.1,0.1-0.1l0,0c0,0,0,0.1,0.1,0.1c0.1,0.2,0.5,0.3,0.8,0.3l0,0c0,0,0,0.1,0.1,0.1l0.3,0.1l0,0
			c-0.1,0.2-0.1,0.4,0,0.5l0.1,0.1c0,0,0,0,0.1,0l0,0c0,0,0.1,0,0.1-0.1c0-0.1,0.1-0.2,0.1-0.3c0.1-0.2,0.3-0.5,0.2-0.8l-0.1-0.1
			c-0.1,0-0.1,0-0.1,0.1c-0.1,0.1-0.1,0.3-0.3,0.3v-0.1c0.1,0,0.2-0.1,0.2-0.2c0.1-0.1,0.2-0.3,0.1-0.5c0-0.2-0.1-0.4-0.3-0.5l0,0
			c0.1,0,0.1-0.1,0-0.2c-0.1-0.1-0.1-0.2-0.2-0.3h-0.1l-0.1,0.1c0,0.1,0,0.1,0,0.2l0,0c0,0,0,0,0-0.1c-0.1-0.2-0.6-0.2-1.4-0.1
			c0,0,0,0,0.1,0v-0.1l0,0c0.1,0,0.2,0,0.3-0.2c0.1-0.1,0.1-0.2,0.1-0.3v-0.1c0.3,0,0.5-0.1,0.6-0.6v-0.1c0-0.2,0-0.3,0.1-0.4l0,0
			c0,0.1,0,0.2,0,0.2c0,0.1,0.1,0.2,0.3,0.2c0.1,0,0.1,0,0.1-0.1c0-0.1,0-0.1,0.2-0.1l0,0c0.2,0,0.5-0.3,0.5-0.6
			c0.1-0.3,0-0.4-0.1-0.4c-0.2-0.2-0.8-0.3-1.3-0.2c0-0.1,0-0.1,0-0.2l0,0c0,0,0,0,0.1-0.1v-0.1c-0.1-0.1-0.1-0.2-0.1-0.3
			c0-0.1-0.1-0.3-0.2-0.4c0.2-0.1,0.4-0.2,0.6-0.6c0.1-0.3,0.1-0.5,0-0.7c-0.1-0.2-0.1-0.4,0.1-0.6c0,0,0.1-0.1,0-0.1
			c0-0.1-0.1-0.1-0.1-0.1c-0.6,0.1-1.2,0.4-1.7,0.8c-0.1,0.1-0.1,0.1-0.2,0.2c-0.2,0.3-0.4,0.6-0.7,0.6c-0.2,0-0.3,0-0.5,0
			c-0.4,0-0.9,0-1.3,0.2c-0.2,0.1-0.5,0.5-0.5,0.8c0,0.1,0.1,0.3,0.3,0.4c0,0,0,0,0.1,0c-0.1,0-0.3-0.1-0.4-0.2H609
			c0,0-0.1,0-0.1,0.1l0.4,0.6c0,0,0,0,0,0.1c-0.2,0.5-0.2,1,0,1.5v0.1l0,0c0,0.1,0,0.3,0,0.4c0,0.1,0,0.3,0,0.4
			c0,0.2,0.2,0.6,0.4,0.6l0,0c0.1,0,0.1,0,0.2-0.1c0,0,0.1,0,0.1,0.1c0.3,0.3,0.5,0.5,0.5,0.6c0,0,0,0.1-0.3,0.1h-0.1v0.1
			c0,0,0,0,0,0.1c0,0.1,0.1,0.2,0.2,0.2h0.1c0,0.1,0,0.2,0.1,0.3l0,0c-0.1,0-0.1,0-0.2,0l0,0c-0.1,0-0.1,0-0.2,0l0,0c0,0,0,0,0-0.1
			v-0.1l0,0c0,0,0-0.1-0.1-0.1h-0.1c-0.3,0.1-0.3,0.5-0.3,0.7c0,0.1,0.1,0.1,0.1,0.1c0.1,0,0.1,0,0.1-0.1c0-0.1,0.1-0.2,0.2-0.2
			c0.1,0,0.3,0,0.4,0c0.1,0.1,0.2,0.3,0.2,0.4c0,0.1,0.1,0.1,0.1,0.2c0,0.1,0.1,0.1,0.1,0.2c0.1,0.1,0.2,0.2,0.2,0.2
			c0,0.1-0.1,0.1-0.3,0.1c-0.2,0-0.4,0.1-0.5,0.3v0.1c0,0,0,0.1,0.1,0.1c0.1,0,0.3,0.1,0.4,0.1l0,0c0,0.1,0.1,0.2,0.2,0.4l0.1,0.1
			c-0.1,0-0.1,0.1-0.1,0.1c0,0.1-0.1,0.2,0.1,0.4l0.1,0.1c-0.1,0-0.1,0-0.2,0h-0.1c-0.2,0-0.4-0.1-0.6,0.1c-0.1,0.1-0.2,0.2-0.2,0.4
			c0,0.1,0,0.2,0.1,0.3c0,0-0.1,0-0.1-0.1c-0.2-0.1-0.4,0-0.4,0.1l0,0l0,0c-0.2-0.4-1.7-0.4-1.9-0.4c-0.4,0.1-0.7,0.4-0.8,0.8
			c-0.3-0.2-0.6-0.3-0.8-0.2c-0.9,0-1.8,0.3-2.6,0.8l0,0c-0.3,0.3-0.6,0.5-1,0.6c-0.1,0-0.2,0-0.3,0.1c0.1-0.1,0.2-0.2,0.3-0.3
			c0-0.1,0-0.2,0-0.3c0,0,0,0,0.1,0l0.2-0.2c0.1,0,0.1-0.1,0-0.2c0-0.1-0.1-0.1-0.2,0c-0.1,0-0.2,0.1-0.3,0.2v0.1l0,0
			c-0.2,0.1-0.4,0.4-0.3,0.6c0,0,0,0.1,0.1,0.1c0,0,0,0,0.1,0l0,0c-0.2,0.1-0.3,0.2-0.3,0.4c-0.2,0.9-0.7,1.6-1.4,2.2
			c-0.1,0.1-0.1,0.2-0.1,0.3l0,0c-0.1,0-0.3,0-0.4,0.2v0.1l0,0h-0.2c-0.1,0-0.1,0.1-0.1,0.1c0,0.1,0,0.1,0.1,0.1
			c0.1,0,0.1,0.1,0.2,0.1l0,0c-0.3,0-0.6,0-0.8,0.3v0.1c0.1,0.1,0.1,0.1,0.2,0.1c-0.1,0-0.2,0-0.2,0.1h-0.1
			c-0.6,0.2-1.3,0.5-1.8,0.8l0,0l0,0c-0.6-0.1-1.7,0.3-1.9,0.6c-0.2,0.2-0.4,1.1-0.3,1.6c0,0.1,0,0.2,0,0.2c-0.2,0-0.4,0.2-0.6,0.4
			c-0.1,0.1-0.2,0.2-0.3,0.3c-0.2,0.1-0.5,0.1-0.8,0.2c-0.3,0-0.6,0.1-0.9,0.2c0,0-0.9,0.5-0.9,0.9c0,0.1,0,0.2,0.2,0.3
			c0,0,0,0,0.1,0c-0.1,0-0.2,0.1-0.2,0.1c-0.3,0.2-0.6,0.2-0.9,0.1c-0.4-0.1-0.8-0.2-1.2-0.2c-0.1,0-0.1,0-0.2,0
			c-0.1,0-0.2,0.1-0.2,0c-0.2-0.1-0.2-0.2-0.2-0.4c0-0.2,0-0.4-0.2-0.5c-0.2-0.1-0.3,0-0.5,0c-0.1,0-0.2,0.1-0.3,0
			c-0.1,0-0.2-0.1-0.3-0.1c-0.1,0-0.2-0.1-0.3-0.1c-0.1,0-0.1,0-0.1,0.1c0,0.1,0,0.1,0,0.1c0.1,0.1,0.1,0.2,0.1,0.4
			c0,0.2,0,0.3,0.1,0.5c0,0.1,0.1,0.1,0.2,0.2c0.1,0.1,0.3,0.2,0.2,0.3c0,0.1,0,0.1,0,0.2c-0.1,0.4-0.1,1,0.2,1.3
			c-0.2,0-0.4,0-0.6,0c0,0,0,0-0.1-0.1c0-0.1-0.1-0.1-0.2-0.1l0,0c-0.1,0-0.1,0-0.2,0.1l-0.1,0.1c-0.1,0-0.1,0-0.2,0
			c-0.1,0-0.1,0-0.2,0s-0.1,0-0.2-0.1c-0.1-0.1-0.2-0.1-0.5,0c-0.1,0.1-0.3,0.2-0.4,0.2c0,0-0.2-0.1-0.4-0.3
			c-0.3-0.2-0.4-0.4-0.4-0.5v-0.1l-0.1-0.1c-0.4-0.1-0.7,0.1-1,0.3c-0.2,0.1-0.4,0.2-0.7,0.2c-0.4,0-0.9,0-1.3,0.1
			c-0.2,0-0.7,0.2-0.9,0.5c-0.1,0.1-0.1,0.3-0.1,0.4c0,0.1,0.1,0.1,0.1,0.2c0.1,0,0.1,0.1,0.2,0c0,0,0,0,0,0.1
			c0.1,0.2,0.3,0.2,0.5,0.3c0.1,0,0.2,0,0.2,0l0,0c-0.3,0-0.6,0-0.9,0.2c-0.1,0-0.1,0.1-0.1,0.2l0,0c0,0,0,0,0.1,0.1
			c0.4,0.1,0.7,0.3,0.9,0.6l0.1,0.1h0.1c0.3-0.3,0.6-0.2,1,0c0.3,0.1,0.6,0.3,0.9,0.2l0,0c0,0.1,0.1,0.1,0.2,0.1c0,0,0,0,0.1,0
			c0,0.1,0,0.1,0.1,0.2c0,0.1,0.1,0.2,0.1,0.2c0,0.1,0.1,0.1,0.1,0.1c0.1,0,0.1,0,0.1-0.1c0-0.1,0.1-0.2,0.2-0.2l0,0l0,0v0.1
			c0.2,0.3,0.6,0.2,0.8,0.2h0.1c0,0,0,0,0,0.1l-0.1,0.1c0,0,0,0.1,0,0.2c0.1,0.1,0.4,0.3,0.6,0.3h0.1l0,0c0,0.1,0,0.1-0.1,0.1v0.1
			l0.1,0.1c0.2,0,0.3,0.1,0.3,0.1s0,0.1-0.1,0.2v0.1c-0.1-0.1-0.1-0.2-0.4-0.1c0,0-0.1,0-0.1,0.1c0,0.1,0,0.1,0.1,0.1l0.1,0.1
			c0.1,0,0.1,0.1,0.2,0.1c0,0,0,0,0.1,0l0,0c0,0,0,0,0,0.1c0,0.3,0.2,0.4,0.4,0.6c0.1,0.1,0.2,0.2,0.3,0.3c0.1,0.3,0.6,0.6,1.1,0.7
			c0.1,0,0.3,0,0.4,0c0,0.2,0,0.5,0,0.8v-0.1c-0.1-0.1-0.3-0.2-0.5-0.1l-0.1,0.1v0.1c0.1,0.1,0.2,0.3,0.3,0.4H588
			c0,0-0.1,0.1,0.1,0.3c0.2,0.2,0.4,0.3,0.6,0.4c0.2,0.1,0.3,0.2,0.4,0.3c-0.2-0.2-0.3-0.3-0.5-0.4c-0.1,0-0.1,0-0.2,0.1
			c-0.4,0.8-0.5,1.7-0.5,2.6c0,0,0,0.1,0.1,0.1c-0.2,0.3-0.3,0.6-0.3,1c0,0.1,0,0.3-0.1,0.4c-0.1,0.8-0.3,1.8-1,2
			c-0.2,0-0.4,0-0.6,0s-0.4,0.1-0.4,0c-0.4-0.1-0.9-0.2-1.3-0.3c-0.3,0-0.4,0.1-0.5,0.1c-0.1,0.1-0.2,0.1-0.4,0
			c-0.4-0.3-1-0.4-1.5-0.2c-0.7,0.2-1.4,0.2-2.2,0.1c-0.6-0.1-1.2-0.2-1.7-0.4c-0.4-0.1-0.8-0.1-1.2,0c-0.2,0-0.4,0-0.7,0
			c-0.5-0.1-1.1-0.1-1.4,0.1c-0.1-0.3-0.6-0.3-0.9-0.4c-0.2,0-0.5-0.1-0.5-0.2c0,0,0-0.1-0.1-0.1H573c-0.1,0.1-0.2,0.1-0.3,0.2
			l-0.1-0.1c-0.2-0.1-0.5,0.1-0.7,0.2c-0.1,0.1-0.5,0.4-0.4,0.7c0,0,0,0.1,0.1,0.1c-0.2,0-0.3,0-0.5,0.1c-0.4,0-0.9,0.1-1.2,0.4
			c-0.1,0.1-0.1,0.1-0.2,0.1c-0.1,0.1-0.3,0.1-0.4,0.4c-0.1,0.2-0.1,0.4,0,0.5l0.1,0.1v0.1c0.1,0.2,0.2,0.3,0.3,0.3l0,0
			c-0.1,0.2-0.2,0.4,0,0.6l0.1,0.1c0,0,0.1,0,0.1-0.1l0,0c0,0,0,0,0,0.1c0,0.2,0.1,0.3,0.1,0.3l0,0c-0.1,0.1-0.2,0.2-0.2,0.3v0.1
			h0.1h0.1c-0.2,0.2-0.4,0.4-0.3,0.9l0,0c-0.1,0.2-0.2,0.4-0.1,0.5c0,0,0,0.1,0.1,0.1c-0.1,0.3,0,0.7,0.1,1.1v0.1
			c0.1,0.5,0,1-0.1,1.5v0.1c-0.1,0-0.1,0.1-0.2,0.2c0,0.2-0.1,0.3-0.1,0.5c-0.1,0.4-0.2,0.7-0.3,1.1c0,0.1-0.1,0.2-0.1,0.3
			c-0.2,0.6-0.5,1.4-1,1.4c0,0-0.1,0-0.1,0.1v0.1c0,0.1,0,0.1,0.1,0.2c0,0.1-0.1,0.3-0.2,0.6c-0.2,0.5-0.4,1-0.1,1.3
			c0.1,0.1,0.2,0.1,0.3,0.1s0.1,0,0.2-0.1c0,0.1,0,0.1,0,0.2s0,0.3-0.1,0.4v0.1c0,0,0.1,0.1,0.1,0c0.1,0,0.2,0,0.3-0.1
			c0.1,0,0.3-0.1,0.4-0.1c0,0.1,0,0.1,0.1,0.1c0.1,0.2,0,0.4,0,0.6c0,0.2-0.1,0.3-0.1,0.5c0,0.2,0,0.3,0.1,0.4c0,0.2,0.1,0.3,0,0.5
			c-0.1,0.2-0.1,0.4-0.2,0.6c0,0.2-0.1,0.4-0.1,0.5c-0.2,0.3-0.2,0.6-0.2,0.9c0,0,0,0.1,0.1,0.1c0,0,0,0,0.1,0h0.1
			c0.5-0.4,1.2-0.4,1.8-0.2c0.6,0.3,1.3,0.1,1.8-0.5l0.1,0.1c0.2,0,0.5,0,0.7,0c0.2,0,0.3,0,0.3-0.1c0.1,0.3,0.5,0.6,1,1l0.1,0.1
			c0,0.1-0.1,0.1-0.1,0.2c0,0.2,0,0.3,0.2,0.4c0,0,0,0,0.1,0s0.2,0.1,0.3,0.2l0,0c0,0-0.1,0-0.1,0.1v0.1c0.2,0.5,0.4,1,0.8,1
			c0.1,0,0.2,0.1,0.3,0.2c0.1,0.1,0.3,0.3,0.5,0.3l0,0c0.3,0,0.4-0.1,0.4-0.3c0,0.1,0.1,0.1,0.2,0.1l0,0c0.2,0,0.2-0.2,0.2-0.3v-0.1
			c0.1-0.1,0.1-0.2,0.2-0.3c0.1-0.1,0.2-0.3,0.3-0.4c0.2-0.1,0.3-0.1,0.5-0.1c0.3,0,0.6-0.1,0.8-0.3c0.2-0.2,0.5-0.4,0.8-0.4
			c0.9,0,1.7,0,2.6-0.1c0.2,0,0.3,0,0.5,0s0.5,0.1,0.7,0c0.1,0,0.2-0.1,0.2-0.1c0.2-0.1,0.3-0.2,0.5-0.1c0.2,0.2,0.4,0.2,0.5,0.1
			c0.4-0.1,0.7-0.8,0.7-1.1c0.3-0.6,0.8-1,1.4-1.1h0.1c0.5,0,0.9-0.1,1.1-0.3h0.1c0.1-0.1,0.1-0.1,0-0.2c0-0.1,0-0.1-0.1-0.2
			l-0.1-0.1c0-0.2,0.1-0.3,0.2-0.5c0.1-0.3,0.3-0.6,0.5-0.9c0.3-0.3,0.7-0.6,1.1-0.8c0.3-0.2,0.5-0.4,0.5-0.5c0-0.2-0.1-0.4-0.4-0.6
			c-0.1-0.1-0.1-0.1-0.2-0.2c-0.7-0.9-0.5-2.3,0.5-2.9c0.3-0.2,0.5-0.5,0.6-0.8c0.2-0.3,0.3-0.5,0.6-0.7c0.1,0,0.1-0.1,0.2-0.1
			c0.2-0.1,0.4-0.2,0.4-0.4c0-0.1-0.1-0.3-0.2-0.4c0.6-0.5,1.3-0.8,2-1c0.4,0,0.8-0.1,1.2-0.3c0.2-0.1,0.3-0.2,0.4-0.3
			c0.1-0.1,0.2-0.2,0.3-0.3c0.1,0,0.1,0,0.2-0.1c0.6-0.2,1.7-0.7,1.7-1.3c0-0.1,0-0.2,0-0.3c0-0.2-0.1-0.4,0-0.4c0,0,0.1,0,0.1-0.1
			c0.1,0,0.2-0.1,0.2-0.3v-0.1H598c-0.1,0-0.1,0-0.2-0.1l0,0l0,0v-0.1c-0.1-0.2-0.2-0.4-0.2-0.6c0-0.1,0-0.3-0.1-0.4
			c0,0,0-0.1-0.1-0.1c-0.1,0-0.1-0.1-0.1-0.1s0,0,0.1-0.1l0,0c0.1-0.1,0.1-0.3,0.1-0.4c0-0.1,0.3-0.4,0.9-0.6c0.1,0,0.1,0,0.1-0.1
			c0.1-0.1,0.3-0.1,0.4-0.2c0.2-0.2,0.5-0.3,0.7-0.3l0,0c0.1,0,0.3,0.1,0.4,0.1c0.2,0.1,0.3,0.1,0.5,0.1c0.2,0,0.3,0.1,0.4,0.1
			c0.1,0.1,0.2,0.1,0.3,0c0,0,0,0,0-0.1c0.1,0,0.2,0,0.4,0h0.1c0,0.2,0.3,0.2,0.5,0.2c0.1,0,0.3,0,0.3,0s0,0,0,0.1v0.1h0.1
			c0.3,0,0.4,0.1,0.7,0.1c0.2,0.1,0.4,0.2,0.7,0.2c0.1,0,0.2,0,0.3,0c0.2,0,0.3,0.1,0.6,0c0.3-0.1,0.6-0.2,0.9-0.3
			c0,0,0.1,0,0.1-0.1v-0.1l-0.1-0.1c0.6-0.3,1.1-0.7,1.6-1.2l0,0l0,0c0.1,0,0.1-0.1,0.2-0.1c0,0,0.1-0.1,0-0.2l0,0l0,0
			c0,0,0,0.1,0.1,0.1c0.3,0.2,1.2-0.3,1.2-0.3c0.3-0.2,0.6-0.6,0.9-0.9c0.7-0.9,1.8-0.4,2.4,0c0.3,0.2,0.5,0.3,0.7,0.4
			c0.5,0.2,0.9,0.4,1,1.1c0,0,0.1,0.2,0.2,0.7c0.1,0.4,0.4,1.2,0.4,1.3l0,0c0,0.1,0.1,0.1,0.1,0.1c0.2,0,0.7,0.4,1,0.8
			c0.2,0.3,0.2,0.5,0.2,0.6c0,0,0,0.1,0,0.2c0,0,0.1,0,0.2,0c0.1-0.1,0.3-0.1,0.4-0.1c0.3,0.1,0.6,0.4,0.8,0.6
			c0.2,0.3,0.3,0.4,0.5,0.5c0.1,0,0.2,0.1,0.3,0.2c0.2,0.1,0.4,0.4,0.5,0.6c0.1,0.2,0.3,0.4,0.4,0.5c0.2,0.2,0.4,0.3,0.6,0.4
			c0.2,0.1,0.4,0.2,0.5,0.3c0.1,0.1,0.1,0.1,0.2,0.2c0.1,0.2,0.2,0.1,0.4,0.1l0,0c0.2,0,0.4,0,0.6,0.1c0.2,0.1,0.3,0,0.4,0
			c0.2,0,0.3,0,0.5,0.2c0,0,0,0.1,0.1,0.1c0.2,0.3,0.4,0.8,0.8,0.8c0.2,0,0.3,0,0.3,0.1c0.1,0.1,0,0.3-0.1,0.4c0,0.1,0,0.1,0,0.2
			c0,0,0.1,0,0.2,0c0.1,0,0.1-0.1,0.2-0.1c0.2-0.1,0.4-0.1,0.6,0c0.2,0.1,0.4,0.2,0.5,0.4c0.1,0.1,0,0.2,0,0.3s0,0.2,0,0.3
			c0,0.3,0.2,0.3,0.4,0.4c0.1,0,0.1,0,0.2,0.1l0.1,0.1c0.1,0.2,0.4,0.4,0.7,0.2c0.2-0.1,0.2-0.2,0.4,0c0.2,0.2,0.3,0.5,0.4,0.8
			c0.1,0.2,0.1,0.5,0.3,0.7c0.2,0.3,0.3,0.7,0.4,1.1c0,0.1,0.1,0.2,0.2,0.3c0.1,0.2,0.2,0.3,0.2,0.5c0,0.1-0.1,0.1-0.2,0.1
			c-0.1,0-0.3,0.1-0.4,0.2c-0.1,0.1-0.1,0.3-0.1,0.4c0,0.1,0,0.1,0,0.1c0,0.2-0.1,0.3-0.3,0.5c0,0,0,0.1-0.1,0.1c0,0,0,0,0-0.1
			c-0.3-0.2-1,0.2-1.1,0.3c-0.1,0.1-0.2,0.1-0.3,0c-0.1,0-0.2-0.1-0.3-0.1l0,0c-0.2,0-0.4,0.1-0.7,0.2c-0.2,0.1-0.3,0.2-0.5,0.2
			c-0.2,0-0.4,0-0.6,0s-0.4,0-0.7,0.1s-0.5-0.1-0.8-0.3c-0.3-0.2-0.6-0.4-1-0.2c-0.1,0-0.1,0.1-0.2,0.1c-0.3,0.2-0.4,0.3-0.6-0.1
			L620,262c0,0-0.1,0-0.1,0.1s-0.1,0.2-0.2,0.3c-0.3,0.3-0.7,0.7-0.3,1.2c0.2,0.3,0.6,0.4,0.9,0.4l0,0l0,0c0.4,0,0.7,0.3,1.1,0.5
			c0.2,0.1,0.3,0.3,0.5,0.4c0.5,0.2,1.1,0.4,1.6,0.5c0.2,0.1,0.3,0.3,0.4,0.4c0.1,0.2,0.3,0.4,0.6,0.5c0.2,0.1,0.5,0.1,0.8,0.1
			c0.2,0,0.3,0,0.5,0c0,0,0.1,0,0.1-0.1v-0.1c-0.1-0.2,0-0.3,0.1-0.5c0.1-0.1,0.1-0.2,0.2-0.3c0.1-0.3-0.1-0.6-0.2-0.8
			c-0.1-0.1-0.2-0.2-0.2-0.3c-0.1-0.2,0.2-0.7,0.3-0.9c0.1-0.1,0.1-0.2,0.1-0.3c0.1-0.3,0.3-0.6,0.5-0.9c0,0.1,0,0.2,0,0.3
			c0.1,0.2,0.3,0.4,0.4,0.4h0.1c0.1,0,0.3,0,0.4-0.2c0.3-0.3,0.6-0.6,0.9-1c0.1-0.1,0.1-0.1,0.1-0.1c0.3-0.3,0.4-0.4,0.3-0.9
			c-0.1-0.5,0.2-0.6,0.6-0.7c0.4-0.1,0.8-0.2,0.8-0.7c-0.1-0.5-0.1-1-0.8-1.3c-0.1,0-0.1-0.1-0.2-0.1c-0.4-0.2-0.6-0.3-0.6-0.6
			c0.1-0.4,0.3-0.9,0.5-1.2c0.3-0.5,0.5-0.5,1-0.6c0.1,0.4,0.5,0.6,0.9,0.5c0.5,0,0.6,0.2,0.7,0.5c0.1,0.1,0.1,0.3,0.2,0.4
			c0.2,0.3,0.5,0.4,0.8,0.4c0.2,0,0.3-0.4,0.3-0.7v-0.1c0.1-0.6-0.3-0.9-0.7-1.3l-0.1-0.1c-0.3-0.3-0.7-0.5-1-0.6
			c-0.3-0.1-0.6-0.3-0.8-0.5c-0.6-0.4-1.2-0.7-1.9-0.9c-0.6-0.1-1.1-0.4-1.5-0.7v-0.1c0-0.1,0.2-0.2,0.3-0.3
			c0.2-0.1,0.3-0.2,0.3-0.4s0-0.3-0.1-0.4c-0.2-0.3-0.8-0.2-1.3-0.2l0,0c-0.5,0.1-1.1,0-1.5-0.3c-1-0.4-1.7-1.2-2.2-2.1
			c-0.2-0.7-0.5-1.4-0.9-2.1c-0.2-0.3-0.6-0.5-0.9-0.6c-0.2-0.1-0.3-0.2-0.5-0.2c-1-0.7-2.2-1.6-1.7-2.6c0.1,0.1,0.2,0,0.3,0
			c0.2-0.1,0.3-0.3,0.3-0.5s-0.2-0.4-0.4-0.5c-0.1-0.2-0.2-0.3-0.3-0.5c0.1-0.1,0.1-0.2,0.1-0.3v-0.1c0,0,0.1-0.1,0.2-0.1l0,0
			c0.1,0.2,0.9-0.2,0.9-0.2c0.2-0.1,0.4-0.2,0.6-0.3h0.1c0.1-0.1,0.4-0.3,0.5-0.2c0,0,0,0.1,0.1,0.1c0,0,0,0.1,0.1,0.1
			c0.1,0,0.1,0,0.1,0l0,0c0.5-0.2,0.6-0.1,0.6-0.1s0,0-0.1,0.2v0.1l0,0c-0.1,0-0.2,0.1-0.2,0.2c0,0-0.1,0-0.2,0h-0.1v0.1
			c0,0,0,0.1,0,0.2c0.1,0.3,0.2,0.8,0.4,0.9v0.1c0,0.4,0.4,0.9,0.6,1c0.1,0,0.1,0,0.2,0c0.2-0.2,0.3-0.4,0.3-0.6l0,0c0,0,0,0,0.1,0
			h0.1c0,0,0.1-0.1,0-0.1c0-0.1,0-0.2,0.1-0.4c0,0.1,0,0.3,0.1,0.4c-0.1,0.1-0.1,0.3,0,0.5c0,0.1,0.1,0.3,0.2,0.4h-0.1
			c0,0,0,0.1,0,0.2c0.2,0.2,0.3,0.3,0.4,0.5h0.1c0,0,0,0,0.1,0s0.1-0.1,0-0.2c-0.1-0.1-0.2-0.3-0.3-0.4h0.1l0,0h0.1v-0.1
			c-0.1-0.5-0.3-1-0.5-1.5l-0.1-0.1l0,0c0-0.1,0.1-0.1,0.1-0.2c0,0,0.1-0.1,0.1,0c0.1,0,0.2,0.1,0.3,0.1c-0.1,0.1-0.2,0.2-0.2,0.3
			c0,0.2,0.3,0.4,0.4,0.5l0,0c0.1,0,0.1,0.1,0.2,0.1c0.1,0,0.2-0.1,0.3-0.1c0,0.1,0.1,0.3,0.1,0.4c0,0.2,0.1,0.4,0.2,0.6
			c-0.1-0.1-0.2-0.2-0.3-0.3l0,0h0.1l0.1-0.1c0,0,0-0.1-0.1-0.1l-0.1-0.1l-0.1-0.1h-0.1c0,0-0.1,0-0.1,0.1c0,0.1,0,0.2,0,0.3h0.1
			v0.1c0.2,0.3,0.4,0.5,0.6,0.8c0.1,0.1,0.2,0.3,0.3,0.3c0,0-0.1,0-0.1,0.1v0.1c0.1,0.1,0.2,0.3,0.2,0.4c0,0,0,0-0.1,0
			c-0.1,0-0.1,0-0.1,0.1v0.1c-0.1-0.1-0.2-0.3-0.4-0.3l0,0c0,0,0.1-0.1,0-0.2c-0.1-0.1-0.2-0.2-0.3-0.2c-0.1,0-0.1,0-0.1,0.1
			c0,0.1,0,0.1,0,0.2c0.1,0.1,0.2,0.1,0.2,0.2c0,0,0,0,0.1,0h-0.1v0.1c0.1,0.1,0.1,0.1,0.2,0.2c0.1,0.2,0.3,0.3,0.5,0.4l0,0
			c0.1,0,0.1,0,0.1-0.1c0-0.1,0-0.1-0.1-0.1c-0.1,0-0.1-0.1-0.2-0.2c0,0,0,0,0.1,0.1l0.1,0.1c0,0,0,0,0.1,0h0.1l0,0
			c0.3,0.3,0.6,0.6,1,0.8c0.2,0.1,0.2,0.1,0.3,0.2c0,0.1,0.1,0.1,0.1,0.2c0.1,0.2,0.3,0.4,0.7,0.2l0,0c0,0,0,0,0.1,0h0.1
			c0.1,0,0.1,0,0.2,0l0,0c0.3,0,0.5,0.1,0.8,0.2c-0.2,0-0.4-0.1-0.5-0.1c-0.1,0-0.2,0-0.2,0v0.1c-0.1-0.1-0.2-0.1-0.2-0.1
			c-0.1,0-0.1,0-0.1,0.1c0,0.1,0,0.1,0.1,0.1l0.2,0.1c0,0,0,0,0.1,0h0.1l0,0c0.1,0.1,0.1,0.1,0.3,0.2c-0.1,0-0.2,0-0.3,0.1
			c-0.1,0-0.1,0.1-0.1,0.1c0,0.1,0,0.1,0.1,0.1c0.4,0.1,0.9,0.2,1.3,0.2c0.1,0,0.1,0,0.2,0c0,0,0,0,0.1,0c0.1,0,0.2,0,0.2-0.1
			c0.1,0,0.1-0.1,0.1-0.1c0.1,0.1,0.2,0.2,0.3,0.3c-0.2,0-0.4,0-0.6,0.1c-0.3-0.1-0.7,0-1,0.2l-0.1,0.1c0,0.1,0.1,0.1,0.1,0.1
			c0.2,0,0.3,0,0.5,0.1l0,0l0,0l0,0h0.1c0.1-0.1,0.2-0.1,0.3,0c0.1,0,0.2,0,0.4,0c0,0,0.1,0,0.1-0.1c0.1,0,0.2,0.1,0.3,0.1
			c0.1,0.1,0.2,0.1,0.3,0.2c0.1,0,0.2,0.1,0.4,0.1c0.2,0,0.4,0.1,0.5,0.2c0.4,0.4,0.9,0.7,1.4,0.9l0,0l0,0h0.1l0,0
			c0.3,0.2,0.6,0.4,0.8,0.6c0.3,0.4,0.6,0.7,1,0.9c0,0,0,0,0,0.1c0,0.1,0.1,0.1,0.1,0.1c0.1,0,0.2,0,0.2,0c0.1,0.1,0.1,0.2,0,0.5
			c0,0.2-0.1,0.4-0.2,0.6c-0.1,0.2,0,0.3,0.1,0.4c0.1,0.1,0.1,0.1,0,0.1c0,0.1,0,0.2,0,0.4c0,0.2,0,0.5-0.1,0.5h-0.1v0.1
			c0.1,0.2,0,0.5-0.1,0.6v0.1l0,0c0.1,0.1,0.2,0.2,0.3,0.3l0,0c0,0.1,0,0.1,0,0.2c-0.1,0-0.1-0.1-0.2-0.1c0,0-0.1,0-0.1,0.1v0.1
			c0.2,0.3,0.5,0.5,0.8,0.7c0.4,0.3,0.8,0.6,0.9,1c0,0.2,0.1,0.3,0.2,0.4l0,0c0,0,0,0.1,0.1,0.1c0.1,0,0.1,0,0.2,0.1
			c0.1,0.1,0.1,0.2,0.2,0.4c0.1,0.2,0.1,0.4,0.2,0.5c0.1,0.1,0.3,0.2,0.5,0.3c0.3,0.2,0.5,0.3,0.6,0.6c0,0.1-0.1,0.1,0,0.2l0,0
			c-0.1,0-0.2,0.1-0.3,0.2c-0.1,0.2-0.1,0.5,0.1,0.6c0.1,0,0.1,0.1,0.2,0.1s0.1,0,0.2-0.1c0.1-0.1,0.1-0.3,0.1-0.5
			c0.1,0.1,0.2,0.2,0.3,0.3c0.3,0.3,0.5,0.6,0.5,1c0,0,0,0.1,0.1,0.1h0.1c0.2-0.1,0.3-0.2,0.4-0.3c0.2,0.3,0.5,0.3,0.8,0.3l0,0
			l-0.1,0.1c-0.1,0.1-0.1,0.1-0.2,0.1s-0.3,0-0.4,0.1c-0.1,0.1-0.2,0.2-0.2,0.3c-0.1,0.2-0.2,0.3-0.4,0.4c0,0-0.1,0-0.1,0.1v0.1
			c0.1,0.1,0.3,0.3,0.5,0.5c0.4,0.3,1,0.9,0.9,1.1c-0.1,0.1-0.1,0.2-0.1,0.3c-0.1,0.3,0,0.6,0.1,0.9c0.2,0.3,0.4,0.5,0.7,0.5h0.1
			v-0.1c0-0.1-0.1-0.4,0-0.5c0,0,0-0.1,0.1-0.1c0.1,0,0.1,0,0.1,0.1s0.1,0.2,0.2,0.3c0.1,0.1,0.2,0.3,0.2,0.5
			c0.1,0.4,0.3,0.7,0.6,0.7c0,0,0.1,0,0.1-0.1V267c-0.1-0.2,0.1-0.8,0.2-0.8s0.2,0.1,0.2,0.2c0,0,0.8,0.9,1,0.9l0,0l0.1-0.1
			c0-0.2-0.1-0.3-0.2-0.4c-0.1-0.1-0.1-0.1-0.1-0.2c0-0.3,0-0.7-0.2-1c-0.1-0.2-0.2-0.4-0.3-0.6c-0.2-0.3-0.3-0.5-0.4-0.8
			c0.2,0.1,0.4,0.2,0.6,0.2c0,0,0.1,0,0.1,0.1s0.1,0.3,0.3,0.3c0.1,0,0.1,0,0.1-0.1c0.1-0.1,0.4-0.2,0.5-0.3l0,0c0,0,0.1,0,0.1-0.1
			c0.2-0.2-0.1-0.4-0.2-0.6c-0.1,0-0.1-0.1-0.1-0.1l-0.1-0.1c-0.1,0-0.1,0.1-0.1,0.1s0,0,0,0.1c-0.1-0.1-0.2-0.4-0.2-0.5
			c0-0.2-0.1-0.2-0.2-0.3c0.1,0,0.2-0.1,0.3-0.1s0.2-0.1,0.3-0.1c0,0.1,0,0.1,0,0.2v0.1h0.1c0.1,0,0.3,0,0.4-0.1v-0.1
			c0.3,0.1,0.5,0.3,0.7,0.5c0.1,0.1,0.2,0.2,0.4,0.4h0.1c0,0,0.1,0,0.1-0.1c0.1-0.2,0.1-0.5,0-0.7c0-0.1-0.1-0.3-0.1-0.4
			c0-0.3,0.1-0.7-0.3-0.9c-0.1,0-0.1-0.1-0.2-0.1c0.1,0,0.2,0,0.3,0c0.1,0.1,0.2,0.3,0.3,0.4c0.1,0.2,0.2,0.3,0.3,0.4
			c0,0,0.4,0.3,0.6,0.3c0.1,0,0.1,0,0.2,0c0.1-0.1,0.1-0.2,0-0.4c-0.1-0.2-0.3-0.3-0.5-0.4c-0.1,0-0.2-0.1-0.3-0.2
			c-0.1-0.1-0.1-0.3-0.1-0.5c0-0.3-0.1-0.6-0.4-0.8c-0.2-0.1-0.4-0.1-0.5-0.1c-0.2,0-0.5-0.1-0.6-0.2c-0.1-0.1-0.1-0.1-0.2-0.2
			c-0.1-0.2-0.3-0.5-0.7-0.5c-0.1,0-0.2,0.1-0.3,0.1l0,0c0.2,0,0.4-0.1,0.4-0.3c0.2-0.4-0.4-1.1-1-1.7c-0.1-0.1-0.2-0.2-0.2-0.3
			c-0.3-0.4-0.7-1.2-0.5-1.7c0.1-0.2,0.2-0.3,0.5-0.4l0,0l-0.1,0.1c0,0-0.1,0-0.1,0.1v0.1c0.1,0.2,0.4,0.3,0.6,0.4
			c0.2,0.1,0.5,0.2,0.5,0.4l0.1,0.1c0.2,0.4,0.4,0.9,1.1,0.6l0.1-0.1v-0.1c-0.1-0.1-0.2-0.1-0.3-0.2c-0.2-0.1-0.3-0.2-0.4-0.4
			c0-0.1,0-0.1-0.1-0.1c0,0,0,0,0.1,0c0.1,0,0.3,0.2,0.4,0.3c0.3,0.3,0.6,0.5,0.9,0.4c0.1,0,0.1-0.1,0.1-0.1c0-0.1-0.1-0.2-0.3-0.4
			c-0.1-0.1-0.4-0.4-0.4-0.5c0,0,0,0,0.2,0c0.1,0,0.3,0.2,0.5,0.3c0.3,0.2,0.6,0.5,0.8,0.3l0.1-0.1V256c0,0,0-0.1-0.1-0.1
			c-0.3-0.4-0.7-0.8-1-0.8l0,0c-0.1,0-0.2,0-0.2,0.1v-0.1c0-0.1,0.1-0.2,0-0.2c0-0.1-0.1-0.1-0.2-0.1c-0.1,0-0.1,0-0.1,0
			c-0.1-0.2-0.1-0.3-0.1-0.3s0,0,0.3,0.1c0.5,0.2,0.7-0.1,0.9-0.3c0.1-0.1,0.2-0.2,0.3-0.3c0.1,0,0.2,0,0.3,0.1
			c0.1,0,0.1,0.1,0.2,0.1c-0.2,0-0.3,0.1-0.4,0.2c-0.1,0.2,0.1,0.5,0.3,0.6l0,0l0,0c0.2,0,0.4-0.2,0.4-0.3c0-0.2,0-0.4-0.2-0.5
			c0.1,0,0.1,0,0.2-0.1c0.1-0.1,0.2-0.1,0.2-0.1c0.3-0.2,0.3-0.2,0.7-0.1c0.1,0,0.3,0.1,0.6,0.1s1.2,0.2,1.3,0.3v0.1h0.1
			c0.5-0.2,0.6-0.7,0.6-1c0.1-0.4,0.1-0.7,0.6-0.8c0,0,0.1,0,0.1-0.1v-0.1c0-0.1,0-0.1-0.1-0.2c-0.1-0.3-0.2-0.6-0.5-0.7
			c0,0-0.1,0-0.2-0.1l0,0c0,0,0.1-0.1,0.2-0.1c0.1,0,0.2-0.1,0.3-0.1c0.1-0.1,0.1-0.2,0.1-0.3c0,0,0.1,0,0.2,0
			c0.4-0.1,0.7-0.2,1-0.3c0.2-0.1,0.3,0,0.4,0.1c0.1,0.1,0.2,0.2,0.4,0.2c0.2,0.1,1,0.1,1.2-0.2c0.1-0.1,0.1-0.2-0.1-0.5
			c-0.1-0.1-0.2-0.3-0.3-0.4c-0.2-0.3-0.4-0.5-0.7-0.6l0,0c0.1,0,0.2-0.1,0.3-0.2l0.1-0.1c0.1-0.1,0.1-0.2,0.2-0.3
			c0.1-0.2,0.1-0.5,0.1-0.7s0-0.3,0.1-0.5c0.2-0.5,0.4-0.8,0.9-0.7c0.2,0,0.4,0,0.5-0.1c0.2-0.2,0.1-0.4,0.1-0.7l0,0
			c0-0.1,0-0.1-0.1-0.2l0,0c0.2-0.3,0.1-0.6,0.1-0.9c0-0.2-0.1-0.4,0-0.5c0-0.2,0.1-0.3,0.3-0.5c0.1-0.1,0.3-0.3,0.3-0.5v-0.1h0.1
			c0.1,0,0.1-0.1,0.1-0.1l0,0c0.6,0,1-0.2,1.3-0.5c0.2-0.2,0.2-0.6,0.2-0.9c0.1-0.1,0.2-0.2,0.2-0.4c0-0.2-0.1-0.4-0.3-0.5l0.1-0.1
			l0,0h0.1c0,0,1.3-0.7,1.4-1.3c0,0,0,0,0.1,0c0.2-0.2,0.3-0.5,0.4-0.7c0.2-0.4,0.3-0.7,0.8-0.8c0.1,0,0.1,0,0.2,0
			c0.2,0,0.4,0.1,0.6-0.1v-0.1v0.1l0,0v0.1c0.2,0.2,0.5,0.3,0.8,0.4c0.1,0,0.1,0,0.2,0c-0.1,0-0.2,0.1-0.3,0.1
			c-0.1,0-0.1,0.1-0.1,0.2c0,0.1,0.1,0.1,0.2,0.1c0.3-0.1,0.6,0.1,0.9,0.3c0.1,0,0.1,0.1,0.2,0.1c0.4,0.2,0.8,0.2,1.2,0.2
			c0.1,0,0.3,0,0.4,0c0.3,0,0.6-0.1,0.8,0c0.4,0.2,0.4,0.2,0.7,0.1c0,0.1,0.1,0.2,0.2,0.3l0.1,0.1c-0.2,0.2-0.8,0.3-1.1,0.4
			c-0.2,0-0.3,0.1-0.4,0.1c-0.1,0-1.1,0.6-1,1c0,0.1,0,0.2,0.2,0.2c0.1,0,0.3,0,0.4,0c0.2,0,0.4,0,0.5,0.1c0.3,0.2,0.7,0.4,1,0.4
			c0.2,0,0.3,0.2,0.3,0.3c0.1,0.4,0.1,0.8-0.1,1c0,0.1-0.1,0-0.1,0h-0.1v0.1c0.2,0.4,0.5,0.6,0.9,0.6h0.1c0.7,0,1.3-0.6,1.6-0.9
			c0.2-0.3,0.5-0.3,0.9-0.3c0.1,0,0.2,0,0.3,0c0.2,0,0.4-0.2,0.5-0.3c0.1-0.1,0.2-0.2,0.3-0.2c0.1,0,0.1-0.2,0.2-0.2
			c0-0.1,0-0.1,0.1-0.1c0.1,0,0.3,0.1,0.5,0.1l0,0c0.3,0.2,0.6,0.2,0.9,0.2h0.1c0.3,0,0.7-0.1,0.7-0.5c0-0.3,0-0.4,0.3-0.4
			c0,0,0.1,0,0.1-0.1v-0.1c-0.3-0.3-0.9-0.5-1.3-0.3l0,0c-0.3,0.1-0.4,0.2-0.6,0h-0.1c0,0-0.1,0-0.1,0.1c-0.1,0.2-0.2,0.3-0.3,0.4
			c-0.4,0.1-1.1-0.7-1.4-1.2c-0.4-0.5-0.6-0.9-0.5-1.1c0-0.1,0-0.1,0.1-0.1c0.1,0,0.1-0.1,0.2-0.1c0.1-0.1,0.3-0.1,0.4-0.3
			c-0.1,0.1-0.2,0.3-0.3,0.4c-0.1,0.1-0.2,0.2-0.2,0.3v0.1h0.1c0.5-0.1,0.7-0.5,0.9-0.8s0.4-0.6,0.8-0.7c0.2-0.1,0.3-0.1,0.5-0.1
			s0.5,0,0.8-0.2c0.2-0.2,0.5-0.1,0.7,0.1c0,0,0.1,0.1,0.1,0c0,0,0.1,0,0.1-0.1c0.1-0.3,0.5-0.6,0.8-0.6l0,0c0.2,0,0.3-0.1,0.4-0.3
			c0.1-0.1,0.2-0.2,0.3-0.2c0.1,0,0.3,0,0.5,0c0.3,0,0.6,0,0.8-0.1c0.2-0.1,0.2-0.3,0.2-0.4c0-0.1,0-0.1,0.1-0.2c0,0,0.1-0.1,0-0.1
			l-0.1-0.1h-0.1c0-0.1,0-0.2,0-0.4v-0.1c0-0.1,0.2-0.2,0.3-0.2h0.1c0.2-0.1,0.3-0.2,0.4-0.3c0.1-0.1,0.1-0.2,0.2-0.2
			c0.1-0.1,0.2,0,0.3,0c0.1,0,0.2,0,0.4,0c0.1,0,0.3,0,0.5,0c0.3,0,0.8,0.1,1-0.3c0.2-0.4,0.3-0.7,0.3-1.1
			C680.3,234.8,680.3,234.8,680.2,234.7z M662.2,239.6c0.2,0,0.4,0,0.5-0.1c0,0,0,0,0-0.1l0,0c0.1,0.1,0.3,0.2,0.5,0.2
			c-0.4,0.1-0.9,0-1.3-0.1C662.1,239.6,662.1,239.6,662.2,239.6z M656.5,244.9C656.4,244.9,656.4,244.9,656.5,244.9
			c-0.1-0.1-0.1-0.2,0-0.3c0-0.2,0-0.4,0.1-0.4l0,0l0,0c0.1,0.1,0,0.4-0.1,0.5S656.4,244.8,656.5,244.9
			C656.4,244.9,656.4,244.9,656.5,244.9z M622.5,219.6c0.1,0,0.2,0,0.2,0s0,0,0-0.1c0.1,0,0.2,0.1,0.2,0.1c0,0.1,0,0.1,0,0.2
			c-0.2,0-0.4-0.1-0.5,0c-0.1-0.1-0.2-0.1-0.3-0.2H622h-0.1c0.1,0,0.2,0,0.3-0.1C622.4,219.6,622.4,219.6,622.5,219.6z M637.1,215.7
			C637.1,215.8,637.1,215.8,637.1,215.7c0.1,0.1,0.1,0,0.1,0c0.1,0,0.2,0,0.3,0c0,0.1,0,0.1,0,0.2c0,0.2,0,0.4-0.1,0.5
			c-0.1,0.1-0.3,0-0.6,0c-0.1,0-0.3,0-0.4-0.1C636.6,216.1,636.8,215.9,637.1,215.7z M638.8,261.1c0.2-0.1,0.5,0,0.5,0l0.1,0.1
			c-0.1,0-0.3,0-0.4,0S638.8,261.2,638.8,261.1C638.8,261.2,638.8,261.1,638.8,261.1z M611.5,211.6c-0.1,0-0.2-0.1-0.3-0.1l0,0
			c-0.1,0-0.1,0-0.2,0c0.1-0.2,0.1-0.3,0.1-0.5l0,0c0.1,0,0.2-0.1,0.3-0.1c0.1,0,0.2,0,0.3,0C611.5,211.1,611.5,211.4,611.5,211.6z
			 M610.4,212C610.5,212,610.5,212,610.4,212C610.5,212,610.5,212,610.4,212h0.2C610.6,212,610.6,212.1,610.4,212
			c0.1,0.2,0,0.3,0,0.3s0,0-0.1-0.2l0,0C610.4,212,610.4,212,610.4,212C610.4,211.9,610.4,212,610.4,212z M657.8,242.3
			C657.9,242.3,657.9,242.3,657.8,242.3C657.8,242.4,657.8,242.4,657.8,242.3L657.8,242.3z M635.5,217.3c0,0-0.1,0-0.2,0
			c-0.1,0-0.2,0-0.4,0.1c-0.1,0.1-0.2,0.2-0.3,0.2c0,0.1-0.1,0.1-0.1,0.1l0,0c0.1-0.1,0.1-0.2,0.2-0.2c0.1-0.1,0.2-0.3,0.3-0.3
			C635.1,217.3,635.3,217.3,635.5,217.3z M607.3,221.1L607.3,221.1C607.2,221.2,607.2,221.1,607.3,221.1
			C607.3,221.1,607.3,221.1,607.3,221.1z M642.6,263.1l0.1-0.1c0.1,0.1,0.2,0.2,0.2,0.3l0.1,0.1c0,0,0.1,0,0.1-0.1s0.1-0.1,0.1-0.1
			s0.1,0,0.1,0.1c0.1,0.1,0.1,0.1,0.2,0.2c0.2,0.1,0.5,0.2,0.7,0.1h0.1c0,0-0.1,0.1-0.2,0.1c-0.1,0.1-0.2,0.1-0.2,0.2
			c-0.1,0.1-0.2,0.2-0.2,0.1c-0.3-0.2-0.6-0.4-1-0.5c-0.2,0-0.4-0.1-0.6-0.3c0,0-0.1,0-0.1-0.1C642.2,263.2,642.4,263.3,642.6,263.1
			z M644.9,262.4c-0.1,0-0.1,0-0.2-0.1c0-0.1,0-0.1,0-0.3c-0.1-0.2-0.3-0.1-0.4-0.1h-0.1c-0.1-0.1-0.2-0.2-0.4-0.3
			c0.1-0.1,0.4,0,0.8,0.2c0.3,0.2,0.6,0.5,0.6,0.7C645.1,262.6,645,262.5,644.9,262.4z M643.7,261.6
			C643.6,261.6,643.6,261.6,643.7,261.6c-0.1,0.1-0.1,0-0.1,0S643.7,261.5,643.7,261.6C643.7,261.5,643.7,261.6,643.7,261.6z
			 M658.9,240.4L658.9,240.4c0.1,0,0.1,0.1,0.2,0.1C659,240.5,659,240.4,658.9,240.4z M609.5,213.7
			C609.5,213.7,609.5,213.6,609.5,213.7c0-0.1,0-0.2,0-0.2c0.1,0.1,0.3,0.3,0.3,0.4c0,0,0,0.1-0.1,0.1l0,0
			C609.7,214,609.5,213.8,609.5,213.7L609.5,213.7z M569,262.7L569,262.7L569,262.7L569,262.7z M568.6,261.6c0,0.1,0.1,0.2,0,0.2
			c0,0,0,0-0.1,0s-0.2,0.1-0.2,0.2h-0.1C568.4,261.9,568.5,261.7,568.6,261.6z M625.3,246L625.3,246c0.1,0,0.1,0,0.1,0
			C625.3,246,625.2,246,625.3,246C625.2,246.1,625.3,246.1,625.3,246z M644,260.8c-0.1,0-0.1,0.1-0.1,0.1l0,0l0,0c0,0-0.1,0-0.1-0.1
			c-0.1-0.1-0.2-0.4-0.2-0.5s0.1-0.1,0.1-0.1s0,0,0.1,0c0.1,0,0.3,0.2,0.4,0.3C644.2,260.7,644.1,260.8,644,260.8z M612.9,216.8
			L612.9,216.8c0.1,0,0.1,0,0.2,0C613,216.8,613,216.8,612.9,216.8z M609.4,220.4C609.4,220.5,609.4,220.5,609.4,220.4
			C609.4,220.5,609.4,220.5,609.4,220.4C609.4,220.5,609.4,220.5,609.4,220.4z M588.1,241.8L588.1,241.8L588.1,241.8v-0.1
			C588.1,241.7,588.1,241.8,588.1,241.8z M629.2,249.2c-0.1,0-0.2,0-0.3-0.1c0.1,0,0.3-0.1,0.3-0.2c0,0,0,0,0-0.1
			c0.2,0.1,0.4,0.3,0.6,0.4C629.6,249.3,629.4,249.2,629.2,249.2z M670.3,240.3v-0.1l0,0C670.3,240.3,670.3,240.3,670.3,240.3
			L670.3,240.3z"/>
		<path d="M617.9,267.3C617.8,267.3,617.8,267.3,617.9,267.3c-0.1,0.1-0.1,0.2-0.1,0.2l0.2,0.2l0.1,0.1l0,0c0,0,0.1,0,0.1-0.1
			s0.2-0.2,0.1-0.3C618.2,267.3,618,267.3,617.9,267.3z"/>
		<path d="M612.5,255.6L612.5,255.6c0.1-0.1,0.1-0.1,0.1-0.2l-0.1-0.1c-0.1,0-0.1,0-0.1,0s0,0,0-0.1v-0.1h-0.1c-0.1,0-0.1,0-0.2-0.1
			c-0.1-0.1-0.1-0.1-0.2-0.2c-0.3-0.2-0.6,0.1-0.8,0.2l-0.2,0.2c-0.3,0.3-0.8,0.7-1.2,0.7c-0.2,0-0.3-0.1-0.4-0.2c0,0-0.1-0.1-0.1,0
			l-0.1,0.1c0,0.1,0,0.2,0,0.3c0,0.2,0,0.4,0.1,0.7c0.1,0.1,0.2,0.3,0.3,0.4c0,0.2,0.1,0.3,0.1,0.4c0.1,0.1,0.1,0.2,0.1,0.3
			s0,0.2-0.1,0.2c-0.1,0.1-0.1,0.3-0.1,0.4c0,0.2,0.2,0.2,0.2,0.3c0.1,0,0.1,0,0.1,0c0,0.1,0,0.1,0,0.2l-0.1-0.1h-0.1l-0.1,0.1
			c0,0.4-0.1,0.9-0.1,1.3c0,0.1,0,0.2,0.1,0.3c0,0.1,0,0.2,0,0.2s0,0-0.1,0.1c0,0-0.1,0-0.1,0.1v0.1c0.1,0.1,0.1,0.2,0.2,0.3
			c0.1,0,0.1,0,0.2,0l0.1-0.1c0.1,0.2,0.2,0.3,0.5,0.3c0.1,0,0.1,0,0.2,0h0.1c0.4,0,0.5-0.4,0.5-0.6c0-0.1,0-0.2,0.1-0.2
			s0.2,0.1,0.3,0.1c0.2,0.1,0.5,0.2,0.7,0c0.3-0.2,0.3-0.8,0.3-1.1c0-0.1,0-0.1,0-0.1c0-0.1,0-0.3,0.1-0.4c0.1-0.5,0.2-1-0.1-1.3
			c-0.1-0.1-0.1-0.2,0.1-0.4c0.1-0.1,0.2-0.2,0.2-0.3c0.1-0.3,0-1-0.3-1.4C612.6,255.7,612.5,255.6,612.5,255.6z"/>
		<path d="M614.2,250.1c-0.1,0.1-0.2,0.1-0.4,0.1c-0.1,0-0.2,0-0.3,0.1l-0.1,0.1v0.1c0.1,0.1,0.3,0.1,0.5,0.1c0.1,0,0.2,0,0.3,0.1
			c0,0,0,0,0.1,0c0,0,0,0,0.1,0l0.1-0.1c0-0.2,0-0.3,0-0.5c0,0,0-0.1-0.1-0.1C614.3,250,614.2,250,614.2,250.1z"/>
		<path d="M610.2,217.4C610.3,217.4,610.3,217.4,610.2,217.4C610.3,217.4,610.3,217.4,610.2,217.4c0.1-0.2,0.2-0.4,0-0.4
			c-0.1-0.1-0.3,0.1-0.4,0.2v0.1c0,0,0,0.1,0.1,0.1C610.1,217.3,610.2,217.3,610.2,217.4z"/>
		<path d="M625.2,247.2c0,0,0,0.1,0,0.2c0.1,0.2,0.3,0.3,0.6,0.4l0,0c0,0,0.1,0,0.1-0.1c0,0,0-0.1,0-0.2c-0.2-0.2-0.3-0.3-0.5-0.4
			C625.3,247.2,625.3,247.2,625.2,247.2z"/>
		<path d="M626.1,247.8c0,0.1,0,0.1,0,0.2c0.1,0.1,0.2,0.1,0.3,0.1l0,0c0.1,0,0.1,0,0.1-0.1c0-0.1,0-0.1-0.1-0.2l-0.3-0.1
			C626.2,247.7,626.1,247.8,626.1,247.8z"/>
		<path d="M630.3,250.5c0,0.1,0,0.1,0.1,0.1c0.2,0,0.5,0.1,0.7,0.2l0,0c0,0,0.1,0,0.1-0.1c0-0.1,0-0.1,0-0.2
			c-0.2-0.2-0.5-0.2-0.8-0.2C630.3,250.4,630.3,250.4,630.3,250.5z"/>
		<path d="M613.9,216.4h-0.1c-0.1,0-0.1,0-0.2,0c0,0,0,0.1,0,0.2c0.1,0.2,0.3,0.3,0.5,0.4c0,0,0,0,0.1,0l0,0l0.1-0.1
			C614.4,216.6,614.1,216.4,613.9,216.4z"/>
		<path d="M614.3,214.1c0,0-0.1,0.1,0,0.1c0,0,0,0.1,0.1,0.1h0.1c0.1,0,0.3-0.1,0.3-0.2c0-0.1,0-0.1,0-0.2c0-0.1-0.1-0.1-0.1-0.1
			s-0.1,0-0.1-0.1c0-0.1-0.1-0.1-0.1-0.2c0,0-0.1,0-0.2,0c0,0-0.1,0.1,0,0.1c0,0.1,0.1,0.1,0.1,0.2C614.4,214,614.4,214,614.3,214.1
			L614.3,214.1z"/>
		<path d="M615.7,210C615.7,210,615.6,210,615.7,210c-0.3-0.1-0.5,0-0.7,0.2v0.1c0,0,0,0.1,0.1,0.1h0.1c0.1,0,0.1,0,0.2,0l0,0
			c0,0,0,0,0.1,0S615.7,210.3,615.7,210C615.7,210.1,615.7,210.1,615.7,210z"/>
		<path d="M623.4,215.7c-0.1,0.1-0.2,0.1-0.2,0.3c0,0.1,0,0.2,0.2,0.3c0.2,0.1,0.3,0.2,0.5,0.2c0.1,0,0.2,0,0.3-0.1
			c0.1-0.1,0.2-0.2,0.2-0.4c0-0.1-0.2-0.2-0.3-0.3C623.8,215.6,623.6,215.6,623.4,215.7z"/>
		<path d="M577.1,209.6c0.1,0,0.1,0,0.1,0S577.2,209.7,577.1,209.6c0,0.1,0,0.2,0,0.2s0,0.1,0.1,0.1l0,0c-0.2,0.1-0.2,0.5-0.2,0.7
			c0.1,0.2,0.2,0.3,0.4,0.3h0.1c0.1,0,0.1-0.1,0.1-0.1c0-0.1,0-0.1-0.1-0.1s-0.1,0-0.1-0.1c0-0.1,0.1-0.2,0.2-0.2c0,0,0.1,0,0.1-0.1
			v-0.1c0-0.1-0.1-0.2-0.1-0.2l0,0c0,0,0-0.1,0-0.2l0,0c0,0,0.1,0,0.1-0.1l0.1-0.1c0.1-0.1,0.2-0.2,0.2-0.4c0,0,0-0.1-0.1-0.1
			c-0.2,0-0.5-0.1-0.8,0.1C577,209.3,577,209.4,577.1,209.6C577,209.5,577,209.6,577.1,209.6z"/>
		<path d="M577.8,212.4L577.8,212.4c0,0.1,0,0.2,0,0.2s0,0,0.1,0h0.1c0.1-0.1,0.2-0.2,0.3-0.2l0.1-0.1c0,0,0,0,0.1,0l0,0
			c0.2-0.1,0.4-0.2,0.5-0.4v-0.1c0,0-0.1-0.1-0.1,0c-0.2,0.1-0.4,0.2-0.5,0.4v0.1l0,0C578.1,212,577.9,212.2,577.8,212.4z"/>
		<path d="M577.8,208.3c0,0.1,0,0.1,0.1,0.1c0.1,0,0.2,0,0.2,0.1c-0.1,0.1-0.2,0.1-0.3,0.2c-0.1,0-0.1,0.1,0,0.2
			c0.1,0.1,0.2,0.2,0.3,0.2c0,0,0,0,0.1,0c0.2,0,0.5-0.3,0.6-0.5c0.2,0.1,0.3,0,0.4,0c0.2-0.1,0.3-0.3,0.3-0.5
			c0.2-0.1,0.5-0.2,0.5-0.4v-0.1c0.1-0.1,0.2-0.2,0.2-0.3c0-0.1,0-0.2-0.1-0.3c-0.1,0-0.2-0.1-0.5,0.1c-0.1,0.1-0.2,0.1-0.4,0.2
			c-0.1,0-0.2,0.1-0.4,0.2c-0.2,0.1-0.2,0.2-0.2,0.3l0,0v-0.1h-0.1c-0.2,0-0.4,0.1-0.5,0.3v0.1c0,0,0,0.1,0.1,0.1
			c0.1,0.1,0.1,0.1,0.1,0.1s0,0-0.1,0C577.9,208.2,577.8,208.3,577.8,208.3z"/>
		<path d="M580.9,208.6L580.9,208.6L580.9,208.6c-0.2,0-0.3,0.1-0.3,0.3c0,0.1,0,0.3,0,0.5c-0.1,0-0.1,0-0.2,0
			c-0.1,0-0.1,0.1-0.1,0.1c0,0.2,0,0.3,0.1,0.4c0.1,0.1,0.1,0.1,0.2,0.1c0,0-0.1,0-0.1,0.1l0,0c-0.2,0.1-0.3,0.1-0.4,0
			c0,0,0-0.1-0.1-0.1c0.1-0.1,0.1-0.3,0.1-0.5c0-0.1,0-0.1-0.1-0.1h-0.1c0,0-0.1,0.1-0.1,0.2c-0.1-0.3-0.1-0.5-0.4-0.6
			c-0.1,0-0.1,0-0.2,0.1c0,0.1-0.1,0.2-0.1,0.4c-0.2,0-0.3,0-0.4,0.1c-0.1,0-0.1,0.1-0.2,0h-0.1v0.1c0,0.1,0,0.2,0.1,0.3
			c0.1,0.1,0.3,0.1,0.4,0.1l0,0v0.1c0,0.2,0.4,0.4,0.6,0.4l0,0c0.1,0,0.2,0,0.3,0h0.1c-0.1,0.1-0.1,0.2-0.1,0.3
			c0,0.1,0.1,0.1,0.1,0.1l0,0l0,0l0,0c0.1,0,0.3-0.1,0.4-0.2l0,0c-0.1,0.1-0.2,0.2-0.2,0.4v0.1l-0.1,0.1c-0.3-0.1-0.6,0-0.8,0.2
			c0,0-0.1,0.1,0,0.1c0,0,0,0.1,0.1,0.1c0.1,0,0.3,0,0.4,0l0,0c0,0,0,0-0.1,0c-0.3-0.1-0.6,0-0.7,0.3v0.1l0.1,0.1
			c0.1,0,0.2,0,0.3,0.1c-0.1,0.1-0.2,0.2-0.1,0.3c-0.1,0-0.1,0.1-0.1,0.1v0.1l0.1,0.1l0,0c0.4-0.1,0.8-0.2,1.2-0.3
			c0.1,0,0.1-0.1,0.1-0.1c0-0.1-0.1-0.2-0.1-0.2c0.2,0,0.3-0.1,0.5-0.2l0,0c0,0,0,0.1,0.1,0.1l0,0l0,0l0,0c0,0,0,0-0.1,0
			c-0.1,0.1-0.2,0.2-0.3,0.2c-0.1,0.1-0.1,0.3-0.1,0.4v0.1c0,0-0.1,0.2-0.2,0.3c-0.2,0.3-0.2,0.3-0.1,0.4l0,0c0,0.1,0,0.1,0,0.2
			c0,0.1,0.1,0.2,0.1,0.2c-0.1,0.1-0.2,0.3-0.2,0.4c-0.1,0.2-0.1,0.3-0.2,0.4c-0.1,0.1-0.1,0.2,0,0.3c0.1,0.1,0.2,0.2,0.4,0.1
			c0.2,0,0.3-0.2,0.3-0.4c0-0.1,0.1-0.2,0.2-0.4c0.1,0.3,0.2,0.5,0.5,0.5c0,0,0,0,0.1,0c0.2-0.1,0.3-0.4,0.3-0.6
			c-0.1-0.3-0.2-0.4-0.5-0.4h-0.1c0-0.1,0-0.2,0-0.2l0.1,0.1c0.1,0,0.1,0,0.2,0c0.1,0.1,0.2,0.2,0.3,0.3h0.1c0,0,0.1,0,0.1-0.1
			c0-0.1,0-0.2,0-0.3c0,0,0,0,0.1,0l0,0c0,0.3,0.1,0.4,0.2,0.5c0.1,0.1,0.1,0.1,0.2,0.3c0.1,0.2-0.1,0.4-0.4,0.7
			c-0.2,0.2-0.5,0.4-0.5,0.7c-0.1,0-0.1-0.1-0.2-0.1c-0.1,0-0.1,0.1-0.2,0.1c-0.1,0.3,0.3,0.7,0.5,0.9l0.1,0.1c0,0,0.1,0.1,0.2,0
			c0.1,0,0.1-0.1,0.1-0.1c-0.1-0.2-0.1-0.3,0-0.4c0,0,0.1-0.1,0.4,0.1c0.2,0.1,0.4,0.2,0.5,0.1c0.1-0.1,0.1-0.1,0.1-0.3
			c0.4,0.3,0.7,0.2,1.1,0.1c0.1,0,0.1,0,0.2-0.1l0,0c0.1,0,0.4-0.1,0.4-0.3c0.2,0,0.4,0,0.5,0l0,0l0,0c-0.3,0.1-0.6,0.3-0.8,0.7
			c-0.1,0.3,0,0.9,0.3,1.2c0.1,0.1,0.2,0.1,0.3,0.1c0,0.1,0.1,0.3,0.2,0.4h0.1c0,0,0.1,0,0.1-0.1c0.1-0.1,0.1-0.2,0.2-0.3
			c0,0,0,0,0.1,0c0.1,0,0.1,0,0.2,0l0,0c0,0.1-0.1,0.2-0.2,0.3c-0.2,0.2-0.3,0.5-0.2,0.7l0.1,0.1c-0.2,0.2-0.2,0.5-0.1,0.7
			c-0.1,0-0.2,0-0.3,0c-0.1,0.1-0.1,0.1,0,0.2c-0.4-0.2-0.9,0-1.3,0c-0.2,0-0.4,0.1-0.6,0.1c0-0.1,0-0.2-0.1-0.3
			c-0.2-0.2-0.7-0.3-0.9-0.2c-0.1,0.1-0.2,0.3-0.2,0.4c0,0.2,0.2,0.3,0.4,0.4h0.1c-0.1,0.1-0.2,0.1-0.3,0.2
			c-0.2,0.2-0.5,0.4-0.7,0.6v0.1l0.1,0.1c0.2,0,0.5-0.1,0.7-0.2c0.2-0.1,0.4-0.2,0.6-0.1c0,0.2,0,0.3,0.1,0.4
			c-0.1,0.1-0.1,0.2-0.1,0.3s0.1,0.1,0.1,0.2c-0.1,0.1-0.1,0.2-0.1,0.3v0.1c-0.2,0.2-0.4,0.4-0.7,0.5c-0.1,0.1-0.3,0.1-0.4,0.1
			c-0.5,0.2-1.1,0.3-1.4,0.7v0.1c0,0,0,0.1,0.1,0.1c0.1,0,0.1,0.1,0.1,0.1s0,0.1-0.1,0.1v0.1c0,0,0,0.1,0.1,0.1c0,0,0,0,0,0.1
			c0.4,0.5,1.2,0.1,1.7-0.2c0,0.1,0.1,0.1,0.1,0.1s0,0,0.1,0l0,0c0,0.2,0.1,0.3,0.2,0.3c0.2,0.1,0.4,0,0.5-0.1h0.1
			c0.1-0.1,0.2,0,0.4,0.2c0.1,0.1,0.2,0.3,0.4,0.3c0.4,0.2,0.7,0,0.9-0.1c0.1-0.1,0.2-0.2,0.4-0.2c0.1,0,0.2-0.1,0.4-0.1
			c-0.2,0.2-0.4,0.3-0.6,0.5c-0.1,0.1-0.1,0.2-0.1,0.2l0,0l0,0c-0.3,0-0.5,0-0.8,0c-0.5-0.2-1-0.2-1.5,0c-0.1,0.1-0.2,0.2-0.3,0.3
			c-0.1,0.1-0.1,0.2-0.2,0.2c-0.1,0-0.1,0-0.2,0c0,0-0.1-0.1-0.2,0c-0.1,0-0.1,0.2-0.2,0.4c0,0.1-0.4,0.7-0.6,0.9
			c-0.1,0-0.1,0-0.1,0c-0.2-0.1-0.3,0-0.4,0.2c-0.1,0.2-0.4,0.4-0.7,0.5h-0.1c-0.2,0.1-0.5,0.2-0.7,0.4c-0.1,0.1-0.1,0.2,0,0.3
			c0.1,0.1,0.1,0.2,0.3,0.2c0.1,0,0.1,0,0.2-0.1c0.1,0,0.3-0.1,0.4-0.1l0.1,0.1l0,0c0,0,0,0.1,0.1,0.1h0.1c0.3,0,0.5-0.3,0.8-0.5
			c0.1-0.1,0.1-0.2,0.2-0.2c0.2-0.1,0.4-0.1,0.6-0.2c0.3,0,0.6-0.1,0.8-0.2c0.2,0.3,0.7,0.5,0.9,0.5c0.1,0,0.3,0,0.4-0.2
			c0.2-0.2,0.4-0.7,0.5-1c0.2,0.1,0.5-0.1,0.7-0.1h0.1c0.5-0.1,0.9,0,1.3,0.4c0,0,0.1,0.1,0.1,0l0.1-0.1v-0.1c0.1,0,0.2,0,0.3,0h0.1
			c0.1,0,0.6,0,0.7-0.2l0,0c0.3,0,0.6,0,0.8-0.1l0,0v0.1c0,0,0,0.1,0.1,0.1c0.2,0.1,0.3,0.1,0.4,0.2c0,0,0,0,0.1,0l0,0
			c0.2,0,0.5-0.2,0.6-0.4v-0.1c0,0,0-0.1-0.1-0.1c-0.2-0.1-0.4-0.2-0.6-0.1c0,0,0,0,0.1-0.1c0.1,0,0.3,0,0.4,0s0.2,0,0.4,0l0,0
			c0,0.1,0,0.1,0.1,0.1c0.1,0.1,0.2,0.1,0.6,0c0.5-0.1,1-0.1,1.4,0.1c0.3,0.1,0.8,0,1.1-0.2c0.1,0,0.3-0.1,0.4-0.1
			c0.3-0.1,0.6-0.2,0.7-0.5c0.1-0.1,0.2-0.1,0.4-0.2c0.2-0.1,0.5-0.2,0.6-0.4c0-0.1,0-0.2,0-0.2c-0.1-0.2-0.7-0.3-1.5-0.4
			c0,0,0,0,0-0.1l0,0c0.3-0.1,0.4-0.3,0.4-0.4c0-0.1,0-0.2-0.1-0.3l0,0c0,0,0.1,0,0.1-0.1c0.1,0,0.2,0,0.3,0c0.2,0,0.3,0.1,0.6-0.1
			c0,0,0.1-0.1,0-0.1c0-0.1-0.1-0.1-0.1-0.2c0.1,0,0.1,0,0.1-0.1c0.4,0,0.6-0.3,0.7-0.6c0-0.1,0.1-0.1,0.1-0.2
			c0.2-0.2,0.3-0.5,0.3-0.9c0-0.3-0.2-0.6-0.4-0.8c-0.1-0.1-0.2-0.1-0.3-0.2c-0.4-0.2-1.5-0.6-2-0.1c-0.9,1.6-1,1.7-1,1.7
			c-0.1,0.1-0.1,0.2-0.2,0.2s-0.1,0-0.3-0.1c-0.1-0.1-0.1-0.1-0.2-0.2c0.1-0.1,0.2-0.2,0.3-0.2c0.3-0.3,0.7-0.5,0.1-1.2
			c-0.1-0.1-0.2-0.2-0.3-0.3l0,0h0.1c0,0,0.1-0.1,0-0.1c0-0.1-0.1-0.3-0.3-0.4c-0.2-0.2-0.4-0.6-0.4-0.7c0-0.1,0.1-0.1,0.2-0.1
			c0.1,0,0.1-0.1,0.1-0.1c0-0.1,0-0.1-0.1-0.1c-0.3-0.1-0.4-0.3-0.5-0.5c-0.1-0.1-0.2-0.3-0.3-0.4c-0.4-0.2-0.8-0.4-1.2-0.4l0,0
			c-0.4-0.1-0.7-1.1-0.7-2c-0.1-0.9-1.1-1.6-2-1.8c0,0-0.1,0-0.2-0.1c-0.1-0.1-0.3-0.2-0.6,0c-0.1,0.1-0.2,0.2-0.4,0.2l0,0h-0.1
			c-0.1,0-0.3,0-0.4,0c0.1,0,0.2-0.1,0.3-0.1c0.2-0.1,0.5-0.2,0.8-0.2c0.3,0,0.4-0.1,0.4-0.2c0.1-0.2-0.1-0.4-0.3-0.6l0,0
			c0.5-0.3,1-0.6,1.3-1.1c0.2-0.4,0.4-0.7,0.6-1.1c0-0.1,0.1-0.1,0.2-0.2c0.2-0.1,0.4-0.3,0.3-0.7c-0.2-0.7-1.3-0.5-1.9-0.4
			c-0.1,0-0.1,0-0.2,0c-0.5,0-1.1,0-1.6,0c-0.2,0.1-0.4,0.1-0.6,0.2c-0.1,0.1-0.2,0.1-0.4,0.1c0,0,0.1-0.1,0.1-0.2l0,0
			c0.2-0.1,0.3-0.2,0.4-0.4v-0.1c0,0,0-0.1-0.1-0.1c-0.1,0-0.2,0-0.4,0c0,0,0.1-0.1,0.2-0.1c0.2-0.1,0.3-0.2,0.5-0.2
			c0.2-0.1,0.3-0.1,0.5-0.2c0.6-0.4,1.3-0.9,1.2-1.3c0-0.1-0.1-0.2-0.4-0.3c-0.6,0-1.2,0.1-1.7,0.2c-0.3,0.1-0.6,0.1-0.8,0.1h-0.1
			c-0.1-0.1-0.2-0.1-0.4,0l0,0c-0.1-0.1-0.1-0.1-0.2,0h-0.1c0,0,0,0-0.1,0c-0.1-0.1-0.2-0.2-0.3-0.1c-0.2,0-0.2,0.2-0.3,0.4
			c0,0.2-0.1,0.3-0.2,0.4l-0.1,0.1l0,0l0,0c-0.2,0.1-0.2,0.2-0.3,0.4c-0.1,0.1-0.1,0.2-0.2,0.2l-0.1,0.1c0,0.1,0,0.1,0.1,0.1
			c0.1,0,0.2,0.1,0.2,0.2c0,0-0.1,0-0.2,0C581.4,208.5,581.1,208.4,580.9,208.6z M580.7,210.3C580.8,210.3,580.8,210.3,580.7,210.3
			C580.8,210.3,580.7,210.4,580.7,210.3C580.7,210.4,580.7,210.3,580.7,210.3z M580.7,210.5L580.7,210.5
			C580.7,210.6,580.7,210.6,580.7,210.5c-0.1,0.1-0.1,0.1-0.1,0.1S580.7,210.6,580.7,210.5z"/>
		<path d="M579.3,211.3L579.3,211.3c0.1,0,0.2-0.1,0.2-0.1l0.1-0.1c-0.1-0.2-0.2-0.3-0.2-0.3c-0.1,0-0.2,0-0.4,0.1v0.1
			c0,0,0,0.1,0.1,0.1C579.1,211.1,579.1,211.2,579.3,211.3C579.2,211.3,579.3,211.3,579.3,211.3z"/>
		<path d="M579.7,214.3L579.7,214.3c0.1,0,0.1,0,0.1-0.1c0.1-0.1,0.1-0.2,0.2-0.3c0.2-0.2,0.4-0.4,0.4-0.7c0,0,0-0.1-0.1-0.1h-0.1
			c-0.2,0.1-0.3,0.2-0.4,0.4c-0.1,0.1-0.3,0.3-0.4,0.4c0,0,0,0-0.1,0.1l-0.1-0.1c-0.1-0.1-0.2-0.1-0.3,0c-0.2,0.1-0.4,0.3-0.5,0.5
			c0,0.1,0,0.1-0.1,0.1c0,0,0,0.1,0,0.2c0,0,0.1,0,0.2,0c0.1-0.1,0.2-0.1,0.3-0.2c0,0.1,0,0.2-0.1,0.3l0,0v0.1l0.1,0.1
			c0,0,0,0,0.1,0C579.3,214.8,579.6,214.6,579.7,214.3C579.6,214.3,579.6,214.3,579.7,214.3C579.6,214.3,579.6,214.3,579.7,214.3
			C579.6,214.3,579.7,214.3,579.7,214.3z"/>
		<path d="M586.2,206.4L586.2,206.4c0.1,0,0.1,0,0.2-0.1c0-0.1,0-0.3,0-0.4c0.1,0.1,0.2,0.1,0.4,0.1c0,0-0.1,0-0.1,0.1
			c-0.1,0.1,0,0.3,0.1,0.4h0.1l0,0h0.1c0.1-0.1,0.2-0.2,0.2-0.4l0,0c0.2,0,0.3-0.1,0.4-0.3v-0.1l-0.1-0.1h-0.1c-0.3,0-0.5,0-0.6-0.2
			c0-0.1-0.1-0.2-0.3-0.2s-0.3,0.1-0.4,0.2c0,0.1,0,0.2,0.1,0.3c0,0,0,0-0.1,0c-0.1,0-0.1,0-0.1,0.1
			C585.8,206,585.9,206.3,586.2,206.4z"/>
		<path d="M587,205.2L587,205.2c0.1,0,0.1,0,0.1-0.1c0.1-0.2,0-0.4-0.2-0.5l0,0c-0.1,0-0.1,0-0.1,0.1c-0.1,0.2,0,0.3,0,0.3
			C586.8,205.1,586.8,205.1,587,205.2z"/>
		<path d="M587.4,205.3C587.4,205.3,587.5,205.3,587.4,205.3c0.2-0.1,0.4-0.2,0.5-0.3l0.1-0.1c0-0.1-0.1-0.1-0.1-0.1
			c-0.3,0-0.5,0.1-0.6,0.4C587.3,205.2,587.3,205.2,587.4,205.3L587.4,205.3z"/>
		<path d="M590,202.5c0,0,0.1,0,0.2,0c0.1,0,0.2,0.1,0.2,0.2c0,0.1,0,0.1-0.1,0.2l0,0l-0.1,0.3v0.1l0.1,0.1c0.5,0,0.6-0.5,0.7-0.9
			c0-0.2,0.1-0.3,0.1-0.4V202l-0.1-0.1c-0.1,0-0.1,0-0.1-0.1l0,0l0,0l0,0h0.1c0.1-0.1,0.2-0.2,0.3-0.4c0,0.1,0,0.1,0,0.2
			c0,0,0,0.1,0.1,0.1l0,0l0,0l0.2-0.1l0.1-0.1c0,0,0-0.1-0.1-0.1h-0.1c0.1-0.2,0.1-0.3,0-0.4c-0.1-0.1-0.2-0.1-0.3,0
			c-0.1,0.1-0.2,0.1-0.2,0.2c0,0-0.1-0.1-0.2-0.1h-0.1v0.1c0,0,0,0.1,0,0.2s0,0.1,0,0.2h-0.1l0,0c0-0.1,0-0.1,0.1-0.2v-0.1l-0.1-0.1
			c-0.2,0-0.3,0.1-0.4,0.2c-0.1,0.1-0.1,0.1-0.2,0.1c-0.1,0-0.1,0-0.1,0.1v0.1c0.1,0.1,0.2,0.2,0.3,0.3c-0.1,0.1-0.3,0.1-0.5,0.1
			h-0.1v0.1c0,0.2,0.1,0.3,0.1,0.3C589.8,202.6,589.9,202.5,590,202.5z M591.3,201.3L591.3,201.3
			C591.3,201.3,591.3,201.4,591.3,201.3L591.3,201.3z"/>
		<path d="M568.9,224.4C568.9,224.4,569,224.4,568.9,224.4c0.3-0.1,0.6-0.1,0.8-0.1c-0.3,0.1-0.6,0.4-0.7,0.6s-0.1,0.3,0.1,0.4
			c0.2,0.1,0.4,0.1,0.6,0.1c-0.1,0.1-0.1,0.1-0.2,0.2v0.1l0.1,0.1c0.1,0,0.1,0,0.2,0h0.1l0,0c0.2-0.1,0.3-0.2,0.5-0.2
			c-0.1,0.1-0.2,0.1-0.2,0.2c0,0-0.1,0.1,0,0.2l0.1,0.1l0,0c0,0,0,0,0,0.1v0.1h0.1c0,0,0,0,0.1,0c0.2-0.1,0.4-0.1,0.6-0.1
			s0.4,0,0.6-0.1c0.2,0,0.3-0.1,0.5-0.1c0.2,0,0.4-0.1,0.6-0.2h0.1c0.1,0,0.2,0,0.3-0.1c0.1-0.1,0.1-0.1,0.2-0.2
			c0.1-0.1,0.2-0.2,0.3-0.2l0.1,0.1c0.3,0,0.5-0.1,0.7-0.3c0.1-0.1,0.2-0.2,0.3-0.2c0.3,0,0.4-0.1,0.5-0.3c0-0.1,0-0.1,0.1-0.1
			c0.1,0,0.2,0,0.4,0c0.3,0,0.7,0,0.9-0.2c0.1,0.1,0.3,0.1,0.5,0.1c0.1,0,0.2,0,0.3,0c0.2,0,0.4-0.1,0.6-0.2
			c0.1-0.1,0.1-0.2,0.1-0.3c0,0,0,0,0-0.1c0.3-0.2,0.4-0.6,0.6-0.9c0,0,0-0.1,0.1-0.1v-0.1c0.2-0.6,0.4-1,0.1-1.7
			c0.1,0,0.2-0.1,0.2-0.2c0.1-0.2,0-0.4-0.1-0.7c0-0.1-0.1-0.2-0.1-0.3c0-0.1-0.1-0.3-0.1-0.5c0,0,0,0,0-0.1c0.1,0,0.1-0.1,0.2-0.1
			s0.2,0,0.2-0.1c0,0,0,0,0.1-0.1l0,0c0.3,0.1,0.5-0.1,0.6-0.3c0.1-0.1,0.1-0.2,0.2-0.2c0.1,0,0.4-0.2,0.5-0.3c0,0,0-0.1,0.1-0.1
			c0.1,0,0.2-0.1,0.2-0.2c0.1-0.2,0-0.5-0.1-0.7c-0.1-0.1-0.2-0.2-0.3-0.2c0.1-0.1,0.1-0.1,0.1-0.2l0,0c0-0.1-0.1-0.1-0.1-0.1
			c-0.1-0.1-0.2-0.2-0.2-0.2l-0.1-0.1c-0.1-0.3-0.3-0.5-0.5-0.8c-0.3-0.2-0.7-0.1-1,0c-0.3,0.1-0.5,0.1-0.7,0v-0.1l-0.1-0.1
			c-0.1,0-0.2,0-0.3-0.1c-0.3-0.1-0.6-0.2-1,0.2c-0.1-0.1-0.3-0.2-0.4-0.1c0,0-0.1,0.1-0.1,0.3c-0.1,0-0.2,0-0.3,0
			c-0.3,0-0.6-0.1-0.9,0.1c-0.2,0.1-0.3,0.2-0.3,0.4h-0.1h-0.1c0,0,0,0,0,0.1c0,0,0,0,0,0.1c0,0.1,0,0.1,0.1,0.1l0,0h0.1v0.1
			c-0.1,0-0.1,0-0.2,0.1c0,0-0.1,0.1-0.1,0.2c-0.1,0-0.2,0-0.3,0.1c-0.1,0.1-0.3,0.2-0.3,0.3c0,0.1,0,0.1,0.1,0.1
			c0.3,0.1,0.5,0.1,0.8,0.2c0.1,0,0.2,0,0.3,0c-0.1,0.1-0.2,0.1-0.4,0.2c-0.2,0.1-0.4,0.2-0.6,0.3v0.1c0,0,0,0.1,0.1,0.1
			c0,0,0,0,0.1,0c-0.1,0-0.2,0-0.4,0s-0.6-0.1-0.7,0.1c-0.2-0.2-0.5-0.3-0.9-0.3c-0.1,0-0.3,0.1-0.5,0.1c-0.1,0-0.3,0.1-0.3,0.1l0,0
			c0-0.1,0-0.1-0.1-0.1h-0.1c-0.1,0.2-0.2,0.3-0.2,0.5c0,0.1,0,0.1,0.1,0.1s0.1,0,0.2,0l0.1-0.1v0.1c0,0,0,0.1,0,0.2
			c0,0,0.1,0.1,0.2,0h0.1c0,0,0,0,0,0.1c0,0,0,0.1,0,0.2l0,0c0,0,0-0.1-0.1-0.1c-0.1-0.1-0.5-0.1-0.7-0.1c-0.1,0-0.1,0.1-0.1,0.1
			c0,0.1,0.1,0.1,0.1,0.1l0,0c0.1,0,0.3,0.1,0.4,0.2h0.1l0,0l0,0l0,0l0,0c0,0.1,0.1,0.1,0.2,0l0,0c0.1,0,0.3,0,0.4,0h-0.1
			c-0.1,0-0.3,0-0.4,0.1c-0.2,0.1-0.2,0.3-0.2,0.3c-0.1,0-0.1,0-0.2,0.1c-0.1,0.1-0.1,0.1-0.2,0.1c0,0,0,0-0.2,0.1
			c0,0-0.1,0-0.1,0.1v0.1l0.1,0.1l0,0c0,0-0.1,0-0.1,0.1l-0.1,0.1c0,0,0,0.1,0.1,0.1c0.2,0.1,0.3,0.1,0.5,0c0,0,0,0,0.1,0l0,0v0.1
			l0.1,0.1c0.1,0,0.3,0.1,0.4,0.1c0.2,0.1,0.3,0.1,0.4,0.1c0.2,0,0.4,0,0.6,0c-0.3,0.1-0.5,0.2-0.6,0.4c0,0.1-0.1,0.2,0,0.3
			c0,0.1-0.3,0.4-0.9,0.8c-0.1,0.1-0.2,0.1-0.2,0.1s-0.1,0.1,0,0.1c0,0.1,0.1,0.1,0.1,0.1c0.1,0,0.1,0,0.2,0
			c-0.1,0.1-0.2,0.1-0.4,0.1c0,0-0.1,0-0.1,0.1v0.1c0.1,0.1,0.1,0.2,0.2,0.3c-0.1,0-0.1,0-0.2-0.1c-0.1,0-0.2-0.1-0.3,0
			c-0.1,0-0.2,0.1-0.4,0.1s-0.5,0.1-0.6,0.2C568.8,224.1,568.8,224.2,568.9,224.4L568.9,224.4z M572.1,222.8c0.1,0,0.2-0.1,0.3-0.1
			c0,0,0,0.1,0.1,0.1C572.3,222.7,572.2,222.7,572.1,222.8z M577.1,216.1c0.1,0,0.1-0.1,0.2-0.1C577.2,216,577.2,216,577.1,216.1z
			 M573.6,225L573.6,225L573.6,225L573.6,225z"/>
		<path d="M638.8,206.3c0.1,0.2,0.2,0.3,0.3,0.3l0,0c0.2,0,0.3-0.1,0.4-0.3h0.1c0.1,0,0.3-0.1,0.3-0.2c0-0.1,0-0.1,0-0.2
			c-0.1-0.2-0.3-0.3-0.5-0.3c-0.1,0-0.2-0.1-0.3-0.1c0-0.1-0.1-0.1-0.2,0c-0.3,0.2-0.7,0.4-1.1,0.4c0,0-0.1,0-0.1,0.1
			c0,0.1,0,0.1,0.1,0.1c0.1,0.1,0.3,0.1,0.4,0.1C638.6,206,638.7,206.1,638.8,206.3z"/>
		<path d="M640.9,206.6c-0.1-0.2-0.4-0.3-0.7-0.2c-0.1,0-0.1,0.1-0.1,0.2l0.1,0.2c-0.3-0.1-0.6-0.2-0.9-0.1c-0.1,0-0.1,0-0.2,0
			c-0.2,0-0.4,0-0.6,0.2c-0.1,0.1-0.3,0.1-0.4,0c-0.1,0-0.2,0-0.3,0c0,0-0.1,0-0.1,0.1v0.1c0.1,0.1,0.1,0.1,0.1,0.3
			c0,0.1,0,0.3,0.3,0.5c0.1,0.1,0.1,0.1,0.1,0.1s0,0.1-0.1,0.1c-0.1,0.1-0.2,0.3,0,0.5h0.1c0,0,0,0,0.1,0c0.3-0.1,0.3-0.3,0.4-0.5
			c0-0.1,0.1-0.2,0.1-0.3c0.1-0.1,0.2-0.1,0.3-0.1c0.1,0,0.2,0,0.2,0c0.1,0,0.2,0,0.3,0h0.1c0.1-0.1,0.2-0.2,0.3-0.2
			s0.1-0.1,0.2-0.1c0.2-0.1,0.3-0.2,0.4-0.1c0.1,0,0.1,0,0.1-0.1c0,0,0-0.1,0-0.2l-0.1-0.1c0.1,0,0.2-0.1,0.3-0.2
			C640.9,206.7,640.9,206.7,640.9,206.6z"/>
		<path d="M640.3,205.4C640.3,205.4,640.2,205.4,640.3,205.4c-0.1,0.1-0.1,0.1-0.1,0.1v0.2c0,0,0,0.1,0.1,0.1c0,0,0,0,0.1,0
			c0.1,0,0,0,0.1,0c0.1-0.1,0.2-0.1,0.3-0.2v-0.1l-0.1-0.1H640.3z"/>
		<path d="M593,260.9c-0.3,0.1-0.4,0.4-0.4,0.6c0,0.1,0.1,0.3,0.4,0.3l0,0c0.1,0,0.1,0,0.1-0.1s0.1-0.1,0.2-0.2
			c0.2-0.1,0.3-0.2,0.3-0.4c0-0.1,0-0.1-0.1-0.2S593.2,260.7,593,260.9z"/>
		<path d="M593,261.9c-0.1,0.1-0.1,0.3-0.1,0.4c0,0,0,0.1,0.1,0.1l0,0c0,0,0,0,0.1,0l0.2-0.1l0.1-0.1v-0.1
			C593.3,261.9,593.1,261.8,593,261.9z"/>
		<path d="M597.6,258.9c-0.1,0-0.2,0-0.2,0l-0.1-0.1v-0.1c0,0,0-0.1,0.1-0.1l0,0c0.1,0,0.1-0.1,0.1-0.1c0-0.1-0.1-0.1-0.1-0.1
			s0,0-0.1,0c-0.6,0.2-1.1,0.4-1.6,0.7c-0.1,0.1-0.5,0.5-0.4,0.8c0.1,0.2,0.3,0.1,0.4,0c0.2-0.1,0.2-0.1,0.2-0.1s0,0.1,0.1,0.1
			c0.1,0.1,0.1,0.3,0.5,0.4c0.1,0,0.2,0.1,0.3,0.1c0.1,0,0.2,0.1,0.2,0.1c0.1,0,0.3-0.1,0.5-0.3c0,0,0,0,0-0.1c0,0,0.1-0.2,0.2-0.3
			c0.2-0.3,0.4-0.6,0.2-0.8C597.9,258.9,597.8,258.9,597.6,258.9z"/>
		<path d="M598.7,258.2C598.7,258.3,598.7,258.3,598.7,258.2c0,0.1,0,0.2,0,0.2c0.3,0.3,0.8,0.5,1.2,0.5h0.1v-0.1
			c0-0.2-0.1-0.3-0.2-0.5C599.6,258,599.1,257.9,598.7,258.2z"/>
		<path d="M567.3,190.5C567.3,190.5,567.2,190.5,567.3,190.5C567.2,190.5,567.2,190.5,567.3,190.5
			C567.3,190.4,567.3,190.4,567.3,190.5c0.1-0.1,0.2-0.1,0.3-0.1c0.1,0,0.1-0.1,0.1-0.1l0,0c0.2,0,0.3,0,0.5-0.2
			c0.1-0.1,0.1-0.2,0.1-0.3c0-0.1-0.1-0.1-0.2-0.1c0,0,0.1,0,0.1-0.1l0.1-0.1c0,0,0-0.1-0.1-0.1c-0.1,0-0.1,0-0.2,0
			c0.1-0.1,0.1-0.1,0.2-0.2c0.1-0.1,0.1-0.2,0.1-0.3c0,0,0-0.1-0.1-0.1h-0.1c-0.1,0-0.3,0-0.5-0.1c-0.1-0.1-0.2-0.1-0.3-0.1
			c-0.1,0-0.2,0-0.2,0c0-0.1,0.1-0.2,0-0.3c0-0.1-0.1-0.1-0.1-0.1l0,0c-0.2,0-0.3,0-0.5,0.1c-0.1,0-0.1,0-0.2,0c0,0,0,0,0.1,0
			c0.1-0.1,0.2-0.2,0.3-0.3c0-0.1,0-0.1,0-0.2c-0.1-0.1-0.3-0.2-0.5-0.3c0,0-0.1,0-0.2,0c0-0.1,0.1-0.1,0.1-0.2v-0.1
			c0-0.1,0.3-0.1,0.4-0.2c0.1,0,0.2,0,0.3-0.1c0.1,0,0.1-0.1,0.1-0.2s-0.1-0.1-0.1-0.1c-0.1,0-0.2,0-0.4,0c-0.4,0-1,0.1-1.3,0.5
			c0,0-0.1,0-0.1-0.1c-0.2-0.1-0.3-0.2-0.3-0.3c0-0.1,0-0.3-0.1-0.4c-0.2-0.2-0.8-0.2-1-0.1c0,0-0.1,0-0.2,0c-0.1,0-0.2,0-0.3,0.1
			c-0.1,0.1-0.1,0.2-0.1,0.3c0,0.2,0,0.3-0.1,0.4c-0.1,0.1-0.1,0.1-0.2,0.2c-0.3-0.1-0.6-0.2-0.9-0.3c-0.3,0-0.5,0.3-0.7,0.5
			c-0.1,0.1-0.1,0.1-0.2,0.2c-0.2-0.3-0.7-0.6-1-0.6c-0.2,0-0.4,0.1-0.4,0.2l0,0c-0.1,0.2,0,0.5,0.1,0.6c0.1,0.1,0.1,0.2,0.1,0.4
			c0-0.1-0.1-0.1-0.1-0.2c-0.2-0.5-0.5-1.1-1.2-1c-0.2,0-0.2,0.1-0.3,0.2c0,0.1-0.1,0.1-0.1,0.1c-0.1,0-0.1,0-0.2,0
			c-0.1,0-0.2,0-0.4,0c-0.2,0.1-0.2,0.3-0.2,0.5c0,0.1,0,0.2-0.1,0.3H557c-0.2,0-0.4-0.4-0.6-0.6c-0.1-0.2-0.2-0.3-0.3-0.3
			c-0.2-0.1-0.4-0.1-0.5,0c-0.2,0.2-0.3,0.5-0.2,0.7c0,0.1,0,0.2,0,0.4c-0.1,0.2-0.1,0.3-0.1,0.3l0,0l-0.1-0.1
			c-0.1,0-0.1,0.1-0.1,0.1s0,0,0,0.1c0,0,0,0,0-0.1c-0.1-0.1-0.2-0.2-0.3-0.3c-0.4-0.1-0.5,0.3-0.6,0.5v0.1l0,0
			c0-0.1-0.1-0.1-0.1-0.1c-0.1,0-0.1,0.1-0.1,0.1c0,0.1,0,0.1,0,0.2c0-0.1-0.1-0.2-0.2-0.3c0-0.1-0.1-0.2-0.2-0.4c0,0,0.1,0,0.1-0.1
			c0.2-0.1,0.4-0.5,0.3-0.7c0,0,0-0.1-0.1-0.1v-0.1c0-0.1-0.2-0.2-0.3-0.2h-0.1c-0.1,0-0.1-0.1-0.2-0.1c0-0.1-0.1-0.2-0.2-0.2
			c-0.1-0.1-0.2-0.1-0.4-0.1c-0.2,0-0.2,0-0.3-0.1c-0.1-0.2-0.6-0.3-0.6-0.3c-0.1,0-1.1,0.1-1.1,0.3c0,0.1,0,0.1,0.1,0.2
			c0.1,0,0.2,0.1,0.3,0.1c0,0-0.1,0.1-0.1,0.2v0.1c0,0,0,0.1,0.1,0.1c0.1,0,0.1,0.1,0.2,0.1c0.2,0.1,0.4,0.1,0.5,0.3
			c0,0,0,0-0.1,0.1c0-0.1,0-0.1-0.1-0.1c-0.1-0.1-0.3-0.1-0.5,0c0,0,0-0.1-0.1-0.1c0,0,0,0-0.1,0c0,0,0-0.1-0.1-0.1
			c-0.2-0.1-0.4-0.2-0.7-0.3c-0.1,0-0.5,0-0.5,0.2c0,0.1,0,0.1,0,0.1l0,0c-0.1,0-0.2-0.1-0.4-0.1c-0.1,0-0.1,0-0.1,0.1
			c0,0.1,0,0.2,0,0.3l0,0c-0.1,0-0.2,0.1-0.3,0.2v0.1l0,0c-0.2-0.1-0.4-0.1-0.5,0c0,0-0.1,0-0.1,0.1v0.1c0,0.1,0.1,0.2,0.2,0.3l0,0
			c-0.3-0.1-0.7-0.2-1,0.3v0.1l0.1,0.1c0.3,0,0.7,0,0.9,0.2h0.1c0.4,0,0.8-0.1,1.2-0.2c0.1,0,0.2-0.1,0.2-0.2l0,0l0,0
			c0.2,0.1,0.4,0,0.5,0c0,0,0,0,0.1,0v0.1c0,0,0,0.1,0.1,0.1h0.1c0.1-0.1,0.3-0.1,0.4-0.2c0,0.1,0.1,0.1,0.2,0.1l0,0v0.1
			c0.2,0.2,0.4,0.1,0.5,0l0.1-0.1h0.1c-0.5,0.1-0.9,0.4-1.3,0.6c0,0-0.1,0.1,0,0.1c0.1,0,0.1,0.1,0.1,0.1c0.2,0,0.5,0,0.7,0.1
			c0.1,0,0.2,0,0.3,0c0.1,0,0.1,0,0.2,0c-0.3,0.2-0.6,0.1-1.1,0c-0.5-0.1-1-0.1-1.4,0.1l-0.1-0.1c-0.1,0-0.2,0-0.3,0.1
			c-0.1,0-0.1,0.1-0.2,0.1c-0.3,0-0.6,0.1-0.9,0c-0.3,0-0.4,0.1-0.4,0.2c0,0.1,0,0.2,0.1,0.4c0.1,0.1,0.3,0.2,0.6,0.1
			c0.4-0.2,0.8-0.2,1.3-0.1c0.3,0,0.5,0,0.8,0c0.1,0,0.2,0,0.3,0.1c0,0,0.1,0,0.1,0.1c-0.1,0.1-0.1,0.1-0.1,0.2v0.1l0.1,0.1
			c0.1,0,0.2,0.1,0.2,0.2c0,0,0,0.1,0.1,0.1h0.1c0.1,0,0.1-0.1,0.2-0.1c0,0,0,0.1-0.1,0.1c0,0,0,0,0,0.1c-0.1,0-0.1,0.1-0.2,0.1
			c0,0-0.1,0.1,0,0.1c0,0,0,0.1,0.1,0.1c0.1,0,0.2,0,0.3,0l0,0c0,0,0,0,0,0.1c-0.1,0-0.2,0-0.3,0c-0.1,0-0.1,0.1-0.1,0.1
			c0,0.1,0,0.1,0,0.1s-0.1,0-0.2,0.1c-0.1,0-0.2,0-0.2,0s0,0-0.1,0c-0.1,0.1-0.2,0.1-0.3,0c-0.1-0.1-0.1-0.1-0.2-0.2H550
			c-0.3,0.1-0.3,0.4-0.4,0.6v0.1v0.1h0.1c0.6,0,1.2-0.1,1.8-0.1c0.3,0,0.5,0,0.8,0c0.2,0,0.3-0.1,0.4-0.2c0.1,0,0.1-0.1,0.2-0.1v0.1
			v0.1c0,0,0,0.1,0.1,0.1h0.1c0.1,0,0.2,0.1,0.3,0.1l0,0c0,0,0,0,0,0.1c0.1,0.1,0.3,0.1,0.5,0.1c0,0,0,0,0,0.1
			c0.2,0.4,0.6,0.5,1,0.5c0.1,0,0.3,0,0.4,0c0.5,0.1,1.1,0.3,1.7,0.3c0.1,0,0.2,0,0.3,0c0.3,0,0.7,0,1-0.1c0.2,0,0.4-0.1,0.6-0.2
			c0.2-0.1,0.3-0.2,0.2-0.3c0,0,0,0,0.1,0c0.1,0,0.1-0.1,0.1-0.1l0,0c0.2,0,0.5-0.1,0.7-0.1h0.1c0.3,0,0.7,0,0.9-0.3
			c0,0,0.1,0,0.1,0.1c0.3,0.2,0.8-0.1,1.3-0.4l0.1-0.1c0.3-0.1,0.5-0.2,0.8-0.4s0.7-0.3,1-0.5c0.1-0.1,0.2,0,0.4,0.1
			c0.2,0.1,0.4,0.2,0.6,0.1c0,0,1.1-0.5,1-0.8v-0.1c0,0,0,0,0.1,0c0.1,0,0.2-0.1,0.2-0.1c0.2,0,0.4,0,0.5-0.1
			c0.1-0.1,0.3-0.1,0.4-0.1c0.1,0,0.1,0,0.1-0.1C567.3,190.6,567.3,190.5,567.3,190.5z M549,188.2C549,188.3,549,188.3,549,188.2
			C549,188.3,549,188.3,549,188.2c-0.1,0-0.1,0-0.2-0.1l0,0C548.8,188.2,548.9,188.2,549,188.2z M553.9,193.2L553.9,193.2
			L553.9,193.2L553.9,193.2z"/>
		<path d="M603,221L603,221c0.3-0.1,0.6-0.2,0.8-0.3c0.1,0,0.1-0.1,0.1-0.1c0-0.1-0.1-0.1-0.1-0.1c-0.3,0-0.5,0.1-0.8,0.3
			C602.9,220.8,602.9,220.9,603,221C602.9,221,603,221,603,221z"/>
		<path d="M604.5,220.4c-0.2,0-0.4,0-0.5,0.1c-0.1,0-0.1,0.1-0.1,0.1c0,0.1,0.1,0.1,0.1,0.1l0,0c0.2,0,0.4-0.1,0.6-0.1
			c0.1,0,0.1-0.1,0.1-0.1S604.6,220.4,604.5,220.4L604.5,220.4z"/>
		<path d="M579.1,197.8L579.1,197.8C579.1,197.8,579.2,197.8,579.1,197.8c0.2-0.1,0.2-0.1,0.3-0.1c0.2,0.2,0.5,0.3,0.6,0.3
			c-0.1,0-0.1,0-0.2,0.1c0,0,0,0.1-0.1,0.1v0.1c0.1,0.1,0.2,0.2,0.3,0.2c0,0,0,0,0.1,0l0,0c0,0,0.1,0,0.1-0.1c0.1-0.2,0.1-0.4,0-0.4
			h-0.1c0,0,0,0,0.1-0.1c0-0.1,0-0.2,0-0.2l0,0h0.1c0.1-0.1,0.1-0.2,0.1-0.3c-0.1-0.3-0.5-0.4-0.7-0.5l0,0l0,0c-0.1,0-0.1,0-0.2,0.1
			v0.1c-0.1-0.1-0.2-0.1-0.3-0.1c-0.1,0-0.1,0.1-0.1,0.1c0,0.1,0,0.2,0,0.3c-0.1,0-0.2,0-0.2,0.1c-0.1,0.1-0.1,0.1-0.1,0.2
			C578.8,197.7,578.9,197.8,579.1,197.8z"/>
		<path d="M579.6,198.7L579.6,198.7c-0.1-0.1-0.2-0.1-0.2-0.1l-0.1,0.1c0.1,0.3,0.3,0.6,0.6,0.7c0,0,0,0,0.1,0c0,0,0,0,0.1,0
			c0,0,0.1,0,0.1-0.1C580.2,199,579.9,198.8,579.6,198.7z"/>
		<path d="M580.6,197.4c0.2-0.1,0.2-0.2,0.2-0.4c0-0.1,0-0.2-0.3-0.3h-0.1l-0.1,0.1c0,0.2,0,0.3,0,0.5c0,0,0,0.1,0.1,0.1
			C580.5,197.5,580.5,197.5,580.6,197.4C580.5,197.5,580.6,197.4,580.6,197.4z"/>
		<path d="M623.9,269.8c0,0-0.1,0-0.1-0.1h-0.1c0,0-0.1,0-0.1,0.1s0,0.1,0,0.2c0,0.3,0.2,0.5,0.5,0.5l0,0h0.1
			c0.1-0.1,0.1-0.2,0.1-0.3C624.3,269.9,624,269.8,623.9,269.8z"/>
		<path d="M586.4,232.1c-0.1,0-0.1,0.1-0.1,0.3v0.1h0.1h0.2c0.1,0,0.1,0,0.1-0.1l0.1-0.2c0-0.1,0-0.1-0.1-0.2
			C586.5,232,586.4,232.1,586.4,232.1z"/>
		<path d="M585.6,231.3l-0.2,0.3v0.1h0.1l0,0l0,0c0.2-0.1,0.3-0.1,0.2-0.4c0,0,0-0.1-0.1-0.1C585.7,231.2,585.6,231.2,585.6,231.3z"
			/>
		<path d="M581.8,219c0.4-0.1,0.9-0.3,1.1-0.6c0.1-0.1,0-0.2,0-0.3c-0.2-0.1-0.4-0.1-0.6-0.1c-0.3,0.1-0.5,0.5-0.6,0.7l-0.1,0.1v0.1
			C581.7,219,581.7,219.1,581.8,219C581.8,219.1,581.8,219,581.8,219z"/>
		<path d="M583.9,237.8C584,237.8,584,237.8,583.9,237.8c0.1,0,0.1,0,0.1-0.1v-0.1c-0.1-0.1-0.2-0.2-0.4-0.3h-0.1l-0.1,0.1
			C583.5,237.6,583.7,237.8,583.9,237.8L583.9,237.8z"/>
		<path d="M587.8,241L587.8,241c0.1,0,0.1,0,0.1,0v-0.1c-0.1-0.3-0.5-0.2-0.6-0.2c-0.1,0-0.1,0.1-0.1,0.1c0,0.1,0.1,0.1,0.1,0.1
			C587.5,240.9,587.6,240.9,587.8,241z"/>
		<path d="M610.2,252.5c-0.1,0.1-0.1,0.3,0,0.4c0.1,0.1,0.1,0.2,0.2,0.2c0,0.1-0.1,0.2-0.2,0.2l-0.1,0.1c0,0,0,0.1,0.1,0.1
			c0.1,0.1,0.2,0.1,0.3,0.1v0.1c0,0.2,0.3,0.4,0.6,0.6c0.1,0.1,0.3,0.2,0.3,0.2l0.1,0.1l0,0c0,0,0.1,0,0.1-0.1
			c0.4-0.7,0.7-1.4,0.9-2.2c0-0.8,0-1.7-0.2-2.5c0-0.1-0.1-0.1-0.1-0.1c-0.3,0-0.4,0.3-0.4,0.4c0,0.1-0.1,0.3-0.1,0.3
			c-0.4,0.2-0.7,0.3-1.1,0.5c-0.1,0.1-0.2,0.2-0.3,0.3c0,0.1-0.1,0.1-0.1,0.2v0.1c0,0.1,0.1,0.2,0.1,0.3c-0.1,0.1-0.2,0.2-0.2,0.3
			C609.9,252.2,610,252.4,610.2,252.5z"/>
		<path d="M670.8,271.1c-0.3,0.2-0.5,0.3-0.8,0.4c-0.5,0.1-1.1,0.1-1.6,0c-0.4,0-0.4,0.2-0.4,0.4c0,0.1,0,0.2-0.2,0.2
			c-0.2,0-0.4,0.1-0.6,0.2c-0.3,0.2-0.4,0.2-0.5,0.1c0,0-0.1,0-0.2,0c0,0-0.1,0.1,0,0.2c0,0.1,0,0.1,0.1,0.2v0.1l0,0
			c0.3,0.7,0.8,0.9,1.3,1c0.2,0.1,0.4,0.1,0.6,0.2c0,0,0,0,0.1,0h0.1c0,0,0.1-0.1,0-0.1v-0.1c0.1-0.1,0.5-0.2,0.7-0.3
			c0.1,0,0.2,0,0.2-0.1c0.2-0.1,0.3-0.2,0.4-0.3c0-0.1,0.1-0.1,0.2-0.2c0.1-0.1,0.4-0.1,0.6-0.1c0.1,0,0.2,0,0.2,0s0.1,0,0.1-0.1
			v-0.1l-0.1-0.1c-0.1-0.1-0.4-0.4-0.3-0.5l0.1-0.1c0.3-0.1,0.6-0.4,0.8-0.6c0.2-0.2,0.3-0.3,0.5-0.4l0.1-0.1c0-0.1-0.1-0.1-0.1-0.1
			C671.6,270.6,671.2,270.8,670.8,271.1z"/>
	</g>
</g>
</svg>
