<?xml version="1.0" encoding="utf-8"?>
<!-- Generator: Adobe Illustrator 22.0.1, SVG Export Plug-In . SVG Version: 6.00 Build 0)  -->
<svg width="170px" height="130px" viewBox="0 0 170 130" version="1.1" xmlns="http://www.w3.org/2000/svg" xmlns:xlink="http://www.w3.org/1999/xlink" x="0px" y="0px" style="enable-background:new 0 0 170 130;" xml:space="preserve">
<title>Asia</title>
<desc>Created with Sketch.</desc>
<g id="Creative-Round-2---Region-Selector">
	<g id="Region-Selector---Language" transform="translate(-745.000000, -156.000000)">
		<path class="st0" d="M854,237.2c-0.3,0-0.6,0.1-0.9,0.1c-0.6,0.5-1,2.2-0.7,3c0.7,1.3,1.1,1.3,1.2,1.1c0.4-0.6,0.2-2.3,0.2-2.9
			c0-0.2,0.2-0.5,0.1-0.7c0-0.1-0.2-0.2-0.2-0.3C853.8,237.3,854,237.2,854,237.2z"/>
		<path class="st0" d="M801.2,261.7c-0.1-0.1,0.4,0.3,0.3,0.3c-0.3,0-0.9-0.5-0.7-0.3c0.1,0.2,0.5,0.2,0.8,0.4c0,0,0.1,0,0.1,0.1
			C801.5,262,801.4,261.8,801.2,261.7z"/>
		<path class="st0" d="M801.8,262.2L801.8,262.2L801.8,262.2C801.9,262.2,801.8,262.2,801.8,262.2z"/>
		<path class="st0" d="M801.8,262.2c-0.3,0-0.5-0.1-0.8,0c-0.1,0-0.2,0.1-0.2,0.2l0,0l0,0c-0.2,0.3-0.1,0.9-0.2,1.3
			c0,0.1,0,0.2,0,0.2c-0.3-0.6-0.2-0.2-0.1,0.5c0,0.6-0.1,1.9,0.8,2.1c0.8,0.2,2.3-0.5,2.1-1.5C803.2,264.5,802.4,263.1,801.8,262.2
			z"/>
		<path class="st0" d="M871.5,276.3c-0.5,0.1-2.8,0.8-3.2,1.2c-0.7,0.9,0.5,0.2-0.7,0.9l0.6,0.4l0,0l0,0c0.1-0.1,0.2-0.2,0.2-0.2
			c0.7-0.5,1.3-0.8,2-1.2c0.3-0.2,0.5-0.4,0.8-0.6C871.2,276.7,871.7,276.3,871.5,276.3z"/>
		<path class="st0" d="M891.2,266.8c-0.2,0-0.2,0.1-0.3-0.3c0,0,0.2-0.4,0.1-0.5c-0.1-1.5-0.7-3.1-1.1-4.6l-0.2-0.3h-0.1
			c-0.5,0.1-1,0.2-1.5,0.5c-0.5,0.2-2.8-0.2-3.1,0.1c-1.3,1.2-0.5,0.9-0.7,1.2c-0.2,0.4-1,0.4-1.1,0.6c-0.3,0.6-0.4,2.2-1.5,2.2
			c-0.2,0-0.5-0.1-0.7-0.3c-0.1-0.1,0-0.5-0.2-0.5c-0.6,0,0.5,1.8-0.7,0c-0.4-0.5,0-1.7-0.7-2c-0.3-0.1-0.5,0.3-0.8,0.3
			c-1,0.1-0.5-0.5-1.5,0.1c-0.4,0.2-2.1,1.7-1.8,2.2c0.2,0.3,1.3-0.7,1.5-0.4c0.6,0.7-0.2,1,1.2,0.6c0.2-0.1,1.2-0.7,1.3-0.6
			c0.1,0,0.7-0.9,0.4-0.4c0,0.1-1.4,1.5-1.5,1.5c-0.2,0.2-0.6,0.1-0.8,0.2c-0.1,0-0.4,0.2-0.3,0.3c0.1,0.1,1.3,0.2,1.4,0.2
			c0.3,0.1,0,0.9,0.3,1c0.6,0.1,0.8-0.7,0.9-1.2c0.4,0.9,1.8-0.2,2-0.2c0.2,0-0.5,0.3-0.4,0.4c0.5,0.6,1.5-0.2,2-0.2
			c0.9-0.1,3.4-0.3,3.9,0.3c0.3,0.4,0.5,0.9,0.6,1c0.2,0,0.9-0.2,0.8,0c-0.1,0.3-0.7,0.1-0.9,0.3c-0.1,0.1,0.1,0.1,0.3,0.1
			c-0.1,0-0.1,0.1-0.1,0.2c0,0.2,0.6,0,0.7,0.2c0.2,0.3-0.4,1.2-0.1,1.1c0.5-0.2,1-0.5,1.5-0.9c0.1-0.1,0.2-0.5,0.2-0.4
			c0.1,0.2-0.3,0.4-0.2,0.5c0,0,1.5,0.6,1.7,0.6C891.7,268.8,891.2,266.8,891.2,266.8z M879.8,266.4c0-0.3,0.1-0.6,0.1-0.5
			C879.8,266.1,879.8,266.2,879.8,266.4z M888.8,268.3c0,0-0.1,0-0.1,0.1C888.8,268.3,888.8,268.2,888.8,268.3z"/>
		<path class="st0" d="M867,278.7c-0.2,0.1,0,0-0.3,0.2c-0.2,0.1-0.3,0.2-0.3,0.3c-0.2,0.2-0.3,0.5-0.2,0.7c0,0.1,0.3-0.1,0.3,0
			c0,0.2-0.6,0.4-0.4,0.5c0.6,0.2,1.6-1,2.1-1.6l-0.6-0.4C867.3,278.6,867.2,278.6,867,278.7z M866.3,279.2
			C866.3,279.2,866.3,279.3,866.3,279.2C866.3,279.3,866.3,279.3,866.3,279.2z"/>
		<path class="st0" d="M866,264.5c-0.2,0.2-0.2,0.6-0.5,0.9c-0.3,0.3-0.5,0.5-0.8,0.7c-0.3,0.2-0.7,0.1-1,0.1
			c-0.2,0-0.5,0.3-0.6,0.4c-0.3,0.1-2.9,0-2.9,0.1c-0.2,0.2-0.1,0.7-0.4,0.9c-0.1,0.1-0.3-0.2-0.4-0.2c-0.5,0.2-0.3,1.1-0.4,1.4
			c0,0.1-0.3,0-0.4,0.1c0,0.1,0.2,0,0.3,0.1c0.1,0.3,0.2,0.6,0.2,0.9c0,0.1-0.2-0.3-0.2-0.2c-1,0.9-0.3,0.8-0.3,1.8
			c0,0.3-1.3,1.9-0.4,2.1c0.7,0.1,1-0.8,1.2,0.3c0.2,1.2-1,2.4,0.9,1.9c0.2,0,0.5,0.1,0.6-0.1c0.1-0.2-0.3-0.3-0.4-0.5
			c0-0.2,0.2-0.5,0.2-0.7c0-0.4-0.1-0.8-0.2-1.2c0-0.2,0-0.4-0.1-0.5c-0.1-0.1-0.5-0.1-0.4-0.3c0.1-0.3,0.5-0.5,0.8-0.7
			c1-0.5,0.3,1,0.3,1.1c0.5,1,0.6-0.2,1.2,0.4c0.1,0.1-0.2,0.4,0,0.5c0.3,0.2,2-0.3,2-0.5c0.2-0.7-1-0.5-1.2-0.7
			c-0.1-0.2,0.4-0.4,0.3-0.7c-0.1-0.2-0.5-0.2-0.7-0.4c-0.9-0.6-1.5-0.7-1.2-0.9c0.2-0.1,0.4,0.1,0.5,0c0.1-0.1,0.1-0.3,0.2-0.4
			c0.2-0.2,0.5-0.2,0.7-0.5c0.2-0.2,0.2-0.7,0.5-0.9c0,0,2.1,0,0.9-0.5c-0.4-0.1-1.9,0.8-2.2,0.9c-0.2,0-0.3-0.2-0.5-0.1
			c-0.9,0.7-0.1,2-1.9,0.7c-0.4-0.2-0.6-0.4-0.5-1c0.1-1.1,0.8-0.8,1.5-1c0.2-0.1,0.4-0.3,0.7-0.4c1.2-0.3,2.8-0.3,3.9-0.9
			c0.6-0.3,1.2-1.9,1.2-1.9C866.2,264.6,866,264.4,866,264.5z"/>
		<path class="st0" d="M871.7,268.8c-1.7,2.2,2.3-0.2,2.6-0.2c2.1,0,0.4,0.1,1.2,0.2c0.1,0,0.4,0.1,0.3,0
			C875.3,267.2,872.5,268.4,871.7,268.8z"/>
		<path class="st0" d="M887.8,269c-0.2,0.2-0.5,0.4-0.7,0.6c-0.2,0.3-0.2,0.6-0.3,0.9c-0.4,1.3,1.7-0.6,1.7-0.8
			C888.5,269.4,888,269.3,887.8,269z"/>
		<path class="st0" d="M852.2,280.6c0.5,0.2,1.8,1.5,1.9,0C854.2,280.2,852.5,280.6,852.2,280.6z"/>
		<path class="st0" d="M852,281.1c-0.1-0.2,0.2-0.6,0.1-0.8c-0.3-0.5-1.5,0.2-1.7,0.3c-0.9,0.2-0.7-0.7-1.2-1
			c-0.2-0.1-0.5,0.1-0.8,0.1c-0.4,0-1.9-0.3-2.1-0.1c-0.2,0.2-0.2,0.5-0.4,0.7c-0.1,0.1-1.1-0.1-1.4,0c-0.1,0-1,0.3-1.2,0.2
			c-0.2-0.2-0.4-0.5-0.6-0.6c-0.3-0.1-0.7,0.2-1,0.1c-0.2,0-0.3-0.2-0.5-0.3c-0.6-0.2-0.8,0.5-1.9,0.1c-0.5-0.2-0.6,1-0.8,1.2
			c0.7,0,1.5,0,1.5,0c0,0.2-0.2,0.3-0.1,0.5c0,0.1,0.2,0,0.2,0c0.3,0,0.5-0.1,0.8-0.1c0.4,0,0.7,0.2,1.2,0.2c1.1,0,1.8-0.4,3.1-0.3
			c1,0.2,3.2,0.4,4.2,0.1c0.3-0.1,0.5-0.3,0.8-0.4c0.5-0.1,1.1,0,1.6,0.1c0.2,0,0.4,0.3,0.5,0.1C852.5,281.3,852,281.3,852,281.1z"
			/>
		<path class="st0" d="M855,280.2c-0.1,0.2-0.2,0.5-0.3,0.7c-0.1,0.1-0.3,0-0.4,0.1c-0.2,0.6,1.7,0,1.3-0.7
			C855.5,280.1,855.2,280.2,855,280.2z"/>
		<path class="st0" d="M838.5,281.1C838.5,281.1,838.5,281.1,838.5,281.1s-0.3,0-0.4,0C838,281.1,838.3,281.2,838.5,281.1z"/>
		<path class="st0" d="M856.2,268.4c0-0.2-0.4-0.3-0.3-0.4c0.1,0,1.7,0.8,1.7-0.2c0-0.4-1.7-0.4-1.9-0.7c-0.4-0.7,0.6,0.8,0.3-0.6
			c-0.3-1.2-1-0.3-1.4-0.8c-0.1-0.1,0.3-0.2,0.2-0.3c-0.2-0.1-0.6,0.2-0.6,0c-0.1-0.5,0.4-0.8,0.9-1c0.5-0.2,1.1-0.3,1.1-0.5
			c0-0.3-0.6-0.2-0.7-0.5c-0.1-0.5,2.5-0.3,1.5-1c-0.2-0.2-0.6-0.1-1-0.1c-0.1,0,0,0.2-0.1,0.2c-0.2-0.1,0.5-0.5-0.3-0.3
			c-0.2,0-0.3,0.4-0.5,0.3s0.2-0.5,0-0.5c-0.3,0-0.5,0.5-0.7,0.4c-0.2-0.1-0.5-2-1.3-1.1c-0.4,0.5-0.4,1.7-0.9,2.1
			c-0.2,0.2-0.5,0.1-0.6,0.4c-0.1,0.1,0.4,0.2,0.3,0.4c-0.1,0.2-0.4,0.2-0.5,0.3l-0.2,0.1c0-0.1,0.2-0.3,0.1-0.2
			c-0.1,0-0.1,0.1-0.2,0.1l0,0c-0.2,0.1-0.3,0.3-0.4,0.4c-0.1,0.1-0.1,0.1-0.2,0.1c-0.1,0.1-0.3,0.1-0.5,0.2l0,0l0,0l0,0l0,0
			c-0.5,0.5-0.7,1.7-1.3,2.1c-0.4,0.3-2,0.5-2.2,1c-0.1,0.2,0,0.5,0,0.7c0,0.2-0.3,0.3-0.3,0.5c0,0.1,0.3,0,0.2,0.1
			c0,0.1-0.5,0-0.4,0.1c0.1,0.2,0.8,0.1,0.6,0.2c-1,0.3-0.9-0.2-1.6-0.3c-0.2,0-0.4,0.3-0.6,0.2c-0.2,0-0.3-0.5-0.5-0.4
			c-0.3,0.2-0.3,0.6-0.5,0.9c-0.2,0.3-0.5,0.5-0.5,0.8c-0.3,1,0.5,0.3,0.8,0.9c0.1,0.3-0.6,0.9,0.1,1.1c0.5,0.2,0.9-0.6,1.2,0.4
			c0,0.2-0.2,0.4-0.2,0.7c0.1,0.3,0.5,0.5,0.6,0.8c0.1,0.2-0.2,0.4,0,0.6c0.2,0.2,1.9-0.3,2.1-0.4c0.1-0.1,0-0.3,0.1-0.3
			c0.3-0.1,0,0.8,0.3,1c0.2,0.1,0.3-0.3,0.5-0.4c0.2-0.1,0.5,0.1,0.6,0c0.2-0.1,0.2-0.6,0.5-0.7c0.2-0.1,0.3,0.3,0.5,0.3
			c0.1,0,0.2-0.2,0.4-0.2c0.1,0,0,0.4,0.1,0.4c0.3,0,0.4-0.4,0.6-0.5c0.1,0,0.1,0.2,0.2,0.2s0.2,0.1,0.3,0.1c0.1,0,0.1-0.3,0.2-0.2
			c0.2,0.3-0.1,1.2,0.2,1c0.3-0.1,0.5-0.3,0.8-0.5c0.3-0.2,0.8-0.4,1.1-0.6c0.7-0.4,0.2-1.1,0.3-1.5c0-0.2,0.4-0.3,0.4-0.5
			c0-0.2-0.4,0.2-0.5,0c-0.1-0.2,0.2-0.3,0.2-0.5c0-0.1-0.4,0.2-0.3,0.1c0.2-0.3,0.5-0.4,0.7-0.7c0.1-0.1-0.2-0.3-0.1-0.5
			c0.2-0.2,1.1-0.3,1.2-0.6c0.2-0.4-0.4-0.7-0.4-1c0-0.3,0.1-0.6,0.3-0.9C855.8,268.5,856.2,268.6,856.2,268.4z"/>
		<path class="st0" d="M838.8,279.9c0.4-0.2-0.1-1.7-0.1-2c0-0.2,0.2-0.3,0.2-0.5c0-0.1-0.2-0.1-0.2-0.2c0-0.2,0.4-0.4,0.4-0.6
			c-0.1-0.3-0.5-0.4-0.7-0.7c-0.1-0.1,0-0.2,0-0.2c-0.3-0.1-0.7,0-1,0c0,0-0.1-0.1-0.2,0c-0.2,0.2-0.2,0.8-0.5,0.7
			c-0.1-0.1-0.1-2.1-0.4-2.1c-2.5,0.1-1.2-0.1-1.2-0.6c0-0.2-0.6,0-0.5-0.1s1.2-0.3,0.6-0.7c-0.2-0.1-0.4-0.3-0.6-0.2
			c-0.4,0.1-0.7,0.1-0.8,0.2c0.1-0.1,0.2-0.2,0.2-0.3c0-0.2-0.5,0.1-0.7,0c-0.2-0.1-0.3-0.5-0.5-0.7c-0.2-0.2-0.4-0.2-0.6-0.3
			c-0.1,0-0.3,0.1-0.5,0c-0.5-0.3-0.7-1.5-0.9-0.6c0,0.2,0.4,0.5,0.2,0.5c-1.7,0.1-0.3-0.5-1-0.8c-0.1-0.1-0.3,0.1-0.4,0
			c-0.2-0.2-0.2-0.5-0.4-0.7c-0.2-0.2-1.6-0.8-1.9-0.9c-0.1,0-0.3,0.1-0.4,0c-0.1-0.1,0.2-0.3,0.1-0.4c0-0.1-1-0.9-1.2-0.9
			c-0.4-0.1-1.1,0.3-1.6,0.1c-0.3-0.1-0.6-0.3-0.9-0.4c-0.2,0-0.5,0-0.8,0c0.3,0.8,1.1,1.7,1.9,2.1c0.2,0.1,0.4,0,0.6,0.1
			c0.3,0.2,0.4,0.7,0.8,0.8c0.1,0,0.2,0,0.3,0.1c0.1,0.2,0.1,0.5,0.2,0.7c0.1,0.1,0.2,0,0.3,0c0.3,0.1,0.6,0.2,0.8,0.3
			c0.1,0,0.2,0.2,0.2,0.2s0.2-0.1,0.2,0c-0.1,0.5,0.3,0.7,0.5,1.2c0.1,0.2,0,0.5,0.2,0.6c0.2,0.1,0.5,0,0.7,0.2
			c0.2,0.1,0.2,0.3,0.3,0.5c0.2,0.2,0.5,0.3,0.8,0.6c0.5,0.5,0.7,1.4,1,1.7c0.5,0.6,2.8,2.2,3.4,2.4c0.6,0.2,2.3,1.5,2.5,1.4
			s0.5-0.1,0.7-0.2c0.1-0.1,0-0.4,0.2-0.5C838.3,279.5,838.7,280.1,838.8,279.9z M833.7,273.1c-0.1,0-0.3,0-0.2-0.1
			c0.1-0.1,0.2-0.2,0.3-0.2C833.7,272.9,834.8,273,833.7,273.1z"/>
		<path class="st0" d="M838.7,274.6c-0.4,0.1-1.5,0.4-1,0.8c0.2,0.2,0.7-0.2,1,0c0.2,0.2,0.1,0.6,0.3,0.8c0.2,0.2,0.6,0.5,0.8,0.2
			c0.2-0.2-0.2-0.5-0.4-0.8c-0.1-0.2-0.1-0.5-0.2-0.6C839,274.8,838.8,274.7,838.7,274.6z"/>
		<path class="st0" d="M857.2,279.6c0.1,0.3,0.7,0.2,0.8,0.5c0,0,0,0,0,0.1c0.1-0.1,0.1-0.1,0.2-0.1s0,0.3,0.1,0.3
			c0.2,0,1.1-0.3,1.1-0.4C859.8,279.4,857.2,279.5,857.2,279.6z"/>
		<path class="st0" d="M858,280.1c-0.1,0.1-0.2,0.1-0.3,0.2C857.8,280.3,858,280.2,858,280.1z"/>
		<path class="st0" d="M856.8,280.1c-0.2,0-0.4,0-0.5,0.1c0,0.3-0.4,0.7-0.2,1c0.2,0.3,1-0.4,1.6-0.8c-0.1,0-0.2,0-0.2,0
			C857.3,280.4,857.2,280.1,856.8,280.1z"/>
		<path class="st0" d="M861.2,280.7c-0.9-0.4-1-0.3-1.9,0.2c0,0.1,0,0.3,0.1,0.3c0.3,0.1,0.6-0.1,0.9-0.1c0,0,2.4,1.1,1.8-0.2
			C861.8,280.7,861.3,280.8,861.2,280.7z"/>
		<path class="st0" d="M864.5,278.3c-0.2,0.1-0.2,0.4-0.4,0.4c-0.3,0.1-0.7,0-1,0c-0.1,0-0.1,0.2-0.1,0.2c-0.7,0-1.2-0.1-1.9,0
			c-0.2,0.3-0.6,0.6-0.5,0.9c0,0,0.8-0.3,1-0.3c1.4,0,2.7-0.5,3.6-1.6c0,0-0.1,0.1-0.2,0.1C864.8,278.1,864.5,278.2,864.5,278.3z"/>
		<path class="st0" d="M861.2,250.9c-0.1,0-0.2,0-0.3,0.1l0.1,0.1C861,251,861.2,250.9,861.2,250.9z"/>
		<path class="st0" d="M857.5,253.1c0.5-0.2,0.7-0.7,0.3-1.2c-0.4-0.6-1.2-0.2-1.7,0C856.7,252.1,857.3,253.1,857.5,253.1z"/>
		<path class="st0" d="M859.2,251.3c0-0.3-0.5-0.7-0.4-1c0.2-0.3,1.3,0.8,1.3,0.8c0.2,0,0.5-0.1,0.7-0.2c-0.3-0.2-0.6-0.4-0.6-0.6
			s0.6-0.2,0.5-0.4c-0.2-0.2-0.6-0.2-0.9-0.1c-0.2,0.1,0,0.5-0.1,0.6c-0.2,0-0.1-0.4-0.2-0.4c-0.2-0.1-0.5-0.2-0.7-0.1
			c-0.6,0.1,0,1.1-0.6,0.7c-0.5-0.3-1.4-1.6-1.2-2.2c0.1-0.3,1.4-1.2,0.8-1.8c-0.2-0.2-0.5-0.2-0.7-0.5c-0.1-0.2,0-0.6,0-0.9
			l-0.1-0.1c-0.5,0.3-2.1,0-2.2,0.5c-0.1,0.5,0.1,2,0.2,2.5c0,0.2,0.3,0.2,0.3,0.4c0,0.1-0.1,0.3-0.2,0.3c-0.2,0-0.5-0.3-0.6-0.2
			c-0.1,0.2,0.2,0.3,0.3,0.5c0,0.1,0.6,1.8,1.2,1.5c0.2-0.1-0.2-0.5,0-0.7c0.2-0.1,0.6,0.1,0.6,0.3c0.1,0.2-0.4,0.3-0.4,0.6
			c-0.1,0.7,0.8,0.6,1.1,0.5c0.2-0.1,0.2-0.5,0.5-0.6c0.3-0.1,0.7,0.1,1,0.2C859,251,859.2,251.5,859.2,251.3z"/>
		<path class="st0" d="M860.8,251.2c0.1,0.2,0.5,0.4,0.5,0.2c-0.1-0.1-0.2-0.2-0.4-0.3C861,251.1,860.8,251.2,860.8,251.2z"/>
		<path class="st0" d="M862,251.7c0.2,0.1,0.4,0,0.6,0.1c0.2,0.2,0.2,0.6,0.5,0.7c0.2,0.1,0.5-0.1,0.8-0.1c0.1,0,0.4,0.1,0.3,0
			c-0.1-0.2-0.4-0.3-0.6-0.6c-0.2-0.3-0.2-1-0.6-1c-0.3,0-0.9,0.5-1.3,0.3C861.8,251.4,861.8,251.6,862,251.7z"/>
		<path class="st0" d="M860,255.5c0.1,0.3,1.3,0.9,1.3,0.6c0-0.3-0.3-0.6-0.3-0.9c0-0.2,0.4-1.1,0.2-1.5c-0.5,0.2-0.8,0.3-1,0.4
			c0.4-0.4,0.6-0.8,0.3-0.9c-0.1-0.1-0.2,0.1-0.3,0.2c-0.5,0.1-0.8-0.1-1.3-0.2c0.3,0.5,0.2,0.9,0.2,1.4c0,0.1,0,0.5,0.1,0.4
			c0,0,0.5-0.3,0.8-0.7c0,0.2,0.7,0.2,0.5,0.8C860.5,255.3,860,255.3,860,255.5z"/>
		<path class="st0" d="M853.2,259.4c0.5-0.1,1.4-1.2,1.6-1.7c0.1-0.3,0-0.6,0.2-0.9c0.2-0.5,1.1-0.6,1.2-1.1c0-0.2-0.3-0.2-0.4-0.4
			c-0.1-0.2-0.1-0.4-0.1-0.7c-0.1,0.2-0.3,0.4-0.3,0.7c0,0.2,0.2,0.4,0.2,0.5c0,0.1-0.2,0.1-0.3,0.2c-0.3,0.5-0.6,1.1-0.9,1.6
			c-0.3,0.6-0.7,0.6-1.1,1.4C853.2,259.2,853.2,259.4,853.2,259.4z"/>
		<path class="st0" d="M866.5,256.8c-0.1-0.3-0.4-0.4-0.5-0.7c-0.2-0.2,0-0.6-0.2-0.8c-0.1-0.1-0.4,0.2-0.5,0
			c-0.1-0.1,0.3-0.2,0.3-0.4c-0.1-0.7-1.1-0.7-1.5-0.8c0.1,0.3,0.5,0.7,0.4,1c-0.2,0.3-0.7,0.1-1,0.3c-0.2,0.2,0.2,0.5,0.1,0.7
			c-0.1,0.1-0.4-0.1-0.5,0c-0.3,0.3,0.1,1.3-0.8,1.2c-0.3-0.1-0.3-0.8-0.6-0.8s-0.2,0.7-0.5,0.9c-0.2,0.2-0.8,0.2-0.9,0.5
			c-0.1,0.3,0,0.6-0.1,0.9c0,0-0.3,0.2-0.2,0.3c0.8,0.7,0.3-1,0.9-1.2c0.2,0,0.2,0.4,0.3,0.4c0.2-0.1,0.1-0.5,0.3-0.5
			c0.2,0,0.3,0.4,0.5,0.3c0.4-0.2-0.6-0.8,0.2-0.7c1.9,0.2,0,0.7,1,1.6c0.3,0.2,1.3,0.3,1.5,0.2c0.1,0,0-0.4,0.2-0.4
			c0.2,0.1,0.2,0.6,0.4,0.6c1.4-0.5-0.7-0.8-0.1-2.2c0-0.1,0.1-0.2,0.2-0.2c0.5,0.2,0.5,0.5,0.6,0.9c0,0.1,0.2,0.4,0.2,0.3
			c0-0.2,0-0.5,0-0.7C866.3,257.3,866.7,257,866.5,256.8z"/>
		<path class="st0" d="M819.2,250.1c0-0.2,0-0.3,0-0.5C818.8,249.6,819.2,250.4,819.2,250.1z"/>
		<path class="st0" d="M823.5,254c0.1-0.1-0.3-0.3-0.2-0.4C823.3,253.5,823.3,253.9,823.5,254c0.3-0.1,0.5-0.2,0.6-0.4
			c0.1-0.3-0.2-0.7,0.1-0.9c0.7-0.5,0.4,0.9,0.7,1.2c0.1,0.1,0.4-0.3,0.5-0.2c0.1,0.2-0.2,0.4-0.2,0.6c0,0.1,0.2,0.1,0.2,0.2
			c0.1,0.4,0,0.8,0.2,1.2c0.1,0.3,0.4,0.5,0.5,0.8c0.1,0.2-0.1,0.6,0.1,0.8c0.2,0.2-0.1-0.5,0-0.7c0.1-0.1,0,0.3,0.1,0.5
			c0.1,0.2,0.4,0.4,0.5,0.6c0.1,0.3,0,0.6,0.1,0.9c0,0.2,0.2,0.3,0.2,0.5c0,0.1-0.3,0.1-0.2,0.1c0.1,0.1,0.4,0,0.5,0.2
			c0.2,0.8-1.1,1.5-0.3,2.2c0.1,0.1,0.2-0.4,0.2-0.5l0,0c0,0.3-1.1,2.5-0.5,2.7c0.2,0,0.3-0.3,0.4-0.2c0.6,0.1,1.8,1.7,2.3,2.2l0,0
			c0,0,0-0.2,0-0.3c0,0.1,0,0.3,0,0.3l0,0c0.4,0.4,0.4,1.5,0.5,1.6c0.1,0.2,0.4,0.2,0.5,0.5c0,0.2-0.2,0.3-0.1,0.5
			c0.2,0.5,1,0.6,1.2,1.2c0.1,0.2-0.1,0.4,0,0.5c0.2,0.2,0.5,0.1,0.7,0.2c0.4,0.2,2.2,0.9,2.4,1c0.1,0.1,0.1,0.3,0.2,0.3
			c0,0,0,0,0.1,0c0.4,0,1,0,1-0.2v-0.1c-0.4-1.2-1-1-1.4-1.7c-1-1.7,1.3-1.8-1.9-3.8c-0.1,0-0.2-0.1-0.3-0.2l0,0
			c-0.7-0.3-2-0.8-2.5-0.8c0.1,0,0.2,0,0.2-0.1s-0.2-0.2-0.2-0.3c-0.2-0.4-0.1-0.9-0.4-1.2c-0.1-0.1-0.3-0.1-0.4-0.2
			c-0.1-0.2,0-0.7-0.2-0.8c-0.2-0.2-0.6,0.2-0.9,0.1c-0.4-0.2,0-1,0-1.2c0-0.5,0.9-2,0.9-2.5c0-0.3,0.1-0.7,0-1.1
			c0-0.1-0.3-0.2-0.2-0.3c0.1-0.4,1.3-0.5,1.4-0.4c0.2,0.3-0.4,1.1-0.1,1.1c0.5,0,1.5-0.2,1.7-0.1c0.2,0.1,0.2,0.3,0.4,0.4
			c0.1,0,0.3-0.2,0.4-0.1c0.2,0.1,0.3,0.5,0.5,0.7c0,0,1.1,0.5,1.2,0.8c0.1,0.2-0.2,0.4-0.1,0.5c0.1,0.1,0.2-0.3,0.3-0.3
			c0.5,0,0.9,0.2,1.3,0.4c-0.1,0-0.2-0.1-0.2-0.1c0.2,0.1,0.4,0.2,0.6,0.3c0.1,0,0.2,0.1,0.2,0.2c-0.1,0.5-0.6,1.3-0.1,1.4
			c0.2,0.1-0.1,0.3-0.1,0.3c1.3-0.3,0.1-0.2,0.9-0.8c0.3-0.2,0.8-0.1,0.9-0.4c0.1-0.3-0.9-0.5-0.6-0.7c0.3-0.2,1,0.7,1.1,0.4
			c0.3-0.8-0.2-1.3,0.1-1.4c0.6-0.1,0.1,0.5,0.7,0.2c1.6-0.6,0.5-0.3,1.1-0.8c0.3-0.2,0.6-0.5,0.9-0.7c0,0,0.3,0,0.3-0.1
			c0-0.1-0.1-0.2-0.1-0.4c0.1-0.1,0.3,0,0.3-0.2c0-0.3-0.2-0.5-0.3-0.8c-0.1-1.3,0.8,0.4,0.3-0.7c-0.2-0.4-1-2.6-1.2-2.7
			c-1-0.8,0,0.8-1-0.7c0,0,0.1-0.2,0-0.2c-0.2-0.1-0.5,0-0.7-0.1c-0.5-0.2-1.5-0.9-1.9-1.3c-0.2-0.2-0.1-0.5-0.3-0.6
			c-0.6-0.6-1.5-0.1-1.1-1.7c0.2-1.2,0.2,0.1,0.9-1c0.4-0.6-0.3-0.7,0-1c0.2-0.2,0.6,0,0.9-0.2c0.1-0.1-0.1-0.3,0-0.4
			c0.2-0.3,0.5-0.4,0.7-0.4c0.3,0,0.6-0.1,0.9-0.2c0.1,0-0.1-0.3,0-0.3c0.2,0.1,0.3,0.4,0.5,0.4c0,0,0.9-0.5,1-0.3
			c0.2,0.3-0.1,0.7,0,1c0,0.2,0.1,0.7,0.3,0.5c0.2-0.1,0.1-1.4,0.2-1.6c0.3-0.3,1.2-0.3,1.6-0.5c0.3-0.1,0.6-0.2,0.7-0.4
			c0.1-0.1-0.1-0.4,0-0.5c0.1-0.1,0.2,0.3,0.3,0.3c0.2,0,0.4-0.2,0.5-0.3c0.1-0.1,0-0.3,0.1-0.4c0.1-0.1,0.2,0.3,0.2,0.2
			c0-0.2-0.4-0.5-0.2-0.6c0.2-0.1,0.5,0.5,0.6,0.3c0.2-0.2-0.2-0.6-0.3-0.9c0-0.1-0.2-0.2-0.2-0.2c0.4,0.2,1.1,1,1.3,0.7
			c0.1-0.1-0.2-0.2-0.1-0.3c0.3-0.4,0.7-0.7,1.2-0.8c0.1,0,0.2,0.3,0.4,0.2c0.1,0-0.4-0.2-0.3-0.3c0.1-0.1,0.4,0.1,0.5,0.1
			c0.3-0.1,0.6-0.2,0.8-0.5c1-1.2-0.5,0.1-0.1-0.6c0-0.1,1.7-1.4,1.6-1.6c0-0.2-0.4,0-0.5-0.1c-0.1-0.6,0.9-0.3,1-0.4
			c1.4-1.4-0.7,0.6,0-0.9c0.1-0.2,0.4,0,0.5-0.2c0.1-0.1-0.3,0-0.4-0.1c0-0.1,0.1-0.3,0.2-0.3c0.2,0,0.4,0.3,0.5,0.2
			c0.1-0.1-0.3-0.2-0.4-0.3c0-0.2,0.3-0.4,0.2-0.5c-0.4-0.3-1.7,0.7-0.5-0.9c0.1-0.2,0.4-0.3,0.6-0.2c0.1,0-0.2,0.4-0.1,0.4
			c0.3,0,0.5-0.6,0.4-1c0-0.1-0.3,0-0.3-0.1c0-0.1,0.3,0.1,0.3,0c0.1-0.2,0-0.5,0-0.7c0-0.1,0.2-0.2,0.2-0.3c-0.1-0.1-0.4,0-0.4-0.1
			c0-0.2,0.3,0,0.5-0.2c0.1-0.1,0-0.3,0.1-0.4c0.1,0,0.2,0.2,0.3,0.2c0.1,0,0.3-0.2,0.2-0.3c-0.2-0.2-0.7-0.2-0.8-0.5
			c-0.1-0.2,0.5,0,0.6-0.2c0.1-0.2-0.4-0.1-0.4-0.3s1.3-0.5,0.5-0.7c-0.2,0-0.6,0.5-0.6,0.3c0-0.3,0.6-0.4,0.6-0.7
			c0-0.2-0.3,0.1-0.5,0.1c-0.2,0-0.4-0.3-0.6-0.2c-0.2,0.1-0.2,0.4-0.4,0.5c-0.1,0-0.2-0.2-0.4-0.2c0.4-0.3,0.9-0.9,1.2-1.2
			c0.2-0.3-0.6-0.6-1.4-0.7c-0.2,0-0.3,0-0.3,0c0.1,0,0.2,0,0.3-0.1c0.3,0,1.3,0,1-0.2s-0.5-0.5-0.8-0.6c-0.2-0.1-0.5,0.1-0.7-0.1
			c-0.1-0.1,0-0.3-0.1-0.5c-1.5-2.2-0.3-0.2-0.9-0.8c0,0-0.2-0.4-0.4-0.5c-0.3-0.1-0.7-0.2-1-0.2c-0.1,0-0.2,0.2-0.2,0.1
			c-0.5-0.6,0.6-1.3,0.6-1.9c0-0.1-0.4-0.1-0.3-0.2c0-0.1,0.2,0.2,0.4,0.1c0.1,0,0.2-0.2,0.2-0.3c0.1-0.2,0.2-0.3,0.1-0.5
			c0-0.1-0.3,0-0.2,0c0.2-0.2,0.6-0.3,0.8-0.5c0.1-0.1,0.1-0.3,0.2-0.4c0.2-0.1,0.5,0.1,0.6-0.1c0.1-0.2,0.1-0.5,0-0.7
			c-0.2-0.1-0.9,0.4-1.1,0.4c-0.1,0-0.2-0.2-0.3-0.2c-0.2,0-0.5-0.1-0.7,0c-0.3,0.1-0.5,0.5-0.7,0.9c0,0.1,0.1,0.2,0,0.3
			c-1.7,0.6-0.3-0.3-1.3-0.9c-0.3-0.1-0.5,0.2-0.8,0.3c-0.1,0-0.2,0-0.3-0.1c-0.2-0.1-0.7-0.6-0.4-0.9s1-0.1,1.2-0.5
			c0.1-0.2,0-0.6,0.2-0.8c0.6-1.5,0.1,0.5,0.8-1c0.2-0.4,0-1.5,1-1.4c1.1,0.1,0.4,0.6,0.5,1.1c0,0.3,0.3,0.5,0.3,0.7
			c0.1,0.5-1.2,1.6-0.4,1.1c0.7-0.5,0.9-1.6,1.4-2.1c0.2-0.2,0.6-0.2,0.9-0.4c0.1-0.1-0.1-0.3,0.1-0.4h0.1c0.1,0,0.2,0.2,0.4,0.2
			c0.3,0,0.6-0.2,0.8,0c0.3,0.2-0.2,1,0.1,1c0.2,0,0.5-0.2,0.6,0c0.1,0.3-0.2,0.5-0.4,0.8c-0.1,0.1-0.4,0.2-0.2,0.2
			c0.3,0,0.6-0.2,0.9-0.3c0.2,0,0.5,0.2,0.7,0.1c0.2,0,0.3-0.4,0.5-0.3l0,0c1,0.6,0,1.4,0.7,2.1c0.1,0.1,0.3-0.2,0.4-0.1
			c0.1,0.1-0.2,1.1-0.1,1.4c0,0.2,0.2,0.3,0.3,0.3c0.1,0,0.2-0.3,0.3-0.2c0,0.1-0.3,0.1-0.2,0.2c0,0.1,0.4-0.1,0.3,0
			c-0.1,0.1-0.4,0-0.4,0.1c0.2,0.9,1.2-0.1,1.2-0.2c1-1.7-0.8,0.3,0.1-0.8c1.4-1.8,0.2,0.5,1.2-0.7c0.5-0.6,0-0.9-0.2-1.3
			c-0.6-1.2-1.3-1.9-2.5-2.5c-0.6-0.3-1.5,0-1.5-0.9c0-0.3,1.4-1.9,1.3-2.3c0-0.3-0.6-0.5-0.5-0.9c0.1-1,0.3-1,0.4-1.2
			c0.1-0.1,0.2-0.3,0.2-0.7c0-0.3-0.2-0.8,0-1c0.1,0,1.2,0.8,2.1-0.5c1-1.5,0.6-5.1,0.4-6.9c-0.1-0.5,0-2.2-0.1-2.3
			c-0.2-0.4-0.4-0.9-0.7-1.3c-0.1-0.1-0.3-0.1-0.4-0.2c0-0.1,0.1-0.3,0-0.4c-0.2-0.2-0.5-0.3-0.7-0.5c-0.2-0.3-0.4-0.8-0.5-1.2
			c-0.1-0.2-0.2-0.5-0.2-0.7c0,0,0.1-0.1,0.1-0.2c-0.2-0.1-0.4,0.1-0.5,0c-0.2-0.1-0.1-0.4-0.3-0.5c-0.2-0.1-0.5,0.2-0.6,0
			c-0.1-0.2,0.4-0.4,0.3-0.5c-0.2-0.2-0.6,0.1-0.9,0c-0.2,0-0.8-0.5-1.1-0.3c-0.4,0.3-0.4,2-0.8,1.9c-0.2-0.1-0.4-0.3-0.5-0.6
			c-0.1-0.1,0.2-0.3,0.1-0.4c-0.7-0.3-2.1,1.2-2.1,0.5c0-0.9,0.6-2,0.5-2.8c0-0.3-0.2-0.5-0.2-0.7c0-0.1,0.3-1.5,0.2-1.6
			c-0.2-0.6-0.6-2-0.1-2.7c0.3-0.4,0.6-1,1.1-1.2c0.2-0.1,0.4,0.1,0.6-0.1c0.1-0.1-0.3-0.2-0.2-0.4c0.2-0.2,0.5-0.1,0.7-0.2
			c0.1-0.1,0-0.4,0.1-0.5c0.1-0.1,0.4,0,0.5-0.2c0-0.1-0.3,0-0.3-0.1c-0.1-0.2-0.1-0.5,0.1-0.7c0.2-0.2,0.6-0.1,0.8-0.3
			c0.1-0.1,0-0.4,0.1-0.5c0.2-0.2,0.6-0.4,0.8-0.2c0.2,0.2-0.4,0.5-0.4,0.7c0,0.2,0.3,0.2,0.4,0.1c0.2-0.2,0-0.5,0.2-0.7
			c0.1-0.1,0.3,0,0.4-0.2c0.1-0.2,0.2-0.5,0.3-0.7c0.1-0.2,0.5-0.5,0.3-0.7c-0.2-0.2-0.5,0.3-0.8,0.3c-0.7,0-0.7-1.5-0.8-1.9
			c-0.1-0.4-0.5-0.7-0.7-1c-0.2-0.5,0.1-1.2,0.3-1.5c0.1-0.1,0.3,0.1,0.4,0c0.1-0.2-0.2-0.4-0.1-0.6c0-0.1,0.2,0.1,0.2,0.1
			c0.3,0.2,0.6,0.3,0.9,0.5c0.2,0.1,0.2,0.5,0.5,0.5c0.3,0,0-0.5-0.3-1.1c-0.1-0.3-0.4-0.5-0.4-0.9c0-0.2,0.2-0.3,0.2-0.5
			c0-0.2-1.7-0.2-1.1-1.2c0.1-0.2,0.4-0.7,0.7-0.5c0.2,0.2-0.3,0.6-0.1,0.9c0.4,0.9,1.4,0.3,1.7,1.1c0.1,0.2-0.1,0.3-0.1,0.5
			c0,0.3,0.1,0.5,0.2,0.8c0.1,0.3,1.9,3.4,1.8,3.7c-0.1,0.3-0.5,0.6-0.4,0.9c0.1,0.3,0.6,0.4,0.8,0.6c0.4,0.6,0.2,1,0.9,1.5
			c1.2,1,3.1,1.7,4.2,2.4c1.7,1.1,1.8,1.1,1.5,0.8c0,0-0.1-0.2,0.4,0.1c0.1,0,0.2,0.3,0.2,0.2c0,0-0.3-1.7-0.5-1.9
			c-0.3-0.3-0.6-0.7-1-1c-0.1,0-0.2,0.1-0.2,0s0.2-0.2,0.2-0.3c0.1-0.2,0-0.5,0.1-0.8c0-0.1,0.4,0,0.3,0c-0.2-0.1-0.4,0-0.6-0.2
			c-1.6-1-0.3-1.4-0.6-2.4c-0.1-0.2-0.4,0-0.6-0.1c-0.8-0.2-0.8-0.7-1.1-1.2l0,0c0.2,0.1,0.5-0.4,0.3-0.5c-0.7-0.7-0.8,0.1-1.7-0.4
			c-0.2-0.1-0.1-0.5-0.4-0.6c-0.9-0.5,0.2,1.2-0.8,0.6c-0.2-0.1-1-1-1-1.3c0-0.1,0.2-0.1,0.2-0.1c-0.2-0.2-1.2-0.7-1.1-0.9
			c0.1-0.3,0.4-0.5,0.4-0.9c0-0.3-0.5-0.8-0.3-1c0.2-0.2,0.5,0.5,0.8,0.5c0.1,0,0-0.2-0.1-0.4c-0.4-0.6-0.6-0.3-0.4-1
			c0.1-0.3,0-0.7,0.2-0.9s0.6-0.1,1-0.2c0.1,0,0.2,0,0.2,0c-0.2-0.2-0.5-0.2-0.7-0.4c-0.2-0.3-0.1-1-0.2-1.1c-0.5-0.3-0.8-0.7-1-1.3
			c-0.1-0.3-0.6-2.4-0.7-2.5l0,0l0,0c0.2-0.2,0.3-0.6,0.5-0.9h0.1c-1-0.9-1.7,0.1-1.9,0c-0.1,0,0-0.2,0-0.3
			c-0.3-0.1-1.2-0.1-1.6,0.2c0.2-0.2,0.2-0.3,0.2-0.4c-0.4-1.7-2.4-1.2-2.5-1.7c0-0.2,0.4,0,0.5,0c0.3,0,0.6,0.1,0.8-0.1
			c0.3-0.3-0.5-1,0.1-1.3c0.3-0.2,0.8,0.2,1-0.2c0.1-0.2,0.1-0.5,0.2-0.6c0.1-0.1,0.4-0.1,0.5-0.3c0-0.1-0.5,0-0.4-0.2
			c0.1-0.2,0.7,0,0.5-0.1c-0.2-0.1-0.6,0-0.8-0.1c-0.2-0.1-0.2-0.5-0.5-0.6c-0.1,0-0.1,0.3-0.2,0.3c-0.2,0-0.2-0.3-0.4-0.3
			c-0.1,0-0.2,0.4-0.3,0.4c-0.8-0.5,0.8-1.7-0.7-1.7c-0.2,0,0,0.3-0.1,0.5c-0.1,0.1-1,0.3-1,0.5c0,0.1,0.1,0.2,0,0.3
			c0,0.2-0.4,0.4-0.3,0.6c0.2,0.2,0.7,0.1,1,0.2c0.1,0,0.4,0.2,0.3,0.2c-0.3,0.3-1.6-0.3-1.7,0.1c0,0.1,0.3,0.1,0.2,0.2
			c-0.2,0-0.3-0.1-0.5-0.1c-0.5,0.2-0.7,1-0.8,1l-0.1-0.1c-0.2,0.1-0.4,0.2-0.4,0.4l0,0c0,0,0,0-0.1,0c-1.1,0.5-2.7,2.5-2.3,3.3
			c0,0-0.8,0.6-0.8,1c0.1,0.6,1.8-0.3,2,0.5c0.2,1-1.6,0.5-1.8,0.7c-0.1,0.1,0.3,0.3,0.3,0.5c-0.1,0.3-0.3,0.6-0.5,0.9
			c-0.1,0.1-0.3,0-0.3,0.1c-0.2,0.3-0.3,1,0,1.2c0.2,0.2,2,0.3,1,0.7c-0.4,0.1-1-0.6-1.4-0.6c-0.2,0-0.2,0.4-0.5,0.4
			c-0.6,0-1-1.1-2-0.2c-0.3,2.1-0.3,2.7-0.6,3.4c0,0.1,0,0.2-0.1,0.2c-0.3,0-0.7-0.2-0.9,0c-0.2,0.1,0,0.5-0.2,0.6
			c-0.2,0.1,0-0.4-0.2-0.4s-0.4,0.5-0.7,0.5c-0.2,0,0.2-0.5,0-0.6c-0.3-0.1-0.6,0.1-0.9,0.2c-0.1,0.1-0.3,0.2-0.3,0.3
			c0,0.5,0.9,1.3,0.1,1.2c-0.1,0,0.1-0.3,0.1-0.5c0-0.2-0.2-0.4-0.2-0.7c-0.1-0.2-1.5,0.8-1.6,1c-0.1,0-0.7,0.3-0.7,0.3
			c0.1,0.3,0.5,0.5,0.6,0.7c0.1,0.1-0.1,0.3,0,0.5c0.2,0.2,0.6,0,0.7,0.2c0.5,1.4-1.1,0.5-1.5,0.9c-0.2,0.2,0,0.5,0,0.7
			c-0.2,0.4-1-0.5-1.3-0.2c-0.4,0.4,0.8,1.2,0.5,1.6c-0.7,0.8-1.2-1.1-1.7-0.9c-0.1,0,0.3,0.3,0.2,0.3c-0.3,0-0.6-0.3-0.9-0.4
			c-1-0.2,0.9,1.2,0.6,1.1c-0.4-0.2-0.6-0.8-1.1-0.8l0,0v-0.1c0.4-1.1,0.4-1.1,0.3-1.1c-0.3-0.1-0.8-0.4-1-0.2c0,0,0,0.2,0.1,0.5
			c-0.3-0.2-0.7-0.2-0.9-0.2c-0.1,0-0.3-0.1-0.3,0c-0.2,0.8,0.6,0.9-0.1,1.2c0.3,0,0.7-0.1,1-0.1c0.1,0,0.2,0,0.2,0.1
			c-0.4,0.1-1,0.2-1.6,0.3c-0.6,0.1-1.2,0.2-1.3,0.1c-0.1-0.1,0-0.4-0.1-0.4c-0.8-0.2-1.6,0.3-1.7,1c-0.1-0.3-0.3-0.6-0.4-0.6
			c-0.6-0.3-1.1,1.1-1.5,1.3c-0.2,0.1-0.5,0.1-0.7,0.2c-0.1,0.1-0.2,0.2-0.3,0.4c0.1-0.3,0.2-0.7,0.4-1c0.1-0.1,0.3,0,0.3-0.1
			c0.2-0.2,0.3-0.5,0.4-0.8c0,0-0.2,0-0.1-0.1c1.2-1.6,1.3-1.6-0.2-2.6c-0.2-0.1-0.2-0.4-0.4-0.4c-1.3-0.1-0.9,1.4-1.3,0.7
			c-0.1-0.2,0.3-0.4,0.2-0.6c-0.2-0.2-0.4,0.1-0.6,0.1s-0.5,0.1-0.5-0.1c0.1-0.5,1.5-0.6-0.2-0.8c-0.4,0-0.6,0.7-0.7,1.1
			c0,0.2,0,0.4,0.1,0.5l0,0l0,0c-0.2,0-0.6-0.1-0.6,0.1c-0.1,0.2,0.3,0.3,0.4,0.5v0.1c-0.1-0.1-0.2-0.2-0.4-0.3
			c-0.3-0.1-0.6,0.2-1,0.3c-0.3,0-0.6,0-0.9,0.1c-0.1,0-0.1,0.2-0.1,0.2c0.1,0.1,0.5-0.1,0.4,0c-0.7,0.6-1.8,0.3-2.4,1
			c-0.1,0.1,0.3,0.1,0.3,0.2c0,0.2-0.1,0.4-0.3,0.5c-0.1,0.1-0.3-0.2-0.4-0.2c-0.5,0.5,0.6,0.9,0.6,1c0,0.3-0.6,0.2-0.7,0.5
			c-0.2,0.2,0.5,0.6,0.2,0.6c-1.1,0,0.1-1.1,0.1-1.1c-0.1-0.2-0.4,0.2-0.6,0.2c-0.2,0-0.5,0-0.7,0c-0.9,0-1.1,0-1.1,0
			c-0.4,1.9,0.9,2,1,2.5c0,0.5-0.5,1-0.5,1.6c0,0.1,0.1,0.4,0.1,0.3c-0.5-0.5-0.6-0.9-0.2-1.5c0.1-0.2,0.7-0.4,0.5-0.5
			c-0.2-0.1-0.5,0-0.7-0.1s-0.7-1.3-1.2-1c-0.2,0.1-0.1,0.5-0.3,0.6c-0.3,0.1-0.6-0.2-0.9-0.2c-0.9,0.2,0.5,0.5,0.7,0.8
			c0.1,0.1,0,0.4,0.1,0.6c0.1,0.1,0.3-0.2,0.3-0.1s-0.2,0.2-0.3,0.1c-0.6-0.2-1.4-0.7-1.1-1.4c0.1-0.3,0.4-0.5,0.4-0.8
			c0-0.2-0.1-0.6-0.2-0.5c-0.2,0.2-0.1,0.7-0.3,0.9c-0.3,0.4-1,0-1,0.7c-0.1,0.7,0.5,0.8,0.1,1.3c-0.1,0.1-1,1.1-0.6,1.5
			c0.3,0.3,1.4-0.2,1.7,0.6c0.1,0.2,0.2,0.5,0.1,0.8c-0.1,0.2-0.5,0.3-0.5,0.5c-0.6-0.7,1.2-1.7-1.1-1.4c-0.3,0-0.1,0.5-0.2,0.8
			c-0.2,1.1-0.9,1.1-1.7,1.6c-0.1,0.1-0.1,0.5-0.4,0.4c-0.3-0.1-1.2-0.5-1.2-0.7c-0.1-0.1-0.2-0.5-0.1-0.4c0.3,0.1,0.5,0.5,0.8,0.6
			c0.1,0,2.2-1.5,2.2-2c0-0.2-0.4-0.4-0.4-0.7c0-0.5,0.2-1.1,0.4-1.5c0.1-0.2,0.4-0.4,0.4-0.7s-0.3-0.5-0.2-0.8
			c0.1-0.5,1.6-1.2,0.5-1.7c-1.6-0.7-0.7,0.7-1.8,1.1c-0.4,0.1-1,0.1-1,0.5c0,0.2,0.2,0.3,0.2,0.5c-0.2,0.5-1,0.8-0.8,1.3
			c0.1,0.2,0.5,0,0.6,0.2c0.1,0.2-0.2,0.5-0.1,0.7c0,0.1,0.4,0,0.3,0.2c-0.1,0.3-0.3,0.7-0.6,0.7c0,0-0.5-0.7-1-1.4l0,0
			c-0.6-0.8-1.3-1.7-1.7-1.6c-1,0.1-0.1,0.8-0.5,1.1c-0.2,0.1-0.4,0-0.6,0c-0.1,0.1-0.2,0.5-0.3,0.4c-0.1-0.3,0.3-0.6,0.1-0.9
			c-0.2-0.2-0.5,0-0.8,0c-0.1,0-0.2,0.2-0.2,0.1c-0.3-0.1-0.5-0.4-0.9-0.4c-0.5-0.1-0.6,1-1.1-0.1c-0.1-0.1,0.3,0.1,0.4,0
			c0.1-0.2,0-0.5,0.2-0.6c-0.7-0.1-1.4-0.1-2.1,0c-0.2,0-0.4,0.1-0.5,0c-0.1,0-0.1-0.3-0.2-0.2c-0.1,0.1,0.1,0.4,0,0.5
			c-0.2,0-0.4-0.3-0.6-0.3c-0.5,0.2-0.7,1.4-1.4,0.2c-0.8-1.6,1.1-0.7,1.2-0.7c1-0.6-0.2-1.2-0.4-1.5c-0.1-0.1,0-0.3-0.1-0.3
			c-0.2,0,0.2,0.3-0.4,0.9c-0.2,0.2-0.6,0.3-0.8,0.6c-0.2,0.2,0,0.6-0.2,0.8c-0.1,0.2-0.3,0.1-0.5,0.2s-0.2,0.6-0.4,0.5
			c-0.2-0.4,0.6-1-0.2-1.3c0,0-2.1,0.1-2.1,0.2c-0.2,0.3-0.1,1.2-0.5,1.1c-0.5-0.1-1-0.8-0.9-1c0-0.1,0.4,0,0.4-0.1
			c0-0.3-0.1-0.7-0.3-0.9c-1.5-1,0.6,2.9-1.1,1.5c-0.2-0.2-0.1-0.6-0.2-0.9c0-0.2-0.3-0.6-0.2-0.8c0.1-0.2,0.4-0.3,0.6-0.5
			c0.1-0.1,0-0.3,0.1-0.4c0.2-0.1,0.5,0.1,0.6,0c0.8-0.7-0.1-2.5,0.5-2.4c0.3,0,0,0.6,0.1,1c0,0.1,0,0.1,0.1,0.2c0,0,0.1,0,0.2,0
			c0.1,0.1-0.2,0.2-0.1,0.3c0.3,0.7,0.9,2.2,1.8,2.2c2.4,0,1.4-1.1,1.4-2.4c0-0.6,0.1-1.2,0-1.6c-0.1-0.3-0.4-0.6-1.1-0.7
			c0.2,0,0.5-0.1,0.6-0.3c0.1-0.2-0.4-0.4-0.3-0.6c0.1-0.2,0.5,0.4,0.5,0.2c0.3-1.3-1.3,0.3-0.7-0.7c-0.3,0.2-0.3-0.2-0.3-0.2
			c-0.1,0.2-0.5,0-0.6,0c0,0-0.4,0.2-0.4,0.1l0,0c-0.8-0.2-0.9,0.9-1.2,1.5c-0.2,0.3-0.9,0.1-1.1,0.2c-0.7,0.3-0.7,1.3-1.8,1.5
			c-0.2,0-0.7,0.9-0.8,1.2c-0.1,0.3-0.8,0.2-0.8,0.2c-0.1,0.4,0,1-0.3,1.3c-0.3,0.3-2.8,0.3-4,0.3l0,0v0.1c0,0.2-0.1,0.3,0,0.6l0,0
			l0,0l0,0l0,0l0,0c0,0-0.1-0.1,0.1,0.1l0,0l0,0l0,0l0,0l0,0c0.1,0.2,0.2,0.4,0.1,0.5c-0.1,0-0.5-0.9-1.1-0.9
			c-0.2,0-0.2,0.3-0.4,0.2c-0.7-0.3-0.3-0.8-0.7-1.3c-0.9-1.1-0.7-0.4-1.1-0.5c-0.1,0-0.2-0.3-0.3-0.3s-0.9,0.6-0.9,0.8
			c0,0.2,0.4,0.3,0.3,0.5c-0.1,0.2-0.4,0.1-0.6,0.2l0,0c0.1,0.2,0.6,0.3,0.6,0.4c0.1,0.3-0.3,0.9-0.1,1.1c0.1,0.2,0.3,0.3,0.4,0.4
			v0.1c0.4,0.5-0.7,0.6-0.6,0.7c0.1,0.3-0.2,0.7-0.6,0.8l0,0c-0.1,0.2,0.2,0.4,0.3,0.6c0,0.2-0.2,0.5-0.2,0.5
			c0.1,0.1,1.1,0.2,0.6,0.8c-0.1,0.1-0.9,0.6-0.9,0.6c-0.1,0.5-0.2,0.3-0.3,0.8c0,0.1,0.1,0.4,0.1,0.4c0,0.1-0.2,0.1-0.3,0.2
			c0,0.1,0.2,0.2,0.2,0.3c0.1,0.2-0.1,0.2-0.1,0.5c0,0.1-0.2,0-0.3,0c-0.1,0-0.1,0.2-0.4,0c-0.2-0.2,0-0.3-0.2-0.5l0,0
			c-0.2,0.1-0.9,1-0.9,1.2c0,0,1.2,0.5,1.4,0.9c0.2,0.4-0.7,1.1-0.9,1.3c-0.1,0.1,0.5,0.5,0.5,0.5c-0.1,0.2-0.5,0.8-0.5,1
			c0,0.2,0.3,0.1,0.4,0.3c0,0.1,0,0.4,0.1,0.4c0.1,0,0.7,0.1,0.7,0.2c0,0.2-0.2,0.5-0.1,0.8c0.1,0.3,0.2-0.2,0.3,0
			c0.1,0.3,0.4,1.1,0.5,1.3c0.1,0.1,0.2-0.1,0.2,0.1c0,0.1-0.2,0-0.2,0.1c-0.1,0.3-0.7,0.3-0.7,0.3c0,0.1,0.2,0.3,0.2,0.3
			c-0.2,0.2-0.1-0.2-0.5,0c-0.1,0.1,0,0.5-0.4,0.7c-0.1,0,0.1,0.2-0.1,0.2c-0.5-0.2-1.3-1-1.7-0.2c0.5,0.1,0.9,0.4,0.8,0.7
			c-0.1,0.3-0.7,0.1-1,0c-0.2-0.1-0.3-0.4-0.6-0.5c-0.4-0.1,0.3,0.8,0,1.1c-0.1,0.2-0.3-0.4-0.5-0.4c-0.3,0.1-0.5,0.6-0.8,0.7
			c-0.3,0-0.5-0.5-0.7-0.7c0,0.3,0,0.4-0.2,0.4c0.1,0.1,0.2,0.2,0.2,0.3c0.1,0.5,0.2,0.9,0.3,1.4l0,0l0,0l0,0c0,0,0,0,0,0.1l0,0l0,0
			l0,0l0,0l0,0l0,0c0.1,0.5,0.3,1.1,0.5,1.6l0,0c0,0,0,0.1,0,0.2c0.1,0.2,0.2,0.5,0.2,0.7c0.1,0.2,0.2,0.5,0.2,0.7
			c0,0.4-0.1,0.9-0.4,1.1c-0.1,0.1-0.2,0.1-0.5,0.2l0,0c0.1,0.1,0.6,0.6,0.7,0.6c0.1,0,0.4-0.1,0.4,0c0,0.3,0.1,0.5,0.2,0.9
			c0,0.1,0,0.3,0,0.5c0,0.1-0.7,0.5-0.6,0.7c0.1,0.1,0.2,0.2,0.2,0.3c0.1,0.1,0.2,0,0.2,0.1c0.2,0.2,0.2,0.4,0.2,0.7
			c0,0.4-0.1,0.8,0.1,1.1c0.1,0.3,0.3,0.5,0.6,0.5c0.1,0,0.2,0.1,0.3,0.1c0.8,0.1,1.7-0.4,1.8-0.1c0.3,0.6,0.2,0.5-0.1,0.5
			c-0.2,0,0.2,0.5-0.1,0.4c0,0-0.3-0.2-0.3,0c0,0.3,0.2,0.8,0.5,0.9c0.2-0.3,0.3-0.6,0.5-0.8c0.1-0.1-0.1,0.2,0,0.3
			c0.2,0,0.4-0.1,0.5-0.2c0.5-0.5-1.4-0.5,0.6-0.9c0.3-0.1,0.7,0.6,0.9,0.3s-0.4-0.6-0.5-0.9c0-0.1-0.1-1-0.2-1.7
			c0-0.6-0.1-1.2-0.1-1.3c-0.1-1.1,0.4-0.4,0.8-1.4c0.1-0.2-0.1-0.4-0.1-0.6s-0.3-0.4-0.2-0.6c0-0.1,0.2-0.2,0.3-0.2
			c0.2-0.1,0.6,0,0.7-0.1c0.2-0.2,0.2-0.5,0.4-0.6c0.1-0.1,0,0.3,0,0.3c0.1,0,0-0.3,0.1-0.3c0.1,0,0,0.2,0.1,0.3
			c0.1,0,0.2,0.1,0.3,0.1l0,0l0,0l0,0l0,0l0,0l0,0l0,0l0,0l0,0l0,0l0,0l0,0c0.1,0,0.2,0,0.2,0c0.3,0,0.5-0.2,0.8-0.4
			c0.1,0,0.1-0.2,0.2-0.2c0.1,0,0.2,0.3,0.6,0.2c0.1,0,0.1,0,0.2,0l0,0c0.3,0,0.7-0.1,1,0c0.3,0.1,0.3,0.6,0.6,0.8
			c0.2,0.1,0.6-0.1,0.7,0.1c0.5,1.1-0.8,1-1,1.5c-0.1,0.2,0.2,0.3,0.3,0.5c0,0.1-0.2-0.1-0.4-0.2c-0.3-0.2-0.5-0.4-0.8-0.6
			c-1.1-0.5-1,0.4-0.7,1c0,0-0.1,0-0.2-0.1c-0.3-0.2-1-0.9-1-0.5c0.2,0.8,0.4,0.8,0.2,1.7c0,0.1-0.2,0.2-0.2,0.3c0,0.1,1,1.1,1,1.1
			c0.1,0-1,0.4-0.8,1c0.2,0.7,0.9-0.5,1.3,0.1c0.1,0.2,0,0.4,0,0.7c0,0.1-0.1,0.2-0.1,0.3c0.1,0.3,0.4,0.5,0.4,0.8
			c0,0.2-0.4-0.1-0.5,0c-0.1,0,0.1,0.3,0,0.3c-0.7,0.1-1-2-1.7-0.5c-0.8,1.9,0.1-0.1,0.5,0.9c0.1,0.1-0.3,0.1-0.3,0.3
			c0,0.1,0.3,0.3,0.2,0.3c-0.2,0-0.3-0.3-0.5-0.2c-0.2,0-0.2,0.2-0.2,0.4c0,0.1,0.1-0.2,0.2-0.2c0.8,0.9-0.2,1.7-0.5,2.6
			c0.9,0.5,1-0.3,1.9-0.2c0.7,0.1,1.2,0.5,1.8,0.5c0.2,0,0,0.4,0,0.4c0,0.2,0.6,0.6,0.7,0.7c0.1,0.2,0.5,0.1,0.7,0.3
			c0.4,0.3,0.6,1.4,1,1.7c0.2,0.2,0.5,0.2,0.8,0.3c0,0-0.3,1.1-0.4,1.2v0.1c-0.3,0.9-1.2,1.2-1.6,2c-0.1,0.2,0.4,0.4,0.4,0.4
			c-0.2,0.1-0.4,0.2-0.5,0.3c-0.2,0.2,0,0.9-0.1,1.2c0,0.1-0.4,0.8-0.3,0.9c0.5,0.5,1.1,0.2,0.9,0.9c-0.1,0.6-1.2,0.7-1.6,1.1
			c0,0,0.1,0,0.1,0.1c0,0-0.1,0-0.1-0.1c0.2,0.6,0.3,1.6,0.8,2c0.1,0,0.8,0.5,0.8,0.5c0.1,0.3-0.4,0.9-0.4,1.2
			c0,0.2,0.9-0.1,0.5,0.6c-0.1,0.1-0.1,0.2-0.2,0.3c-0.2,0.3-0.7-0.2-1-0.2c-0.1,0-0.1,0.2-0.2,0.2c-0.8,0.1-0.7,0.4-1.2,1.2
			l0.9,0.5c0.4,0.1,1,0.1,1.2,0.1c0.4,0.1,0.7,0.4,1.1,0.4c0.3,0,0.6-0.2,0.8-0.1c0.2,0.1,0.3,0.4,0.6,0.5l0.1-0.2
			c0.5,0,0.9,0.2,1.4,0.2c0.1,0,0.2,0,0.3,0l0,0c0-0.1,0.3-0.2,0.4-0.1c0.2,0.2,0.1,0.5,0.2,0.7s0.4,0.4,0.5,0.6
			c0.1,0.3,0.1,0.6,0.2,0.9c0,0.1-0.2,0.1-0.1,0.2c0.2,0.2,0.7,0.1,0.8,0.3c0.3,0.4,0.1,0.5,0.4,0.9c0.5,0.6,0.6,0.6,1.3,0.7
			c0.2,0,0.5,0.1,0.7,0c0,0,0.1,0,0.1-0.1c-0.1,0.2-0.3,0.4-0.5,0.5c-0.3,0.1-0.6-0.1-0.8,0c-0.1,0-0.2,0.2-0.4,0.2
			c-0.1,0-0.4-0.2-0.4-0.1c0.1,0.5,1.4,2.1,1.9,2.4c0.3,0.2,1.2-0.1,1.4-0.1c0.1,0,0.4,0,0.5-0.1c0-0.1-0.2-1.2,0.3-1.3
			c0.3-0.1,0.7,0,1,0.2c1,0.8-0.5,0.8-0.6,1c-0.1,0.3,0.4,0.5,0.4,0.8c0,0.4-0.7,0.7-0.6,1.1c0.1,0.3,0.4,0.5,0.4,0.8
			c0,0,0,0-0.1,0.1c0,0.1-0.2,0.4-0.3,0.6c-0.2,0.4,0.2,1.1,0.2,1.4s0,0.7,0,1c0,0.1-0.1,0.2,0,0.2c0.1,0-0.1,0.7,0.4,1.3
			c0.2,0.3,1,2.4,1,2.6c0,0.2-0.1,0.7,0,1c0.2,1.2,1.3,2.5,1.6,3.4c0.3,0.9,0.1,2.7,1.6,2.9c1,0.1,0.8-0.7,1.4-1.1
			c0.7-0.5,1.5,0.3,1.5,0.1c-0.1-0.3-0.7-0.2-0.7-0.5c-0.2-1.5,1.1-0.6,1.4-0.9c0.2-0.2-0.2-1.5,0.1-1.8c0.1-0.2,1.2-1.5,0.9-1.8
			c-0.1-0.2-0.3-0.2-0.4-0.4c0-0.1,0.3,0.4,0.3,0.2c0-0.3-0.3-0.6-0.3-1c0-0.2,0.2-0.2,0.3-0.4c0-0.5-0.6-0.9,0.2-1.4
			c0.3-0.2,0.7,0.1,1,0c0.2-0.1,0.2-0.6,0.5-0.7c0.3-0.1,1,0.3,1.3-0.1c0.1-0.2-0.1-0.5,0.1-0.6c0.2-0.2,2.1-1.2,2.5-1.4
			c1-0.6,0.7-1,1.7-1.5c0.1,0,0.4,0,0.3-0.1l0,0c0.2,0,0.5-0.1,0.7-0.2c0.1,0,0.2,0,0.2-0.1c0-0.1-0.2-0.2-0.1-0.3
			c0.1,0,0.2,0.2,0.3,0.2c1.1-0.4,0.5-1.3,0.8-1.7c0.2-0.3,1.4-0.1,1.5-0.8c0-0.2-0.5-0.4-0.3-0.4c2-0.4,0.4,0.6,1,1.1
			c0.1,0,0.1-0.2,0.2-0.2c0.1,0,0.2,0.2,0.3,0.2c0.1-0.1-0.2-0.3-0.1-0.4l0,0c0.5-0.1,0.7,0.6,1.1,0v-0.1c0,0.1,0,0.2,0.1,0.2
			c0.3,0.1,0.8-0.5,0.8-0.7c0-0.3-0.3-0.5-0.3-0.8c0-0.1,0-0.1,0.1-0.2c0.1,0.1,0.2,0.2,0.4,0.3c0.2,0.2,0.7-0.2,0.9-0.1
			c0.5,0.3,0.5,1.6,0.8,2.3c0.1,0.2,0.2,0.3,0.3,0.3c0.1,0-0.2-0.3-0.2-0.4l0,0c0.1,0,0.9,0.8,1,1c0-0.2,0.1-0.4,0.2-0.3
			c0.1,0.1,0.1,0.2,0.1,0.4c0.1,0,0.4,0.1,0.7,0.3c0.1,0-0.2,0.2-0.2,0.2c0.1,0.2,0.6,0.2,0.5,0.4c0,0.1-1.4-0.2-0.4,0.5
			c0.5,0.4,0.4-0.7,0.5-0.5s-0.1,0.4,0,0.7c0.2,0.9,0.7,0.6,0.8,1.5c0.1,0.5-0.9,1.5-0.4,2c0.2,0.2,0.5,0.2,0.8,0.2
			c0.2,0,0.2-0.5,0.4-0.5c0.2,0-0.1,0.4,0.1,0.4s0.1-0.5,0.2-0.4c0.2,0.1-0.2,0.4-0.1,0.5c0.7,0.3,0.4-0.5,0.6-0.6
			C822.8,254.1,823.2,254.2,823.5,254z M829.7,265.5C829.5,265.5,829.5,265.5,829.7,265.5C829.5,265.5,829.5,265.5,829.7,265.5z
			 M829.5,265.5L829.5,265.5L829.5,265.5z M859.5,181.3c0.1,0,0,0.3,0.1,0.5l0,0c0-0.1-0.2,0.1-0.2,0
			C859.2,181.6,859.2,181.3,859.5,181.3z M773,211.5L773,211.5L773,211.5z M773,211.6L773,211.6L773,211.6z M773.4,211.9
			c-0.1-0.1-0.2-0.2-0.2-0.3C773.2,211.7,773.2,211.8,773.4,211.9z M771.8,212.2L771.8,212.2L771.8,212.2z M771.9,212.1L771.9,212.1
			L771.9,212.1L771.9,212.1z M772.2,212.1L772.2,212.1L772.2,212.1z M772.2,212.1L772.2,212.1L772.2,212.1z M773.2,213.1
			C773.2,213.1,773.2,213.1,773.2,213.1C773.2,213.1,773.2,213.1,773.2,213.1z M773.2,213.1C773.2,213,773.2,213,773.2,213.1
			C773.2,213,773.2,213,773.2,213.1z M773.5,212.3L773.5,212.3c-0.4,0.1-0.4,0.3-0.3,0.5C773.2,212.6,773.2,212.4,773.5,212.3v-0.1
			C773.5,212.2,773.7,212.2,773.5,212.3L773.5,212.3z M777,185.7L777,185.7L777,185.7z M776.8,185.8L776.8,185.8L776.8,185.8z
			 M776,186.5L776,186.5L776,186.5z M776,186.5L776,186.5L776,186.5z M775.9,186.6L775.9,186.6L775.9,186.6z M811.5,240.3
			c0,0,0.3,0,0.6,0C811.8,240.2,811.5,240.3,811.5,240.3z M811.8,242C811.8,242,811.8,242,811.8,242C811.8,242,811.8,242,811.8,242z
			 M786.5,212.8c0.2-0.1,0.5,0,0.8,0c0.1,0,0.2,0.1,0.3,0.1c0.4,0,0.5-1.6,1.5,0c0.2,0.3-0.7,0.5-0.7,0.8c0,0.2,0.3,0.4,0.2,0.6
			c0,0.2-0.2,0.4-0.3,0.6c-0.2,0-0.4,0.2-0.6,0.4c-0.5,0.4-1,1-1.5,0.6c-0.1,0,0-0.2,0-0.2c-0.1-0.2-0.4-0.2-0.5-0.4
			c-0.2-0.1-0.5-0.1-0.6-0.3c-0.2-0.4,0.6-1.5,1.1-2C786.2,212.9,786.5,212.8,786.5,212.8z M800.5,216.1L800.5,216.1
			c1.5-0.7,2.3,0.4,3.8,0.4c0.2,0,0.5-0.3,0.7-0.2c0.2,0.1-0.1,0.5-0.3,0.5c-0.9,0.2-2.2-0.8-3.1-0.8c-0.1,0-1.2,0.5-1.3,0.6
			c-0.5,0.5-0.2,1.2-0.3,1.2c-0.3,0-0.5-1.1-0.2-1.5C800,216.2,800.2,216.2,800.5,216.1z M828.2,248.4c0,0,0,0.1-0.1,0.1
			C828,248.5,828.2,248.5,828.2,248.4z M835.7,255.3L835.7,255.3c0.1-0.1,0.1-0.1,0.2-0.1l0.2-0.1l0,0
			C836,255.2,835.8,255.2,835.7,255.3C835.7,255.3,835.7,255.4,835.7,255.3C835.7,255.4,835.7,255.4,835.7,255.3z M826.5,211.9
			L826.5,211.9L826.5,211.9z M826.3,211.9L826.3,211.9L826.3,211.9z M817.8,243.7L817.8,243.7L817.8,243.7L817.8,243.7L817.8,243.7
			c0.1,0,0.1,0,0.1,0s0,0,0.1,0l0,0l0,0l0,0l0,0l0,0C818,243.8,818,243.7,817.8,243.7z M812.8,240.3
			C812.8,240.3,812.8,240.2,812.8,240.3C812.8,240.2,812.8,240.3,812.8,240.3c-0.1,0.3-0.1,0.5-0.1,0.6v0.1l0,0v0.1
			c0,0.1,0,0.1,0,0.2l0,0l0,0l0,0c0,0,0,0,0,0.1l0,0l0,0l0,0l0,0l0,0l0,0l0,0c0,0.1,0,0.2-0.1,0.2c0-0.1,0-0.2,0-0.2
			C812.8,241.2,812.5,241.3,812.8,240.3z M812.8,240.2L812.8,240.2L812.8,240.2z M812.5,214.1C812.5,214,812.5,214,812.5,214.1
			C812.5,214,812.5,214,812.5,214.1z M805.2,222.1L805.2,222.1l-0.1-0.1C805.2,222,805.2,222,805.2,222.1z M795.4,222.9
			c0.1,0,0.3,0,0.4,0h-0.1C795.5,222.9,795.5,223,795.4,222.9z M796,222.9c-0.1,0-0.1,0-0.2,0C795.9,222.9,795.9,222.9,796,222.9z
			 M790.2,225.3L790.2,225.3c-0.2-0.1-0.5-0.3-0.7-0.5C789.7,225.1,790,225.2,790.2,225.3z M791.2,225.8L791.2,225.8
			c0.1,0.2,0.1,0.3,0.2,0.4C791.4,226.1,791.4,225.8,791.2,225.8z M791.5,226.3C791.5,226.2,791.5,226.2,791.5,226.3
			C791.5,226.2,791.5,226.2,791.5,226.3z M795.5,227.5c0.1,0,0.3,0,0.4-0.1c0.4-0.2,0.9-0.6,1.2-0.6c-0.5,0-1.2,0.8-1.8,0.6
			C795.4,227.5,795.4,227.5,795.5,227.5z M798.8,227.3L798.8,227.3L798.8,227.3z M815.2,243.5c0.1,0,0.2,0,0.4,0c-0.2,0-0.4,0-0.5,0
			H815.2z M817.5,243.6L817.5,243.6c0.1,0,0.2,0,0.2,0l0,0l0,0l0,0l0,0C817.8,243.6,817.5,243.6,817.5,243.6L817.5,243.6
			L817.5,243.6z M823.8,239.4c0,0-0.1,0-0.2-0.1C823.7,239.4,823.8,239.4,823.8,239.4C823.8,239.4,823.8,239.4,823.8,239.4z
			 M826.2,210c1.3-0.5,1.6-1.1,2.2-2.2c0.8-1.6,0,0.7,0.8-1.2c0.2-0.4,0.2-1.2,0.3-1.6c0-0.3,0-0.5,0-0.8l0,0
			c0.6,0.3,0.4,0.9,0.5,1.6c0.3,2.2-1,1.9-1.8,3.2c-0.1,0.2,0,0.4-0.1,0.6c-0.2,0.2-1.2,0.5-1.4,0.5S826.2,210.1,826.2,210z
			 M813.7,213.6L813.7,213.6L813.7,213.6z M813.5,213.7L813.5,213.7L813.5,213.7z M813.2,213.9L813.2,213.9L813.2,213.9z M813,214.2
			c0,0.1,0,0.1,0,0.1V214.2L813,214.2z M805.5,208.9c0,0,0,0.1,0,0.2c0,0,0,0,0,0.1C805.5,209.1,805.5,209,805.5,208.9L805.5,208.9z
			 M805.7,209.3L805.7,209.3L805.7,209.3z M805.5,208.9L805.5,208.9L805.5,208.9C805.5,208.8,805.5,208.8,805.5,208.9L805.5,208.9z
			 M805.5,208.8L805.5,208.8L805.5,208.8C805.5,208.8,805.5,208.7,805.5,208.8C805.5,208.7,805.5,208.7,805.5,208.8
			C805.5,208.8,805.5,208.8,805.5,208.8C805.5,208.8,805.5,208.8,805.5,208.8z M805.5,208.7L805.5,208.7
			C805.5,208.7,805.5,208.6,805.5,208.7C805.5,208.6,805.5,208.6,805.5,208.7L805.5,208.7z M805.5,208.6L805.5,208.6L805.5,208.6
			C805.5,208.6,805.4,208.5,805.5,208.6C805.4,208.5,805.4,208.5,805.5,208.6C805.4,208.5,805.4,208.5,805.5,208.6
			C805.4,208.5,805.4,208.5,805.5,208.6L805.5,208.6z M805.4,208.5L805.4,208.5L805.4,208.5L805.4,208.5
			C805.4,208.5,805.4,208.4,805.4,208.5C805.4,208.4,805.4,208.4,805.4,208.5z M805.2,208.3l-0.1-0.1
			C805.2,208.2,805.2,208.3,805.2,208.3z M780.5,185.4c0-0.1,0.1-0.2,0.1-0.3V185l0,0l0,0l0,0l0,0l0,0l0,0l0,0c0.3-0.2,0.7,0,1,0
			l0,0l0,0l0,0l0,0l0,0l0,0l0,0l0,0l0,0l0,0l0,0l0,0c0,0.1,0,0.2,0,0.4c-0.1,0.9-0.7,2.1-1.6,1.2C780,186.6,780.2,185.9,780.5,185.4
			z M790.4,242.2c0.5,0,1,0,1.1,0C791.4,242.3,790.9,242.3,790.4,242.2z M812.5,242L812.5,242L812.5,242
			C812.5,242,812.3,242,812.5,242C812.4,242,812.4,242,812.5,242L812.5,242L812.5,242L812.5,242L812.5,242L812.5,242L812.5,242
			C812.3,242,812.3,242,812.5,242L812.5,242z M815.7,243.5c0.1,0,0.3,0,0.4,0c0.3,0,0.6,0,0.8,0h0.1l0,0c0.1,0,0.2,0,0.3,0
			C816.8,243.5,816.2,243.5,815.7,243.5z"/>
		<path class="st0" d="M790.2,269.3C790.2,269.3,790.2,269.2,790.2,269.3C790.2,269.2,790.2,269.2,790.2,269.3z"/>
		<path class="st0" d="M790.2,269.9L790.2,269.9C790.4,269.9,790.4,269.8,790.2,269.9z"/>
		<path class="st0" d="M790.5,273L790.5,273L790.5,273C790.5,273,790.5,273,790.5,273z"/>
		<path class="st0" d="M790.2,260L790.2,260C790.2,260,790.5,259.9,790.2,260z"/>
		<path class="st0" d="M790,271.6C790.2,271.6,790.2,271.5,790,271.6C790.2,271.5,790.2,271.6,790,271.6z"/>
		<path class="st0" d="M790.5,265.2C790.5,265.2,790.5,265.3,790.5,265.2C790.5,265.3,790.5,265.2,790.5,265.2z"/>
		<path class="st0" d="M790,267.6C789.9,267.6,789.9,267.6,790,267.6C789.9,267.6,790,267.6,790,267.6L790,267.6z"/>
		<path class="st0" d="M790.2,268.2L790.2,268.2C790.2,268.2,790.2,268.3,790.2,268.2C790.2,268.2,790.2,268.2,790.2,268.2z"/>
		<path class="st0" d="M790.5,271.6L790.5,271.6C790.5,271.7,790.5,271.6,790.5,271.6z"/>
		<path class="st0" d="M791.2,265.3C791.2,265.3,791,265.4,791.2,265.3C791.2,265.4,791.2,265.4,791.2,265.3L791.2,265.3z"/>
		<path class="st0" d="M791.2,267.5C791,267.5,791,267.6,791.2,267.5C791,267.6,791.2,267.6,791.2,267.5
			C791.2,267.6,791.2,267.5,791.2,267.5z"/>
		<path class="st0" d="M791.4,268.5C791.2,268.5,791.2,268.5,791.4,268.5C791.5,268.5,791.5,268.4,791.4,268.5z"/>
		<path class="st0" d="M791.4,258.4C791.4,258.4,791.4,258.5,791.4,258.4C791.4,258.5,791.5,258.5,791.4,258.4
			C791.5,258.5,791.5,258.4,791.4,258.4z"/>
		<path class="st0" d="M790.5,269.5C790.5,269.5,790.5,269.6,790.5,269.5C790.5,269.6,790.8,269.5,790.5,269.5z"/>
		<path class="st0" d="M791,269C791,269,791,269.1,791,269C791,269.1,791,269.1,791,269C791.2,269.1,791,269,791,269z"/>
		<path class="st0" d="M792.2,259.4C792.2,259.4,792.2,259.5,792.2,259.4C792.2,259.5,792.4,259.4,792.2,259.4z"/>
		<path class="st0" d="M792.8,249.1C791.9,249.1,792.5,249.2,792.8,249.1L792.8,249.1z"/>
		<path class="st0" d="M790.8,259.6C790.8,259.6,790.9,259.5,790.8,259.6C790.8,259.5,790.8,259.6,790.8,259.6z"/>
		<path class="st0" d="M791,270.1C790.9,270.1,790.9,270.1,791,270.1C790.9,270.1,791,270.2,791,270.1L791,270.1z"/>
		<path class="st0" d="M790.7,264.6C790.7,264.7,790.7,264.7,790.7,264.6C790.7,264.7,790.8,264.7,790.7,264.6
			C790.8,264.7,790.8,264.6,790.7,264.6z"/>
		<path class="st0" d="M790.8,269C790.7,269,790.7,269.1,790.8,269C790.7,269.1,790.9,269,790.8,269z"/>
		<path class="st0" d="M791,258.7C791,258.7,791,258.8,791,258.7C791,258.8,791.2,258.7,791,258.7z"/>
		<path class="st0" d="M791,262.4L791,262.4C791,262.4,791,262.4,791,262.4L791,262.4z"/>
		<path class="st0" d="M791,266C791,266,791,265.9,791,266C791,265.9,791,266,791,266z"/>
		<path class="st0" d="M785.7,239.8c0.1,0,0.4-0.1,0.2-0.2c0,0-0.2-0.1-0.2,0C785.8,239.8,785.5,239.7,785.7,239.8z"/>
		<path class="st0" d="M865.2,209.9c-1.4-1.5-0.2-0.1-1.4-0.7c-0.3-0.2-0.3-0.7-0.7-0.8c-0.1,0-0.2,0.1-0.3,0.2c0,0,0,0-0.1,0.1
			c-0.4-0.3-1.8-0.5-1.4-0.9c0.1-0.1,0.5,0.1,0.6,0c0.2-0.2,0.1-0.6,0.4-0.8c0.4-0.3,1.7-0.1,1.7-0.2c0-0.2-0.2-0.4-0.3-0.6
			c0-0.3-0.1-0.6,0-0.9c0.3-0.7,1.1-0.6,0.9-1.6c0-0.2-0.2,0.4-0.4,0.4c-0.7,0-0.6-0.8-0.9-1.1v0.8c-0.2,0.2-0.5,0.3-0.9,0.4
			c-0.7,0.2-1.8-0.2-2.5-0.4c-0.1,0.9,0.8,0.9,1.1,1.8c0,0.1-0.1,0.3,0,0.4c0.1,0.2,0.4,0.2,0.4,0.4c0,0.4-0.9,1.1-0.7,1.6
			c0.1,0.3,0.5,0.3,0.7,0.5s0.1,0.7,0.4,0.6c0.2,0,0.3-0.1,0.5-0.1c0,0,0,0.1,0,0.2c0,0.2,0.3,0.3,0.3,0.5s-0.2,0.3-0.2,0.5
			c0.1,0.2,0.4,0.2,0.5,0.3c0.1,0.2-0.1,0.4,0,0.5c0.1,0.1,0.3-0.1,0.4,0c0.2,0.1,0.2,0.3,0.3,0.5c0.4,0.9,0.5,2.1,0.3,3.1
			c-0.1,0.4-0.9,2.3-1.3,1.3c-0.1-0.2,0.4-0.5,0.2-0.7c-0.2-0.1-0.5,0.2-0.5,0.4c0,0.3,0.4,0.4,0.4,0.7c0.1,0.3-0.1,0.7-0.1,1
			c0,0.1,0,0.2,0,0.2c0,0.2,0.2,0.5,0.1,0.7c0,0.2-0.2,0.3-0.4,0.3c-0.1,0-0.2-0.4-0.3-0.3c-0.6,0.2-0.9,1-1.5,1.4
			c-0.1,0-0.3-0.1-0.4,0c-0.4,0.4-0.4,1.2-0.6,1.7c-0.1,0.2-0.1,0.5-0.2,0.6c-0.1,0.1-0.4,0.1-0.5,0.2c0,0.2,0,0.6,0.2,0.6l0,0
			c-0.2,0.2-0.2,0.5-0.3,0.6c-0.1,0.1-0.2,0.1-0.3,0.2c-0.2,0.3,0.1,0.2-0.1,0.5c1.5-0.2,1,0.1,1,1.2c0,0.3,0.6,1.1,1,0.9l0,0
			c0,0.1,0.1,0.2,0.2,0.2c0.6-0.3,0.5-1.9,0.1-2.2c0.1-0.6,0.1-0.9,0.1-1.1c0.4,0.1,1,0.2,1.1,0c0.1-0.2-0.2-0.5-0.1-0.7
			c0-0.2,0.1-0.5,0.3-0.6c0.7-0.4,1,1,0.8-0.9c0-0.1-0.2-0.1-0.3-0.2c-0.2,0-0.5-0.2-0.7-0.1c-0.2,0.2-0.1,0.6-0.3,0.8
			s-0.5,0-0.7,0.1c-0.2,0.2,0.1,0.5,0,0.7c-0.1,0.3-0.5,0.5-0.4,0.7c0,0,0,0,0,0.1c-0.2,0.1-0.4,0.4-0.5,0.3
			c-0.1-0.1,0.1-0.5-0.1-0.5c-0.2-0.1-0.4,0.3-0.6,0.3c-0.1,0-0.1-0.2-0.2-0.3c0.2-0.1,0.3-0.4,0.6-0.5c0.2,0,0.4,0.3,0.5,0.2
			c0.1-0.2-0.1-0.6-0.1-0.8c0-0.1,0.2,0.1,0.3,0.1c0.4-0.2,0.9-0.8,1.1-1.2c0.2-0.5,0.6-0.4,1-0.7c0.1-0.1,0.1-0.4,0.2-0.3
			c0.1,0.2,0.1,2.2,1.3,1.2c0.2-0.1-0.1-1,0-1.1c0.1-0.2,0.5-0.2,0.5-0.5c-0.1-0.2-0.5-0.1-0.7-0.3c-0.1-0.2-0.2-0.6,0-0.6
			c0.2-0.1,0.3,0.5,0.5,0.5s0.3-0.3,0.5-0.4c0.2-0.1,0.5-0.1,0.7-0.3c0.2-0.2-0.2-0.7,0.1-0.9c0.2-0.1,0.3,0.7,0.5,0.5
			s-0.3-0.6-0.2-0.9c0.1-0.2,0.5,0,0.5-0.2c0.1-0.2-0.4-0.6-0.1-0.8c0.3-0.2,0.2,1.1,0.5,0.9s0.3-1.4,0.3-1.5
			c-0.1-0.2-0.5-0.2-0.7-0.4c-0.7-1,0.1-0.7-0.3-1.2c-0.2-0.2-0.9-0.9-0.9-1c0.1-0.2,0.4-0.3,0.4-0.5c0-0.2-0.3-0.2-0.4-0.4
			C865.2,210.5,865.8,210.5,865.2,209.9z M860.2,225.1c0.1-0.1,0.2,0.2,0.2,0.5C860.2,225.4,860,225.2,860.2,225.1z"/>
		<path class="st0" d="M858.5,223.7L858.5,223.7c-0.1,0-0.2,0-0.3,0C858,223.8,858.3,223.8,858.5,223.7z"/>
		<path class="st0" d="M785.9,214.8c0.1,0.1,0.2,0.2,0.2,0.1c0.1-0.1,0.3-0.2,0.3-0.3c0-0.2,0.2-0.4,0.2-0.4h-0.2
			c-0.2,0.1-0.3,0.1-0.3,0.2S785.8,214.7,785.9,214.8z"/>
		<path class="st0" d="M842.2,247.5c0.3-0.7-1.8-0.1-2,0c-0.3,0.4-0.9,0.6-1,1c-0.5,1.6,1.2,0.8,1.4,1.1c0,0.1,1-0.5,1.2-1
			c0.1-0.1-0.2-0.3-0.2-0.5C841.8,247.9,842.2,247.7,842.2,247.5z"/>
		<path class="st0" d="M819,177.8c0.3-0.2-0.6-0.2-0.8-0.5c-0.2-0.2,0.1-0.8-0.2-0.7c-0.4,0.1-0.4,1.7-0.4,1.9
			c0.1-0.1,0.3-0.3,0.5-0.4C818.3,178,818.8,178,819,177.8z"/>
		<path class="st0" d="M817.3,177c-0.2-0.2-0.4-0.4-0.6-0.6c-0.1-0.1,0.1-0.4-0.1-0.4c-0.4-0.2-1.1,0.5-1.1,0.8
			C815.7,176.9,817.7,178.4,817.3,177z"/>
		<path class="st0" d="M797.9,185.6L797.9,185.6c0.2,0,0.3,0.1,0.5,0.1C798.5,185.7,798,185.5,797.9,185.6z"/>
		<path class="st0" d="M831.2,176.6c2.6-2.6-1.1-1.5-1.1-1.5c-0.1,0.2,0.6,0.4,0.5,0.6c-0.2,0.2-0.7-0.4-1-0.2c0,0,0,0,0,0.1
			C829.2,176.6,830.5,177.7,831.2,176.6z"/>
		<path class="st0" d="M853.2,196.1c0.2,0.3,0.8,1.3,1.2,1.5c0.3,0.1,0.7,0.1,0.9,0.3s0.2,0.5,0.4,0.7c0.6,0.7,1.3,1.7,2,2.2
			c0.2,0.1,1.8,2.7,2.1,2.5c0.1-0.1-0.4-0.7-0.4-1c0.1-1.2,1,0.1,1.2,0.1s0-0.4-0.2-0.5c-0.2-0.1-0.5-0.1-0.7-0.2
			c-1.3-0.6-1.4-0.8-2-2c0,0-0.2-0.1-0.2-0.2c0.1-0.4-0.2-0.3-0.1-0.4c0.2-0.1,0.4-0.3,0.7-0.3c0.3,0,0.7,0.5,1,0.2
			c0.2-0.2-0.6-0.2-0.9-0.3c-0.4-0.2-0.9-0.5-1.3-0.8c-0.2-0.2-0.5-0.4-0.7-0.5c-0.1-0.1-0.5-0.4-0.4-0.3c0.3,0.6-1.2-0.9-1.2-0.9
			s-0.4-0.1-0.2-0.3c0,0,0,0,0.1,0c-0.1-0.1-0.1-0.2-0.2-0.3c-0.3-0.2-0.7-0.4-1-0.7c-0.1-0.1-0.5-0.6-0.4-0.4
			C853.7,195.9,852.5,195.5,853.2,196.1z"/>
		<path class="st0" d="M864.5,200.4c0,0.9-0.2,0.7,0,1.4c0.1,0.3,0-0.7,0-1c0.1-0.6,0.7-1,0.2-1.3c-0.2,0.2-0.4,0.4-0.5,0.7
			C864.2,200.3,864.5,200.3,864.5,200.4z"/>
		<path class="st0" d="M864.5,193.2c0-0.1,0-0.4,0-0.3C864.5,193,864.5,193.1,864.5,193.2L864.5,193.2z"/>
		<path class="st0" d="M842.7,166.5c-0.3-3.1-1.4-1.1-0.9-0.5C842,166.2,842.3,166.3,842.7,166.5z"/>
		<path class="st0" d="M865,199.1c0.1-0.6,0.3-0.7,0-1.2v0.1C865,198.4,865,198.7,865,199.1z"/>
		<path class="st0" d="M863.5,190c-0.2,0-0.2,0.9,0.3,1.2c0-0.2,0.2-0.4,0.1-0.6C863.8,190.2,863.5,190.1,863.5,190z"/>
		<path class="st0" d="M854.5,195.9c0,0.1,0.1,0.2,0.1,0.3C854.8,196.3,854.7,196,854.5,195.9z"/>
		<path class="st0" d="M799.2,183.5c0,0.1,0.9,0.9,1,0.9s0.1-0.2,0.1-0.2v0.1c0.1,0.1,0.3,0.3,0.4,0.1c0-0.2-0.2-0.5-0.2-0.8
			c0-0.3,0-0.7,0.1-1c0.2-0.8,1.3-0.9,1.3-1.3c0.1,0,0.1,0.1,0.2,0.1c0.2,0.1,0.1-0.4,0.3-0.5c0.1-0.1,0.3,0.2,0.3,0.1
			s-0.3-0.3-0.2-0.4c0.1-0.1,0.3,0.3,0.4,0.2c0.1,0-0.1-0.4,0.1-0.4c0.1,0,0,0.4,0.1,0.3c0.2-0.1,0.2-0.5,0.4-0.6
			c0.4-0.2,0.5,0.6,0.8,0.1c0.1-0.1-0.1-0.2,0-0.3c0.6-0.5,3.9,0.2,3.7-1.2c0-0.4-1.2,0.3-1.6,0.3c-0.3,0-0.6-0.3-0.9-0.3
			c-0.5,0-1.2,0.4-1.7,0.6c-0.4,0.2-0.6-0.2-0.6-0.2c0,0.1,0.1,0.3,0,0.4s-0.3-0.1-0.4,0c0,0.1,0.2,0.2,0.3,0.3
			c-0.2,0.1-0.5,0.4-0.8,0.4c-0.3,0.1-0.6-0.2-0.9-0.1c-0.1,0-0.1,0.2,0,0.3c0.1,0.1,0.6,0,0.5,0.1c-0.3,0.3-1.2,0-0.7,0.3
			c-0.6,0.2-1.8,0.9-2.1,1c0.1,0.3,0.1,0.7,0.4,0.9l0,0c0,0.1,0.2,0.2,0.2,0.3C799.8,183.4,799.2,182.9,799.2,183.5z M800,182.9
			C800,183,800,183,800,182.9L800,182.9z"/>
		<path class="st0" d="M863,190.3C863,190.3,863,190.4,863,190.3C863,190.4,863,190.4,863,190.3C863,190.4,863.2,190.3,863,190.3z"
			/>
		<path class="st0" d="M832.3,177.1c0,0.3-0.1,0.7,0.2,0.8C833.7,178.2,834.2,175.8,832.3,177.1z"/>
		<path class="st0" d="M833.5,173.9c0.1-0.7-1.1,0.6-1.6,0.5C832.3,175.1,833.3,174.9,833.5,173.9z"/>
	</g>
</g>
</svg>
