<svg xmlns="http://www.w3.org/2000/svg" width="18" height="18" viewBox="0 0 18 18">
  <path fill="#172B4D" d="M13.4355852,12.085219 L17.3769078,16.0953162 C17.7640398,16.4892036 17.7585636,17.1223449 17.3646762,17.5094769 C16.9707889,17.8966089 16.3376476,17.8911327 15.9505156,17.4972453 L12.0128538,13.4908729 C10.7571682,14.438259 9.1941849,15 7.5,15 C3.35786438,15 0,11.6421356 0,7.5 C0,3.35786438 3.35786438,0 7.5,0 C11.6421356,0 15,3.35786438 15,7.5 C15,9.2268852 14.4163648,10.8174552 13.4355852,12.085219 Z M7.5,13 C10.5375661,13 13,10.5375661 13,7.5 C13,4.46243388 10.5375661,2 7.5,2 C4.46243388,2 2,4.46243388 2,7.5 C2,10.5375661 4.46243388,13 7.5,13 Z"/>
</svg>
