<?xml version="1.0" encoding="utf-8"?>
<!-- Generator: Adobe Illustrator 23.0.2, SVG Export Plug-In . SVG Version: 6.00 Build 0)  -->
<svg version="1.1" id="Layer_1" xmlns="http://www.w3.org/2000/svg" xmlns:xlink="http://www.w3.org/1999/xlink" x="0px" y="0px"
	 viewBox="0 0 448.4 88.8" style="enable-background:new 0 0 448.4 88.8;" xml:space="preserve">
<title>Bitbucket-blue</title>
<g>
	<path d="M233.6,31.3l-7.9,13.4h6.5L233.6,31.3z M98.7,19.9h-6.4L80.5,47.4c1.8-0.3,7.3-1.1,8.6-1.5c1.6-0.5,2.9-2.1,4.8-6.1
		s4.7-11.3,6.2-15C101.6,21.2,100.3,19.9,98.7,19.9 M348.3,16c3.4,0,5,2.9,1.7,6.3s-37.1,40.2-38.2,41.5s-1.6,2.6,0.4,2.6h20.5
		l-1.8,4.7h-31.7c-3.7,0-5.1-2.6-1.5-6.4c3.6-3.9,37.8-40.7,39.1-42.2c1.3-1.4,0.9-2.1-0.3-2.1h-18.6l1.6-4.4L348.3,16z M280.3,16
		c0,0-18.4,43.8-19.8,46.9c-1.4,3.1,0.4,3.5,2.1,3.5h12l-1.8,4.7h-21.9c-4.1,0-5.5-2.7-3.3-7.9C249.8,58.1,268,16,268,16L280.3,16z
		 M246.4,16l-4.6,55.1h-12.2l2.4-22.4h-10l-14.8,22.4h-11.8c0,0,33.7-49.7,34.9-51.5c1.2-1.8,3.8-3.6,5.5-3.6L246.4,16z M213.9,16.1
		l-23.4,55.1h-12.8l23.9-55.1L213.9,16.1z M313.7,16l-23.4,55.1h-12.8L301.3,16H313.7z M195,16.1l-1.8,3.9h-16.3
		c-4.1,0-4.5,1.8-5.4,3.7c-0.9,1.9-16.1,37.5-17,39.4c-0.9,1.9-0.8,3.4,1.8,3.4h12.8h3.8l-1.5,4.7h-26.3c-4.7,0-5.6-3.1-3.9-7.1
		c1.7-4,17.5-40.7,18.8-43.9s4.7-4.1,8.5-4.1L195,16.1z M156.4,16.1l-1.9,3.8h-14.7c-4.1,0-5.5,1.1-6.9,4.2s-7.4,17.3-7.4,17.3h15.8
		l-2.1,4h-15.3c0,0-5.9,13.5-7.4,16.9c-1.5,3.4-1.1,4.3,1.4,4.3h12.8h3.8l-2,4.7h-25.8c-3.6,0-6-1.8-3.7-7.2
		c2.2-5.5,16.1-37.8,18-42.2c1.9-4.3,4.9-5.7,9.3-5.7L156.4,16.1z M392.6,16l-1.9,3.8H376c-4.1,0-5.5,1.1-6.9,4.2
		s-7.3,17.3-7.3,17.3h15.8l-2.1,4h-15.3c0,0-5.9,13.5-7.4,16.9c-1.5,3.4-1.1,4.3,1.4,4.3H367h3.8l-2,4.7H343c-3.6,0-6-1.8-3.7-7.2
		c2.2-5.5,16.1-37.8,18-42.2c1.9-4.3,4.9-5.7,9.3-5.7L392.6,16z M108.8,16.1c4.5,0,6.6,3.4,4.7,8.4s-4,9.5-7.1,16.6
		s-5.3,7.9-11.2,8.7c-5.9,0.8-16.9,2.3-16.9,2.3l-8.4,19.1H57.8l24.4-55.1L108.8,16.1z M75.8,16.1L73.9,20l-17.7-0.1
		c-2.3,0-3.7,1.5-4.9,3.5c-1.3,2.1-1.7,3.7-2.8,6.3c-1.2,2.6-1.1,5.3,1.1,7.1c2.2,1.8,4.9,4.3,7.2,6.3c4.3,3.7,5.5,5.4,2,13.4
		c-2.7,6.1-1.3,3.4-3.6,8.5c-2.4,5.2-5,6.3-9.1,6.3h-28l2.4-4.7h17.3c3.1,0,4-1.6,5.4-4.3s1.8-3.5,3.5-7.6c1.7-4,2.2-6-0.1-8.2
		c-2.3-2.3-5.4-4.8-8.8-7.9c-3.4-3-3.3-3.9-1.6-8.2c1.8-4.3,2.4-5.8,4.2-9.8c1.7-4,4.9-4.4,8.2-4.4L75.8,16.1z M394.5,66.3h3.1
		c3.1,0,4-1.6,5.1-3.9c1.1-2.3,14.7-33.5,16.2-37.3c1.5-3.9,0.4-4.8-1.9-4.8h-8.1l-19.7,46h3.9H394.5z M374.9,70.9l23.6-55.2h30
		c4.4,0,5.2,4.5,3.9,7.7C431.2,26.7,416.7,60,415,64s-4.2,6.9-8.4,6.9H374.9z"/>
</g>
</svg>
